<svg width="64" height="64" fill="none" xmlns="http://www.w3.org/2000/svg"><path fill-rule="evenodd" clip-rule="evenodd" d="M21.332 4.582a.75.75 0 01.75.75v8a.75.75 0 01-1.5 0v-8a.75.75 0 01.75-.75zm21.336 0a.75.75 0 01.75.75v8a.75.75 0 01-1.5 0v-8a.75.75 0 01.75-.75zM8.582 24.238a.75.75 0 01.75-.75h45.333a.75.75 0 010 1.5H9.332a.75.75 0 01-.75-.75zM47.999 40.75a9.914 9.914 0 00-9.917 9.917c0 1.859.52 3.616 1.435 5.1l.01.015a8.832 8.832 0 001.96 2.327c1.73 1.558 4.006 2.474 6.512 2.474a9.836 9.836 0 008.475-4.806l.006-.01a9.706 9.706 0 001.435-5.1c0-2.5-.94-4.78-2.48-6.546a9.873 9.873 0 00-7.436-3.371zm-11.417 9.917c0-6.308 5.11-11.417 11.417-11.417 3.426 0 6.481 1.514 8.563 3.881l.002.002c1.764 2.021 2.851 4.648 2.851 7.534 0 2.138-.598 4.166-1.655 5.882A11.336 11.336 0 0148 62.083c-2.876 0-5.504-1.053-7.506-2.85a10.336 10.336 0 01-2.258-2.687 11.207 11.207 0 01-1.653-5.88z" fill="#D33218"/><path fill-rule="evenodd" clip-rule="evenodd" d="M52.71 47.545a.75.75 0 01-.04 1.06l-5.68 5.254a.75.75 0 01-1.04-.02l-2.64-2.64a.75.75 0 011.06-1.061l2.13 2.13 5.15-4.764a.75.75 0 011.06.041z" fill="#D33218"/><path fill-rule="evenodd" clip-rule="evenodd" d="M11.716 13.509C9.721 15.657 8.75 18.78 8.75 22.665v22.667c0 3.885.971 7.008 2.966 9.156 1.986 2.139 5.094 3.427 9.617 3.427h17.86a10.437 10.437 0 01-.956-1.37 11.205 11.205 0 01-1.654-5.88c0-6.307 5.11-11.416 11.417-11.416 2.764 0 5.285.985 7.25 2.608V22.665c0-3.885-.971-7.008-2.966-9.156-1.986-2.138-5.094-3.427-9.617-3.427H21.333c-4.523 0-7.631 1.289-9.617 3.427zm-1.099-1.02c2.348-2.529 5.907-3.907 10.716-3.907h21.334c4.81 0 8.368 1.378 10.716 3.906 2.338 2.519 3.367 6.062 3.367 10.177v20.96a.75.75 0 01-1.313.496A9.873 9.873 0 0048 40.749a9.914 9.914 0 00-9.917 9.916c0 1.86.52 3.617 1.435 5.1l.01.016a8.832 8.832 0 001.94 2.31.75.75 0 01-.481 1.324H21.333c-4.81 0-8.368-1.378-10.716-3.906C8.28 52.991 7.25 49.447 7.25 45.332V22.665c0-4.115 1.029-7.658 3.367-10.177z" fill="#D33218"/><path fill-rule="evenodd" clip-rule="evenodd" d="M30.988 36.531a1 1 0 011-1h.024a1 1 0 010 2h-.024a1 1 0 01-1-1zm-9.871 0a1 1 0 011-1h.024a1 1 0 010 2h-.024a1 1 0 01-1-1zm0 8a1 1 0 011-1h.024a1 1 0 010 2h-.024a1 1 0 01-1-1z" fill="#D33218"/></svg>