<svg width="16" height="16" fill="none" xmlns="http://www.w3.org/2000/svg"><path d="M14.5 5.333c0 .274-.227.5-.5.5H2a.504.504 0 01-.5-.5c0-.273.227-.5.5-.5h.68l.253-1.206c.24-1.167.74-2.24 2.727-2.24h4.68c1.987 0 2.487 1.073 2.727 2.24l.253 1.206H14c.273 0 .5.227.5.5zm.29 3.772c-.1-1.1-.393-2.273-2.533-2.273H3.75c-2.14 0-2.426 1.173-2.533 2.273l-.373 4.06a1.82 1.82 0 00.466 1.394 1.87 1.87 0 001.387.606H3.95c1.08 0 1.287-.62 1.42-1.026l.134-.4c.153-.46.193-.574.793-.574H9.71c.6 0 .62.067.794.574l.133.4c.133.406.34 1.026 1.42 1.026h1.253c.527 0 1.034-.22 1.387-.606a1.82 1.82 0 00.467-1.394l-.374-4.06zM6.004 10.5h-2a.504.504 0 01-.5-.5c0-.274.226-.5.5-.5h2c.273 0 .5.226.5.5 0 .273-.227.5-.5.5zm6 0h-2a.504.504 0 01-.5-.5c0-.274.226-.5.5-.5h2c.273 0 .5.226.5.5 0 .273-.227.5-.5.5z" fill="#9FA4B1"/></svg>