<svg width="16" height="16" fill="none" xmlns="http://www.w3.org/2000/svg"><path d="M3 5a3.005 3.005 0 012.958 2.5h4.084A2.995 2.995 0 0113.5 5.042V4.5A2.503 2.503 0 0011 2H5a2.503 2.503 0 00-2.5 2.5v.542C2.665 5.014 2.832 5 3 5z" fill="#9FA4B1"/><path d="M14.996 7.876a2.153 2.153 0 00-.005-.068l-.004-.03a2.38 2.38 0 00-.008-.067l-.004-.027a2.014 2.014 0 00-.014-.075l-.003-.016A2 2 0 0011 8v2.5a.5.5 0 01-1 0v-2H6v2a.5.5 0 01-1 0V8a2 2 0 00-3.958-.407l-.003.016a1.98 1.98 0 00-.026.168l-.004.031a2.012 2.012 0 00-.005.068l-.002.028A2 2 0 002.5 9.937V12.5a1.001 1.001 0 001 1h9a1.001 1.001 0 001-1V9.937a2 2 0 001.498-2.033l-.002-.028z" fill="#9FA4B1"/></svg>