<svg width="14" height="14" fill="none" xmlns="http://www.w3.org/2000/svg"><path d="M7.001 1.168a5.843 5.843 0 00-5.833 5.833 5.843 5.843 0 005.833 5.834A5.843 5.843 0 0012.835 7 5.843 5.843 0 007 1.168zm-.437 3.5A.44.44 0 017 4.23a.44.44 0 01.438.438v2.917A.44.44 0 017 8.022a.44.44 0 01-.437-.437V4.668zm.974 4.888a.602.602 0 01-.123.193.673.673 0 01-.192.122.58.58 0 01-.222.047.58.58 0 01-.221-.047.673.673 0 01-.193-.122.602.602 0 01-.122-.193.58.58 0 01-.047-.221.58.58 0 01.047-.222.691.691 0 01.122-.193.674.674 0 01.193-.122.583.583 0 01.443 0c.07.03.134.07.192.122a.674.674 0 01.123.193.58.58 0 01.047.222.58.58 0 01-.047.221z" fill="#fff"/></svg>