<svg width="16" height="16" fill="none" xmlns="http://www.w3.org/2000/svg"><path d="M12.892 3.785l-4.18-2.253c-.44-.24-.974-.24-1.414 0l-4.18 2.253a.954.954 0 00-.493.853c0 .36.187.687.493.854l4.18 2.253a1.485 1.485 0 001.414 0l4.18-2.253a.954.954 0 00.493-.854.954.954 0 00-.493-.853zM6.61 8.524L2.715 6.577a.955.955 0 00-1.38.854v3.673c0 .633.353 1.207.92 1.493l3.887 1.947a.956.956 0 00.926-.04.942.942 0 00.454-.813v-3.674a1.636 1.636 0 00-.914-1.493zm7.608-1.904a.94.94 0 00-.927-.04L9.404 8.527a1.66 1.66 0 00-.92 1.493v3.673c0 .334.167.64.454.814a.961.961 0 00.926.04l3.887-1.947a1.66 1.66 0 00.92-1.493V7.433a.95.95 0 00-.453-.813z" fill="#9FA4B1"/></svg>