<svg width="15" height="14" fill="none" xmlns="http://www.w3.org/2000/svg"><g clip-path="url(#clip0_1951_10176)" fill="#9FA4B1"><path d="M7.445 1.26c1.87 0 2.092.009 2.828.042.683.03 1.052.144 1.299.24.325.126.56.28.803.522.246.247.397.479.523.804.095.246.21.618.24 1.3.033.737.041.959.041 2.827 0 1.87-.008 2.091-.04 2.827-.03.684-.146 1.053-.241 1.299-.126.325-.28.56-.523.804a2.153 2.153 0 01-.803.522c-.247.096-.618.21-1.3.24-.738.033-.96.042-2.827.042-1.87 0-2.091-.009-2.827-.041-.684-.03-1.053-.145-1.299-.241a2.165 2.165 0 01-.804-.522 2.153 2.153 0 01-.522-.804c-.096-.246-.21-.618-.24-1.3-.033-.737-.042-.959-.042-2.826 0-1.87.009-2.092.041-2.828.03-.683.145-1.053.241-1.299a2.18 2.18 0 01.522-.804c.246-.246.479-.396.804-.522.246-.096.618-.21 1.299-.24.736-.033.957-.041 2.827-.041zm0-1.26c-1.9 0-2.138.008-2.884.041-.744.033-1.256.153-1.699.325-.462.18-.853.419-1.24.81a3.43 3.43 0 00-.81 1.238C.639 2.86.519 3.37.486 4.112.454 4.862.446 5.1.446 7s.008 2.138.04 2.885c.033.744.153 1.255.326 1.698.18.462.418.853.81 1.241.387.389.778.63 1.238.807.445.172.954.292 1.698.325.746.033.984.041 2.885.041 1.9 0 2.138-.008 2.884-.04.744-.034 1.255-.154 1.698-.326a3.43 3.43 0 001.24-.807c.387-.388.628-.78.806-1.239.172-.445.292-.954.325-1.698.033-.746.041-.984.041-2.884s-.008-2.139-.04-2.885c-.034-.744-.154-1.255-.326-1.698a3.28 3.28 0 00-.801-1.244 3.421 3.421 0 00-1.24-.807c-.445-.172-.953-.292-1.697-.325C9.583.008 9.346 0 7.445 0z"/><path d="M7.447 3.406a3.597 3.597 0 000 7.192 3.597 3.597 0 000-7.192zm0 5.928a2.333 2.333 0 11.001-4.665 2.333 2.333 0 010 4.665zm4.576-6.073a.84.84 0 11-1.68 0 .84.84 0 011.68 0z"/></g><defs><clipPath id="clip0_1951_10176"><path fill="#fff" transform="translate(.445)" d="M0 0h14v14H0z"/></clipPath></defs></svg>