<svg width="44" height="44" fill="none" xmlns="http://www.w3.org/2000/svg"><path fill-rule="evenodd" clip-rule="evenodd" d="M25.512 4.335c1.973.666 3.31 2.839 2.871 4.879l-.912 5.839c-.114.816.436 1.34 1.091 1.34h7.334c1.578 0 2.917.636 3.72 1.726.805 1.091 1 2.546.473 4.033l-4.39 13.35c-.33 1.29-1.181 2.382-2.225 3.146-1.05.768-2.349 1.244-3.628 1.244h-6.967a7.93 7.93 0 01-2.085-.303c-.671-.192-1.393-.5-1.892-.98l-5.649-4.373.918-1.186 5.721 4.429.034.033c.233.233.684.464 1.28.634a6.424 6.424 0 001.673.246h6.967c.92 0 1.913-.348 2.742-.955.828-.606 1.44-1.43 1.663-2.326l.007-.027 4.411-13.418.004-.01c.384-1.075.212-2-.265-2.648-.48-.652-1.34-1.116-2.512-1.116h-7.334c-1.543 0-2.825-1.308-2.576-3.056l.002-.01.92-5.89.005-.023c.278-1.248-.576-2.722-1.888-3.159l-.013-.004-.013-.005c-.536-.201-1.178-.179-1.785.03-.611.21-1.103.58-1.361.967l-.002.002-7.516 11.184-1.245-.837L20.605 5.91v-.001c.477-.714 1.267-1.259 2.122-1.553.856-.294 1.859-.364 2.785-.02z" fill="#D33218"/><path fill-rule="evenodd" clip-rule="evenodd" d="M5.743 13.522c-.37.34-.63.954-.63 2.153V33.64c0 1.2.26 1.812.63 2.154.384.354 1.061.58 2.287.58h1.833c1.226 0 1.903-.226 2.287-.58.37-.342.63-.955.63-2.154V15.675c0-1.2-.26-1.812-.63-2.153-.384-.355-1.06-.58-2.287-.58H8.03c-1.226 0-1.903.225-2.287.58zm-1.018-1.103c.808-.745 1.964-.978 3.305-.978h1.833c1.341 0 2.497.233 3.305.978.822.76 1.112 1.888 1.112 3.256V33.64c0 1.368-.29 2.497-1.112 3.256-.808.745-1.964.978-3.305.978H8.03c-1.34 0-2.497-.233-3.305-.978-.822-.76-1.112-1.888-1.112-3.256V15.675c0-1.368.29-2.497 1.112-3.256z" fill="#D33218"/></svg>