<svg width="14" height="14" fill="none" xmlns="http://www.w3.org/2000/svg"><path d="M3.129 7.514c-.358.702.048 1.038.975 1.612.787.487 1.875.665 2.574.736l-2.754 2.649c-.802.768.489 2 1.29 1.249l2.168-2.091c.83.798 1.626 1.563 2.168 2.094.802.755 2.091-.467 1.299-1.25-.06-.056-2.939-2.817-2.763-2.648.708-.071 1.78-.26 2.557-.736.926-.577 1.332-.913.98-1.615-.213-.4-.787-.733-1.551-.156 0 0-1.032.79-2.696.79-1.665 0-2.697-.79-2.697-.79-.763-.58-1.34-.243-1.55.156z" fill="#000"/><path d="M7.374 7.083c2.028 0 3.685-1.586 3.685-3.538C11.06 1.585 9.402 0 7.374 0c-2.03 0-3.686 1.585-3.686 3.545 0 1.952 1.656 3.538 3.686 3.538zm0-5.287c.996 0 1.81.782 1.81 1.75 0 .958-.814 1.74-1.81 1.74-.997 0-1.81-.782-1.81-1.74-.001-.968.812-1.75 1.81-1.75z" fill="#000"/></svg>