<svg width="18" height="18" fill="none" xmlns="http://www.w3.org/2000/svg"><path fill-rule="evenodd" clip-rule="evenodd" d="M11.25 4.875a.75.75 0 01.75-.75h4.5a.75.75 0 010 1.5H12a.75.75 0 01-.75-.75zm-10.5 0a.75.75 0 01.75-.75h3a.75.75 0 010 1.5h-3a.75.75 0 01-.75-.75z" fill="#fff"/><path fill-rule="evenodd" clip-rule="evenodd" d="M7.5 3a1.875 1.875 0 100 3.75A1.875 1.875 0 007.5 3zM4.125 4.875a3.375 3.375 0 116.75 0 3.375 3.375 0 01-6.75 0zm8.625 8.25a.75.75 0 01.75-.75h3a.75.75 0 010 1.5h-3a.75.75 0 01-.75-.75zm-12 0a.75.75 0 01.75-.75H6a.75.75 0 010 1.5H1.5a.75.75 0 01-.75-.75z" fill="#fff"/><path fill-rule="evenodd" clip-rule="evenodd" d="M10.5 11.25a1.875 1.875 0 100 3.75 1.875 1.875 0 000-3.75zm-3.375 1.875a3.375 3.375 0 116.75 0 3.375 3.375 0 01-6.75 0z" fill="#fff"/></svg>