<svg width="16" height="16" fill="none" xmlns="http://www.w3.org/2000/svg"><path d="M12.36 2.748L8.694 1.375c-.38-.14-1-.14-1.38 0L3.647 2.748c-.706.267-1.28 1.093-1.28 1.847v5.4c0 .54.354 1.253.787 1.573l3.667 2.74c.646.486 1.706.486 2.353 0l3.667-2.74c.433-.327.786-1.034.786-1.573v-5.4c.007-.754-.567-1.58-1.267-1.847zM10.32 6.48L7.454 9.348a.494.494 0 01-.707 0l-1.066-1.08a.503.503 0 010-.707.503.503 0 01.706 0l.72.72 2.514-2.513a.503.503 0 01.706 0 .505.505 0 01-.007.713z" fill="#9FA4B1"/></svg>