<svg width="16" height="16" fill="none" xmlns="http://www.w3.org/2000/svg"><path d="M6.672 2.5h.833v3.167c0 .273.227.5.5.5.274 0 .5-.227.5-.5V2.5h.834c.273 0 .5-.227.5-.5s-.227-.5-.5-.5H6.672c-.273 0-.5.227-.5.5s.227.5.5.5zm2.667 10.999h-.834v-3.167c0-.273-.226-.5-.5-.5-.273 0-.5.227-.5.5v3.167h-.833c-.273 0-.5.226-.5.5 0 .273.227.5.5.5h2.667c.273 0 .5-.227.5-.5 0-.274-.227-.5-.5-.5zM1.89 6.586a.49.49 0 00.68-.187l.42-.72 2.746 1.587c.074.047.16.067.247.067a.5.5 0 00.253-.933L3.49 4.812l.413-.72a.498.498 0 00-.86-.5L1.71 5.899a.5.5 0 00.18.687zm12.227 2.825a.492.492 0 00-.68.18l-.42.72-2.746-1.58a.498.498 0 00-.5.86l2.74 1.587-.413.72a.498.498 0 00.426.747.49.49 0 00.434-.253l1.333-2.307a.48.48 0 00-.174-.674zm-1.598-4.597L9.772 6.4a.495.495 0 00-.18.68c.094.16.26.254.434.254.086 0 .173-.02.246-.067l2.74-1.587.42.72c.094.16.26.254.434.254a.495.495 0 00.427-.747L12.958 3.6a.495.495 0 00-.68-.18.495.495 0 00-.18.68l.42.714zM3.49 11.187l2.74-1.586c.24-.14.32-.447.18-.68a.495.495 0 00-.68-.18l-2.74 1.586-.42-.72a.495.495 0 00-.68-.18.495.495 0 00-.18.68l1.333 2.307c.093.16.26.253.433.253a.495.495 0 00.427-.747l-.413-.733z" fill="#9FA4B1"/><path d="M10.338 8.001a2.334 2.334 0 11-4.668 0 2.334 2.334 0 014.668 0z" fill="#9FA4B1"/></svg>