<svg width="19" height="18" fill="none" xmlns="http://www.w3.org/2000/svg"><path d="M10.393 4.047L11.419 6.1c.14.286.514.56.829.612l1.86.31c1.19.198 1.47 1.061.613 1.913l-1.447 1.447c-.245.245-.379.717-.303 1.055l.414 1.791c.327 1.418-.426 1.966-1.68 1.225l-1.744-1.032c-.315-.187-.834-.187-1.155 0l-1.744 1.032c-1.249.741-2.007.187-1.68-1.225l.414-1.79c.076-.339-.058-.811-.303-1.056L4.046 8.935c-.852-.852-.578-1.715.612-1.913l1.861-.31c.31-.052.683-.326.823-.612l1.026-2.053c.56-1.115 1.47-1.115 2.025 0z" fill="#9FA4B1"/></svg>