<svg width="16" height="16" fill="none" xmlns="http://www.w3.org/2000/svg"><path d="M7.995 12.67a4.667 4.667 0 100-9.334 4.667 4.667 0 000 9.333zm.002 2.638c-.366 0-.666-.273-.666-.64v-.053c0-.367.3-.667.666-.667.367 0 .667.3.667.667 0 .366-.3.693-.667.693zm4.76-1.88a.683.683 0 01-.473-.193l-.087-.087a.664.664 0 11.94-.94l.087.087a.664.664 0 01-.467 1.133zm-9.52 0a.664.664 0 01-.473-1.133l.087-.087a.664.664 0 11.94.94l-.087.087a.667.667 0 01-.467.193zm11.427-4.76h-.053a.669.669 0 01-.667-.667c0-.366.3-.666.667-.666.366 0 .693.3.693.666 0 .367-.273.667-.64.667zm-13.28 0h-.053a.669.669 0 01-.667-.667c0-.366.3-.666.667-.666.366 0 .693.3.693.666 0 .367-.273.667-.64.667zm11.287-4.673a.664.664 0 01-.473-1.133l.086-.087a.664.664 0 11.94.94l-.087.086a.656.656 0 01-.466.194zm-9.347 0a.683.683 0 01-.473-.194l-.087-.093a.664.664 0 11.94-.94l.087.087c.26.26.26.68 0 .94-.127.133-.3.2-.467.2zm4.673-1.967c-.366 0-.666-.273-.666-.64v-.053c0-.367.3-.667.666-.667.367 0 .667.3.667.667 0 .366-.3.693-.667.693z" fill="#9FA4B1"/></svg>