<svg width="15" height="14" fill="none" xmlns="http://www.w3.org/2000/svg"><g clip-path="url(#clip0_1951_10181)"><path fill-rule="evenodd" clip-rule="evenodd" d="M14.383 7a7 7 0 11-14 0 7 7 0 0114 0zm-6.75-1.832c-.68.283-2.041.869-4.082 1.758-.331.132-.505.26-.52.387-.027.213.24.297.603.411l.153.049c.357.116.838.252 1.088.257.227.005.48-.088.76-.28 1.906-1.287 2.89-1.938 2.952-1.952.044-.01.104-.022.145.014.04.037.037.106.032.124-.026.113-1.073 1.086-1.615 1.59a19.14 19.14 0 00-.313.294 6.15 6.15 0 01-.165.163c-.332.32-.581.56.014.952.286.188.514.344.743.5.249.17.497.338.819.55.082.053.16.109.236.163.29.207.551.393.873.363.187-.017.38-.193.478-.718.232-1.24.688-3.926.793-5.032a1.238 1.238 0 00-.011-.276.295.295 0 00-.1-.19.46.46 0 00-.271-.08c-.263.004-.667.144-2.611.953z" fill="#9FA4B1"/></g><defs><clipPath id="clip0_1951_10181"><path fill="#fff" transform="translate(.383)" d="M0 0h14v14H0z"/></clipPath></defs></svg>