<svg width="64" height="64" fill="none" xmlns="http://www.w3.org/2000/svg"><path fill-rule="evenodd" clip-rule="evenodd" d="M32.234 23.68a.75.75 0 01.75-.75h14a.75.75 0 010 1.5h-14a.75.75 0 01-.75-.75zm-6.692-4.53a.75.75 0 010 1.06l-6 6a.75.75 0 01-1.06 0l-2-2a.75.75 0 111.06-1.06l1.47 1.469 5.47-5.47a.75.75 0 011.06 0zm6.692 23.194a.75.75 0 01.75-.75h14a.75.75 0 110 1.5h-14a.75.75 0 01-.75-.75zm-6.692-4.531a.75.75 0 010 1.061l-6 6a.75.75 0 01-1.06 0l-2-2a.75.75 0 011.06-1.06l1.47 1.47 5.47-5.47a.75.75 0 011.06 0z" fill="#D33218"/><path fill-rule="evenodd" clip-rule="evenodd" d="M9.135 9.135c3.21-3.21 8.123-4.553 14.864-4.553h16c6.74 0 11.654 1.344 14.863 4.553 3.21 3.21 4.553 8.123 4.553 14.864v16c0 6.74-1.343 11.654-4.553 14.863-3.21 3.21-8.123 4.553-14.863 4.553h-16c-6.74 0-11.654-1.343-14.864-4.553C5.925 51.652 4.582 46.74 4.582 40V24c0-6.74 1.344-11.654 4.553-14.864zm1.06 1.06C7.406 12.987 6.083 17.407 6.083 24v16c0 6.592 1.323 11.012 4.114 13.803 2.79 2.79 7.21 4.113 13.803 4.113h16c6.592 0 11.012-1.323 13.803-4.113 2.79-2.79 4.113-7.21 4.113-13.803V24c0-6.593-1.323-11.013-4.113-13.803-2.79-2.79-7.21-4.114-13.803-4.114H24c-6.593 0-11.013 1.323-13.803 4.114z" fill="#D33218"/></svg>