<svg width="15" height="14" fill="none" xmlns="http://www.w3.org/2000/svg"><g clip-path="url(#clip0_1950_9202)"><path d="M13.4.983C12.414 0 10.83 0 7.674 0h-.583c-3.156 0-4.74 0-5.725.983-.986.983-.983 2.57-.983 5.725v.584c0 3.155 0 4.74.983 5.725.983.986 2.57.983 5.725.983h.583c3.168 0 4.752 0 5.738-.983.985-.983.97-2.57.97-5.725v-.584c0-3.155 0-4.74-.982-5.725zm-2.972 9.103a2.879 2.879 0 00-2.415-2.083v2.083h-.181c-3.19 0-5.01-2.188-5.087-5.833h1.599c.052 2.671 1.23 3.791 2.164 4.036V4.26h1.505v2.303c.921-.099 1.89-1.149 2.216-2.304h1.506a4.445 4.445 0 01-2.042 2.917 4.606 4.606 0 012.397 2.917l-1.662-.006z" fill="#9FA4B1"/></g><defs><clipPath id="clip0_1950_9202"><path fill="#fff" transform="translate(.383)" d="M0 0h14v14H0z"/></clipPath></defs></svg>