<svg width="15" height="14" fill="none" xmlns="http://www.w3.org/2000/svg"><path d="M.445 14l.437-1.595c.172-.63.346-1.261.513-1.893a.302.302 0 00-.023-.203C.7 9.09.408 7.781.525 6.4.692 4.418 1.563 2.793 3.1 1.532A6.654 6.654 0 016.057.14c3.247-.646 6.37 1.015 7.707 3.936.5 1.092.69 2.24.596 3.432-.233 2.998-2.45 5.549-5.385 6.204-1.655.368-3.237.152-4.748-.614a.334.334 0 00-.216-.022c-1.13.292-2.258.588-3.387.883L.445 14zm1.676-1.657l.167-.04c.614-.161 1.227-.318 1.84-.486a.385.385 0 01.327.05c1.337.792 2.767 1.027 4.285.685 3.243-.73 5.207-4.149 4.207-7.317C12.037 2.349 9.155.677 6.19 1.32a5.757 5.757 0 00-4.504 5.374c-.05 1.116.195 2.174.78 3.13.184.302.217.555.108.883-.174.532-.301 1.079-.453 1.636z" fill="#9FA4B1"/><path d="M3.902 5.379c.01-.58.237-1.057.646-1.454a.629.629 0 01.458-.19c.098 0 .196.014.293.004.204-.02.321.08.393.255.192.46.39.918.57 1.384a.385.385 0 01-.036.298 5.907 5.907 0 01-.43.584c-.094.115-.101.218-.026.344.566.95 1.352 1.641 2.384 2.049.14.055.254.033.35-.088.171-.217.35-.428.518-.648.096-.128.209-.176.352-.11.497.234.99.468 1.48.713.051.026.099.113.1.173.02.516-.13.948-.589 1.248-.572.374-1.173.407-1.811.228-1.638-.46-2.855-1.485-3.832-2.837-.321-.447-.617-.907-.743-1.453-.039-.163-.052-.333-.077-.5z" fill="#9FA4B1"/></svg>