<svg width="204" height="204" fill="none" xmlns="http://www.w3.org/2000/svg"><path d="M101.999 203.999c56.333 0 102-45.667 102-102C203.999 45.667 158.332 0 101.999 0 45.667 0 0 45.667 0 101.999c0 56.333 45.667 102 101.999 102z" fill="#F0F0F0"/><path d="M137.476 101.998c0 8.869-15.884 31.043-35.478 31.043s-35.479-22.174-35.479-31.043c0-19.595 15.885-35.479 35.479-35.479s35.478 15.884 35.478 35.479z" fill="#D80027"/><path d="M137.476 102c0 19.594-15.884 35.478-35.478 35.478S66.519 121.594 66.519 102" fill="#0052B4"/><path d="M139.602 133.359l9.406-9.406 6.271 6.271-9.406 9.406-6.271-6.271zm-15.68 15.676l9.406-9.406 6.271 6.271-9.406 9.406-6.271-6.271zm34.492 3.137l9.406-9.406 6.271 6.271-9.406 9.406-6.271-6.271zm-15.68 15.68l9.407-9.407 6.271 6.271-9.407 9.407-6.271-6.271zm6.274-25.086l9.406-9.407 6.271 6.271-9.406 9.407-6.271-6.271zm-15.676 15.675l9.406-9.406 6.271 6.271-9.406 9.406-6.271-6.271zm25.125-87.785l-25.083-25.083 6.271-6.27 25.083 25.082-6.271 6.271zm-25.09-6.269l-9.406-9.407 6.271-6.27 9.406 9.406-6.271 6.27zm15.68 15.683l-9.406-9.406 6.27-6.27 9.407 9.406-6.271 6.27zm3.133-34.496l-9.407-9.406 6.271-6.271 9.407 9.406-6.271 6.271zm15.683 15.68l-9.406-9.407 6.271-6.27 9.406 9.406-6.271 6.27zM36.16 142.746l25.083 25.083-6.27 6.271-25.084-25.083 6.271-6.271zm25.082 6.266l9.407 9.406-6.271 6.271-9.407-9.407 6.271-6.27zM45.563 133.34l9.406 9.406-6.271 6.271-9.407-9.406 6.272-6.271zm9.406-9.41l25.083 25.083-6.271 6.271-25.083-25.083 6.27-6.271zm6.269-87.782L36.155 61.232l-6.27-6.271 25.082-25.083 6.271 6.27zm9.406 9.402L45.561 70.635l-6.27-6.27L64.374 39.28l6.27 6.27zm9.419 9.415L54.978 80.048l-6.27-6.27 25.083-25.084 6.27 6.27z" fill="#000"/></svg>