<svg width="287" height="180" fill="none" xmlns="http://www.w3.org/2000/svg"><mask id="a" style="mask-type:alpha" maskUnits="userSpaceOnUse" x="0" y="0" width="287" height="180"><path d="M0 0h231c30.928 0 56 25.072 56 56v68c0 30.928-25.072 56-56 56H0V0z" fill="#D9D9D9"/></mask><g mask="url(#a)"><path d="M152.507 218c49.705 0 90-40.294 90-90s-40.295-90-90-90c-49.706 0-90 40.294-90 90s40.294 90 90 90z" fill="#F0F0F0"/><path d="M183.811 128c0 7.826-14.015 27.392-31.304 27.392-17.289 0-31.305-19.566-31.305-27.392 0-17.289 14.016-31.304 31.305-31.304S183.811 110.71 183.811 128z" fill="#D80027"/><path d="M183.811 128c0 17.289-14.015 31.304-31.304 31.304-17.289 0-31.305-14.015-31.305-31.304" fill="#0052B4"/><path d="M185.685 155.67l8.3-8.3 5.534 5.533-8.301 8.301-5.533-5.534zm-13.836 13.833l8.3-8.3 5.534 5.533-8.301 8.301-5.533-5.534zm30.437 2.765l8.301-8.3 5.533 5.533-8.3 8.301-5.534-5.534zm-13.838 13.836l8.301-8.301 5.533 5.534-8.3 8.3-5.534-5.533zm5.536-22.134l8.301-8.3 5.534 5.533-8.301 8.301-5.534-5.534zm-13.833 13.833l8.301-8.301 5.534 5.534-8.301 8.3-5.534-5.533zm22.171-77.459L180.19 78.211l5.533-5.533 22.132 22.133-5.533 5.533zm-22.137-5.53l-8.301-8.301 5.534-5.533 8.3 8.3-5.533 5.534zm13.834 13.835l-8.301-8.3 5.534-5.534 8.3 8.301-5.533 5.533zm2.764-30.438l-8.3-8.3 5.533-5.534 8.301 8.3-5.534 5.534zm13.84 13.839l-8.3-8.301 5.533-5.534 8.301 8.3-5.534 5.534zm-116.21 71.904l22.133 22.133-5.534 5.533-22.132-22.132 5.533-5.534zm22.13 5.529l8.3 8.3-5.533 5.534-8.3-8.301 5.533-5.533zm-13.834-13.83l8.3 8.301-5.533 5.533-8.3-8.3 5.533-5.534zm8.301-8.302l22.132 22.133-5.533 5.533-22.132-22.132 5.533-5.534zm5.531-77.456L94.408 92.028l-5.533-5.534 22.133-22.132 5.533 5.533zm8.301 8.298l-22.133 22.133-5.533-5.533 22.133-22.133 5.533 5.533zm8.306 8.305l-22.132 22.133-5.533-5.533 22.132-22.133 5.533 5.533z" fill="#000"/></g></svg>