<svg width="312" height="313" fill="none" xmlns="http://www.w3.org/2000/svg"><path d="M312 156.852c0 86.156-69.844 156-156 156s-156-69.844-156-156c0-86.157 69.844-156 156-156s156 69.843 156 156z" fill="#F3F4F6"/><mask id="a" style="mask-type:alpha" maskUnits="userSpaceOnUse" x="0" y="0" width="312" height="313"><path d="M312 156.852c0 86.156-69.844 156-156 156s-156-69.844-156-156c0-86.157 69.844-156 156-156s156 69.843 156 156z" fill="#D33218"/></mask><g mask="url(#a)" fill="#fff"><path d="M92.139 172.14v29.354H66.82v32.689H31.73v-32.689H-52v-24.239L21.291 78.52h37.756l-67.96 93.62H32.84v-29.131h33.98v29.131h25.32zm77.389 64.712c-38.2 0-66.628-29.132-66.628-80.5 0-51.369 28.428-80.5 66.628-80.5 38.423 0 66.629 29.131 66.629 80.5 0 51.368-28.206 80.5-66.629 80.5zm0-30.466c17.99 0 30.427-14.677 30.427-50.034 0-35.358-12.437-50.035-30.427-50.035-17.767 0-30.204 14.677-30.204 50.035 0 35.357 12.437 50.034 30.204 50.034zM396 172.14v29.354h-25.319v32.689h-35.09v-32.689h-83.73v-24.239l73.291-98.735h37.756l-67.961 93.62h41.754v-29.131h33.98v29.131H396z"/></g></svg>