<svg width="236" height="30" fill="none" xmlns="http://www.w3.org/2000/svg"><mask id="a" style="mask-type:alpha" maskUnits="userSpaceOnUse" x="0" y="0" width="236" height="30"><path fill="#D9D9D9" d="M0 0h236v30H0z"/></mask><g mask="url(#a)"><path d="M45 6.48h15.62v17.28h-4.64V10.7h-6.34v13.06H45V6.48zM74.53 6c2.6 0 4.76.86 6.46 2.59 1.73 1.73 2.59 3.9 2.59 6.53 0 2.63-.86 4.81-2.59 6.56-1.73 1.73-3.88 2.59-6.46 2.59-1.77 0-3.36-.48-4.77-1.44V30h-4.67V6.48h3.1l.8 1.57C70.53 6.68 72.37 6 74.53 6zm-3.77 12.51c.9.9 2.02 1.34 3.36 1.34 1.34 0 2.5-.45 3.39-1.34.9-.9 1.34-2.03 1.34-3.39 0-.9-.2-1.71-.61-2.43-.41-.73-.97-1.29-1.7-1.7-.7-.41-1.5-.61-2.4-.61-.9 0-1.71.2-2.43.61-.73.41-1.29.97-1.7 1.7-.38.73-.58 1.54-.58 2.43 0 1.37.44 2.5 1.31 3.39h.02zM99.478 6.48h2.62v17.28h-4.51v-9.15l-8.03 9.15h-2.66V6.48h4.51v9.06l8.07-9.06zm18.512 0v4.13h-6.82v13.15h-4.58V6.48h11.4zm10.639 17.762c-1.77 0-3.37-.39-4.8-1.18a8.703 8.703 0 01-3.36-3.26c-.79-1.41-1.18-2.97-1.18-4.67 0-2.62.89-4.8 2.66-6.53 1.77-1.73 4-2.59 6.69-2.59 2.69 0 4.89.86 6.66 2.59 1.77 1.73 2.66 3.9 2.66 6.53 0 2.63-.9 4.78-2.69 6.53-1.77 1.73-3.98 2.59-6.62 2.59l-.02-.01zm0-4.38c1.34 0 2.44-.44 3.3-1.31.85-.9 1.28-2.04 1.28-3.42s-.43-2.52-1.28-3.39c-.85-.9-1.96-1.34-3.33-1.34s-2.44.45-3.3 1.34c-.85.87-1.28 2.01-1.28 3.39 0 .68.11 1.32.32 1.92.23.6.55 1.1.96 1.5.41.41.89.73 1.44.96.58.23 1.21.35 1.89.35zM152.26 6.48h4.67v17.28h-4.67v-6.62h-6.27v6.62h-4.67V6.48h4.67v6.4h6.27v-6.4z" fill="#000"/><path d="M175.519 6.45h3.49v17.28h-3.68l-.38-1.54c-1.58 1.37-3.44 2.05-5.6 2.05-2.6 0-4.77-.86-6.5-2.59-1.71-1.75-2.56-3.94-2.56-6.56 0-2.62.85-4.77 2.56-6.5 1.73-1.73 3.89-2.59 6.5-2.59 2.2 0 4.09.7 5.66 2.11l.51-1.66zm-9.19 12.03c.9.9 2.02 1.34 3.36 1.34 1.34 0 2.5-.45 3.39-1.34.9-.9 1.34-2.03 1.34-3.39 0-1.36-.45-2.5-1.34-3.39-.89-.89-2.02-1.34-3.36-1.34-.9 0-1.71.21-2.43.64-.7.41-1.26.97-1.66 1.7-.4.7-.61 1.5-.61 2.4 0 1.37.44 2.5 1.31 3.39v-.01zm29.591-3.9c.79.36 1.4.9 1.82 1.6.45.68.67 1.48.67 2.4 0 1.47-.52 2.71-1.57 3.71-1.02.98-2.32 1.47-3.9 1.47h-9.44V6.48h9.34c1.47 0 2.68.42 3.62 1.25.96.81 1.44 1.86 1.44 3.14 0 .77-.18 1.48-.54 2.14-.34.64-.82 1.16-1.44 1.57zm-2.6-2.95c0-.34-.08-.63-.22-.86-.15-.26-.36-.45-.64-.58-.26-.15-.56-.22-.9-.22h-3.49v3.33h3.49c.51 0 .93-.16 1.25-.48.34-.32.51-.71.51-1.18v-.01zm-1.53 8.42c.58 0 1.04-.15 1.38-.45.34-.32.51-.75.51-1.28s-.17-.99-.51-1.31c-.34-.32-.8-.48-1.38-.48h-3.71v3.52h3.71zm24.011-13.57v4.19h-5.63v13.09h-4.58V10.67h-5.63V6.48h15.84zm10.668 17.762c-1.77 0-3.37-.39-4.8-1.18a8.703 8.703 0 01-3.36-3.26c-.79-1.41-1.18-2.97-1.18-4.67 0-2.62.88-4.8 2.66-6.53 1.77-1.73 4-2.59 6.69-2.59 2.69 0 4.88.86 6.66 2.59 1.77 1.73 2.66 3.9 2.66 6.53 0 2.63-.9 4.78-2.69 6.53-1.77 1.73-3.98 2.59-6.62 2.59l-.02-.01zm0-4.38c1.34 0 2.44-.44 3.3-1.31.85-.9 1.28-2.04 1.28-3.42s-.43-2.52-1.28-3.39c-.85-.9-1.96-1.34-3.33-1.34s-2.44.45-3.3 1.34c-.85.87-1.28 2.01-1.28 3.39 0 .68.11 1.32.32 1.92.24.6.55 1.1.96 1.5.41.4.89.73 1.44.96.58.23 1.21.35 1.89.35zM32.445 14.165l-6.891-9.823A10.196 10.196 0 0017.206 0H2.142C.411 0-.603 1.949.392 3.366L6.797 12.5h6.674l-2.537-7.01C15.303 9.297 22.35 12.893 28.03 15c-5.68 2.107-12.727 5.703-17.095 9.511l2.537-7.01H6.798L.391 26.633C-.603 28.05.411 30 2.142 30h15.064c3.324 0 6.44-1.62 8.348-4.341l6.891-9.824a1.453 1.453 0 000-1.67z" fill="#D33218"/></g></svg>