<?xml version="1.0" encoding="utf-8"?><svg xmlns="http://www.w3.org/2000/svg" xmlns:xlink="http://www.w3.org/1999/xlink"><symbol viewBox="0 0 14 14" id="arrow-down" xmlns="http://www.w3.org/2000/svg"><path fill-rule="evenodd" clip-rule="evenodd" d="M1.849 4.692a.75.75 0 0 1 1.06 0l3.804 3.804a.408.408 0 0 0 .572 0l3.804-3.804a.75.75 0 1 1 1.06 1.061L8.346 9.556a1.908 1.908 0 0 1-2.694 0L1.849 5.753a.75.75 0 0 1 0-1.06Z"/></symbol><symbol viewBox="0 0 24 24" id="arrow-down-2" xmlns="http://www.w3.org/2000/svg"><path fill-rule="evenodd" clip-rule="evenodd" d="M3.548 8.419a.75.75 0 0 1 1.06 0l6.52 6.52a1.236 1.236 0 0 0 1.74 0l6.52-6.52a.75.75 0 0 1 1.06 1.06L13.928 16a2.736 2.736 0 0 1-3.86 0l-6.52-6.52a.75.75 0 0 1 0-1.06Z"/></symbol><symbol viewBox="0 0 14 14" id="arrow-left" xmlns="http://www.w3.org/2000/svg"><path fill-rule="evenodd" clip-rule="evenodd" d="M9.28 1.849a.75.75 0 0 1 0 1.06L5.477 6.713a.408.408 0 0 0 0 .572L9.28 11.09a.75.75 0 1 1-1.06 1.06L4.415 8.346a1.908 1.908 0 0 1 0-2.694l3.803-3.803a.75.75 0 0 1 1.06 0Z"/></symbol><symbol viewBox="0 0 24 24" id="arrow-left-2" xmlns="http://www.w3.org/2000/svg"><path fill-rule="evenodd" clip-rule="evenodd" d="M15.534 3.548a.75.75 0 0 1 0 1.06l-6.52 6.52a1.236 1.236 0 0 0 0 1.74l6.52 6.52a.75.75 0 0 1-1.06 1.06l-6.52-6.52a2.736 2.736 0 0 1 0-3.86l6.52-6.52a.75.75 0 0 1 1.06 0Z"/></symbol><symbol viewBox="0 0 18 18" id="arrow-long-left" xmlns="http://www.w3.org/2000/svg"><path fill-rule="evenodd" clip-rule="evenodd" d="M7.708 3.919a.75.75 0 0 1 0 1.06L3.686 9.003l4.022 4.022a.75.75 0 1 1-1.06 1.06L2.094 9.533a.75.75 0 0 1 0-1.06L6.646 3.92a.75.75 0 0 1 1.06 0Z"/><path fill-rule="evenodd" clip-rule="evenodd" d="M2.004 9a.75.75 0 0 1 .75-.75h12.622a.75.75 0 0 1 0 1.5H2.754a.75.75 0 0 1-.75-.75Z"/></symbol><symbol viewBox="0 0 14 14" id="arrow-right" xmlns="http://www.w3.org/2000/svg"><path fill-rule="evenodd" clip-rule="evenodd" d="M4.669 1.849a.75.75 0 0 1 1.06 0l3.804 3.803a1.908 1.908 0 0 1 0 2.694L5.73 12.149a.75.75 0 0 1-1.061-1.06l3.803-3.804a.408.408 0 0 0 0-.572L4.67 2.909a.75.75 0 0 1 0-1.06Z"/></symbol><symbol viewBox="0 0 24 24" id="arrow-right-2" xmlns="http://www.w3.org/2000/svg"><path fill-rule="evenodd" clip-rule="evenodd" d="M8.376 3.548a.75.75 0 0 1 1.06 0l6.52 6.52a2.736 2.736 0 0 1 0 3.86l-6.52 6.52a.75.75 0 0 1-1.06-1.06l6.52-6.52a1.236 1.236 0 0 0 0-1.74l-6.52-6.52a.75.75 0 0 1 0-1.06Z"/></symbol><symbol viewBox="0 0 10 10" id="arrow-right-bc" xmlns="http://www.w3.org/2000/svg"><path d="m3.71 8.3 2.718-2.717a.827.827 0 0 0 0-1.167L3.71 1.699"/></symbol><symbol viewBox="0 0 14 14" id="arrow-up" xmlns="http://www.w3.org/2000/svg"><path fill-rule="evenodd" clip-rule="evenodd" d="M12.151 9.28a.75.75 0 0 1-1.06 0L7.287 5.477a.408.408 0 0 0-.572 0L2.91 9.28a.75.75 0 1 1-1.06-1.06l3.803-3.804a1.908 1.908 0 0 1 2.694 0l3.803 3.803a.75.75 0 0 1 0 1.06Z"/></symbol><symbol viewBox="0 0 19 18" id="arrow-up-right" xmlns="http://www.w3.org/2000/svg"><path fill-rule="evenodd" clip-rule="evenodd" d="M14.476 3.97a.75.75 0 0 1 0 1.06l-9 9a.75.75 0 0 1-1.061-1.06l9-9a.75.75 0 0 1 1.06 0Z"/><path fill-rule="evenodd" clip-rule="evenodd" d="M5.883 4.5a.75.75 0 0 1 .75-.75h7.312a.75.75 0 0 1 .75.75v7.313a.75.75 0 0 1-1.5 0V5.25H6.633a.75.75 0 0 1-.75-.75Z"/></symbol><symbol viewBox="0 0 64 64" id="calendar" xmlns="http://www.w3.org/2000/svg"><path fill-rule="evenodd" clip-rule="evenodd" d="M21.332 4.582a.75.75 0 0 1 .75.75v8a.75.75 0 0 1-1.5 0v-8a.75.75 0 0 1 .75-.75Zm21.336 0a.75.75 0 0 1 .75.75v8a.75.75 0 0 1-1.5 0v-8a.75.75 0 0 1 .75-.75ZM8.582 24.238a.75.75 0 0 1 .75-.75h45.333a.75.75 0 0 1 0 1.5H9.332a.75.75 0 0 1-.75-.75ZM47.999 40.75a9.914 9.914 0 0 0-9.917 9.917c0 1.859.52 3.616 1.435 5.1l.01.015a8.832 8.832 0 0 0 1.96 2.327c1.73 1.558 4.006 2.474 6.512 2.474a9.836 9.836 0 0 0 8.475-4.806l.006-.01a9.706 9.706 0 0 0 1.435-5.1c0-2.5-.94-4.78-2.48-6.546a9.873 9.873 0 0 0-7.436-3.371Zm-11.417 9.917c0-6.308 5.11-11.417 11.417-11.417 3.426 0 6.481 1.514 8.563 3.881l.002.002c1.764 2.021 2.851 4.648 2.851 7.534 0 2.138-.598 4.166-1.655 5.882A11.336 11.336 0 0 1 48 62.083c-2.876 0-5.504-1.053-7.506-2.85a10.336 10.336 0 0 1-2.258-2.687 11.207 11.207 0 0 1-1.653-5.88Z"/><path fill-rule="evenodd" clip-rule="evenodd" d="M52.71 47.545a.75.75 0 0 1-.04 1.06l-5.68 5.254a.75.75 0 0 1-1.04-.02l-2.64-2.64a.75.75 0 0 1 1.06-1.061l2.13 2.13 5.15-4.764a.75.75 0 0 1 1.06.041Z"/><path fill-rule="evenodd" clip-rule="evenodd" d="M11.716 13.509C9.721 15.657 8.75 18.78 8.75 22.665v22.667c0 3.885.971 7.008 2.966 9.156 1.986 2.139 5.094 3.427 9.617 3.427h17.86a10.437 10.437 0 0 1-.956-1.37 11.205 11.205 0 0 1-1.654-5.88c0-6.307 5.11-11.416 11.417-11.416 2.764 0 5.285.985 7.25 2.608V22.665c0-3.885-.971-7.008-2.966-9.156-1.986-2.138-5.094-3.427-9.617-3.427H21.333c-4.523 0-7.631 1.289-9.617 3.427Zm-1.099-1.02c2.348-2.529 5.907-3.907 10.716-3.907h21.334c4.81 0 8.368 1.378 10.716 3.906 2.338 2.519 3.367 6.062 3.367 10.177v20.96a.75.75 0 0 1-1.313.496A9.873 9.873 0 0 0 48 40.749a9.914 9.914 0 0 0-9.917 9.916c0 1.86.52 3.617 1.435 5.1l.01.016a8.832 8.832 0 0 0 1.94 2.31.75.75 0 0 1-.481 1.324H21.333c-4.81 0-8.368-1.378-10.716-3.906C8.28 52.991 7.25 49.447 7.25 45.332V22.665c0-4.115 1.029-7.658 3.367-10.177Z"/><path fill-rule="evenodd" clip-rule="evenodd" d="M30.988 36.531a1 1 0 0 1 1-1h.024a1 1 0 0 1 0 2h-.024a1 1 0 0 1-1-1Zm-9.871 0a1 1 0 0 1 1-1h.024a1 1 0 0 1 0 2h-.024a1 1 0 0 1-1-1Zm0 8a1 1 0 0 1 1-1h.024a1 1 0 0 1 0 2h-.024a1 1 0 0 1-1-1Z"/></symbol><symbol viewBox="0 0 16 16" id="car" xmlns="http://www.w3.org/2000/svg"><path d="M14.5 5.333c0 .274-.227.5-.5.5H2a.504.504 0 0 1-.5-.5c0-.273.227-.5.5-.5h.68l.253-1.206c.24-1.167.74-2.24 2.727-2.24h4.68c1.987 0 2.487 1.073 2.727 2.24l.253 1.206H14c.273 0 .5.227.5.5Zm.29 3.772c-.1-1.1-.393-2.273-2.533-2.273H3.75c-2.14 0-2.426 1.173-2.533 2.273l-.373 4.06a1.82 1.82 0 0 0 .466 1.394 1.87 1.87 0 0 0 1.387.606H3.95c1.08 0 1.287-.62 1.42-1.026l.134-.4c.153-.46.193-.574.793-.574H9.71c.6 0 .62.067.794.574l.133.4c.133.406.34 1.026 1.42 1.026h1.253c.527 0 1.034-.22 1.387-.606a1.82 1.82 0 0 0 .467-1.394l-.374-4.06ZM6.004 10.5h-2a.504.504 0 0 1-.5-.5c0-.274.226-.5.5-.5h2c.273 0 .5.226.5.5 0 .273-.227.5-.5.5Zm6 0h-2a.504.504 0 0 1-.5-.5c0-.274.226-.5.5-.5h2c.273 0 .5.226.5.5 0 .273-.227.5-.5.5Z"/></symbol><symbol viewBox="0 0 280 220" id="car-mask" xmlns="http://www.w3.org/2000/svg"><path d="M262.983 220H17.017C7.619 220 0 212.366 0 202.95V17.05C0 7.634 7.619 0 17.017 0h102.246c8.462 0 15.323 6.874 15.323 15.353 0 14.632 11.842 26.497 26.445 26.497h101.952c9.398 0 17.017 7.634 17.017 17.05v144.05c0 9.416-7.619 17.05-17.017 17.05Z"/><path d="M17.017 220C7.619 220 0 212.366 0 202.95V220h17.017ZM0 17.05C0 7.634 7.619 0 17.017 0H0v17.05Z"/></symbol><symbol viewBox="0 0 16 16" id="chair" xmlns="http://www.w3.org/2000/svg"><path d="M3 5a3.005 3.005 0 0 1 2.958 2.5h4.084A2.995 2.995 0 0 1 13.5 5.042V4.5A2.503 2.503 0 0 0 11 2H5a2.503 2.503 0 0 0-2.5 2.5v.542C2.665 5.014 2.832 5 3 5Z"/><path d="M14.996 7.876a2.153 2.153 0 0 0-.005-.068l-.004-.03a2.38 2.38 0 0 0-.008-.067l-.004-.027a2.014 2.014 0 0 0-.014-.075l-.003-.016A2 2 0 0 0 11 8v2.5a.5.5 0 0 1-1 0v-2H6v2a.5.5 0 0 1-1 0V8a2 2 0 0 0-3.958-.407l-.003.016a1.98 1.98 0 0 0-.026.168l-.004.031a2.012 2.012 0 0 0-.005.068l-.002.028A2 2 0 0 0 2.5 9.937V12.5a1.001 1.001 0 0 0 1 1h9a1.001 1.001 0 0 0 1-1V9.937a2 2 0 0 0 1.498-2.033l-.002-.028Z"/></symbol><symbol viewBox="0 0 14 14" id="circle-tick" xmlns="http://www.w3.org/2000/svg"><path d="M7.001 1.168a5.843 5.843 0 0 0-5.833 5.833 5.843 5.843 0 0 0 5.833 5.834A5.843 5.843 0 0 0 12.835 7 5.843 5.843 0 0 0 7 1.168ZM9.79 5.66 6.482 8.967a.437.437 0 0 1-.618 0l-1.651-1.65a.44.44 0 0 1 0-.619.44.44 0 0 1 .618 0L6.173 8.04l2.998-3a.44.44 0 0 1 .619 0 .44.44 0 0 1 0 .619Z"/></symbol><symbol viewBox="0 0 14 14" id="circle-warning" xmlns="http://www.w3.org/2000/svg"><path d="M7.001 1.168a5.843 5.843 0 0 0-5.833 5.833 5.843 5.843 0 0 0 5.833 5.834A5.843 5.843 0 0 0 12.835 7 5.843 5.843 0 0 0 7 1.168Zm-.437 3.5A.44.44 0 0 1 7 4.23a.44.44 0 0 1 .438.438v2.917A.44.44 0 0 1 7 8.022a.44.44 0 0 1-.437-.437V4.668Zm.974 4.888a.602.602 0 0 1-.123.193.673.673 0 0 1-.192.122.58.58 0 0 1-.222.047.58.58 0 0 1-.221-.047.673.673 0 0 1-.193-.122.602.602 0 0 1-.122-.193.58.58 0 0 1-.047-.221.58.58 0 0 1 .047-.222.691.691 0 0 1 .122-.193.674.674 0 0 1 .193-.122.583.583 0 0 1 .443 0c.07.03.134.07.192.122a.674.674 0 0 1 .123.193.58.58 0 0 1 .047.222.58.58 0 0 1-.047.221Z"/></symbol><symbol viewBox="0 0 12 12" id="cross" xmlns="http://www.w3.org/2000/svg"><path fill-rule="evenodd" clip-rule="evenodd" d="M9.905 2.095a.75.75 0 0 1 0 1.06l-6.75 6.75a.75.75 0 0 1-1.06-1.06l6.75-6.75a.75.75 0 0 1 1.06 0Z"/><path fill-rule="evenodd" clip-rule="evenodd" d="M2.095 2.095a.75.75 0 0 1 1.06 0l6.75 6.75a.75.75 0 0 1-1.06 1.06l-6.75-6.75a.75.75 0 0 1 0-1.06Z"/></symbol><symbol viewBox="0 0 16 16" id="cube" xmlns="http://www.w3.org/2000/svg"><path d="m12.892 3.785-4.18-2.253c-.44-.24-.974-.24-1.414 0l-4.18 2.253a.954.954 0 0 0-.493.853c0 .36.187.687.493.854l4.18 2.253a1.485 1.485 0 0 0 1.414 0l4.18-2.253a.954.954 0 0 0 .493-.854.954.954 0 0 0-.493-.853ZM6.61 8.524 2.715 6.577a.955.955 0 0 0-1.38.854v3.673c0 .633.353 1.207.92 1.493l3.887 1.947a.956.956 0 0 0 .926-.04.942.942 0 0 0 .454-.813v-3.674a1.636 1.636 0 0 0-.914-1.493Zm7.608-1.904a.94.94 0 0 0-.927-.04L9.404 8.527a1.66 1.66 0 0 0-.92 1.493v3.673c0 .334.167.64.454.814a.961.961 0 0 0 .926.04l3.887-1.947a1.66 1.66 0 0 0 .92-1.493V7.433a.95.95 0 0 0-.453-.813Z"/></symbol><symbol viewBox="0 0 18 16" id="deco-arrow" xmlns="http://www.w3.org/2000/svg"><path d="m17.304 7.555-3.675-5.24A5.438 5.438 0 0 0 9.177 0H1.142A1.14 1.14 0 0 0 .21 1.795l3.417 4.872h3.56l-1.354-3.74C8.162 4.96 11.92 6.878 14.95 8c-3.029 1.124-6.787 3.041-9.117 5.072l1.353-3.738h-3.56L.21 14.204A1.14 1.14 0 0 0 1.142 16h8.035a5.438 5.438 0 0 0 4.452-2.316l3.675-5.239a.775.775 0 0 0 0-.89Z"/></symbol><symbol viewBox="0 0 16 16" id="energy" xmlns="http://www.w3.org/2000/svg"><path d="M7.98 1.332a6.67 6.67 0 0 0-6.668 6.667 6.67 6.67 0 0 0 6.667 6.666A6.67 6.67 0 0 0 14.646 8c0-3.68-2.98-6.667-6.667-6.667Zm2.5 6.9L8 11.052l-.294.333c-.407.46-.74.34-.74-.28v-2.64H5.832c-.513 0-.653-.313-.313-.7L8 4.945l.294-.333c.406-.46.74-.34.74.28v2.64h1.133c.513 0 .653.313.313.7Z"/></symbol><symbol viewBox="0 0 18 18" id="equals" xmlns="http://www.w3.org/2000/svg"><path fill-rule="evenodd" clip-rule="evenodd" d="M2.063 11.25a.75.75 0 0 1 .75-.75h12.374a.75.75 0 0 1 0 1.5H2.813a.75.75 0 0 1-.75-.75Zm0-4.5a.75.75 0 0 1 .75-.75h12.374a.75.75 0 0 1 0 1.5H2.813a.75.75 0 0 1-.75-.75Z"/></symbol><symbol viewBox="0 0 16 16" id="fav" xmlns="http://www.w3.org/2000/svg"><path fill-rule="evenodd" clip-rule="evenodd" d="M9.77 2.534a4 4 0 0 1 4.456 1.043c1.48 1.644 1.21 4.144-.278 5.631l-5.064 5.065a1.25 1.25 0 0 1-1.768 0L1.922 9.078a4 4 0 0 1 .155-5.804c1.644-1.48 4.144-1.21 5.631.278L8 3.843l.422-.421a4 4 0 0 1 1.347-.888Zm1.547 1.217a2.5 2.5 0 0 0-1.835.731l-.952.952a.75.75 0 0 1-1.06 0l-.822-.822c-1.001-1-2.595-1.098-3.567-.223H3.08a2.5 2.5 0 0 0-.098 3.629L8 13.036l4.888-4.888c1-1.001 1.098-2.595.223-3.567V4.58a2.5 2.5 0 0 0-1.794-.83Z"/></symbol><symbol viewBox="0 0 16 16" id="fav-filled" xmlns="http://www.w3.org/2000/svg"><path d="m8.354 13.743 5.064-5.065c1.245-1.244 1.428-3.291.25-4.6a3.25 3.25 0 0 0-4.716-.126L8 4.904l-.822-.822c-1.244-1.244-3.291-1.428-4.6-.25a3.25 3.25 0 0 0-.126 4.716l5.194 5.195a.5.5 0 0 0 .708 0Z"/></symbol><symbol viewBox="0 0 15 14" id="instagram" xmlns="http://www.w3.org/2000/svg"><g clip-path="url(#axa)"><path d="M7.445 1.26c1.87 0 2.092.009 2.828.042.683.03 1.052.144 1.299.24.325.126.56.28.803.522.246.247.397.479.523.804.095.246.21.618.24 1.3.033.737.041.959.041 2.827 0 1.87-.008 2.091-.04 2.827-.03.684-.146 1.053-.241 1.299-.126.325-.28.56-.523.804a2.153 2.153 0 0 1-.803.522c-.247.096-.618.21-1.3.24-.738.033-.96.042-2.827.042-1.87 0-2.091-.009-2.827-.041-.684-.03-1.053-.145-1.299-.241a2.165 2.165 0 0 1-.804-.522 2.153 2.153 0 0 1-.522-.804c-.096-.246-.21-.618-.24-1.3-.033-.737-.042-.959-.042-2.826 0-1.87.009-2.092.041-2.828.03-.683.145-1.053.241-1.299a2.18 2.18 0 0 1 .522-.804c.246-.246.479-.396.804-.522.246-.096.618-.21 1.299-.24.736-.033.957-.041 2.827-.041Zm0-1.26c-1.9 0-2.138.008-2.884.041-.744.033-1.256.153-1.699.325-.462.18-.853.419-1.24.81a3.43 3.43 0 0 0-.81 1.238C.639 2.86.519 3.37.486 4.112.454 4.862.446 5.1.446 7s.008 2.138.04 2.885c.033.744.153 1.255.326 1.698.18.462.418.853.81 1.241.387.389.778.63 1.238.807.445.172.954.292 1.698.325.746.033.984.041 2.885.041 1.9 0 2.138-.008 2.884-.04.744-.034 1.255-.154 1.698-.326a3.43 3.43 0 0 0 1.24-.807c.387-.388.628-.78.806-1.239.172-.445.292-.954.325-1.698.033-.746.041-.984.041-2.884s-.008-2.139-.04-2.885c-.034-.744-.154-1.255-.326-1.698a3.28 3.28 0 0 0-.801-1.244 3.421 3.421 0 0 0-1.24-.807c-.445-.172-.953-.292-1.697-.325C9.583.008 9.346 0 7.445 0Z"/><path d="M7.447 3.406a3.597 3.597 0 0 0 0 7.192 3.597 3.597 0 0 0 0-7.192Zm0 5.928a2.333 2.333 0 1 1 .001-4.665 2.333 2.333 0 0 1 0 4.665Zm4.576-6.073a.84.84 0 1 1-1.68 0 .84.84 0 0 1 1.68 0Z"/></g><defs><clipPath id="axa"><path transform="translate(.445)" d="M0 0h14v14H0z"/></clipPath></defs></symbol><symbol viewBox="0 0 44 44" id="like" xmlns="http://www.w3.org/2000/svg"><path fill-rule="evenodd" clip-rule="evenodd" d="M25.512 4.335c1.973.666 3.31 2.839 2.871 4.879l-.912 5.839c-.114.816.436 1.34 1.091 1.34h7.334c1.578 0 2.917.636 3.72 1.726.805 1.091 1 2.546.473 4.033l-4.39 13.35c-.33 1.29-1.181 2.382-2.225 3.146-1.05.768-2.349 1.244-3.628 1.244h-6.967a7.93 7.93 0 0 1-2.085-.303c-.671-.192-1.393-.5-1.892-.98l-5.649-4.373.918-1.186 5.721 4.429.034.033c.233.233.684.464 1.28.634a6.424 6.424 0 0 0 1.673.246h6.967c.92 0 1.913-.348 2.742-.955.828-.606 1.44-1.43 1.663-2.326l.007-.027 4.411-13.418.004-.01c.384-1.075.212-2-.265-2.648-.48-.652-1.34-1.116-2.512-1.116h-7.334c-1.543 0-2.825-1.308-2.576-3.056l.002-.01.92-5.89.005-.023c.278-1.248-.576-2.722-1.888-3.159l-.013-.004-.013-.005c-.536-.201-1.178-.179-1.785.03-.611.21-1.103.58-1.361.967l-.002.002-7.516 11.184-1.245-.837L20.605 5.91v-.001c.477-.714 1.267-1.259 2.122-1.553.856-.294 1.859-.364 2.785-.02Z"/><path fill-rule="evenodd" clip-rule="evenodd" d="M5.743 13.522c-.37.34-.63.954-.63 2.153V33.64c0 1.2.26 1.812.63 2.154.384.354 1.061.58 2.287.58h1.833c1.226 0 1.903-.226 2.287-.58.37-.342.63-.955.63-2.154V15.675c0-1.2-.26-1.812-.63-2.153-.384-.355-1.06-.58-2.287-.58H8.03c-1.226 0-1.903.225-2.287.58Zm-1.018-1.103c.808-.745 1.964-.978 3.305-.978h1.833c1.341 0 2.497.233 3.305.978.822.76 1.112 1.888 1.112 3.256V33.64c0 1.368-.29 2.497-1.112 3.256-.808.745-1.964.978-3.305.978H8.03c-1.34 0-2.497-.233-3.305-.978-.822-.76-1.112-1.888-1.112-3.256V15.675c0-1.368.29-2.497 1.112-3.256Z"/></symbol><symbol viewBox="0 0 18 18" id="message" xmlns="http://www.w3.org/2000/svg"><path d="M6 1.5h6c3 0 4.5 1.5 4.5 4.5v9.75c0 .413-.337.75-.75.75H6c-3 0-4.5-1.5-4.5-4.5V6C1.5 3 3 1.5 6 1.5Zm1.5 9.938h5.25a.567.567 0 0 0 .563-.563.567.567 0 0 0-.563-.563H7.5a.567.567 0 0 0-.563.563c0 .307.255.563.563.563Zm-2.25-3.75h7.5a.567.567 0 0 0 .563-.563.567.567 0 0 0-.563-.563h-7.5a.567.567 0 0 0-.563.563c0 .308.255.563.563.563Z"/></symbol><symbol viewBox="0 0 14 14" id="ok" xmlns="http://www.w3.org/2000/svg"><path d="M3.129 7.514c-.358.702.048 1.038.975 1.612.787.487 1.875.665 2.574.736l-2.754 2.649c-.802.768.489 2 1.29 1.249l2.168-2.091c.83.798 1.626 1.563 2.168 2.094.802.755 2.091-.467 1.299-1.25-.06-.056-2.939-2.817-2.763-2.648.708-.071 1.78-.26 2.557-.736.926-.577 1.332-.913.98-1.615-.213-.4-.787-.733-1.551-.156 0 0-1.032.79-2.696.79-1.665 0-2.697-.79-2.697-.79-.763-.58-1.34-.243-1.55.156Z"/><path d="M7.374 7.083c2.028 0 3.685-1.586 3.685-3.538C11.06 1.585 9.402 0 7.374 0c-2.03 0-3.686 1.585-3.686 3.545 0 1.952 1.656 3.538 3.686 3.538Zm0-5.287c.996 0 1.81.782 1.81 1.75 0 .958-.814 1.74-1.81 1.74-.997 0-1.81-.782-1.81-1.74-.001-.968.812-1.75 1.81-1.75Z"/></symbol><symbol viewBox="0 0 32 32" id="play" xmlns="http://www.w3.org/2000/svg"><path d="m29.204 12.931-18.18-10.78C8.727.789 5.852 2.492 5.852 5.22v21.563c0 2.727 2.875 4.43 5.172 3.067L29.2 19.069c2.301-1.363 2.301-4.774 0-6.138h.004Z"/></symbol><symbol viewBox="0 0 15 15" id="round-top-right-mask" xmlns="http://www.w3.org/2000/svg"><g clip-path="url(#bca)"><path fill-rule="evenodd" clip-rule="evenodd" d="M0 30c8.284 0 15-6.716 15-15v15H0Zm-15-15c0 8.284 6.716 15 15 15h-15V15ZM0 0c-8.284 0-15 6.716-15 15V0H0Zm0 0h15v15C15 6.716 8.284 0 0 0Z"/></g><defs><clipPath id="bca"><path d="M0 0h15v15H0z"/></clipPath></defs></symbol><symbol viewBox="0 0 16 16" id="screw" xmlns="http://www.w3.org/2000/svg"><path d="M12.623 3.614 9.176 1.621c-.66-.38-1.693-.38-2.353 0l-3.48 2.007c-1.38.933-1.46 1.073-1.46 2.56v3.62c0 1.486.08 1.633 1.486 2.58l3.447 1.993c.333.193.76.287 1.18.287.42 0 .847-.094 1.173-.287l3.48-2.007c1.38-.933 1.46-1.073 1.46-2.56V6.188c0-1.487-.08-1.627-1.486-2.574Zm-4.627 6.554A2.17 2.17 0 0 1 5.83 8a2.17 2.17 0 0 1 2.167-2.167A2.17 2.17 0 0 1 10.164 8a2.17 2.17 0 0 1-2.167 2.167Z"/></symbol><symbol viewBox="0 0 18 18" id="settings" xmlns="http://www.w3.org/2000/svg"><path fill-rule="evenodd" clip-rule="evenodd" d="M11.25 4.875a.75.75 0 0 1 .75-.75h4.5a.75.75 0 0 1 0 1.5H12a.75.75 0 0 1-.75-.75Zm-10.5 0a.75.75 0 0 1 .75-.75h3a.75.75 0 0 1 0 1.5h-3a.75.75 0 0 1-.75-.75Z"/><path fill-rule="evenodd" clip-rule="evenodd" d="M7.5 3a1.875 1.875 0 1 0 0 3.75A1.875 1.875 0 0 0 7.5 3ZM4.125 4.875a3.375 3.375 0 1 1 6.75 0 3.375 3.375 0 0 1-6.75 0Zm8.625 8.25a.75.75 0 0 1 .75-.75h3a.75.75 0 0 1 0 1.5h-3a.75.75 0 0 1-.75-.75Zm-12 0a.75.75 0 0 1 .75-.75H6a.75.75 0 0 1 0 1.5H1.5a.75.75 0 0 1-.75-.75Z"/><path fill-rule="evenodd" clip-rule="evenodd" d="M10.5 11.25a1.875 1.875 0 1 0 0 3.75 1.875 1.875 0 0 0 0-3.75Zm-3.375 1.875a3.375 3.375 0 1 1 6.75 0 3.375 3.375 0 0 1-6.75 0Z"/></symbol><symbol viewBox="0 0 16 16" id="shield" xmlns="http://www.w3.org/2000/svg"><path d="M12.36 2.748 8.694 1.375c-.38-.14-1-.14-1.38 0L3.647 2.748c-.706.267-1.28 1.093-1.28 1.847v5.4c0 .54.354 1.253.787 1.573l3.667 2.74c.646.486 1.706.486 2.353 0l3.667-2.74c.433-.327.786-1.034.786-1.573v-5.4c.007-.754-.567-1.58-1.267-1.847ZM10.32 6.48 7.454 9.348a.494.494 0 0 1-.707 0l-1.066-1.08a.503.503 0 0 1 0-.707.503.503 0 0 1 .706 0l.72.72 2.514-2.513a.503.503 0 0 1 .706 0 .505.505 0 0 1-.007.713Z"/></symbol><symbol viewBox="0 0 16 16" id="snow" xmlns="http://www.w3.org/2000/svg"><path d="M6.672 2.5h.833v3.167c0 .273.227.5.5.5.274 0 .5-.227.5-.5V2.5h.834c.273 0 .5-.227.5-.5s-.227-.5-.5-.5H6.672c-.273 0-.5.227-.5.5s.227.5.5.5Zm2.667 10.999h-.834v-3.167c0-.273-.226-.5-.5-.5-.273 0-.5.227-.5.5v3.167h-.833c-.273 0-.5.226-.5.5 0 .273.227.5.5.5h2.667c.273 0 .5-.227.5-.5 0-.274-.227-.5-.5-.5ZM1.89 6.586a.49.49 0 0 0 .68-.187l.42-.72 2.746 1.587c.074.047.16.067.247.067a.5.5 0 0 0 .253-.933L3.49 4.812l.413-.72a.498.498 0 0 0-.86-.5L1.71 5.899a.5.5 0 0 0 .18.687Zm12.227 2.825a.492.492 0 0 0-.68.18l-.42.72-2.746-1.58a.498.498 0 0 0-.5.86l2.74 1.587-.413.72a.498.498 0 0 0 .426.747.49.49 0 0 0 .434-.253l1.333-2.307a.48.48 0 0 0-.174-.674Zm-1.598-4.597L9.772 6.4a.495.495 0 0 0-.18.68c.094.16.26.254.434.254.086 0 .173-.02.246-.067l2.74-1.587.42.72c.094.16.26.254.434.254a.495.495 0 0 0 .427-.747L12.958 3.6a.495.495 0 0 0-.68-.18.495.495 0 0 0-.18.68l.42.714ZM3.49 11.187l2.74-1.586c.24-.14.32-.447.18-.68a.495.495 0 0 0-.68-.18l-2.74 1.586-.42-.72a.495.495 0 0 0-.68-.18.495.495 0 0 0-.18.68l1.333 2.307c.093.16.26.253.433.253a.495.495 0 0 0 .427-.747l-.413-.733Z"/><path d="M10.338 8.001a2.334 2.334 0 1 1-4.668 0 2.334 2.334 0 0 1 4.668 0Z"/></symbol><symbol viewBox="0 0 19 18" id="star" xmlns="http://www.w3.org/2000/svg"><path d="M10.393 4.047 11.419 6.1c.14.286.514.56.829.612l1.86.31c1.19.198 1.47 1.061.613 1.913l-1.447 1.447c-.245.245-.379.717-.303 1.055l.414 1.791c.327 1.418-.426 1.966-1.68 1.225l-1.744-1.032c-.315-.187-.834-.187-1.155 0l-1.744 1.032c-1.249.741-2.007.187-1.68-1.225l.414-1.79c.076-.339-.058-.811-.303-1.056L4.046 8.935c-.852-.852-.578-1.715.612-1.913l1.861-.31c.31-.052.683-.326.823-.612l1.026-2.053c.56-1.115 1.47-1.115 2.025 0Z"/></symbol><symbol viewBox="0 0 19 18" id="star-active" xmlns="http://www.w3.org/2000/svg"><path d="M10.393 4.047 11.419 6.1c.14.286.514.56.829.612l1.86.31c1.19.198 1.47 1.061.613 1.913l-1.447 1.447c-.245.245-.379.717-.303 1.055l.414 1.791c.327 1.418-.426 1.966-1.68 1.225l-1.744-1.032c-.315-.187-.834-.187-1.155 0l-1.744 1.032c-1.249.741-2.007.187-1.68-1.225l.414-1.79c.076-.339-.058-.811-.303-1.056L4.046 8.935c-.852-.852-.578-1.715.612-1.913l1.861-.31c.31-.052.683-.326.823-.612l1.026-2.053c.56-1.115 1.47-1.115 2.025 0Z"/></symbol><symbol viewBox="0 0 16 16" id="sun" xmlns="http://www.w3.org/2000/svg"><path d="M7.995 12.67a4.667 4.667 0 1 0 0-9.334 4.667 4.667 0 0 0 0 9.333Zm.002 2.638c-.366 0-.666-.273-.666-.64v-.053c0-.367.3-.667.666-.667.367 0 .667.3.667.667 0 .366-.3.693-.667.693Zm4.76-1.88a.683.683 0 0 1-.473-.193l-.087-.087a.664.664 0 1 1 .94-.94l.087.087a.664.664 0 0 1-.467 1.133Zm-9.52 0a.664.664 0 0 1-.473-1.133l.087-.087a.664.664 0 1 1 .94.94l-.087.087a.667.667 0 0 1-.467.193Zm11.427-4.76h-.053a.669.669 0 0 1-.667-.667c0-.366.3-.666.667-.666.366 0 .693.3.693.666 0 .367-.273.667-.64.667Zm-13.28 0h-.053a.669.669 0 0 1-.667-.667c0-.366.3-.666.667-.666.366 0 .693.3.693.666 0 .367-.273.667-.64.667Zm11.287-4.673a.664.664 0 0 1-.473-1.133l.086-.087a.664.664 0 1 1 .94.94l-.087.086a.656.656 0 0 1-.466.194Zm-9.347 0a.683.683 0 0 1-.473-.194l-.087-.093a.664.664 0 1 1 .94-.94l.087.087c.26.26.26.68 0 .94-.127.133-.3.2-.467.2Zm4.673-1.967c-.366 0-.666-.273-.666-.64v-.053c0-.367.3-.667.666-.667.367 0 .667.3.667.667 0 .366-.3.693-.667.693Z"/></symbol><symbol viewBox="0 0 15 14" id="telegram" xmlns="http://www.w3.org/2000/svg"><g clip-path="url(#bla)"><path fill-rule="evenodd" clip-rule="evenodd" d="M14.383 7a7 7 0 1 1-14 0 7 7 0 0 1 14 0Zm-6.75-1.832c-.68.283-2.041.869-4.082 1.758-.331.132-.505.26-.52.387-.027.213.24.297.603.411l.153.049c.357.116.838.252 1.088.257.227.005.48-.088.76-.28 1.906-1.287 2.89-1.938 2.952-1.952.044-.01.104-.022.145.014.04.037.037.106.032.124-.026.113-1.073 1.086-1.615 1.59a19.14 19.14 0 0 0-.313.294 6.15 6.15 0 0 1-.165.163c-.332.32-.581.56.014.952.286.188.514.344.743.5.249.17.497.338.819.55.082.053.16.109.236.163.29.207.551.393.873.363.187-.017.38-.193.478-.718.232-1.24.688-3.926.793-5.032a1.238 1.238 0 0 0-.011-.276.295.295 0 0 0-.1-.19.46.46 0 0 0-.271-.08c-.263.004-.667.144-2.611.953Z"/></g><defs><clipPath id="bla"><path transform="translate(.383)" d="M0 0h14v14H0z"/></clipPath></defs></symbol><symbol viewBox="0 0 16 16" id="telegram-circle" xmlns="http://www.w3.org/2000/svg"><g clip-path="url(#bka)"><path fill-rule="evenodd" clip-rule="evenodd" d="M16 8A8 8 0 1 1 0 8a8 8 0 0 1 16 0ZM8.287 5.906c-.779.324-2.334.993-4.666 2.01-.379.15-.577.297-.595.442-.03.243.274.339.69.47l.175.055c.408.133.957.288 1.243.294.26.006.548-.1.868-.32 2.179-1.471 3.304-2.214 3.374-2.23.05-.012.119-.026.166.016.047.041.042.12.037.141-.03.129-1.227 1.241-1.846 1.817-.193.18-.33.307-.358.336a7.046 7.046 0 0 1-.188.186c-.38.366-.664.64.015 1.088.327.216.588.393.85.571.284.194.568.387.936.628.093.062.183.126.27.188.331.236.63.448.997.414.214-.02.435-.22.547-.82.265-1.417.786-4.486.906-5.751a1.49 1.49 0 0 0-.013-.315.337.337 0 0 0-.114-.217.526.526 0 0 0-.31-.093c-.301.005-.763.166-2.984 1.09Z"/></g><defs><clipPath id="bka"><path d="M0 0h16v16H0z"/></clipPath></defs></symbol><symbol viewBox="0 0 14 14" id="tick" xmlns="http://www.w3.org/2000/svg"><path d="M4.52 6.998 6.17 8.65l3.308-3.301"/></symbol><symbol viewBox="0 0 64 64" id="todo" xmlns="http://www.w3.org/2000/svg"><path fill-rule="evenodd" clip-rule="evenodd" d="M32.234 23.68a.75.75 0 0 1 .75-.75h14a.75.75 0 0 1 0 1.5h-14a.75.75 0 0 1-.75-.75Zm-6.692-4.53a.75.75 0 0 1 0 1.06l-6 6a.75.75 0 0 1-1.06 0l-2-2a.75.75 0 1 1 1.06-1.06l1.47 1.469 5.47-5.47a.75.75 0 0 1 1.06 0Zm6.692 23.194a.75.75 0 0 1 .75-.75h14a.75.75 0 1 1 0 1.5h-14a.75.75 0 0 1-.75-.75Zm-6.692-4.531a.75.75 0 0 1 0 1.061l-6 6a.75.75 0 0 1-1.06 0l-2-2a.75.75 0 0 1 1.06-1.06l1.47 1.47 5.47-5.47a.75.75 0 0 1 1.06 0Z"/><path fill-rule="evenodd" clip-rule="evenodd" d="M9.135 9.135c3.21-3.21 8.123-4.553 14.864-4.553h16c6.74 0 11.654 1.344 14.863 4.553 3.21 3.21 4.553 8.123 4.553 14.864v16c0 6.74-1.343 11.654-4.553 14.863-3.21 3.21-8.123 4.553-14.863 4.553h-16c-6.74 0-11.654-1.343-14.864-4.553C5.925 51.652 4.582 46.74 4.582 40V24c0-6.74 1.344-11.654 4.553-14.864Zm1.06 1.06C7.406 12.987 6.083 17.407 6.083 24v16c0 6.592 1.323 11.012 4.114 13.803 2.79 2.79 7.21 4.113 13.803 4.113h16c6.592 0 11.012-1.323 13.803-4.113 2.79-2.79 4.113-7.21 4.113-13.803V24c0-6.593-1.323-11.013-4.113-13.803-2.79-2.79-7.21-4.114-13.803-4.114H24c-6.593 0-11.013 1.323-13.803 4.114Z"/></symbol><symbol viewBox="0 0 15 14" id="vk" xmlns="http://www.w3.org/2000/svg"><g clip-path="url(#boa)"><path d="M13.4.983C12.414 0 10.83 0 7.674 0h-.583c-3.156 0-4.74 0-5.725.983-.986.983-.983 2.57-.983 5.725v.584c0 3.155 0 4.74.983 5.725.983.986 2.57.983 5.725.983h.583c3.168 0 4.752 0 5.738-.983.985-.983.97-2.57.97-5.725v-.584c0-3.155 0-4.74-.982-5.725Zm-2.972 9.103a2.879 2.879 0 0 0-2.415-2.083v2.083h-.181c-3.19 0-5.01-2.188-5.087-5.833h1.599c.052 2.671 1.23 3.791 2.164 4.036V4.26h1.505v2.303c.921-.099 1.89-1.149 2.216-2.304h1.506a4.445 4.445 0 0 1-2.042 2.917 4.606 4.606 0 0 1 2.397 2.917l-1.662-.006Z"/></g><defs><clipPath id="boa"><path transform="translate(.383)" d="M0 0h14v14H0z"/></clipPath></defs></symbol><symbol viewBox="0 0 15 14" id="whatsapp" xmlns="http://www.w3.org/2000/svg"><path d="m.445 14 .437-1.595c.172-.63.346-1.261.513-1.893a.302.302 0 0 0-.023-.203C.7 9.09.408 7.781.525 6.4.692 4.418 1.563 2.793 3.1 1.532A6.654 6.654 0 0 1 6.057.14c3.247-.646 6.37 1.015 7.707 3.936.5 1.092.69 2.24.596 3.432-.233 2.998-2.45 5.549-5.385 6.204-1.655.368-3.237.152-4.748-.614a.334.334 0 0 0-.216-.022c-1.13.292-2.258.588-3.387.883L.445 14Zm1.676-1.657.167-.04c.614-.161 1.227-.318 1.84-.486a.385.385 0 0 1 .327.05c1.337.792 2.767 1.027 4.285.685 3.243-.73 5.207-4.149 4.207-7.317C12.037 2.349 9.155.677 6.19 1.32a5.757 5.757 0 0 0-4.504 5.374c-.05 1.116.195 2.174.78 3.13.184.302.217.555.108.883-.174.532-.301 1.079-.453 1.636Z"/><path d="M3.902 5.379c.01-.58.237-1.057.646-1.454a.629.629 0 0 1 .458-.19c.098 0 .196.014.293.004.204-.02.321.08.393.255.192.46.39.918.57 1.384a.385.385 0 0 1-.036.298 5.907 5.907 0 0 1-.43.584c-.094.115-.101.218-.026.344.566.95 1.352 1.641 2.384 2.049.14.055.254.033.35-.088.171-.217.35-.428.518-.648.096-.128.209-.176.352-.11.497.234.99.468 1.48.713.051.026.099.113.1.173.02.516-.13.948-.589 1.248-.572.374-1.173.407-1.811.228-1.638-.46-2.855-1.485-3.832-2.837-.321-.447-.617-.907-.743-1.453-.039-.163-.052-.333-.077-.5Z"/></symbol></svg>