<svg width="514" height="513" fill="none" xmlns="http://www.w3.org/2000/svg"><mask id="a" style="mask-type:luminance" maskUnits="userSpaceOnUse" x="1" y="0" width="512" height="513"><path d="M513 .5H1v512h512V.5z" fill="#fff"/></mask><g mask="url(#a)"><path d="M257 512.5c141.385 0 256-114.615 256-256S398.385.5 257 .5 1 115.115 1 256.5s114.615 256 256 256z" fill="#F0F0F0"/><path d="M436.141 73.644C389.968 28.404 326.749.5 257.002.5c-22.261 0-87.393 27.904-133.564 73.144h312.703zm-179.14 146.284h253.388a254.196 254.196 0 00-22.038-73.143h-242.48l11.13 73.143zM25.652 366.214H488.35a254.164 254.164 0 0022.039-73.144H3.613a254.145 254.145 0 0022.04 73.144zm52.211 73.141c46.173 45.24 109.391 73.144 179.138 73.144s132.965-27.904 179.138-73.144H77.863z" fill="#6DA544"/><path d="M257.001.5C128.035.5 21.361 95.871 3.613 219.929h253.388V.5z" fill="#D80027"/><path d="M129.001 196.766l-11.13-22.26v-44.522l27.826-22.261 27.826 22.261v33.391l11.13-11.13v22.261l-22.261 22.26h-33.391zM69.135 128.5l2.947 9.07h9.536l-7.715 5.607 2.948 9.069-7.716-5.606-7.716 5.606 2.948-9.069-7.715-5.607h9.536l2.947-9.07zm22.262-22.262l2.947 9.07h9.537l-7.716 5.607 2.947 9.069-7.715-5.605-7.715 5.605 2.948-9.069-7.716-5.607h9.535l2.948-9.07zm22.262-22.261l2.947 9.07h9.535l-7.714 5.607 2.946 9.069-7.714-5.605-7.716 5.605 2.947-9.07-7.714-5.606h9.535l2.948-9.07zM222.255 128.5l-2.947 9.07h-9.535l7.714 5.607-2.947 9.069 7.715-5.606 7.716 5.606-2.947-9.069 7.714-5.607h-9.535l-2.948-9.07zm-22.261-22.262l-2.947 9.07h-9.535l7.714 5.607-2.947 9.069 7.715-5.605 7.716 5.605-2.948-9.069 7.715-5.607h-9.535l-2.948-9.07zm-22.257-22.261l-2.948 9.07h-9.535l7.714 5.607-2.947 9.069 7.716-5.605 7.715 5.605-2.947-9.07 7.714-5.606h-9.535l-2.947-9.07zm-32.039-11.129l-2.948 9.07h-9.535l7.714 5.606-2.947 9.069 7.716-5.605 7.715 5.605-2.947-9.07 7.714-5.605h-9.535l-2.947-9.07z" fill="#F0F0F0"/></g></svg>