<svg width="514" height="513" fill="none" xmlns="http://www.w3.org/2000/svg"><mask id="a" style="mask-type:luminance" maskUnits="userSpaceOnUse" x="1" y="0" width="512" height="513"><path d="M513 .5H1v512h512V.5z" fill="#fff"/></mask><g mask="url(#a)"><path d="M1 256.502a257.1 257.1 0 005.127 51.2L257 323.285l250.874-15.583a257.027 257.027 0 005.126-51.2c0-17.535-1.768-34.657-5.126-51.2L257 189.719 6.127 205.302A257.1 257.1 0 001 256.502z" fill="#0052B4"/><path d="M507.876 307.699H6.129c23.719 116.85 127.024 204.8 250.873 204.8 123.849 0 227.154-87.95 250.874-204.8z" fill="#F0F0F0"/><path d="M6.129 205.3h501.748C484.156 88.45 380.853.5 257.002.5S29.848 88.45 6.129 205.3z" fill="#000"/><path d="M368.303 205.301H145.695l45.48-21.394-24.219-44.045 49.385 9.445 6.26-49.889 34.398 36.694 34.4-36.694 6.256 49.889 49.387-9.445-24.217 44.047 45.478 21.392z" fill="#FFDA44"/><path d="M1 256.5c0 141.384 114.616 256 256 256L52.196 102.891C20.052 145.68 1 198.863 1 256.5zm256 256c141.384 0 256-114.616 256-256 0-57.637-19.052-110.82-51.196-153.609L257 512.5z" fill="#A2001D"/></g></svg>