<svg width="514" height="513" fill="none" xmlns="http://www.w3.org/2000/svg"><mask id="a" style="mask-type:luminance" maskUnits="userSpaceOnUse" x="1" y="0" width="512" height="513"><path d="M513 .5H1v512h512V.5z" fill="#fff"/></mask><g mask="url(#a)"><path d="M257 .5c-23.106 0-45.49 3.08-66.783 8.819L167.957 256.5l22.261 247.181C211.51 509.42 233.894 512.5 257 512.5c141.384 0 256-114.616 256-256C513 115.116 398.384.5 257 .5z" fill="#FFDA44"/><path d="M167.957 256.5l22.261 247.181C211.51 509.42 233.894 512.5 257 512.5c141.384 0 256-114.616 256-256H167.957z" fill="#6DA544"/><path d="M1 256.502c0 97.035 53.99 181.455 133.565 224.873V31.629C54.99 75.047 1 159.467 1 256.502z" fill="#D80027"/><path d="M1 256.501C1 374.78 81.221 474.306 190.217 503.682V9.32C81.221 38.696 1 138.222 1 256.501z" fill="#D80027"/><path d="M97.735 189.719l16.575 51.016h53.646l-43.398 31.532 16.574 51.018-43.397-31.531-43.4 31.531 16.579-51.018-43.398-31.532h53.643l16.576-51.016z" fill="#000"/></g></svg>