<svg width="514" height="513" fill="none" xmlns="http://www.w3.org/2000/svg"><mask id="a" style="mask-type:luminance" maskUnits="userSpaceOnUse" x="1" y="0" width="512" height="513"><path d="M513 .5H1v512h512V.5z" fill="#fff"/></mask><g mask="url(#a)"><path d="M346.046 16.424C318.312 6.133 288.315.5 257 .5c-31.313 0-61.309 5.633-89.041 15.922L156.828 256.5l11.13 240.078C195.691 506.868 225.687 512.5 257 512.5c31.316 0 61.312-5.632 89.046-15.924l11.13-240.076-11.13-240.076z" fill="#FFDA44"/><path d="M1 256.5c0 110.07 69.472 203.906 166.957 240.076V16.422C70.472 52.594 1 146.428 1 256.5z" fill="#D80027"/><path d="M513 256.5c0-110.072-69.472-203.906-166.957-240.078v480.155C443.528 460.406 513 366.57 513 256.5z" fill="#6DA544"/></g></svg>