<svg width="514" height="513" fill="none" xmlns="http://www.w3.org/2000/svg"><mask id="a" style="mask-type:luminance" maskUnits="userSpaceOnUse" x="1" y="0" width="512" height="513"><path d="M513 .5H1v512h512V.5z" fill="#fff"/></mask><g mask="url(#a)"><path d="M257 512.5c141.385 0 256-114.615 256-256S398.385.5 257 .5 1 115.115 1 256.5s114.615 256 256 256z" fill="#F0F0F0"/><path d="M257.001.5C211.74.5 169.232 12.262 132.34 32.872v447.256c36.893 20.61 79.4 32.372 124.661 32.372 141.384 0 256-114.616 256-256 0-141.384-114.616-256-256-256z" fill="#6DA544"/><path d="M133.094 32.45a256.55 256.55 0 00-40.676 27.982l196.065 196.066L92.417 452.564a256.64 256.64 0 0040.676 27.983l379.909-224.049L133.094 32.449z" fill="#F0F0F0"/><path d="M111.471 45.883a257.6 257.6 0 00-22.45 17.44L257 256.5 89.02 449.679a257.406 257.406 0 0022.45 17.44l357.709-210.618L111.471 45.883z" fill="#FFDA44"/><path d="M92.415 60.434A257.758 257.758 0 0075.981 75.48L234.739 256.5 75.981 437.52a256.605 256.605 0 0016.434 15.046L288.481 256.5 92.416 60.434z" fill="#000"/><path d="M75.98 75.48c-99.974 99.974-99.974 262.065 0 362.04L257 256.5 75.98 75.48z" fill="#D80027"/></g></svg>