<svg width="514" height="513" fill="none" xmlns="http://www.w3.org/2000/svg"><mask id="a" style="mask-type:luminance" maskUnits="userSpaceOnUse" x="1" y="0" width="512" height="513"><path d="M513 .5H1v512h512V.5z" fill="#fff"/></mask><g mask="url(#a)"><path d="M513 256.5c0 141.384-114.616 256-256 256-141.384 0-256-114.616-256-256C1 115.116 257 .5 257 .5s256 114.616 256 256z" fill="#A2001D"/><path d="M1 256.5C1 115.116 115.616.5 257 .5c141.384 0 256 114.616 256 256" fill="#0052B4"/><path d="M346.043 323.285L257 312.154l-89.043 11.131V189.719h178.086v133.566z" fill="#F0F0F0"/><path d="M256.999 312.153c24.588 0 44.522-19.933 44.522-44.522 0-24.588-19.934-44.522-44.522-44.522-24.589 0-44.522 19.934-44.522 44.522 0 24.589 19.933 44.522 44.522 44.522z" fill="#0052B4"/><path d="M256.999 289.889c12.295 0 22.261-9.966 22.261-22.261 0-12.294-9.966-22.261-22.261-22.261-12.294 0-22.261 9.967-22.261 22.261 0 12.295 9.967 22.261 22.261 22.261z" fill="#A2001D"/><path d="M223.609 211.977h66.782L257 245.369l-33.391-33.392z" fill="#6DA544"/><path d="M245.871 234.238h22.261v66.783h-22.261v-66.783z" fill="#FFDA44"/><path d="M292.617 294.344h-71.236l-53.424 28.94h178.086l-53.426-28.94z" fill="#6DA544"/></g></svg>