<svg width="514" height="513" fill="none" xmlns="http://www.w3.org/2000/svg"><mask id="a" style="mask-type:luminance" maskUnits="userSpaceOnUse" x="1" y="0" width="512" height="513"><path d="M513 .5H1v512h512V.5z" fill="#fff"/></mask><g mask="url(#a)"><path d="M257 512.5c141.385 0 256-114.615 256-256S398.385.5 257 .5 1 115.115 1 256.5s114.615 256 256 256z" fill="#F0F0F0"/><path d="M257.001 512.5c64.917 0 124.179-24.176 169.306-64H87.695c45.127 39.824 104.389 64 169.306 64z" fill="#D80027"/><path d="M9.066 320.501a254.445 254.445 0 0026.191 64h443.487a254.445 254.445 0 0026.191-64l-247.934-19.478L9.066 320.501zM504.935 192.5a254.445 254.445 0 00-26.191-64L257 122.935V.5c-19.017 0-37.551 2.075-55.386 6.008-.342.076-167.223 131.71-167.223 249.992C38.658 257.242 257 278.761 257 278.761V192.5h247.935z" fill="#0052B4"/><path d="M257 160.22v-128h-81.075l25.697-25.697C96.131 29.79 15.076 118.113 2.67 227.281A258.572 258.572 0 001 256.498h129.67v-51.023l51.528 51.023h91.585l-97.859-96.278H257z" fill="#F0F0F0"/><path d="M257.117 256.499l-96.278-96.278H130.67v.001l96.277 96.277H98.391v-128h380.353c-13.938-24.093-31.696-45.697-52.437-64H98.391v-8.925a257.223 257.223 0 00-64 74.479v126.446H1c0 22.099 2.8 43.545 8.065 64h495.87c5.265-20.456 8.065-41.901 8.065-64H257.117z" fill="#D80027"/></g></svg>