<svg width="514" height="513" fill="none" xmlns="http://www.w3.org/2000/svg"><mask id="a" style="mask-type:luminance" maskUnits="userSpaceOnUse" x="1" y="0" width="512" height="513"><path d="M513 .5H1v512h512V.5z" fill="#fff"/></mask><g mask="url(#a)"><path d="M257 512.5c141.385 0 256-114.615 256-256S398.385.5 257 .5 1 115.115 1 256.5s114.615 256 256 256z" fill="#F0F0F0"/><path d="M257 512.501c101.493 0 189.19-59.065 230.598-144.696H26.402C67.81 453.436 155.506 512.501 257 512.501zM257 .5C155.506.5 67.81 59.565 26.402 145.196h461.195C446.19 59.565 358.493.5 257 .5zm-98.456 166.957l8.288 25.509h26.821l-21.698 15.764 8.289 25.509-21.7-15.765-21.7 15.765 8.289-25.509-21.699-15.764h26.821l8.289-25.509zm0 111.305l8.288 25.51h26.821l-21.698 15.764 8.289 25.508-21.7-15.765-21.7 15.765 8.289-25.508-21.699-15.764h26.821l8.289-25.51zm196.91-111.305l8.289 25.509h26.821l-21.699 15.764 8.289 25.509-21.7-15.765-21.7 15.765 8.289-25.509-21.699-15.764h26.822l8.288-25.509zm0 111.305l8.289 25.51h26.821l-21.699 15.764 8.289 25.508-21.7-15.765-21.7 15.765 8.289-25.508-21.699-15.764h26.822l8.288-25.51zm-98.453-55.653l8.289 25.51h26.821l-21.699 15.764 8.289 25.508-21.7-15.765-21.7 15.765 8.289-25.508-21.699-15.764h26.821l8.289-25.51z" fill="#338AF3"/></g></svg>