<svg width="514" height="513" fill="none" xmlns="http://www.w3.org/2000/svg"><mask id="a" style="mask-type:luminance" maskUnits="userSpaceOnUse" x="1" y="0" width="512" height="513"><path d="M513 .5H1v512h512V.5z" fill="#fff"/></mask><g mask="url(#a)"><path d="M16.923 167.456C6.633 195.19 1 225.185 1 256.499c0 31.314 5.633 61.311 15.923 89.043L257 367.803l240.077-22.261C507.367 317.81 513 287.813 513 256.499c0-31.314-5.633-61.309-15.923-89.043L257 145.195 16.923 167.456z" fill="#F0F0F0"/><path d="M257.002.5C146.932.5 53.096 69.972 16.926 167.457H497.08C460.908 69.972 367.074.5 257.002.5z" fill="#D80027"/><path d="M257.002 512.5c110.072 0 203.906-69.472 240.078-166.957H16.926C53.096 443.028 146.932 512.5 257.002 512.5z" fill="#6DA544"/></g></svg>