<svg width="514" height="513" fill="none" xmlns="http://www.w3.org/2000/svg"><mask id="a" style="mask-type:luminance" maskUnits="userSpaceOnUse" x="1" y="0" width="512" height="513"><path d="M513 .5H1v512h512V.5z" fill="#fff"/></mask><g mask="url(#a)"><path d="M257 512.5c141.385 0 256-114.615 256-256S398.385.5 257 .5 1 115.115 1 256.5s114.615 256 256 256z" fill="#F0F0F0"/><path d="M9.82 323.281c14.812 54.959 47.457 102.593 91.355 136.322V323.281H9.82zm224.922 188.243a259.29 259.29 0 0022.261.974c118.279 0 217.805-80.221 247.181-189.217H234.742v188.243zm269.442-321.807C474.808 80.721 375.282.5 257.003.5c-7.502 0-14.923.342-22.261.974v188.243h269.442zM101.175 53.395C57.277 87.124 24.632 134.757 9.82 189.716h91.355V53.394z" fill="#0052B4"/><path d="M510.833 223.11H201.349l-.001-216.524a254.256 254.256 0 00-66.783 25.042v191.481H3.167A258.2 258.2 0 001 256.501c0 11.317.742 22.461 2.167 33.391h131.398v191.481a254.258 254.258 0 0066.783 25.042V289.893h309.485A258.556 258.556 0 00513 256.501c0-11.317-.744-22.461-2.167-33.391z" fill="#D80027"/></g></svg>