<svg width="514" height="513" fill="none" xmlns="http://www.w3.org/2000/svg"><mask id="a" style="mask-type:luminance" maskUnits="userSpaceOnUse" x="1" y="0" width="512" height="513"><path d="M513 .5H1v512h512V.5z" fill="#fff"/></mask><g mask="url(#a)"><path d="M257 512.5c141.385 0 256-114.615 256-256S398.385.5 257 .5 1 115.115 1 256.5s114.615 256 256 256z" fill="#F0F0F0"/><path d="M256.998.5c-101.5 0-189.2 59.1-230.6 144.7h461.2C446.198 59.6 358.498.5 256.998.5z" fill="#FF9811"/><path d="M256.998 512.501c101.5 0 189.2-59.1 230.6-144.7h-461.2c41.4 85.6 129.1 144.7 230.6 144.7z" fill="#6DA544"/></g></svg>