<svg width="514" height="513" fill="none" xmlns="http://www.w3.org/2000/svg"><mask id="a" style="mask-type:luminance" maskUnits="userSpaceOnUse" x="1" y="0" width="512" height="513"><path d="M513 .5H1v512h512V.5z" fill="#fff"/></mask><g mask="url(#a)"><path d="M257 512.5c141.385 0 256-114.615 256-256S398.385.5 257 .5 1 115.115 1 256.5s114.615 256 256 256z" fill="#F0F0F0"/><path d="M257 .5C155.506.5 67.81 59.565 26.402 145.196h461.195C446.19 59.565 358.493.5 257 .5zm0 512.001c101.493 0 189.19-59.065 230.598-144.696H26.402C67.81 453.436 155.506 512.501 257 512.501z" fill="#338AF3"/><path d="M333.514 256.502l-31.265 14.707 16.649 30.279-33.95-6.495-4.302 34.296-23.647-25.224-23.648 25.224-4.301-34.296-33.95 6.494 16.648-30.279-31.264-14.706 31.265-14.707-16.649-30.278 33.949 6.494 4.303-34.296 23.647 25.224 23.648-25.224 4.301 34.296 33.951-6.494-16.649 30.279 31.264 14.706z" fill="#FFDA44"/></g></svg>