<svg width="514" height="513" fill="none" xmlns="http://www.w3.org/2000/svg"><mask id="a" style="mask-type:luminance" maskUnits="userSpaceOnUse" x="1" y="0" width="512" height="513"><path d="M513 .5H1v512h512V.5z" fill="#fff"/></mask><g mask="url(#a)"><path d="M257 512.5c141.385 0 256-114.615 256-256S398.385.5 257 .5 1 115.115 1 256.5s114.615 256 256 256z" fill="#F0F0F0"/><path d="M340.147 189.716h-33.494c.277 3.681.434 7.395.434 11.13 0 24.764-6.19 48.767-16.981 65.853-3.329 5.27-8.923 12.712-16.411 17.732v-94.716h-33.391v94.716c-7.487-5.02-13.082-12.461-16.411-17.732-10.792-17.086-16.981-41.089-16.981-65.853 0-3.735.158-7.45.434-11.13h-33.494a189.872 189.872 0 00-.332 11.13c0 68.656 36.668 122.435 83.478 122.435 46.81 0 83.478-53.779 83.478-122.435.002-3.757-.115-7.467-.329-11.13z" fill="#D80027"/><path d="M106.739 122.935h33.391v22.261h33.391v-22.261h33.391v22.261h33.391v-22.261h33.391v22.261h33.391v-22.261h33.391v22.261h33.391v-22.261h33.391v22.261h80.337C446.19 59.565 358.493.5 257 .5S67.81 59.565 26.402 145.196h80.337v-22.261z" fill="#6DA544"/><path d="M407.261 367.805v22.261H373.87v-22.261h-33.391v22.261h-33.391v-22.261h-33.391v22.261h-33.391v-22.261h-33.391v22.261h-33.391v-22.261H140.13v22.261h-33.391v-22.261H26.402C67.81 453.436 155.506 512.501 257 512.501s189.19-59.065 230.598-144.696h-80.337z" fill="#D80027"/></g></svg>