<svg width="514" height="513" fill="none" xmlns="http://www.w3.org/2000/svg"><mask id="a" style="mask-type:luminance" maskUnits="userSpaceOnUse" x="1" y="0" width="512" height="513"><path d="M513 .5H1v512h512V.5z" fill="#fff"/></mask><g mask="url(#a)"><path d="M257 512.5c141.385 0 256-114.615 256-256S398.385.5 257 .5 1 115.115 1 256.5s114.615 256 256 256z" fill="#F0F0F0"/><path d="M256.999.5C146.928.5 53.093 69.972 16.922 167.457h480.155C460.905 69.972 367.07.5 256.999.5z" fill="#A2001D"/><path d="M256.999 512.5c110.071 0 203.906-69.472 240.077-166.957H16.922C53.092 443.028 146.928 512.5 256.999 512.5z" fill="#000"/><path d="M195.783 239.806c-.14 0-.277.009-.417.011v-.011h-48.937c2.481-9.586 11.179-16.696 21.528-16.696v-33.391c-30.687 0-55.652 24.966-55.652 55.652v27.827h83.478a5.571 5.571 0 015.565 5.565v11.13H90.043v33.391h144.696v-44.522c0-21.48-17.476-38.956-38.956-38.956zm83.479 50.087V189.719h-33.391v133.566h55.652v-33.392h-22.261zm111.303.001V189.719h-33.391v100.175h-11.131v-33.391h-33.391v66.783h100.174v-33.392h-22.261z" fill="#496E2D"/></g></svg>