<svg width="514" height="513" fill="none" xmlns="http://www.w3.org/2000/svg"><mask id="a" style="mask-type:luminance" maskUnits="userSpaceOnUse" x="1" y="0" width="512" height="513"><path d="M513 .5H1v512h512V.5z" fill="#fff"/></mask><g mask="url(#a)"><path d="M257 512.5c141.385 0 256-114.615 256-256S398.385.5 257 .5 1 115.115 1 256.5s114.615 256 256 256z" fill="#D80027"/><path d="M351.788 172.11l-18.094 64.571-54.29-10.025-34.946-72.035-94.407 33.501-7.445-20.98-24.7-3.043 18.611 52.449 64.969-16.615 18.463 52.029-44.912 66.282 76.217 65.006-14.446 16.937 9.714 22.914 36.118-42.344-46.874-47.957 35.827-42.003 79.858 5.754 18.189-98.51 21.891 4.043 14.989-19.87-54.732-10.104z" fill="#F0F0F0"/></g></svg>