<svg width="514" height="513" fill="none" xmlns="http://www.w3.org/2000/svg"><mask id="a" style="mask-type:luminance" maskUnits="userSpaceOnUse" x="1" y="0" width="512" height="513"><path d="M513 .5H1v512h512V.5z" fill="#fff"/></mask><g mask="url(#a)"><path d="M257 512.5c141.385 0 256-114.615 256-256S398.385.5 257 .5 1 115.115 1 256.5s114.615 256 256 256z" fill="#F0F0F0"/><path d="M353.391 200.847h-64.263l-32.13-55.652-32.129 55.652h-64.264l32.134 55.652-32.134 55.652h64.264l32.129 55.652 32.13-55.652h64.263l-32.134-55.652 32.134-55.652zm-56.918 55.652l-19.736 34.188h-39.475l-19.739-34.188 19.738-34.188h39.475l19.737 34.188zm-39.475-68.377l7.346 12.724h-14.69l7.344-12.724zm-59.214 34.189h14.692l-7.346 12.724-7.346-12.724zm0 68.376l7.347-12.724 7.346 12.724h-14.693zm59.214 34.188l-7.345-12.724h14.691l-7.346 12.724zm59.214-34.188H301.52l7.347-12.724 7.345 12.724zm-14.692-68.376h14.692l-7.346 12.724-7.346-12.724zM416.357 56.152H97.643a257.297 257.297 0 00-59.069 66.783h436.852a257.35 257.35 0 00-59.069-66.783zM97.643 456.849h318.713a257.293 257.293 0 0059.069-66.783H38.575a257.346 257.346 0 0059.068 66.783z" fill="#0052B4"/></g></svg>