<svg width="514" height="513" fill="none" xmlns="http://www.w3.org/2000/svg"><mask id="a" style="mask-type:luminance" maskUnits="userSpaceOnUse" x="1" y="0" width="512" height="513"><path d="M513 .5H1v512h512V.5z" fill="#fff"/></mask><g mask="url(#a)"><path d="M257 512.5c141.385 0 256-114.615 256-256S398.385.5 257 .5 1 115.115 1 256.5s114.615 256 256 256z" fill="#FFDA44"/><path d="M412.858 53.42C369.691 20.239 315.656.5 257.002.5c-58.654 0-112.69 19.74-155.857 52.92l155.857 155.856L412.858 53.42z" fill="#6DA544"/><path d="M53.919 100.645C20.74 143.812 1 197.847 1 256.501c0 58.654 19.74 112.69 52.92 155.858l155.857-155.858L53.919 100.645z" fill="#000"/><path d="M101.145 459.579c43.168 33.181 97.203 52.92 155.857 52.92 58.654 0 112.689-19.74 155.857-52.92L257.002 303.723 101.145 459.579z" fill="#6DA544"/><path d="M460.079 412.357c33.181-43.167 52.92-97.202 52.92-155.856 0-58.654-19.739-112.689-52.92-155.856L304.223 256.501l155.856 155.856z" fill="#000"/></g></svg>