<svg width="514" height="513" fill="none" xmlns="http://www.w3.org/2000/svg"><mask id="a" style="mask-type:luminance" maskUnits="userSpaceOnUse" x="1" y="0" width="512" height="513"><path d="M513 .5H1v512h512V.5z" fill="#fff"/></mask><g mask="url(#a)"><path d="M257 512.5c141.385 0 256-114.615 256-256S398.385.5 257 .5 1 115.115 1 256.5s114.615 256 256 256z" fill="#F0F0F0"/><path d="M460.098 412.375L304.223 256.501h-.001l155.876-155.877a258.207 258.207 0 00-47.222-47.222L257.001 209.277l-.001.001L101.125 53.402a258.222 258.222 0 00-47.222 47.222l155.875 155.874.001.001L53.902 412.376a258.239 258.239 0 0047.222 47.222L257 303.723l.001-.001 155.875 155.875a258.324 258.324 0 0047.222-47.222z" fill="#D80027"/><path d="M212.477 78.414l44.522 11.13 44.522-11.13V40.57l-17.809 8.904-26.713-26.713-26.713 26.713-17.809-8.904v37.843z" fill="#FFDA44"/><path d="M212.477 78.414v27.828c0 34.08 44.522 44.522 44.522 44.522s44.522-10.443 44.522-44.522V78.414h-89.044z" fill="#D80027"/></g></svg>