<svg width="514" height="513" fill="none" xmlns="http://www.w3.org/2000/svg"><mask id="a" style="mask-type:luminance" maskUnits="userSpaceOnUse" x="1" y="0" width="512" height="513"><path d="M513 .5H1v512h512V.5z" fill="#fff"/></mask><g mask="url(#a)"><path d="M257 512.5c141.385 0 256-114.615 256-256S398.385.5 257 .5 1 115.115 1 256.5s114.615 256 256 256z" fill="#F0F0F0"/><path d="M156.825 167.457h340.25C460.905 69.972 367.069.5 256.999.5c-70.694 0-134.687 28.659-181.01 74.989l80.836 91.968z" fill="#000"/><path d="M156.825 345.543h340.25C460.905 443.028 367.069 512.5 256.999 512.5c-70.694 0-134.687-28.659-181.01-74.989l80.836-91.968z" fill="#6DA544"/><path d="M75.98 75.48c-99.974 99.974-99.974 262.065 0 362.04L257 256.5 75.98 75.48z" fill="#D80027"/><path d="M102.606 200.848l14.049 29.379 31.729-7.333-14.21 29.301 25.515 20.234-31.767 7.159.088 32.564-25.404-20.373-25.405 20.373.09-32.564-31.768-7.159 25.514-20.234-14.208-29.301 31.727 7.333 14.05-29.379z" fill="#F0F0F0"/></g></svg>