<svg width="514" height="513" fill="none" xmlns="http://www.w3.org/2000/svg"><mask id="a" style="mask-type:luminance" maskUnits="userSpaceOnUse" x="1" y="0" width="512" height="513"><path d="M513 .5H1v512h512V.5z" fill="#fff"/></mask><g mask="url(#a)"><path d="M257 512.5c141.385 0 256-114.615 256-256S398.385.5 257 .5 1 115.115 1 256.5s114.615 256 256 256z" fill="#338AF3"/><path d="M401.697 259.281H112.305c0 19.979 17.401 36.174 37.378 36.174h-1.204c0 19.979 16.195 36.174 36.174 36.174 0 19.979 16.195 36.174 36.174 36.174h72.348c19.979 0 36.174-16.195 36.174-36.174 19.979 0 36.174-16.195 36.174-36.174h-1.204c19.975 0 37.378-16.195 37.378-36.174z" fill="#FFDA44"/><path d="M357.172 211.977c0 55.324-44.85 100.174-100.174 100.174-55.325 0-100.174-44.85-100.174-100.174" fill="#338AF3"/><path d="M333.514 211.978l-31.265 14.707 16.649 30.28-33.95-6.495-4.302 34.296-23.647-25.225-23.648 25.225-4.301-34.296-33.95 6.493 16.648-30.279-31.264-14.706 31.265-14.706-16.649-30.279 33.949 6.494 4.303-34.296 23.647 25.225 23.648-25.225 4.301 34.296 33.951-6.494-16.649 30.28 31.264 14.705z" fill="#FFDA44"/></g></svg>