<svg width="514" height="513" fill="none" xmlns="http://www.w3.org/2000/svg"><mask id="a" style="mask-type:luminance" maskUnits="userSpaceOnUse" x="1" y="0" width="512" height="513"><path d="M513 .5H1v512h512V.5z" fill="#fff"/></mask><g mask="url(#a)"><path d="M257 512.5c141.385 0 256-114.615 256-256S398.385.5 257 .5 1 115.115 1 256.5s114.615 256 256 256z" fill="#F0F0F0"/><path d="M257 .5C155.506.5 67.81 59.565 26.402 145.196h461.195C446.19 59.565 358.493.5 257 .5z" fill="#000"/><path d="M257 512.501c-101.494 0-189.19-59.065-230.598-144.696h461.195C446.19 453.436 358.493 512.501 257 512.501z" fill="#496E2D"/><path d="M500.911 178.586H13.089C5.247 203.155 1 229.33 1 256.499c0 27.169 4.247 53.344 12.089 77.913H500.91c7.843-24.569 12.09-50.744 12.09-77.913 0-27.169-4.247-53.344-12.089-77.913z" fill="#A2001D"/><path d="M336.715 118.802l-30.317-13.993L257 216.66l-49.398-111.851-30.317 13.993 61.328 137.699L177.285 394.2l30.317 13.993L257 296.342l49.398 111.851 30.317-13.993-61.328-137.699 61.328-137.699z" fill="#F0F0F0"/><path d="M277.592 131.99c-11.736-12.817-20.591-20.185-20.591-20.185s-8.855 7.367-20.591 20.185v249.02c11.736 12.819 20.591 20.187 20.591 20.187s8.855-7.367 20.591-20.186V131.99z" fill="#F0F0F0"/><path d="M201.348 179.744v153.512c12.402 21.975 27.581 39.987 38.957 51.929V127.816c-11.376 11.941-26.556 29.954-38.957 51.928zm111.304 0c-12.403-21.975-27.581-39.987-38.957-51.928v257.369c11.375-11.942 26.554-29.954 38.957-51.929V179.744z" fill="#A2001D"/><path d="M312.652 179.742v153.512c12.555-22.249 22.261-48.558 22.261-76.755 0-28.197-9.706-54.507-22.261-76.757zm-111.305 0v153.512c-12.555-22.249-22.261-48.558-22.261-76.755 0-28.197 9.706-54.507 22.261-76.757z" fill="#000"/></g></svg>