<svg width="514" height="513" fill="none" xmlns="http://www.w3.org/2000/svg"><mask id="a" style="mask-type:luminance" maskUnits="userSpaceOnUse" x="1" y="0" width="512" height="513"><path d="M513 .5H1v512h512V.5z" fill="#fff"/></mask><g mask="url(#a)"><path d="M257 512.5c141.385 0 256-114.615 256-256S398.385.5 257 .5 1 115.115 1 256.5s114.615 256 256 256z" fill="#0052B4"/><path d="M113.449 156.328l5.526 17.008h17.88l-14.465 10.509 5.525 17.005-14.466-10.509-14.467 10.509 5.527-17.005-14.466-10.509h17.879l5.527-17.008zm55.651-16.695l5.526 17.007h17.88l-14.465 10.509 5.525 17.005-14.466-10.509-14.466 10.509 5.526-17.005-14.465-10.509h17.88l5.525-17.007zm55.653-16.695l5.526 17.005h17.88l-14.465 10.511 5.525 17.004-14.466-10.509-14.466 10.509 5.526-17.004-14.465-10.511h17.88l5.525-17.005zm175.798 33.39l-5.526 17.008h-17.88l14.466 10.509-5.526 17.005 14.466-10.509 14.467 10.509-5.527-17.005 14.466-10.509h-17.88l-5.526-17.008zm-55.653-16.695l-5.526 17.007h-17.88l14.466 10.509-5.526 17.005 14.466-10.509 14.466 10.509-5.526-17.005 14.465-10.509h-17.88l-5.525-17.007zm-55.652-16.695l-5.526 17.005h-17.88l14.465 10.511-5.525 17.004 14.466-10.509 14.466 10.509-5.526-17.004 14.465-10.511h-17.88l-5.525-17.005z" fill="#F0F0F0"/><path d="M301.521 267.629l-44.522-55.652-22.261 11.13v22.261l-33.391 22.261h-22.261v28.759c32.628 13.212 55.652 45.181 55.652 82.546h22.261v-22.261l22.261-22.261 22.261 22.261 22.261-22.261v-22.261l22.261-33.391-44.522-11.131z" fill="#FFDA44"/></g></svg>