<svg width="514" height="513" fill="none" xmlns="http://www.w3.org/2000/svg"><mask id="a" style="mask-type:luminance" maskUnits="userSpaceOnUse" x="1" y="0" width="512" height="513"><path d="M513 .5H1v512h512V.5z" fill="#fff"/></mask><g mask="url(#a)"><path d="M257 512.5c141.385 0 256-114.615 256-256S398.385.5 257 .5 1 115.115 1 256.5s114.615 256 256 256z" fill="#D80027"/><path d="M382.199 256.498l-51.155 24.062 27.241 49.547-55.553-10.629-7.036 56.116-38.695-41.27-38.692 41.27-7.039-56.116-55.548 10.627 27.24-49.547-51.157-24.06 51.157-24.061-27.24-49.548 55.546 10.63 7.043-56.117 38.69 41.271 38.697-41.271 7.034 56.117 55.555-10.63-27.242 49.551 51.154 24.058z" fill="#FFDA44"/><path d="M256.999 334.412c43.03 0 77.913-34.883 77.913-77.913 0-43.03-34.883-77.913-77.913-77.913-43.03 0-77.913 34.883-77.913 77.913 0 43.03 34.883 77.913 77.913 77.913z" fill="#D80027"/><path d="M218.043 256.5c-1.877 0-3.73.096-5.559.278a44.33 44.33 0 0010.419 28.341 78.084 78.084 0 0115.053-24.922 55.357 55.357 0 00-19.913-3.697zm23.98 41.931a44.419 44.419 0 0014.975 2.589c5.256 0 10.295-.917 14.975-2.589-2.551-10.012-7.818-18.95-14.975-25.974-7.157 7.023-12.424 15.962-14.975 25.974zm53.532-64.186c-7.698-13.306-22.075-22.268-38.555-22.268s-30.857 8.961-38.555 22.268A77.402 77.402 0 01257 244.721a77.396 77.396 0 0138.555-10.476zm-19.512 25.952a78.062 78.062 0 0115.053 24.922 44.33 44.33 0 0010.419-28.341 55.832 55.832 0 00-5.559-.278 55.33 55.33 0 00-19.913 3.697z" fill="#FFDA44"/></g></svg>