<svg width="514" height="513" fill="none" xmlns="http://www.w3.org/2000/svg"><mask id="a" style="mask-type:luminance" maskUnits="userSpaceOnUse" x="1" y="0" width="512" height="513"><path d="M513 .5H1v512h512V.5z" fill="#fff"/></mask><g mask="url(#a)"><path d="M487.598 145.196C446.19 59.565 358.494.5 257 .5S67.81 59.565 26.402 145.196L257 167.457l230.598-22.261zM26.402 367.804C67.81 453.435 155.506 512.5 257 512.5s189.19-59.065 230.598-144.696L257 345.543 26.402 367.804z" fill="#D80027"/><path d="M487.598 145.195H26.402C10.128 178.85 1 216.608 1 256.499c0 39.891 9.128 77.649 25.402 111.304h461.195C503.873 334.148 513 296.39 513 256.499c0-39.891-9.127-77.649-25.402-111.304z" fill="#0052B4"/><path d="M257 345.543c49.177 0 89.043-39.866 89.043-89.043 0-49.177-39.866-89.043-89.043-89.043-49.177 0-89.043 39.866-89.043 89.043 0 49.177 39.866 89.043 89.043 89.043z" fill="#F0F0F0"/></g></svg>