<svg width="514" height="513" fill="none" xmlns="http://www.w3.org/2000/svg"><mask id="a" style="mask-type:luminance" maskUnits="userSpaceOnUse" x="1" y="0" width="512" height="513"><path d="M513 .5H1v512h512V.5z" fill="#fff"/></mask><g mask="url(#a)"><path d="M257 512.5c141.385 0 256-114.615 256-256S398.385.5 257 .5 1 115.115 1 256.5s114.615 256 256 256z" fill="#F0F0F0"/><path d="M257.001.5C138.722.5 39.196 80.721 9.821 189.717h494.362C474.806 80.721 375.28.5 257.001.5zm0 511.998c118.279 0 217.805-80.221 247.181-189.217H9.82c29.376 108.995 128.902 189.217 247.181 189.217z" fill="#A2001D"/></g></svg>