<svg width="514" height="513" fill="none" xmlns="http://www.w3.org/2000/svg"><mask id="a" style="mask-type:luminance" maskUnits="userSpaceOnUse" x="1" y="0" width="512" height="513"><path d="M513 .5H1v512h512V.5z" fill="#fff"/></mask><g mask="url(#a)"><path d="M257 512.5c141.385 0 256-114.615 256-256S398.385.5 257 .5 1 115.115 1 256.5s114.615 256 256 256z" fill="#FFDA44"/><path d="M256.999 512.5c77.591 0 147.114-34.524 194.061-89.043H62.937C109.885 477.976 179.409 512.5 257 512.5zM513 256.5C513 115.116 398.384.5 257 .5 115.616.5 1 115.116 1 256.5c0 23.107 3.08 45.489 8.819 66.783h494.363C509.92 301.989 513 279.607 513 256.5zM21.348 356.676a255.192 255.192 0 0017.225 33.391h436.852a255.576 255.576 0 0017.227-33.391H21.348z" fill="#338AF3"/><path d="M118.317 161.964L68.301 139.89l50.016-22.074 22.073-50.015 22.073 50.015 50.015 22.074-50.015 22.074-22.073 50.015-22.073-50.015z" fill="#F0F0F0"/><path d="M140.389 95.367l13.631 30.889 30.89 13.633-30.89 13.632-13.631 30.889-13.633-30.889-30.889-13.632 30.889-13.633 13.633-30.889z" fill="#D80027"/></g></svg>