<svg width="514" height="513" fill="none" xmlns="http://www.w3.org/2000/svg"><mask id="a" style="mask-type:luminance" maskUnits="userSpaceOnUse" x="1" y="0" width="512" height="513"><path d="M513 .5H1v512h512V.5z" fill="#fff"/></mask><g mask="url(#a)"><path d="M257 512.5c141.385 0 256-114.615 256-256S398.385.5 257 .5 1 115.115 1 256.5s114.615 256 256 256z" fill="#F0F0F0"/><path d="M257 .5C155.506.5 67.81 59.565 26.402 145.196h461.195C446.19 59.565 358.493.5 257 .5zm0 512.001c101.493 0 189.19-59.065 230.598-144.696H26.402C67.81 453.436 155.506 512.501 257 512.501z" fill="#D80027"/><path d="M323.785 301.021l-66.783-122.435-66.783 122.435h50.087v33.391h33.392v-33.391h50.087z" fill="#6DA544"/></g></svg>