<svg width="514" height="513" fill="none" xmlns="http://www.w3.org/2000/svg"><mask id="a" style="mask-type:luminance" maskUnits="userSpaceOnUse" x="1" y="0" width="512" height="513"><path d="M513 .5H1v512h512V.5z" fill="#fff"/></mask><g mask="url(#a)"><path d="M1 256.501c0 39.89 9.127 77.648 25.402 111.304L257 378.936l230.598-11.13C503.873 334.149 513 296.391 513 256.501s-9.127-77.648-25.402-111.304L257 134.066l-230.598 11.13C10.127 178.853 1 216.611 1 256.501z" fill="#F0F0F0"/><path d="M257 512.501c101.493 0 189.19-59.065 230.598-144.696H26.402C67.81 453.436 155.506 512.501 257 512.501z" fill="#6DA544"/><path d="M257 .5C155.506.5 67.81 59.565 26.402 145.196h461.195C446.19 59.565 358.493.5 257 .5z" fill="#0052B4"/><path d="M273.698 250.936v-61.217h-33.391v61.217l-40.33 40.331c11.729 19.2 32.88 32.017 57.026 32.017s45.296-12.817 57.026-32.017l-40.331-40.331z" fill="#000"/></g></svg>