<svg width="514" height="513" fill="none" xmlns="http://www.w3.org/2000/svg"><mask id="a" style="mask-type:luminance" maskUnits="userSpaceOnUse" x="1" y="0" width="512" height="513"><path d="M513 .5H1v512h512V.5z" fill="#fff"/></mask><g mask="url(#a)"><path d="M257 512.5c141.385 0 256-114.615 256-256S398.385.5 257 .5 1 115.115 1 256.5s114.615 256 256 256z" fill="#F0F0F0"/><path d="M59.516 93.592h394.968a257.414 257.414 0 00-50.277-46.545H109.793a257.341 257.341 0 00-50.277 46.545zM1 256.499c0 7.847.373 15.605 1.064 23.273h509.872A259.157 259.157 0 00513 256.499c0-7.847-.373-15.605-1.064-23.272H2.064A259.117 259.117 0 001 256.499zm27.917 116.365h456.168a254.3 254.3 0 0018.276-46.544H10.641a254.271 254.271 0 0018.276 46.544zm80.876 93.091h294.413a257.414 257.414 0 0050.277-46.545H59.516a257.495 257.495 0 0050.277 46.545zM10.64 186.682h492.723a254.256 254.256 0 00-18.277-46.545H28.918a254.328 254.328 0 00-18.277 46.545z" fill="#F0F0F0"/><path d="M123.434 47.045h280.772C362.566 17.727 311.796.5 256.999.5c-33.391 0-91.925 17.227-133.565 46.545zm122.433 93.094h239.214a256.315 256.315 0 00-30.6-46.545H245.867v46.545zm0 93.09h266.066a255.13 255.13 0 00-8.575-46.545H245.867v46.545zM10.639 326.318h492.719a255.03 255.03 0 008.577-46.545H2.062a255.045 255.045 0 008.577 46.545zm48.875 93.09h394.968a256.41 256.41 0 0030.6-46.545H28.914a256.306 256.306 0 0030.6 46.545zM257 512.498c54.797 0 105.567-17.227 147.207-46.545H109.793c41.64 29.318 92.41 46.545 147.207 46.545z" fill="#D80027"/><path d="M10.637 186.682c-4.242 15-7.135 30.563-8.575 46.545H257V.5C139.819.5 41.029 79.232 10.637 186.682z" fill="#0052B4"/><path d="M153.387 67.281l16.575 51.015h53.646l-43.398 31.532 16.574 51.018-43.397-31.53-43.399 31.53 16.578-51.018-43.398-31.532h53.643l16.576-51.015z" fill="#F0F0F0"/></g></svg>