<svg width="514" height="513" fill="none" xmlns="http://www.w3.org/2000/svg"><mask id="a" style="mask-type:luminance" maskUnits="userSpaceOnUse" x="1" y="0" width="512" height="513"><path d="M513 .5H1v512h512V.5z" fill="#fff"/></mask><g mask="url(#a)"><path d="M26.402 145.195C10.128 178.851 1 216.608 1 256.499c0 39.891 9.128 77.648 25.402 111.304L257 390.064l230.598-22.261C503.872 334.147 513 296.39 513 256.499c0-39.891-9.128-77.648-25.402-111.304L257 122.934 26.402 145.195z" fill="#000"/><path d="M26.41 367.805C67.816 453.436 155.505 512.501 257 512.501c101.493 0 189.183-59.065 230.589-144.696H26.41z" fill="#496E2D"/><path d="M26.41 145.196h461.178C446.182 59.565 358.492.5 256.999.5 155.505.5 67.816 59.565 26.41 145.196z" fill="#D80027"/><path d="M316.584 209.688l21.004 28.944 34.017-11.03-21.038 28.919 21.002 28.944-34.004-11.071-21.038 28.919.022-35.76-34.006-11.073 34.018-11.029.023-35.763z" fill="#F0F0F0"/><path d="M259.26 328.849c-39.956 0-72.348-32.392-72.348-72.348 0-39.956 32.392-72.348 72.348-72.348 12.458 0 24.181 3.15 34.415 8.696-16.056-15.701-38.012-25.392-62.241-25.392-49.178 0-89.043 39.866-89.043 89.043 0 49.177 39.866 89.043 89.043 89.043 24.23 0 46.186-9.691 62.241-25.392-10.235 5.548-21.956 8.698-34.415 8.698z" fill="#F0F0F0"/></g></svg>