<svg width="514" height="513" fill="none" xmlns="http://www.w3.org/2000/svg"><mask id="a" style="mask-type:luminance" maskUnits="userSpaceOnUse" x="1" y="0" width="512" height="513"><path d="M513 .5H1v512h512V.5z" fill="#fff"/></mask><g mask="url(#a)"><path d="M513 256.5c0 141.384-114.616 256-256 256-141.384 0-256-114.616-256-256 11.13 0 256-33.391 256-33.391L513 256.5z" fill="#D80027"/><path d="M1 256.5C1 115.116 115.616.5 257 .5c141.384 0 256 114.616 256 256" fill="#0052B4"/><path d="M190.217 178.589c0-18.441-14.95-33.391-33.391-33.391-8.555 0-16.352 3.22-22.261 8.509v-19.64h11.13v-22.261h-11.13v-11.13h-22.261v11.13h-11.13v22.261h11.13v19.64c-5.909-5.289-13.706-8.509-22.26-8.509-18.442 0-33.392 14.95-33.392 33.391 0 9.887 4.301 18.767 11.13 24.882v19.64h111.304v-19.64c6.831-6.115 11.131-14.995 11.131-24.882z" fill="#FFDA44"/></g></svg>