<svg width="514" height="513" fill="none" xmlns="http://www.w3.org/2000/svg"><mask id="a" style="mask-type:luminance" maskUnits="userSpaceOnUse" x="1" y="0" width="512" height="513"><path d="M513 .5H1v512h512V.5z" fill="#fff"/></mask><g mask="url(#a)"><path d="M257 512.5c141.385 0 256-114.615 256-256S398.385.5 257 .5 1 115.115 1 256.5s114.615 256 256 256z" fill="#496E2D"/><path d="M301.522 245.826c-6.284 0-12.25 1.253-17.79 3.247 3.035-6.764 5.07-14.29 5.07-22.327 0-31.801-31.801-55.652-31.801-55.652S225.2 194.945 225.2 226.746c0 8.036 2.035 15.563 5.07 22.327-5.541-1.992-11.507-3.247-17.79-3.247-31.801 0-55.652 31.801-55.652 31.801s23.851 31.802 55.652 31.802c18.645 0 34.547-10.928 44.522-19.974 9.975 9.045 25.877 19.974 44.522 19.974 31.801 0 55.652-31.802 55.652-31.802s-23.853-31.801-55.654-31.801z" fill="#F0F0F0"/><path d="M256.998 100.676l6.569 20.216h21.257l-17.195 12.496 6.564 20.216-17.195-12.496-17.195 12.496 6.564-20.216-17.195-12.496h21.257l6.569-20.216zm-80.834 35.359l12.638 11.378 14.727-8.502-6.916 15.535 12.637 11.38-16.912-1.778-6.916 15.535-3.538-16.633-16.911-1.778 14.726-8.504-3.535-16.633zm-59.172 59.173l16.634 3.535 8.503-14.727 1.778 16.911 16.632 3.538-15.534 6.917 1.778 16.91-11.381-12.635-15.534 6.916 8.503-14.728-11.379-12.637zm220.839-59.173l-12.637 11.378-14.727-8.502 6.915 15.535-12.636 11.38 16.912-1.778 6.916 15.535 3.538-16.633 16.911-1.778-14.726-8.504 3.534-16.633zm59.173 59.173l-16.634 3.535-8.502-14.727-1.779 16.911-16.632 3.538 15.534 6.917-1.778 16.91 11.381-12.635 15.534 6.916-8.503-14.728 11.379-12.637z" fill="#FFDA44"/><path d="M257.003 398.472c25.261 0 48.545-8.428 67.223-22.609H189.781c18.678 14.18 41.961 22.609 67.222 22.609zm-102.034-66.784a111.283 111.283 0 0013.275 22.609h177.518a111.255 111.255 0 0013.275-22.609H154.969z" fill="#F0F0F0"/></g></svg>