<svg width="514" height="513" fill="none" xmlns="http://www.w3.org/2000/svg"><mask id="a" style="mask-type:luminance" maskUnits="userSpaceOnUse" x="1" y="0" width="512" height="513"><path d="M513 .5H1v512h512V.5z" fill="#fff"/></mask><g mask="url(#a)"><path d="M257 512.5c141.385 0 256-114.615 256-256S398.385.5 257 .5 1 115.115 1 256.5s114.615 256 256 256z" fill="#F0F0F0"/><path d="M167.957 256.501v240.077c27.732 10.291 57.729 15.923 89.043 15.923 141.384 0 256-114.616 256-256 0-141.384-345.043 0-345.043 0z" fill="#6DA544"/><path d="M257 .5c-31.314 0-61.311 5.633-89.043 15.923V256.5H513C513 115.116 398.384.5 257 .5z" fill="#D80027"/></g></svg>