<svg width="514" height="513" fill="none" xmlns="http://www.w3.org/2000/svg"><mask id="a" style="mask-type:luminance" maskUnits="userSpaceOnUse" x="1" y="0" width="512" height="513"><path d="M513 .5H1v512h512V.5z" fill="#fff"/></mask><g mask="url(#a)"><path d="M368.303 25.902C334.647 9.628 296.89.5 256.999.5c-39.891 0-77.648 9.128-111.304 25.402L123.434 256.5l22.261 230.598c33.656 16.274 71.413 25.402 111.304 25.402 39.891 0 77.648-9.128 111.304-25.402L390.564 256.5 368.303 25.902z" fill="#FFDA44"/><path d="M145.696 25.91C60.065 67.317 1 155.006 1 256.5s59.065 189.182 144.696 230.589V25.91zm222.609 0v461.178c85.63-41.407 144.696-129.096 144.696-230.589S453.935 67.317 368.305 25.91z" fill="#0052B4"/><path d="M329.348 278.761l16.695 22.261v-89.044l-16.695 22.261h-50.087v-50.087l22.261-16.695h-89.044l22.261 16.695v50.087h-50.087l-16.695-22.261v89.044l16.695-22.261h50.087v50.087l-22.261 16.695h89.044l-22.261-16.695v-50.087h50.087z" fill="#D80027"/><path d="M323.785 245.372h-55.653v-55.653h-22.26v55.653h-55.653v22.26h55.653v55.653h22.26v-55.653h55.653v-22.26z" fill="#F0F0F0"/></g></svg>