<svg width="514" height="513" fill="none" xmlns="http://www.w3.org/2000/svg"><mask id="a" style="mask-type:luminance" maskUnits="userSpaceOnUse" x="1" y="0" width="512" height="513"><path d="M513 .5H1v512h512V.5z" fill="#fff"/></mask><g mask="url(#a)"><path d="M257 512.5c141.385 0 256-114.615 256-256S398.385.5 257 .5 1 115.115 1 256.5s114.615 256 256 256z" fill="#F0F0F0"/><path d="M245.871 256.502h267.13c0-23.107-3.08-45.489-8.819-66.783H245.871v66.783zm0-133.567h229.556a257.331 257.331 0 00-59.069-66.783H245.871v66.783zM257.002 512.5c60.249 0 115.626-20.824 159.357-55.652H97.645c43.731 34.828 99.108 55.652 159.357 55.652zM38.575 390.064h436.852a254.492 254.492 0 0028.755-66.783H9.82a254.459 254.459 0 0028.755 66.783z" fill="#D80027"/><path d="M257 256.5V.5C115.616.5 1 115.116 1 256.5h256z" fill="#0052B4"/><path d="M171.234 219.63c-34.962 0-63.304-28.343-63.304-63.304s28.343-63.304 63.304-63.304c10.901 0 21.158 2.757 30.113 7.609-14.048-13.737-33.26-22.217-54.461-22.217-43.029 0-77.913 34.883-77.913 77.913 0 43.03 34.884 77.913 77.913 77.913 21.201 0 40.413-8.48 54.461-22.217-8.955 4.85-19.211 7.607-30.113 7.607z" fill="#FFDA44"/><path d="M189.074 111.805l11.239 23.502 25.381-5.864-11.366 23.439 20.412 16.187-25.414 5.729.071 26.051-20.323-16.298-20.324 16.298.07-26.051-25.414-5.729 20.412-16.187-11.367-23.439 25.383 5.864 11.24-23.502z" fill="#FFDA44"/></g></svg>