<svg width="514" height="513" fill="none" xmlns="http://www.w3.org/2000/svg"><mask id="a" style="mask-type:luminance" maskUnits="userSpaceOnUse" x="1" y="0" width="512" height="513"><path d="M513 .5H1v512h512V.5z" fill="#fff"/></mask><g mask="url(#a)"><path d="M257 512.5c141.385 0 256-114.615 256-256S398.385.5 257 .5 1 115.115 1 256.5s114.615 256 256 256z" fill="#D80027"/><path d="M90.043 134.066h333.913v244.87H90.043v-244.87z" fill="#6DA544"/><path d="M298.228 328.849c-39.956 0-72.348-32.392-72.348-72.348 0-39.956 32.392-72.348 72.348-72.348 12.458 0 24.181 3.15 34.415 8.696-16.055-15.701-38.01-25.392-62.241-25.392-49.176 0-89.043 39.866-89.043 89.043 0 49.177 39.867 89.043 89.043 89.043 24.231 0 46.187-9.691 62.241-25.392-10.234 5.548-21.957 8.698-34.415 8.698z" fill="#F0F0F0"/></g></svg>