<svg width="514" height="513" fill="none" xmlns="http://www.w3.org/2000/svg"><mask id="a" style="mask-type:luminance" maskUnits="userSpaceOnUse" x="1" y="0" width="512" height="513"><path d="M513 .5H1v512h512V.5z" fill="#fff"/></mask><g mask="url(#a)"><path d="M346.042 16.423C318.309 6.133 288.313.5 256.999.5c-31.314 0-61.31 5.633-89.043 15.923L145.695 256.5l22.261 240.077c27.733 10.291 57.729 15.923 89.043 15.923 31.314 0 61.31-5.632 89.043-15.923L368.303 256.5 346.042 16.423z" fill="#FFDA44"/><path d="M513 256.502c0-110.07-69.472-203.906-166.957-240.076V496.58C443.528 460.408 513 366.574 513 256.502z" fill="#D80027"/><path d="M1 256.502C1 366.574 70.472 460.408 167.957 496.58V16.426C70.472 52.596 1 146.432 1 256.502z" fill="#6DA544"/></g></svg>