<svg width="514" height="513" fill="none" xmlns="http://www.w3.org/2000/svg"><mask id="a" style="mask-type:luminance" maskUnits="userSpaceOnUse" x="1" y="0" width="512" height="513"><path d="M513 .5H1v512h512V.5z" fill="#fff"/></mask><g mask="url(#a)"><path d="M257 512.5c141.385 0 256-114.615 256-256S398.385.5 257 .5 1 115.115 1 256.5s114.615 256 256 256z" fill="#F0F0F0"/><path d="M257 .5c141.384 0 256 114.616 256 256 0 141.384-114.616 256-256 256" fill="#D80027"/><path d="M179.088 100.672v-33.39h-33.391v33.39h-33.392v33.391h33.392v33.392h33.391v-33.392h33.391v-33.391h-33.391z" fill="#ACABB1"/></g></svg>