<svg width="514" height="513" fill="none" xmlns="http://www.w3.org/2000/svg"><mask id="a" style="mask-type:luminance" maskUnits="userSpaceOnUse" x="1" y="0" width="512" height="513"><path d="M513 .5H1v512h512V.5z" fill="#fff"/></mask><g mask="url(#a)"><path d="M257 512.5c141.384 0 256-114.616 256-256 0-42.963-10.6-83.446-29.302-119L256.699 256.8 376 29.802C340.446 11.1 299.963.5 257 .5 115.616.5 1 115.116 1 256.5c0 70.693 28.654 134.693 74.98 181.02C122.307 483.847 186.307 512.5 257 512.5z" fill="#0052B4"/><path d="M483.427 137.779c-11.718-22.304-26.953-43.245-45.707-61.999-18.755-18.754-39.693-33.989-61.999-45.706L75.68 437.82l407.747-300.04z" fill="#F0F0F0"/><path d="M75.68 437.82l407.747-300.04c-11.718-22.304-26.953-43.245-45.707-61.999L75.68 437.82z" fill="#FF9811"/><path d="M223.307 150.624l-31.264 14.706 16.649 30.28-33.95-6.495-4.302 34.296-23.648-25.225-23.648 25.225-4.3-34.296-33.95 6.493 16.647-30.279-31.264-14.705 31.265-14.707-16.648-30.278 33.948 6.493 4.303-34.296 23.647 25.225 23.648-25.225 4.302 34.296 33.951-6.493-16.649 30.279 31.263 14.706z" fill="#F0F0F0"/></g></svg>