<svg width="514" height="513" fill="none" xmlns="http://www.w3.org/2000/svg"><mask id="a" style="mask-type:luminance" maskUnits="userSpaceOnUse" x="1" y="0" width="512" height="513"><path d="M513 .5H1v512h512V.5z" fill="#fff"/></mask><g mask="url(#a)"><path d="M257 512.5c141.385 0 256-114.615 256-256S398.385.5 257 .5 1 115.115 1 256.5s114.615 256 256 256z" fill="#F0F0F0"/><path d="M510.806 223.106c-7.062-53.986-31.312-106.152-72.787-147.627-41.475-41.475-93.642-65.726-147.628-72.788l.001 220.415h220.414zM223.606 2.691C169.62 9.753 117.453 34.003 75.978 75.478c-41.474 41.476-65.725 93.643-72.787 147.63l220.416-.001-.001-220.416zM3.191 289.891c7.062 53.986 31.313 106.154 72.787 147.628 41.475 41.474 93.641 65.724 147.629 72.789l-.001-220.415-220.415-.002zm287.2 220.414c53.986-7.062 106.152-31.312 147.627-72.787 41.475-41.475 65.725-93.641 72.787-147.627H290.391v220.414z" fill="#0052B4"/><path d="M344.389 162.937a6.177 6.177 0 016.172-6.171h13.224c20.904 0 37.911-17.006 37.911-37.909s-17.006-37.91-37.911-37.91h-12.558c-4.099-3.08-9.598-4.978-15.664-4.978-12.653 0-22.91 8.205-22.91 18.327 0 10.024 10.061 18.156 22.545 18.314l-.006.073h28.593a6.177 6.177 0 016.172 6.172 6.177 6.177 0 01-6.172 6.171h-13.224c-20.904 0-37.909 17.006-37.909 37.909s17.004 37.91 37.909 37.91h51.134v-31.738h-51.134a6.175 6.175 0 01-6.172-6.17zm-200.348 0a6.177 6.177 0 016.172-6.171h13.224c20.904 0 37.911-17.006 37.911-37.909s-17.006-37.91-37.911-37.91h-12.558c-4.099-3.08-9.598-4.978-15.664-4.978-12.653 0-22.91 8.205-22.91 18.327 0 10.024 10.061 18.156 22.545 18.314l-.006.073h28.594a6.177 6.177 0 016.172 6.172 6.177 6.177 0 01-6.172 6.171h-13.224c-20.904 0-37.909 17.006-37.909 37.909s17.004 37.91 37.909 37.91h51.133v-31.738h-51.134a6.175 6.175 0 01-6.172-6.17zM344.39 399.12a6.177 6.177 0 016.172-6.171h13.224c20.904 0 37.911-17.006 37.911-37.909s-17.006-37.91-37.911-37.91h-12.558c-4.099-3.079-9.598-4.978-15.664-4.978-12.654 0-22.911 8.206-22.911 18.327 0 10.024 10.061 18.156 22.545 18.314l-.006.073h28.593a6.177 6.177 0 016.172 6.172 6.177 6.177 0 01-6.172 6.171h-13.224c-20.904 0-37.909 17.006-37.909 37.909s17.004 37.91 37.909 37.91h51.135v-31.737h-51.134a6.177 6.177 0 01-6.172-6.171zm-200.348 0a6.177 6.177 0 016.172-6.171h13.224c20.904 0 37.911-17.006 37.911-37.909s-17.006-37.91-37.911-37.91H150.88c-4.099-3.079-9.598-4.978-15.664-4.978-12.654 0-22.911 8.206-22.911 18.327 0 10.024 10.061 18.156 22.545 18.314l-.006.073h28.594a6.177 6.177 0 016.172 6.172 6.177 6.177 0 01-6.172 6.171h-13.224c-20.904 0-37.909 17.006-37.909 37.909s17.004 37.91 37.909 37.91h51.134v-31.737h-51.134a6.177 6.177 0 01-6.172-6.171z" fill="#F0F0F0"/></g></svg>