<svg width="514" height="513" fill="none" xmlns="http://www.w3.org/2000/svg"><mask id="a" style="mask-type:luminance" maskUnits="userSpaceOnUse" x="1" y="0" width="512" height="513"><path d="M513 .5H1v512h512V.5z" fill="#fff"/></mask><g mask="url(#a)"><path d="M257 512.5c141.385 0 256-114.615 256-256S398.385.5 257 .5 1 115.115 1 256.5s114.615 256 256 256z" fill="#496E2D"/><path d="M257 296.249c-42.626 0-78.236-29.958-86.973-69.963a89.373 89.373 0 00-2.07 19.081c0 49.179 39.865 89.043 89.043 89.043 49.178 0 89.043-39.865 89.043-89.043a89.39 89.39 0 00-2.07-19.082c-8.737 40.007-44.347 69.964-86.973 69.964z" fill="#FFDA44"/><path d="M257 178.586l8.288 25.509h26.823l-21.699 15.765 8.288 25.509-21.7-15.766-21.699 15.766 8.289-25.509-21.699-15.765h26.821L257 178.586z" fill="#FFDA44"/></g></svg>