<svg width="514" height="513" fill="none" xmlns="http://www.w3.org/2000/svg"><mask id="a" style="mask-type:luminance" maskUnits="userSpaceOnUse" x="1" y="0" width="512" height="513"><path d="M513 .5H1v512h512V.5z" fill="#fff"/></mask><g mask="url(#a)"><path d="M32.129 134.065l224.873 22.261 224.873-22.261C438.456 54.489 354.037.5 257.002.5S75.548 54.489 32.129 134.065z" fill="#D80027"/><path d="M32.127 378.934L257 401.195l224.873-22.261C501.717 342.563 513 300.849 513 256.499l-256-22.261L1 256.499c0 44.35 11.283 86.064 31.127 122.435z" fill="#FFDA44"/><path d="M32.127 134.066C12.283 170.437 1 212.151 1 256.501h512c0-44.35-11.283-86.064-31.127-122.435H32.127z" fill="#0052B4"/><path d="M257.002 512.499c97.035 0 181.454-53.989 224.873-133.565H32.129c43.419 79.576 127.838 133.565 224.873 133.565z" fill="#6DA544"/></g></svg>