<svg width="514" height="513" fill="none" xmlns="http://www.w3.org/2000/svg"><mask id="a" style="mask-type:luminance" maskUnits="userSpaceOnUse" x="1" y="0" width="512" height="513"><path d="M513 .5H1v512h512V.5z" fill="#fff"/></mask><g mask="url(#a)"><path d="M257 512.5c141.385 0 256-114.615 256-256S398.385.5 257 .5 1 115.115 1 256.5s114.615 256 256 256z" fill="#338AF3"/><path d="M123.434 278.762h267.13v33.391h-267.13v-33.391z" fill="#818085"/><path d="M167.957 178.587L257 189.719l89.043-11.132v-53.426l-35.617 17.809L257 89.543l-53.426 53.427-35.617-17.809v53.426z" fill="#FFDA44"/><path d="M145.697 345.546h-33.392v-61.218l11.131-16.697-11.131-16.695V211.98h33.392v133.566zm256 0h-33.392V211.98h33.392v38.955l-11.131 16.976 11.131 16.419v61.216z" fill="#F0F0F0"/><path d="M112.305 250.934h289.391v33.391H112.305v-33.391z" fill="#ACABB1"/><path d="M257 390.067c-49.099 0-89.043-39.945-89.043-89.043V178.59h178.087v122.434c-.001 49.098-39.945 89.043-89.044 89.043z" fill="#F0F0F0"/><path d="M257 356.674c-30.687 0-55.652-24.966-55.652-55.652V211.98h111.304v89.042c0 30.686-24.965 55.652-55.652 55.652z" fill="#0052B4"/><path d="M167.957 178.586h33.391v33.391h-33.391v-33.391zm144.695 0h33.391v33.391h-33.391v-33.391zm0 72.348h33.391v33.391h-33.391v-33.391zm-144.695 0h33.391v33.391h-33.391v-33.391zm72.348-72.348h33.391v33.391h-33.391v-33.391zm16.696 178.085c-5.816 0-11.423-.9-16.696-2.562v34.361a89.03 89.03 0 0016.696 1.593 89.03 89.03 0 0016.696-1.593v-34.361a55.476 55.476 0 01-16.696 2.562zm-54.908-46.616l-26.648 26.648a89.353 89.353 0 0019.314 27.908l23.6-23.6c-8.422-8.137-14.289-18.897-16.266-30.956zm136.465 26.652l-26.648-26.648c-1.978 12.058-7.844 22.817-16.265 30.957l23.6 23.6a89.4 89.4 0 0019.313-27.909z" fill="#D80027"/></g></svg>