<svg width="514" height="513" fill="none" xmlns="http://www.w3.org/2000/svg"><mask id="a" style="mask-type:luminance" maskUnits="userSpaceOnUse" x="1" y="0" width="512" height="513"><path d="M513 .5H1v512h512V.5z" fill="#fff"/></mask><g mask="url(#a)"><path d="M257 512.5c141.385 0 256-114.615 256-256S398.385.5 257 .5 1 115.115 1 256.5s114.615 256 256 256z" fill="#F0F0F0"/><path d="M513.001 256.5c0-101.494-59.065-189.19-144.696-230.598v461.195C453.936 445.69 513.001 357.994 513.001 256.5z" fill="#D80027"/><path d="M1 256.5c0 101.494 59.065 189.19 144.696 230.598V25.902C60.065 67.31 1 155.006 1 256.5zm189.219-.001c0 36.883 29.9 66.783 66.783 66.783s66.783-29.9 66.783-66.783v-22.261H190.219v22.261z" fill="#6DA544"/><path d="M346.041 211.98h-66.783c0-12.294-9.967-22.261-22.261-22.261-12.294 0-22.261 9.967-22.261 22.261h-66.783c0 12.295 10.709 22.261 23.002 22.261h-.741c0 12.295 9.966 22.261 22.261 22.261 0 12.295 9.966 22.261 22.261 22.261h44.522c12.295 0 22.261-9.966 22.261-22.261 12.295 0 22.261-9.966 22.261-22.261h-.742c12.295 0 23.003-9.966 23.003-22.261z" fill="#FF9811"/></g></svg>