<svg width="514" height="513" fill="none" xmlns="http://www.w3.org/2000/svg"><mask id="a" style="mask-type:luminance" maskUnits="userSpaceOnUse" x="1" y="0" width="512" height="513"><path d="M513 .5H1v512h512V.5z" fill="#fff"/></mask><g mask="url(#a)"><path d="M257 512.5c141.385 0 256-114.615 256-256S398.385.5 257 .5 1 115.115 1 256.5s114.615 256 256 256z" fill="#338AF3"/><path d="M256.999 111.805l11.051 34.012h35.763l-28.931 21.021 11.05 34.011-28.933-21.02-28.933 21.02 11.053-34.011-28.931-21.021h35.763l11.048-34.012zM112.305 256.503l34.012-11.052v-35.763l21.021 28.932 34.011-11.05-21.02 28.933 21.02 28.93-34.011-11.052-21.021 28.932v-35.762l-34.012-11.048zm144.697 144.693l-11.051-34.012h-35.763l28.932-21.021-11.05-34.011 28.932 21.02 28.931-21.02-11.052 34.011 28.932 21.021h-35.762l-11.049 34.012zm144.694-144.697l-34.012 11.051v35.763l-21.021-28.932-34.011 11.051 21.02-28.933-21.02-28.931 34.011 11.052 21.021-28.932v35.763l34.012 11.048z" fill="#F0F0F0"/></g></svg>