<svg width="514" height="513" fill="none" xmlns="http://www.w3.org/2000/svg"><mask id="a" style="mask-type:luminance" maskUnits="userSpaceOnUse" x="1" y="0" width="512" height="513"><path d="M513 .5H1v512h512V.5z" fill="#fff"/></mask><g mask="url(#a)"><path d="M368.303 25.902C334.647 9.628 296.889.5 256.999.5s-77.648 9.128-111.304 25.402L123.434 256.5l22.261 230.598c33.656 16.274 71.414 25.402 111.304 25.402s77.648-9.128 111.304-25.402L390.564 256.5 368.303 25.902z" fill="#FFDA44"/><path d="M145.696 25.91C60.066 67.317 1 155.006 1 256.5s59.066 189.182 144.696 230.589V25.91z" fill="#0052B4"/><path d="M368.305 25.91v461.178c85.63-41.407 144.696-129.096 144.696-230.589S453.935 67.317 368.305 25.91z" fill="#D80027"/><path d="M346.043 201.92h-61.217c0-15.368-12.458-27.826-27.826-27.826s-27.826 12.458-27.826 27.826h-61.217c0 15.131 13.181 27.396 28.31 27.396h-.912c0 15.132 12.266 27.399 27.398 27.399 0 13.397 9.622 24.529 22.33 26.909l-21.59 48.742A88.773 88.773 0 00257 338.908a88.768 88.768 0 0033.506-6.542l-21.589-48.742c12.708-2.38 22.33-13.512 22.33-26.909 15.132 0 27.398-12.267 27.398-27.399h-.913c15.131 0 28.311-12.266 28.311-27.396z" fill="#FF9811"/><path d="M256.998 239.805l-36.174 16.696v33.391l36.174 22.261 36.174-22.261v-33.391l-36.174-16.696z" fill="#0052B4"/><path d="M220.824 223.109h72.348V256.5h-72.348v-33.391z" fill="#D80027"/></g></svg>