<svg width="514" height="513" fill="none" xmlns="http://www.w3.org/2000/svg"><mask id="a" style="mask-type:luminance" maskUnits="userSpaceOnUse" x="1" y="0" width="512" height="513"><path d="M513 .5H1v512h512V.5z" fill="#fff"/></mask><g mask="url(#a)"><path d="M256.998 512.5c31.314 0 61.311-5.632 89.043-15.923L357.172 256.5l-11.13-240.077C318.309 6.133 288.312.5 256.998.5s-61.311 5.633-89.043 15.923L156.824 256.5l11.13 240.077c27.733 10.291 57.73 15.923 89.044 15.923z" fill="#0052B4"/><path d="M1 256.499C1 366.57 70.472 460.405 167.957 496.576V16.422C70.472 52.592 1 146.428 1 256.499zM346.043 16.422v480.155C443.528 460.405 513 366.57 513 256.499S443.528 52.593 346.043 16.422z" fill="#A2001D"/><path d="M123.434 256.5h22.261v89.043h-22.261V256.5zm-89.044 0h22.262v89.043H34.39V256.5zm55.652 55.655c12.295 0 22.261-9.967 22.261-22.261 0-12.295-9.966-22.261-22.26-22.261-12.295 0-22.262 9.966-22.262 22.261 0 12.294 9.967 22.261 22.261 22.261zm.002-89.047c6.147 0 11.13-4.983 11.13-11.13 0-6.147-4.983-11.13-11.13-11.13-6.147 0-11.13 4.983-11.13 11.13 0 6.147 4.983 11.13 11.13 11.13zM67.781 323.285h44.522v22.261H67.781v-22.261zm0-89.043h44.522v22.261H67.781v-22.261zm22.262-100.176l7.884 24.26h25.508L102.8 173.32l7.878 24.26-20.635-14.994L69.41 197.58l7.878-24.26-20.635-14.994H82.16l7.883-24.26z" fill="#FFDA44"/></g></svg>