<svg width="514" height="513" fill="none" xmlns="http://www.w3.org/2000/svg"><mask id="a" style="mask-type:luminance" maskUnits="userSpaceOnUse" x="1" y="0" width="512" height="513"><path d="M513 .5H1v512h512V.5z" fill="#fff"/></mask><g mask="url(#a)"><path d="M257 512.5c141.385 0 256-114.615 256-256S398.385.5 257 .5 1 115.115 1 256.5s114.615 256 256 256z" fill="#FFDA44"/><path d="M513 256.501c0-87.861-44.269-165.375-111.713-211.478H112.713C45.27 91.126 1 168.64 1 256.501c0 87.863 44.27 165.375 111.713 211.478h288.574C468.731 421.876 513 344.364 513 256.501z" fill="#A2001D"/><path d="M201.348 189.716h111.304v-44.521l-22.261 11.13L257 122.934l-33.391 33.391-22.261-11.13v44.521zm155.826 66.783h-55.631a25.51 25.51 0 003.45-12.813c0-14.187-11.501-25.686-25.686-25.686-9.801 0-18.313 5.492-22.644 13.562C252.332 223.491 243.82 218 234.019 218c-14.185 0-25.686 11.499-25.686 25.686 0 4.673 1.27 9.04 3.45 12.813h-54.959c0 17.023 14.827 30.822 31.849 30.822h-1.026c0 13.963 9.287 25.753 22.02 29.54L184.65 341.88l23.611 23.611 33.493-33.493c1.312.481 2.669.865 4.072 1.129l-20.238 45.695A83.184 83.184 0 00257 384.955a83.192 83.192 0 0031.412-6.133l-20.238-45.695a25.413 25.413 0 004.07-1.129l33.493 33.493 23.61-23.611-25.018-25.018c12.732-3.789 22.02-15.577 22.02-29.54h-1.027c17.024-.001 31.852-13.8 31.852-30.823z" fill="#FFDA44"/><path d="M256.998 273.195l-36.174 16.695v33.392l36.174 22.26 36.174-22.26V289.89l-36.174-16.695z" fill="#6DA544"/><path d="M220.824 256.5h72.348v44.522h-72.348V256.5z" fill="#0052B4"/></g></svg>