<svg width="514" height="513" fill="none" xmlns="http://www.w3.org/2000/svg"><mask id="a" style="mask-type:luminance" maskUnits="userSpaceOnUse" x="1" y="0" width="512" height="513"><path d="M513 .5H1v512h512V.5z" fill="#fff"/></mask><g mask="url(#a)"><path d="M513 256.5c0 141.384-114.616 256-256 256-141.384 0-256-114.616-256-256C1 256.561 257 .528 257 .5c141.384 0 256 114.616 256 256z" fill="#0052B4"/><path d="M256.316 256.501h.685v-.685l-.685.685zM257 134.065V.5h-.043C115.591.524 1 115.129 1 256.5h133.565v-75.211l75.211 75.211h46.54l.685-.685v-46.537l-75.213-75.213H257z" fill="#F0F0F0"/><path d="M130.515 33.89a257.211 257.211 0 00-96.124 96.125V256.5h66.783V100.674H257V33.891H130.515z" fill="#D80027"/><path d="M257.001 225.019l-90.955-90.953h-31.48v.002L256.999 256.5h.002v-31.481z" fill="#D80027"/><path d="M290.391 134.066V256.5c0 59.64 77.913 77.914 77.913 77.914s77.913-18.274 77.913-77.914V134.066H290.391z" fill="#338AF3"/><path d="M290.391 256.5c0 59.64 77.913 77.914 77.913 77.914s77.913-18.274 77.913-77.914H290.391z" fill="#A2001D"/><path d="M401.697 189.719h-22.262v-22.262h-22.261v22.262h-22.26v22.26h22.26v66.782h22.261v-66.782h22.262v-22.26z" fill="#000"/></g></svg>