<svg width="514" height="513" fill="none" xmlns="http://www.w3.org/2000/svg"><mask id="a" style="mask-type:luminance" maskUnits="userSpaceOnUse" x="1" y="0" width="512" height="513"><path d="M513 .5H1v512h512V.5z" fill="#fff"/></mask><g mask="url(#a)"><path d="M257 512.5c141.385 0 256-114.615 256-256S398.385.5 257 .5 1 115.115 1 256.5s114.615 256 256 256z" fill="#D80027"/><path d="M408.299 210.599h-115.6l-35.7-109.9-35.7 109.9h-115.6l93.5 67.9-35.7 109.9 93.5-67.9 93.5 67.9-35.7-109.9 93.5-67.9zm-182.9 59.4l12.1-37.2h39.1l12.1 37.2-31.6 23-31.7-23zm43.9-59.4h-24.6l12.3-37.9 12.3 37.9zm38.3 45.7l-7.6-23.4h39.8l-32.2 23.4zm-93.5-23.4l-7.6 23.4-32.2-23.4h39.8zm-8.3 97.3l12.3-37.9 19.9 14.5-32.2 23.4zm70.1-23.4l19.9-14.5 12.3 37.9-32.2-23.4z" fill="#6DA544"/></g></svg>