<svg width="514" height="513" fill="none" xmlns="http://www.w3.org/2000/svg"><mask id="a" style="mask-type:luminance" maskUnits="userSpaceOnUse" x="1" y="0" width="512" height="513"><path d="M513 .5H1v512h512V.5z" fill="#fff"/></mask><g mask="url(#a)"><path d="M257 512.5c141.385 0 256-114.615 256-256S398.385.5 257 .5 1 115.115 1 256.5s114.615 256 256 256z" fill="#F0F0F0"/><path d="M139.37 356.676l-63.382 80.837c46.324 46.33 110.317 74.989 181.011 74.989 105.83 0 196.644-64.229 235.631-155.826H139.37z" fill="#FFDA44"/><path d="M493.028 157.253C454.259 65.162 363.187.5 256.999.5c-70.694 0-134.687 28.659-181.01 74.989l64.109 81.764h352.93z" fill="#496E2D"/><path d="M56.652 188.789v134.492h447.53c5.742-21.291 8.818-43.675 8.818-66.782 0-23.442-3.158-46.142-9.061-67.71H56.652z" fill="#000"/><path d="M75.98 75.48c-99.974 99.974-99.974 262.065 0 362.04L257 256.5 75.98 75.48z" fill="#A2001D"/><path d="M104.61 189.719l16.575 51.016h53.646l-43.398 31.532 16.574 51.018-43.397-31.531-43.4 31.531 16.579-51.018-43.398-31.532h53.642l16.577-51.016z" fill="#FFDA44"/><path d="M56.105 256.5h97.024v44.522H56.106V256.5z" fill="#F0F0F0"/><path d="M171.501 205.461l-15.741-15.742-51.148 51.148-51.148-51.148-15.741 15.742 51.193 51.102-51.193 51.194 15.74 15.528 51.149-51.056 51.148 51.056 15.741-15.528-51.193-51.194 51.193-51.102z" fill="#000"/></g></svg>