<svg width="514" height="513" fill="none" xmlns="http://www.w3.org/2000/svg"><mask id="a" style="mask-type:luminance" maskUnits="userSpaceOnUse" x="1" y="0" width="512" height="513"><path d="M513 .5H1v512h512V.5z" fill="#fff"/></mask><g mask="url(#a)"><path d="M497.077 345.542C507.368 317.81 513 287.813 513 256.499c0-31.314-5.632-61.311-15.923-89.043L257 145.195 16.923 167.456C6.633 195.188 1 225.185 1 256.499c0 31.314 5.633 61.311 15.923 89.043L257 367.803l240.077-22.261z" fill="#6DA544"/><path d="M497.076 167.457C460.905 69.972 367.07.5 256.999.5S53.093 69.972 16.922 167.457h480.154z" fill="#FFDA44"/><path d="M256.999 512.5c110.071 0 203.906-69.472 240.077-166.957H16.922C53.092 443.028 146.928 512.5 256.999 512.5z" fill="#D80027"/><path d="M432.547 217.086H298.44L256.998 89.543l-41.442 127.543H81.449l108.495 78.826-41.442 127.545 108.496-77.914 108.496 77.913-41.441-127.545 108.494-78.825z" fill="#F0F0F0"/></g></svg>