<svg width="514" height="513" fill="none" xmlns="http://www.w3.org/2000/svg"><mask id="a" style="mask-type:luminance" maskUnits="userSpaceOnUse" x="1" y="0" width="512" height="513"><path d="M513 .5H1v512h512V.5z" fill="#fff"/></mask><g mask="url(#a)"><path d="M513 256.498c0-31.314-5.632-61.311-15.923-89.043L257 156.324l-240.077 11.13C6.633 195.187 1 225.184 1 256.498s5.633 61.311 15.923 89.043L257 356.672l240.077-11.13C507.368 317.809 513 287.812 513 256.498z" fill="#D80027"/><path d="M256.999 512.5c110.071 0 203.906-69.472 240.077-166.957H16.922C53.092 443.028 146.928 512.5 256.999 512.5z" fill="#6DA544"/><path d="M16.922 167.457h480.155C460.905 69.972 367.07.5 256.999.5S53.093 69.972 16.922 167.457z" fill="#338AF3"/><path d="M262.564 328.849c-39.956 0-72.348-32.392-72.348-72.348 0-39.956 32.392-72.348 72.348-72.348 12.458 0 24.181 3.15 34.415 8.696-16.056-15.701-38.012-25.392-62.241-25.392-49.178 0-89.043 39.866-89.043 89.043 0 49.177 39.866 89.043 89.043 89.043 24.23 0 46.186-9.691 62.241-25.392-10.234 5.548-21.957 8.698-34.415 8.698z" fill="#F0F0F0"/><path d="M318.216 206.414l9.583 26.951 25.834-12.282-12.281 25.834 26.951 9.584-26.951 9.584 12.281 25.834-25.834-12.282-9.583 26.951-9.582-26.951-25.835 12.282 12.282-25.834-26.952-9.584 26.952-9.584-12.282-25.834 25.835 12.282 9.582-26.951z" fill="#F0F0F0"/></g></svg>