<svg width="514" height="513" fill="none" xmlns="http://www.w3.org/2000/svg"><mask id="a" style="mask-type:luminance" maskUnits="userSpaceOnUse" x="1" y="0" width="512" height="513"><path d="M513 .5H1v512h512V.5z" fill="#fff"/></mask><g mask="url(#a)"><path d="M257 512.5c141.385 0 256-114.615 256-256S398.385.5 257 .5 1 115.115 1 256.5s114.615 256 256 256z" fill="#F0F0F0"/><path d="M75.981 437.519a257.556 257.556 0 0034.216 28.748l356.569-356.57a257.404 257.404 0 00-28.748-34.216 257.525 257.525 0 00-34.216-28.747L47.234 403.304a257.569 257.569 0 0028.747 34.215z" fill="#A2001D"/><path d="M75.98 75.48c-80.766 80.766-96.27 202.058-46.547 298.4L374.376 28.938C278.034-20.785 156.741-5.28 75.979 75.48z" fill="#0052B4"/><path d="M438.018 437.519c80.762-80.762 96.266-202.055 46.545-298.398L139.621 484.063c96.341 49.723 217.634 34.219 298.397-46.544z" fill="#496E2D"/><path d="M212.476 145.197L183.79 158.69l15.276 27.782-31.149-5.958-3.948 31.465-21.696-23.143-21.697 23.143-3.946-31.465-31.15 5.957 15.275-27.782-28.685-13.492 28.686-13.494-15.276-27.78 31.149 5.958 3.948-31.467 21.696 23.144 21.697-23.144 3.947 31.467 31.149-5.958-15.274 27.781 28.684 13.493z" fill="#FFDA44"/></g></svg>