<svg width="514" height="513" fill="none" xmlns="http://www.w3.org/2000/svg"><mask id="a" style="mask-type:luminance" maskUnits="userSpaceOnUse" x="1" y="0" width="512" height="513"><path d="M513 .5H1v512h512V.5z" fill="#fff"/></mask><g mask="url(#a)"><path d="M257 512.5c141.385 0 256-114.615 256-256S398.385.5 257 .5 1 115.115 1 256.5s114.615 256 256 256z" fill="#0052B4"/><path d="M366.867 274.362l45.961-17.86-45.961-17.859-25.245-9.809-41.015-15.937-15.937-41.015c26.874 8.809 48.141 30.076 56.951 56.951l25.245 9.809c-7.629-47.096-44.91-84.378-92.005-92.006l-17.859-45.96-17.86 45.961c-47.096 7.63-84.376 44.91-92.005 92.006l-45.961 17.859 45.962 17.86c7.629 47.096 44.909 84.376 92.005 92.005l17.859 45.961 17.86-45.961c47.095-7.629 84.376-44.91 92.005-92.005zm-83.457-44.267l-26.408 26.407h94.365l-67.958 26.408-26.407-26.408v94.366l-26.408-67.959 26.408-26.407h-94.365l67.957-26.407 26.408 26.407v-94.365l26.408 67.958zm-54.077-58.212l-15.938 41.015-41.013 15.937c8.809-26.877 30.076-48.142 56.951-56.952zm-56.95 112.288l41.012 15.937 15.938 41.013c-26.875-8.81-48.14-30.075-56.95-56.95zm112.288 56.95l15.937-41.013 41.013-15.937c-8.81 26.875-30.075 48.14-56.95 56.95z" fill="#F0F0F0"/><path d="M351.365 256.5H257l26.408 26.408 67.957-26.408z" fill="#0052B4"/><path d="M162.637 256.501h94.365l-26.408-26.407-67.957 26.407z" fill="#0052B4"/><path d="M257.002 350.866V256.5l-26.408 26.408 26.408 67.958z" fill="#0052B4"/><path d="M257 256.502l26.408-26.407L257 162.137v94.365z" fill="#0052B4"/><path d="M245.871 33.89h22.261v44.523h-22.261V33.89zM34.39 245.371h44.523v22.261H34.39v-22.261zm211.481 189.215h22.261v44.522h-22.261v-44.522zm189.215-189.215h44.522v22.261h-44.522v-22.261z" fill="#F0F0F0"/></g></svg>