<svg width="514" height="513" fill="none" xmlns="http://www.w3.org/2000/svg"><mask id="a" style="mask-type:luminance" maskUnits="userSpaceOnUse" x="1" y="0" width="512" height="513"><path d="M513 .5H1v512h512V.5z" fill="#fff"/></mask><g mask="url(#a)"><path d="M257 512.5c141.385 0 256-114.615 256-256S398.385.5 257 .5 1 115.115 1 256.5s114.615 256 256 256z" fill="#0052B4"/><path d="M257 512.5c141.385 0 256-114.615 256-256S398.385.5 257 .5 1 115.115 1 256.5s114.615 256 256 256z" fill="#FFDA44"/><path d="M257.002.5C123.118.5 13.26 103.281 1.977 234.239h510.051C500.744 103.281 390.886.5 257.002.5zm0 512.001c133.884 0 243.742-102.781 255.026-233.739H1.977C13.26 409.72 123.118 512.501 257.002 512.501z" fill="#0052B4"/><path d="M212.477 345.544l-28.686 13.494 15.275 27.781-31.149-5.959-3.947 31.467-21.697-23.143-21.696 23.143-3.947-31.467-31.15 5.958 15.276-27.781-28.686-13.493 28.687-13.493-15.277-27.78 31.149 5.958 3.949-31.467 21.695 23.143 21.698-23.143 3.946 31.467 31.15-5.958-15.275 27.781 28.685 13.492z" fill="#F0F0F0"/></g></svg>