<svg width="514" height="513" fill="none" xmlns="http://www.w3.org/2000/svg"><mask id="a" style="mask-type:luminance" maskUnits="userSpaceOnUse" x="1" y="0" width="512" height="513"><path d="M513 .5H1v512h512V.5z" fill="#fff"/></mask><g mask="url(#a)"><path d="M257 512.5c141.385 0 256-114.615 256-256S398.385.5 257 .5 1 115.115 1 256.5s114.615 256 256 256z" fill="#F0F0F0"/><path d="M511.495 284.328l-.006-.008-.001.008h.007z" fill="#0052B4"/><path d="M511.49 284.327l.001-.008L230.746 1.832a255.168 255.168 0 00-37.109 6.574C82.898 36.601 1 256.501 1 256.501s358.398 239.835 399.285 212.164a256.89 256.89 0 0023.493-17.953L257.395 284.327H511.49z" fill="#0052B4"/><path d="M446.217 256.498L197.245 7.528C84.688 34.443 1 135.69 1 256.497c0 141.384 114.616 256 256 256 53.629 0 103.397-16.502 144.529-44.689l-211.312-211.31h256z" fill="#D80027"/><path d="M244.472 378.491l-31.265-14.706 16.649-30.279-33.95 6.495-4.302-34.298-23.647 25.225-23.647-25.225-4.303 34.298-33.949-6.496 16.649 30.28-31.266 14.706 31.266 14.705-16.649 30.28 33.951-6.494 4.3 34.296 23.648-25.225 23.647 25.225 4.302-34.296 33.949 6.495-16.649-30.279 31.266-14.707zM223.61 142.483l-22.74-10.695 12.109-22.023-24.693 4.724-3.129-24.946-17.199 18.347-17.199-18.347-3.13 24.946-24.693-4.724 12.11 22.023-22.741 10.695 55.653 11.132 55.652-11.132z" fill="#F0F0F0"/><path d="M234.738 142.484c0 36.883-29.9 66.783-66.783 66.783s-66.783-29.9-66.783-66.783" fill="#F0F0F0"/></g></svg>