<svg width="514" height="513" fill="none" xmlns="http://www.w3.org/2000/svg"><mask id="a" style="mask-type:luminance" maskUnits="userSpaceOnUse" x="1" y="0" width="512" height="513"><path d="M513 .5H1v512h512V.5z" fill="#fff"/></mask><g mask="url(#a)"><path d="M513 256.5c0 141.384-114.616 256-256 256-141.384 0-256-114.616-256-256C1 256.561 257 .528 257 .5c141.384 0 256 114.616 256 256z" fill="#0052B4"/><path d="M256.316 256.501h.685v-.685l-.685.685zM257 134.065V.5h-.043C115.592.524 1 115.129 1 256.5h133.565v-75.211l75.212 75.211h46.539l.685-.685v-46.537l-75.213-75.213H257z" fill="#F0F0F0"/><path d="M130.515 33.89a257.218 257.218 0 00-96.124 96.125V256.5h66.783V100.674H257V33.891H130.515z" fill="#D80027"/><path d="M257 225.019l-90.953-90.953s-31.481.002-31.481 0v.002L256.999 256.5H257v-31.481zm187.33-34.562l5.525 17.006h17.881l-14.466 10.51 5.526 17.005-14.466-10.509-14.467 10.509 5.526-17.005-14.467-10.51h17.881l5.527-17.006zm-63.919 122.438l8.289 25.51h26.821l-21.7 15.764 8.29 25.509-21.7-15.765-21.7 15.765 8.29-25.509-21.7-15.764h26.821l8.289-25.51zm2.412-200.348l6.908 21.259h22.351l-18.084 13.135 6.908 21.258-18.083-13.139-18.082 13.139 6.907-21.258-18.082-13.135h22.35l6.907-21.259zm-61.502 77.168l8.288 25.51h26.822l-21.7 15.764 8.29 25.509-21.7-15.765-21.7 15.765 8.29-25.509-21.7-15.764h26.821l8.289-25.51z" fill="#D80027"/></g></svg>