<svg width="514" height="513" fill="none" xmlns="http://www.w3.org/2000/svg"><mask id="a" style="mask-type:luminance" maskUnits="userSpaceOnUse" x="1" y="0" width="512" height="513"><path d="M513 .5H1v512h512V.5z" fill="#fff"/></mask><g mask="url(#a)"><path d="M257 512.5c141.385 0 256-114.615 256-256S398.385.5 257 .5 1 115.115 1 256.5s114.615 256 256 256z" fill="#F0F0F0"/><path d="M257 .5C155.506.5 67.81 59.565 26.402 145.196h461.195C446.19 59.565 358.493.5 257 .5zm0 512.001c101.493 0 189.19-59.065 230.598-144.696H26.402C67.81 453.436 155.506 512.501 257 512.501z" fill="#338AF3"/><path d="M256.999 178.586c-43.03 0-77.913 34.883-77.913 77.913 0 43.03 34.883 77.913 77.913 77.913 43.03 0 77.913-34.883 77.913-77.913 0-43.03-34.883-77.913-77.913-77.913zm0 122.435c-24.588 0-44.522-19.932-44.522-44.522s19.933-44.522 44.522-44.522 44.522 19.932 44.522 44.522-19.934 44.522-44.522 44.522z" fill="#FFDA44"/><path d="M295.558 267.63L257 256.5l-38.558 11.13-12.852 22.261h102.819l-12.851-22.261z" fill="#0052B4"/><path d="M257.002 200.848l-25.705 44.522 25.705 11.13 25.705-11.13-25.705-44.522z" fill="#338AF3"/><path d="M218.441 267.631h77.116l-12.853-22.26h-51.41l-12.853 22.26z" fill="#6DA544"/></g></svg>