<svg width="514" height="513" fill="none" xmlns="http://www.w3.org/2000/svg"><mask id="a" style="mask-type:luminance" maskUnits="userSpaceOnUse" x="1" y="0" width="512" height="513"><path d="M513 .5H1v512h512V.5z" fill="#fff"/></mask><g mask="url(#a)"><path d="M257 512.5c141.385 0 256-114.615 256-256S398.385.5 257 .5 1 115.115 1 256.5s114.615 256 256 256z" fill="#F0F0F0"/><path d="M1 256.502C1 366.574 70.472 460.408 167.957 496.58V16.426C70.472 52.596 1 146.432 1 256.502zm512 0c0-110.07-69.472-203.906-166.957-240.076V496.58C443.528 460.408 513 366.574 513 256.502z" fill="#6DA544"/></g></svg>