<svg width="514" height="513" fill="none" xmlns="http://www.w3.org/2000/svg"><mask id="a" style="mask-type:luminance" maskUnits="userSpaceOnUse" x="1" y="0" width="512" height="513"><path d="M513 .5H1v512h512V.5z" fill="#fff"/></mask><g mask="url(#a)"><path d="M513 256.5c0 141.384-114.616 256-256 256-141.384 0-256-114.616-256-256C1 256.561 257 .528 257 .5c141.384 0 256 114.616 256 256z" fill="#FFDA44"/><path d="M257 122.934v86.343l-89.043-86.343H257zM134.564 256.498h75.211l-75.211-100.174-11.13 77.913 11.13 22.261z" fill="#0052B4"/><path d="M256.316 256.501h.685v-.685l-.685.685zM257 134.065V.5h-.043C115.591.524 1 115.129 1 256.5h133.565v-75.211l75.211 75.211h46.54l.685-.685v-46.537l-75.213-75.213H257z" fill="#F0F0F0"/><path d="M257.001 225.019l-90.955-90.953h-31.48v.002L256.999 256.5h.002v-31.481z" fill="#D80027"/><path d="M130.515 33.89a256.528 256.528 0 00-28.316 18.72h10.504L84.941 72.786l10.602 32.637-27.762-20.17-2.954 2.147a256.791 256.791 0 00-30.436 42.616V256.5h66.783V100.674H257V33.891H130.515z" fill="#D80027"/><path d="M110.361 46.652a256.484 256.484 0 00-8.164 5.96L84.942 72.784 67.782 85.25l-2.979 2.164a257.21 257.21 0 00-17.65 22.445 47.121 47.121 0 0020.63 4.727c26.125 0 47.303-21.178 47.303-47.304a47.08 47.08 0 00-4.725-20.63z" fill="#0052B4"/><path d="M64.8 87.417l2.98-2.164 27.762 20.171-10.603-32.637 27.76-20.174h-10.506a257.602 257.602 0 00-37.392 34.804zm113.139-42.394l5.526 17.005h17.88L186.88 72.54l5.523 17.005-14.464-10.51-14.465 10.51 5.522-17.005-14.465-10.51h17.881l5.527-17.006zM67.782 156.328l5.526 17.005h17.88l-14.464 10.512 5.523 17.005-14.465-10.511-14.466 10.511 5.523-17.005-14.464-10.512h17.88l5.527-17.005z" fill="#FFDA44"/></g></svg>