<svg width="514" height="513" fill="none" xmlns="http://www.w3.org/2000/svg"><mask id="a" style="mask-type:luminance" maskUnits="userSpaceOnUse" x="1" y="0" width="512" height="513"><path d="M513 .5H1v512h512V.5z" fill="#fff"/></mask><g mask="url(#a)"><path d="M257 512.5c141.385 0 256-114.615 256-256S398.385.5 257 .5 1 115.115 1 256.5s114.615 256 256 256z" fill="#F0F0F0"/><path d="M1 256.502c0 97.035 53.99 181.455 133.565 224.873V31.629C54.99 75.047 1 159.467 1 256.502z" fill="#D80027"/><path d="M1 256.501C1 374.78 81.221 474.306 190.217 503.682V9.32C81.221 38.696 1 138.222 1 256.501z" fill="#0052B4"/><path d="M92.824 89.543v41.739c0 20.747 16.818 37.565 37.565 37.565 20.747 0 37.565-16.818 37.565-37.565V89.543h-75.13z" fill="#D80027"/><path d="M130.39 146.587c-8.439 0-15.304-6.865-15.304-15.304v-19.478h30.609v19.478c0 8.439-6.866 15.304-15.305 15.304z" fill="#F0F0F0"/><path d="M279.26 267.628h-66.783c0-12.294-9.967-22.261-22.261-22.261-12.294 0-22.261 9.967-22.261 22.261h-66.783c0 12.295 10.709 22.261 23.002 22.261h-.741c0 12.295 9.965 22.261 22.261 22.261 0 12.295 9.965 22.261 22.261 22.261h44.522c12.294 0 22.261-9.966 22.261-22.261 12.294 0 22.261-9.966 22.261-22.261h-.741c12.293 0 23.002-9.966 23.002-22.261zm9.148-35.623l-5.844 9.358 7.089 8.448-10.704-2.666-5.845 9.353-.771-11.006-10.704-2.668 10.231-4.132-.77-11.004 7.091 8.451 10.227-4.134zm-34.102-28.614l-2.291 10.791 9.553 5.515-10.972 1.158-2.293 10.788-4.488-10.078-10.971 1.152 8.199-7.382-4.486-10.076 9.552 5.515 8.197-7.383zm-41.833-15.223l1.535 10.925 10.863 1.915-9.914 4.836 1.535 10.925-7.662-7.936-9.916 4.836 5.179-9.741-7.663-7.934 10.865 1.914 5.178-9.74zm-44.516 0l5.18 9.74L184 195.993l-7.663 7.937 5.179 9.74-9.914-4.837-7.664 7.934 1.536-10.923-9.915-4.835 10.863-1.916 1.535-10.925zm-41.831 15.223l8.198 7.383 9.552-5.515-4.484 10.08 8.195 7.379-10.969-1.153-4.489 10.078-2.29-10.79-10.972-1.152 9.552-5.518-2.293-10.792zm-34.102 28.617l10.231 4.134 7.087-8.451-.766 11.007 10.227 4.133-10.705 2.666-.772 11.004-5.841-9.353-10.704 2.667 7.091-8.45-5.848-9.357z" fill="#FFDA44"/></g></svg>