<svg width="514" height="513" fill="none" xmlns="http://www.w3.org/2000/svg"><mask id="a" style="mask-type:luminance" maskUnits="userSpaceOnUse" x="1" y="0" width="512" height="513"><path d="M513 .5H1v512h512V.5z" fill="#fff"/></mask><g mask="url(#a)"><path d="M368.303 25.902C334.647 9.628 296.89.5 256.999.5c-39.891 0-77.648 9.128-111.304 25.402L123.434 256.5l22.261 230.598c33.656 16.274 71.413 25.402 111.304 25.402 39.891 0 77.648-9.128 111.304-25.402L390.564 256.5 368.303 25.902z" fill="#F0F0F0"/><path d="M145.696 25.91C60.065 67.316 1 155.005 1 256.5s59.065 189.183 144.696 230.589V25.91zm222.609 0v461.178c85.631-41.406 144.696-129.096 144.696-230.589S453.936 67.316 368.305 25.91zm-44.52 308.502l-66.783-211.478-66.783 211.478h50.087v55.652h33.392v-55.652h50.087z" fill="#6DA544"/></g></svg>