<svg width="514" height="513" fill="none" xmlns="http://www.w3.org/2000/svg"><mask id="a" style="mask-type:luminance" maskUnits="userSpaceOnUse" x="1" y="0" width="512" height="513"><path d="M513 .5H1v512h512V.5z" fill="#fff"/></mask><g mask="url(#a)"><path d="M257 512.5c141.385 0 256-114.615 256-256S398.385.5 257 .5 1 115.115 1 256.5s114.615 256 256 256z" fill="#F0F0F0"/><path d="M256.999.5C179.408.5 109.884 35.024 62.937 89.543H451.06C404.113 35.024 334.59.5 256.999.5zM451.06 423.457H62.937C109.885 477.976 179.409 512.5 257 512.5s147.114-34.524 194.061-89.043z" fill="#0052B4"/><path d="M475.426 122.934H38.574C14.745 161.819 1 207.552 1 256.499s13.745 94.681 37.574 133.565h436.852C499.255 351.18 513 305.446 513 256.499s-13.745-94.68-37.574-133.565z" fill="#D80027"/><path d="M158.496 355.004c54.402 0 98.504-44.102 98.504-98.504 0-54.402-44.102-98.504-98.504-98.504-54.402 0-98.504 44.102-98.504 98.504 0 54.402 44.102 98.504 98.504 98.504z" fill="#F0F0F0"/><path d="M158.496 157.996l22.101 68.021h71.638l-57.977 42.042 22.274 68.224-58.036-42.242-57.948 42.163 22.186-68.145-57.925-42.042h71.585l22.102-68.021z" fill="#D80027"/></g></svg>