<svg width="514" height="513" fill="none" xmlns="http://www.w3.org/2000/svg"><mask id="a" style="mask-type:luminance" maskUnits="userSpaceOnUse" x="1" y="0" width="512" height="513"><path d="M513 .5H1v512h512V.5z" fill="#fff"/></mask><g mask="url(#a)"><path d="M257 512.5c141.385 0 256-114.615 256-256S398.385.5 257 .5 1 115.115 1 256.5s114.615 256 256 256z" fill="#F0F0F0"/><path d="M1 256.502c0 97.035 53.99 181.455 133.565 224.873V31.629C54.99 75.047 1 159.467 1 256.502z" fill="#D80027"/><path d="M497.078 345.543C507.368 317.81 513 287.814 513 256.5c0-31.314-5.632-61.311-15.922-89.043H16.924C6.633 195.189 1 225.186 1 256.5c0 31.314 5.633 61.31 15.924 89.043L257 367.804l240.078-22.261z" fill="#D80027"/><path d="M257.002 512.5c110.072 0 203.906-69.472 240.078-166.957H16.926C53.096 443.028 146.932 512.5 257.002 512.5z" fill="#6DA544"/><path d="M1 256.501C1 374.78 81.221 474.306 190.217 503.682V9.32C81.221 38.696 1 138.222 1 256.501z" fill="#D80027"/><path d="M157.618 113.154l-23.611-23.611-15.74 15.742-15.74-15.742-23.61 23.611 15.74 15.741-15.743 15.742 23.611 23.611 15.741-15.742 15.741 15.742 23.611-23.611-15.741-15.742 15.741-15.741z" fill="#F0F0F0"/></g></svg>