<svg width="514" height="513" fill="none" xmlns="http://www.w3.org/2000/svg"><mask id="a" style="mask-type:luminance" maskUnits="userSpaceOnUse" x="1" y="0" width="512" height="513"><path d="M513 .5H1v512h512V.5z" fill="#fff"/></mask><g mask="url(#a)"><path d="M504.181 323.282c5.739-21.294 8.819-43.676 8.819-66.783s-3.08-45.489-8.819-66.783L234.739 1.473c-50.021 4.31-95.924 23-133.565 51.92L9.819 189.717C4.08 211.01 1 233.392 1 256.499c0 22.972 3.043 45.231 8.718 66.413l91.455 136.692c37.641 28.921 83.544 47.612 133.565 51.921l269.443-188.243z" fill="#FFDA44"/><path d="M9.82 323.281c14.812 54.959 47.458 102.593 91.355 136.322V323.281H9.82zm224.922 188.243a259.29 259.29 0 0022.261.974c118.279 0 217.805-80.221 247.181-189.217H234.742v188.243zm269.442-321.807C474.808 80.721 375.282.5 257.003.5c-7.502 0-14.923.342-22.261.974v188.243h269.442zM101.175 53.395C57.278 87.124 24.632 134.757 9.82 189.716h91.355V53.394z" fill="#D80027"/><path d="M510.833 223.11H201.349l-.001-216.524a254.256 254.256 0 00-66.783 25.042v191.481H3.167A258.556 258.556 0 001 256.501c0 11.317.744 22.461 2.167 33.391h131.398v191.481a254.258 254.258 0 0066.783 25.042V289.893h309.485A258.556 258.556 0 00513 256.501c0-11.317-.744-22.461-2.167-33.391z" fill="#0052B4"/></g></svg>