<svg width="514" height="513" fill="none" xmlns="http://www.w3.org/2000/svg"><mask id="a" style="mask-type:luminance" maskUnits="userSpaceOnUse" x="1" y="0" width="512" height="513"><path d="M513 .5H1v512h512V.5z" fill="#fff"/></mask><g mask="url(#a)"><path d="M257 512.5c141.385 0 256-114.615 256-256S398.385.5 257 .5 1 115.115 1 256.5s114.615 256 256 256z" fill="#F0F0F0"/><path d="M1 256.502c0 97.035 53.989 181.454 133.565 224.873V31.629C54.989 75.048 1 159.467 1 256.502z" fill="#F0F0F0"/><path d="M257.001.5c-44.35 0-86.064 11.283-122.435 31.127v449.745c36.371 19.845 78.085 31.128 122.435 31.128 141.384 0 256-114.616 256-256 0-141.384-114.616-256-256-256z" fill="#496E2D"/><path d="M366.452 298.838c-32.387 23.401-77.613 16.117-101.013-16.269-23.402-32.388-16.117-77.613 16.27-101.013 10.098-7.296 21.444-11.609 32.987-13.108-22.207-3.321-45.682 1.683-65.319 15.872-39.86 28.802-48.827 84.463-20.026 124.325 28.801 39.859 84.463 48.827 124.325 20.023 19.639-14.189 31.76-34.902 35.578-57.031-5.046 10.486-12.703 19.904-22.802 27.201zm-1.387-131.377l18.244 19.661 24.336-11.272-13.063 23.424 18.243 19.663-26.316-5.185-13.062 23.426-3.201-26.63-26.316-5.185 24.337-11.272-3.202-26.63z" fill="#F0F0F0"/></g></svg>