<svg width="514" height="513" fill="none" xmlns="http://www.w3.org/2000/svg"><mask id="a" style="mask-type:luminance" maskUnits="userSpaceOnUse" x="1" y="0" width="512" height="513"><path d="M513 .5H1v512h512V.5z" fill="#fff"/></mask><g mask="url(#a)"><path d="M257 512.5c141.385 0 256-114.615 256-256S398.385.5 257 .5 1 115.115 1 256.5s114.615 256 256 256z" fill="#FFDA44"/><path d="M156.825 167.457h340.25C460.905 69.972 367.069.5 256.999.5c-70.694 0-134.687 28.659-181.01 74.989l80.836 91.968zm0 178.086h340.25C460.905 443.028 367.069 512.5 256.999 512.5c-70.694 0-134.687-28.659-181.01-74.989l80.836-91.968z" fill="#338AF3"/><path d="M75.98 75.48c-99.974 99.974-99.974 262.065 0 362.04L257 256.5 75.98 75.48z" fill="#000"/></g></svg>