<svg width="514" height="513" fill="none" xmlns="http://www.w3.org/2000/svg"><mask id="a" style="mask-type:luminance" maskUnits="userSpaceOnUse" x="1" y="0" width="512" height="513"><path d="M513 .5H1v512h512V.5z" fill="#fff"/></mask><g mask="url(#a)"><path d="M438.02 437.519c-99.974 99.974-262.064 99.974-362.04 0-99.974-99.974-99.974-262.065.001-362.04 99.974-99.974 246.323-84.233 346.297 15.742 99.973 99.974 115.715 246.324 15.742 346.298z" fill="#000"/><path d="M75.98 75.48c99.974-99.974 262.063-99.972 362.039 0 99.974 99.975 99.974 262.065 0 362.04" fill="#A2001D"/><path d="M196.641 345.543l4.144 12.755h13.411l-10.85 7.882 4.145 12.755-10.85-7.883-10.85 7.883 4.144-12.755-10.849-7.882h13.41l4.145-12.755zm-34.25-122.434l6.909 21.258h22.35l-18.083 13.137 6.907 21.258-18.083-13.139-18.082 13.139 6.908-21.258-18.084-13.137h22.352l6.906-21.258zm0 155.829l6.907 21.257h22.352l-18.085 13.136 6.909 21.259-18.083-13.139-18.082 13.139 6.906-21.259-18.082-13.136h22.349l6.909-21.257zm65.35-100.176l6.909 21.258H257l-18.083 13.136 6.907 21.258-18.083-13.139-18.082 13.139 6.908-21.258-18.083-13.136h22.351l6.906-21.258zm-130.701 0l6.908 21.258h22.349l-18.082 13.136 6.906 21.258-18.082-13.139-18.083 13.139 6.91-21.258L67.78 300.02h22.351l6.907-21.258z" fill="#F0F0F0"/><path d="M429.549 190.06c-11.441-11.441-26.307-18.2-42.282-19.361l47.82-37.193c-19.045-19.045-44.571-27.646-69.479-25.827a66.46 66.46 0 00-17.094-29.265l-18.889 37.778a27.774 27.774 0 00-4.722-6.296c-10.868-10.867-28.486-10.867-39.352 0-10.866 10.867-10.868 28.485 0 39.352a27.838 27.838 0 006.297 4.722l-37.778 18.889a66.45 66.45 0 0029.28 17.099c-1.825 24.908 6.767 50.43 25.813 69.476l41.78-53.718a16.584 16.584 0 0111.71-4.804c4.46 0 8.652 1.736 11.805 4.891a16.584 16.584 0 014.891 11.805c0 4.46-1.737 8.652-4.891 11.806l15.742 15.742c7.357-7.358 11.41-17.141 11.41-27.547 0-8.514-2.716-16.608-7.73-23.3a44.23 44.23 0 0119.931 11.494c17.36 17.359 17.36 45.605 0 62.963l15.742 15.742c12.613-12.614 19.56-29.384 19.56-47.223-.003-17.841-6.951-34.611-19.564-47.225z" fill="#FFDA44"/></g></svg>