<svg width="514" height="513" fill="none" xmlns="http://www.w3.org/2000/svg"><mask id="a" style="mask-type:luminance" maskUnits="userSpaceOnUse" x="1" y="0" width="512" height="513"><path d="M513 .5H1v512h512V.5z" fill="#fff"/></mask><g mask="url(#a)"><path d="M257 512.5c141.385 0 256-114.615 256-256S398.385.5 257 .5 1 115.115 1 256.5s114.615 256 256 256z" fill="#F0F0F0"/><path d="M257 .5v256L75.98 437.52C122.308 483.846 186.308 512.5 257 512.5c141.384 0 256-114.616 256-256 0-141.384-256-256-256-256z" fill="#D80027"/><path d="M257 .5C186.307.5 122.307 29.154 75.98 75.48L257 256.5h256C513 115.116 398.384.5 257 .5z" fill="#0052B4"/><path d="M176.292 256.502l-31.264-14.706 16.649-30.279-33.95 6.495-4.302-34.297-23.648 25.224-23.647-25.224-4.303 34.297-33.95-6.496 16.65 30.28-31.265 14.706 31.265 14.706-16.65 30.279 33.953-6.494 4.299 34.296 23.648-25.224 23.648 25.224 4.302-34.296 33.948 6.495-16.648-30.279 31.265-14.707zM69.274 100.676l10.404 14.543 17.045-5.399-10.618 14.388 10.404 14.543-16.966-5.651-10.617 14.387.133-17.88-16.965-5.652 17.048-5.399.132-17.88zm0 264.84l10.404 14.543 17.045-5.4-10.618 14.389 10.404 14.543-16.966-5.651-10.617 14.387.133-17.88-16.965-5.652 17.048-5.399.132-17.88zm148.394-132.418l-10.403 14.543-17.046-5.401 10.618 14.389-10.404 14.544 16.966-5.652 10.618 14.387-.134-17.879 16.965-5.652-17.047-5.399-.133-17.88z" fill="#FFDA44"/></g></svg>