<svg width="514" height="513" fill="none" xmlns="http://www.w3.org/2000/svg"><mask id="a" style="mask-type:luminance" maskUnits="userSpaceOnUse" x="1" y="0" width="512" height="513"><path d="M513 .5H1v512h512V.5z" fill="#fff"/></mask><g mask="url(#a)"><path d="M513 256.5c0 141.384-114.616 256-256 256-141.384 0-256-114.616-256-256C1 256.561 257 .528 257 .5c141.384 0 256 114.616 256 256z" fill="#0052B4"/><path d="M256.316 256.501h.685v-.685l-.685.685zM257 134.065V.5h-.043C115.591.524 1 115.129 1 256.5h133.565v-75.211l75.211 75.211h46.54l.685-.685v-46.537l-75.213-75.213H257z" fill="#F0F0F0"/><path d="M130.515 33.89a257.211 257.211 0 00-96.124 96.125V256.5h66.783V100.674H257V33.891H130.515z" fill="#D80027"/><path d="M257.001 225.019l-90.955-90.953h-31.48v.002L256.999 256.5h.002v-31.481z" fill="#D80027"/><path d="M401.694 156.328l-33.392 11.131-33.391-11.131-11.13-27.826 11.13-27.826h66.783l-11.131 27.826 11.131 27.826z" fill="#ACABB1"/><path d="M290.391 156.324v122.434c0 59.64 77.913 77.914 77.913 77.914s77.913-18.274 77.913-77.914V156.324H290.391z" fill="#338AF3"/><path d="M297.414 307.767c19.152 36.769 70.89 48.908 70.89 48.908s51.738-12.139 70.89-48.908l-70.89-118.048-70.89 118.048z" fill="#6DA544"/><path d="M446.217 277.521l-77.913-121.197-77.913 121.198v1.236c0 11.038 2.674 20.656 7.023 29.006l70.89-110.275 70.89 110.274c4.349-8.351 7.023-17.968 7.023-29.006v-1.236z" fill="#FFDA44"/></g></svg>