<svg width="514" height="513" fill="none" xmlns="http://www.w3.org/2000/svg"><mask id="a" style="mask-type:luminance" maskUnits="userSpaceOnUse" x="1" y="0" width="512" height="513"><path d="M513 .5H1v512h512V.5z" fill="#fff"/></mask><g mask="url(#a)"><path d="M1 256.499c0 110.07 69.472 203.905 166.955 240.076l22.262-240.077-22.262-240.076C70.472 52.594 1 146.428 1 256.499z" fill="#6DA544"/><path d="M512.998 256.5c0-141.384-114.616-256-256-256-31.314 0-61.311 5.633-89.045 15.923v480.154c27.734 10.291 57.731 15.923 89.045 15.923 141.384 0 256-114.616 256-256z" fill="#D80027"/><path d="M167.957 345.543c49.177 0 89.043-39.866 89.043-89.043 0-49.177-39.866-89.043-89.043-89.043-49.177 0-89.043 39.866-89.043 89.043 0 49.177 39.866 89.043 89.043 89.043z" fill="#FFDA44"/><path d="M117.871 211.977v55.652c0 27.662 22.424 50.087 50.087 50.087 27.663 0 50.087-22.424 50.087-50.087v-55.652H117.871z" fill="#D80027"/><path d="M167.958 284.327c-9.206 0-16.696-7.49-16.696-16.696v-22.26h33.391v22.261c0 9.205-7.49 16.695-16.695 16.695z" fill="#F0F0F0"/></g></svg>