<svg width="514" height="513" fill="none" xmlns="http://www.w3.org/2000/svg"><mask id="a" style="mask-type:luminance" maskUnits="userSpaceOnUse" x="1" y="0" width="512" height="513"><path d="M513 .5H1v512h512V.5z" fill="#fff"/></mask><g mask="url(#a)"><path d="M257 512.5c141.385 0 256-114.615 256-256S398.385.5 257 .5 1 115.115 1 256.5s114.615 256 256 256z" fill="#F0F0F0"/><path d="M256.999.5C173.247.5 98.891 40.723 52.187 102.9H461.81C415.106 40.723 340.751.5 256.999.5zm0 512.002c83.752 0 158.107-40.223 204.811-102.4H52.187c46.704 62.177 121.06 102.4 204.812 102.4zM1 256.501a257.1 257.1 0 005.127 51.2h501.748a257.1 257.1 0 005.125-51.2c0-17.535-1.768-34.657-5.126-51.2H6.127A257.1 257.1 0 001 256.501z" fill="#D80027"/><path d="M75.98 75.48c-99.974 99.974-99.974 262.065 0 362.04L257 256.5 75.98 75.48z" fill="#0052B4"/><path d="M104.61 189.719l16.575 51.016h53.646l-43.398 31.532 16.574 51.018-43.397-31.531-43.4 31.531 16.579-51.018-43.398-31.532h53.642l16.577-51.016z" fill="#F0F0F0"/></g></svg>