<svg width="514" height="513" fill="none" xmlns="http://www.w3.org/2000/svg"><mask id="a" style="mask-type:luminance" maskUnits="userSpaceOnUse" x="1" y="0" width="512" height="513"><path d="M513 .5H1v512h512V.5z" fill="#fff"/></mask><g mask="url(#a)"><path d="M257 512.5c141.385 0 256-114.615 256-256S398.385.5 257 .5 1 115.115 1 256.5s114.615 256 256 256z" fill="#F0F0F0"/><path d="M257.002.5c-51.376 0-99.208 15.145-139.3 41.198l65.839 44.129-82.365 42.666 82.365 42.666-82.365 42.666 82.365 42.661-82.365 42.665 82.365 42.665-82.365 42.67 82.365 42.666-65.847 44.143c40.094 26.058 87.929 41.205 139.308 41.205 141.384 0 256-114.616 256-256 0-141.384-114.616-256-256-256z" fill="#D80027"/></g></svg>