<svg width="514" height="513" fill="none" xmlns="http://www.w3.org/2000/svg"><mask id="a" style="mask-type:luminance" maskUnits="userSpaceOnUse" x="1" y="0" width="512" height="513"><path d="M513 .5H1v512h512V.5z" fill="#fff"/></mask><g mask="url(#a)"><path d="M257 512.5c141.385 0 256-114.615 256-256S398.385.5 257 .5 1 115.115 1 256.5s114.615 256 256 256z" fill="#F0F0F0"/><path d="M513.002 256.5c0-141.384-114.616-256-256-256-50.08 0-96.794 14.395-136.252 39.251l56.113 23.841-75.687 32.158 75.687 32.157-75.687 32.156 75.687 32.155-75.687 32.151 75.687 32.149-75.687 32.156 75.687 32.154-75.687 32.151 75.687 32.154-75.687 32.156 75.687 32.151-56.088 23.828c39.453 24.844 86.157 39.232 136.227 39.232 141.384 0 256-114.616 256-256z" fill="#751A46"/></g></svg>