<svg width="514" height="513" fill="none" xmlns="http://www.w3.org/2000/svg"><mask id="a" style="mask-type:luminance" maskUnits="userSpaceOnUse" x="1" y="0" width="512" height="513"><path d="M513 .5H1v512h512V.5z" fill="#fff"/></mask><g mask="url(#a)"><path d="M257 512.5c141.385 0 256-114.615 256-256S398.385.5 257 .5 1 115.115 1 256.5s114.615 256 256 256z" fill="#FCFCFC"/><path d="M334.915 211.977v22.261h30.552c-12.75 17.72-29.733 32.186-49.465 41.927-5.062-5.259-12.169-8.536-20.044-8.536-13.275 0-24.371 9.299-27.15 21.738-3.89.342-7.827.523-11.806.523-3.979 0-7.916-.183-11.806-.523-2.779-12.438-13.875-21.738-27.15-21.738-7.875 0-14.98 3.277-20.044 8.536-19.732-9.74-36.714-24.208-49.464-41.927h30.551v-22.261h-77.913c0 86.059 69.767 155.826 155.826 155.826 86.061 0 155.826-69.767 155.826-155.826h-77.913z" fill="#D80027"/></g></svg>