<svg width="514" height="513" fill="none" xmlns="http://www.w3.org/2000/svg"><mask id="a" style="mask-type:luminance" maskUnits="userSpaceOnUse" x="1" y="0" width="512" height="513"><path d="M513 .5H1v512h512V.5z" fill="#fff"/></mask><g mask="url(#a)"><path d="M257 512.5c141.385 0 256-114.615 256-256S398.385.5 257 .5 1 115.115 1 256.5s114.615 256 256 256z" fill="#FFDA44"/><path d="M295.932 509.557c41.636-6.352 79.962-22.748 112.456-46.618L257 256.5l38.932 253.057zM218.066 3.441c-41.635 6.352-79.961 22.748-112.457 46.617l151.39 206.44L218.066 3.441zM105.609 462.939c32.494 23.869 70.82 40.265 112.455 46.619L256.999 256.5l-151.39 206.439zm-55.051-357.83c-23.87 32.496-40.264 70.821-46.617 112.457l253.057 38.933-206.44-151.39zM3.941 295.432c6.352 41.636 22.748 79.962 46.618 112.456L256.998 256.5 3.941 295.432zm506.116-77.867c-6.353-41.635-22.748-79.961-46.618-112.456L257 256.498l253.057-38.933zM408.388 50.057c-32.495-23.869-70.82-40.264-112.456-46.616L257 256.498l151.388-206.44zm55.053 357.832c23.869-32.495 40.264-70.822 46.618-112.456L257 256.5l206.441 151.389z" fill="#D80027"/><path d="M257 345.543c49.177 0 89.043-39.866 89.043-89.043 0-49.177-39.866-89.043-89.043-89.043-49.177 0-89.043 39.866-89.043 89.043 0 49.177 39.866 89.043 89.043 89.043z" fill="#D80027"/><path d="M257.002 323.285c36.883 0 66.783-29.9 66.783-66.783s-29.9-66.783-66.783-66.783-66.783 29.9-66.783 66.783 29.9 66.783 66.783 66.783z" fill="#FFDA44"/></g></svg>