<svg width="514" height="513" fill="none" xmlns="http://www.w3.org/2000/svg"><mask id="a" style="mask-type:luminance" maskUnits="userSpaceOnUse" x="1" y="0" width="512" height="513"><path d="M513.001.5H1v512.001h512.001V.5z" fill="#fff"/></mask><g mask="url(#a)"><path d="M139.771 484.145l188.065-156.808 156.808-188.065c-24.38-47.248-63.038-85.927-110.267-110.338L186.163 185.665 29.433 373.877c24.41 47.231 63.089 85.888 110.338 110.268z" fill="#FFDA44"/><path d="M438.027 437.527c80.766-80.767 96.271-202.064 46.546-298.41L139.617 484.073c96.346 49.724 217.644 34.219 298.41-46.546z" fill="#D80027"/><path d="M75.973 75.473c-80.766 80.766-96.27 202.064-46.547 298.41L374.383 28.927C278.037-20.798 156.739-5.292 75.973 75.473z" fill="#6DA544"/></g></svg>