<svg width="514" height="513" fill="none" xmlns="http://www.w3.org/2000/svg"><mask id="a" style="mask-type:luminance" maskUnits="userSpaceOnUse" x="1" y="0" width="512" height="513"><path d="M513 .5H1v512h512V.5z" fill="#fff"/></mask><g mask="url(#a)"><path d="M346.042 16.422C318.308 6.133 288.313.5 256.999.5c-31.314-.001-61.31 5.633-89.043 15.922l-22.261 240.077 22.261 240.077c27.732 10.292 57.728 15.924 89.043 15.924 31.313 0 61.31-5.632 89.043-15.924l22.26-240.076-22.26-240.078z" fill="#FFDA44"/><path d="M513 256.499c0-110.07-69.472-203.907-166.957-240.077v480.156C443.528 460.404 512.999 366.571 513 256.499z" fill="#D80027"/><path d="M1 256.501C1 366.574 70.472 460.407 167.955 496.58l.001-480.154C70.472 52.596 1 146.43 1 256.5z" fill="#0052B4"/></g></svg>