<svg width="514" height="513" fill="none" xmlns="http://www.w3.org/2000/svg"><mask id="a" style="mask-type:luminance" maskUnits="userSpaceOnUse" x="1" y="0" width="512" height="513"><path d="M513 .5H1v512h512V.5z" fill="#fff"/></mask><g mask="url(#a)"><path d="M257 512.5c141.385 0 256-114.615 256-256S398.385.5 257 .5 1 115.115 1 256.5s114.615 256 256 256z" fill="#F0F0F0"/><path d="M497.077 345.543C507.368 317.81 513 287.814 513 256.5c0-31.314-5.632-61.31-15.923-89.043H16.923C6.633 195.19 1 225.186 1 256.5c0 31.314 5.633 61.31 15.923 89.043L257 367.804l240.077-22.261z" fill="#0052B4"/><path d="M256.999 512.5c110.071 0 203.906-69.472 240.077-166.957H16.922C53.092 443.028 146.928 512.5 256.999 512.5z" fill="#D80027"/></g></svg>