<svg width="514" height="513" fill="none" xmlns="http://www.w3.org/2000/svg"><mask id="a" style="mask-type:luminance" maskUnits="userSpaceOnUse" x="1" y="0" width="512" height="513"><path d="M513 .5H1v512h512V.5z" fill="#fff"/></mask><g mask="url(#a)"><path d="M1 256.499c0 44.35 11.283 86.064 31.127 122.435L257 401.195l224.873-22.261C501.717 342.563 513 300.849 513 256.499l-256-22.261L1 256.499z" fill="#FFDA44"/><path d="M481.873 134.065C438.454 54.489 354.035.5 257 .5S75.546 54.489 32.127 134.065C12.283 170.436 1 212.15 1 256.5h512c0-44.35-11.283-86.064-31.127-122.435z" fill="#338AF3"/><path d="M257.002 512.499c97.035 0 181.454-53.989 224.873-133.565H32.129c43.419 79.576 127.838 133.565 224.873 133.565z" fill="#496E2D"/><path d="M290.391 150.321l31.266 14.707-16.649 30.28 33.95-6.494 4.302 34.295 23.646-25.224 23.648 25.224 4.301-34.295 33.95 6.492-16.648-30.279 31.264-14.706-31.265-14.705 16.649-30.28-33.949 6.494-4.303-34.295-23.647 25.224-23.647-25.224-4.301 34.295-33.951-6.494 16.649 30.281-31.265 14.704z" fill="#FFDA44"/></g></svg>