<svg width="514" height="513" fill="none" xmlns="http://www.w3.org/2000/svg"><mask id="a" style="mask-type:luminance" maskUnits="userSpaceOnUse" x="1" y="0" width="512" height="513"><path d="M513 .5H1v512h512V.5z" fill="#fff"/></mask><g mask="url(#a)"><path d="M257 512.5c141.385 0 256-114.615 256-256S398.385.5 257 .5 1 115.115 1 256.5s114.615 256 256 256z" fill="#F0F0F0"/><path d="M257 .5C256.761.32.932 256.433 1 256.5 1 115.116 115.616.5 257 .5zm0 0c.239-.18 256.068 255.932 256 256C513 115.116 398.384.5 257 .5z" fill="#D80027"/><path d="M257 512.5c-.239.18-256.068-255.932-256-256 0 141.384 114.616 256 256 256zm0 0c.239.18 256.068-255.932 256-256 0 141.384-114.616 256-256 256z" fill="#0052B4"/><path d="M257.001 134.066l27.628 85.029h89.405l-72.331 52.55 27.628 85.03-72.33-52.551-72.33 52.551 27.628-85.03-72.33-52.55h89.404l27.628-85.029z" fill="#FFDA44"/></g></svg>