<svg width="514" height="513" fill="none" xmlns="http://www.w3.org/2000/svg"><mask id="a" style="mask-type:luminance" maskUnits="userSpaceOnUse" x="1" y="0" width="512" height="513"><path d="M513 .5H1v512h512V.5z" fill="#fff"/></mask><g mask="url(#a)"><path d="M26.402 145.195C10.128 178.851 1 216.608 1 256.499c0 39.891 9.128 77.648 25.402 111.304L257 390.064l230.598-22.261C503.872 334.147 513 296.39 513 256.499c0-39.891-9.128-77.648-25.402-111.304L257 122.934 26.402 145.195z" fill="#F0F0F0"/><path d="M26.41 367.805C67.816 453.436 155.506 512.501 257 512.501s189.183-59.065 230.589-144.696H26.41z" fill="#496E2D"/><path d="M26.41 145.196h461.178C446.182 59.565 358.493.5 256.999.5S67.816 59.565 26.41 145.196z" fill="#000"/><path d="M75.98 75.48c-99.974 99.974-99.974 262.065 0 362.04L257 256.5 75.98 75.48zm247.803 181.019c0-37.298 26.213-68.457 61.217-76.101a78.151 78.151 0 00-16.696-1.812c-43.031 0-77.913 34.882-77.913 77.913s34.882 77.913 77.913 77.913c5.733 0 11.315-.637 16.696-1.812-35.004-7.644-61.217-38.803-61.217-76.101z" fill="#D80027"/><path d="M388.273 206.414l11.053 34.014h35.761l-28.932 21.018 11.052 34.012-28.934-21.02-28.931 21.02 11.053-34.012-28.934-21.018h35.761l11.051-34.014z" fill="#D80027"/></g></svg>