<svg width="514" height="513" fill="none" xmlns="http://www.w3.org/2000/svg"><mask id="a" style="mask-type:luminance" maskUnits="userSpaceOnUse" x="1" y="0" width="512" height="513"><path d="M512.999.5H1v511.999h511.999V.5z" fill="#fff"/></mask><g mask="url(#a)"><path d="M256.999 512.498c141.384 0 255.999-114.615 255.999-255.999C512.998 115.115 398.383.5 256.999.5 115.615.5 1 115.115 1 256.499c0 141.384 114.615 255.999 255.999 255.999z" fill="#FFDA44"/><path d="M75.98 437.518a257.488 257.488 0 0034.216 28.748l356.568-356.568a257.349 257.349 0 00-28.748-34.217A257.601 257.601 0 00403.8 46.734L47.234 403.303a257.35 257.35 0 0028.745 34.215z" fill="#000"/><path d="M75.983 75.48c-80.763 80.763-96.27 202.056-46.544 298.397l344.94-344.94C278.038-20.784 156.743-5.28 75.982 75.48z" fill="#6DA544"/><path d="M438.019 437.518c80.762-80.761 96.266-202.054 46.545-298.397L139.621 484.063c96.342 49.722 217.635 34.218 298.398-46.545z" fill="#D80027"/><path d="M163.768 302.511l23.898 12.177 18.966-18.965-4.196 26.489 23.897 12.178-26.491 4.195-4.196 26.491-12.176-23.898-26.49 4.196 18.965-18.965-12.177-23.898zm139.239-139.239l23.897 12.177 18.966-18.965-4.195 26.489 23.897 12.178-26.491 4.196-4.195 26.49-12.177-23.897-26.49 4.195 18.965-18.965-12.177-23.898z" fill="#F0F0F0"/></g></svg>