<svg width="514" height="513" fill="none" xmlns="http://www.w3.org/2000/svg"><mask id="a" style="mask-type:luminance" maskUnits="userSpaceOnUse" x="1" y="0" width="512" height="513"><path d="M513 .5H1v512h512V.5z" fill="#fff"/></mask><g mask="url(#a)"><path d="M368.303 25.902C334.647 9.628 296.889.5 256.999.5s-77.648 9.128-111.304 25.402L123.434 256.5l22.261 230.598c33.656 16.274 71.414 25.402 111.304 25.402s77.648-9.128 111.304-25.402L390.564 256.5 368.303 25.902z" fill="#D80027"/><path d="M145.696 25.91C60.066 67.317 1 155.006 1 256.5s59.066 189.182 144.696 230.589V25.91z" fill="#000"/><path d="M368.305 25.91v461.178c85.63-41.407 144.696-129.096 144.696-230.589S453.935 67.317 368.305 25.91z" fill="#496E2D"/><path d="M257 167.457c-49.178 0-89.043 39.866-89.043 89.043 0 49.177 39.866 89.043 89.043 89.043 49.177 0 89.043-39.866 89.043-89.043 0-49.177-39.865-89.043-89.043-89.043zm0 144.695c-30.736 0-55.652-24.917-55.652-55.652s24.917-55.652 55.652-55.652 55.652 24.917 55.652 55.652-24.916 55.652-55.652 55.652z" fill="#FFDA44"/><path d="M256.999 223.109c-12.295 0-22.261 9.966-22.261 22.261v33.391h44.522V245.37c0-12.295-9.966-22.261-22.261-22.261z" fill="#FFDA44"/></g></svg>