<svg width="514" height="513" fill="none" xmlns="http://www.w3.org/2000/svg"><mask id="a" style="mask-type:luminance" maskUnits="userSpaceOnUse" x="1" y="0" width="512" height="513"><path d="M513.001.5H1v512.001h512.001V.5z" fill="#fff"/></mask><g mask="url(#a)"><path d="M257 .5c141.384 0 256 114.616 256 256 0 141.384-114.616 256-256 256-141.384 0-256-114.616-256-256" fill="#FFDA44"/><path d="M251.438 114.28h218.443a257.427 257.427 0 00-51.987-56.89H251.438v56.89zm0 113.776h259.984a254.547 254.547 0 00-13.006-56.888H251.438v56.888zM15.588 341.835h482.825a254.566 254.566 0 0013.007-56.89H2.582a254.375 254.375 0 0013.006 56.89zm80.518 113.777H417.89a257.434 257.434 0 0051.987-56.889H44.121a257.447 257.447 0 0051.985 56.889z" fill="#D80027"/><path d="M257.001.5C115.616.5.999 115.116 1 256.502c58.426-.002 114.616 0 256 0L257.001.5z" fill="#4A1F63"/><path d="M212.479 134.066v22.261h-11.13v-22.261h-22.261v22.261h-11.13v-44.522h-44.522v44.522h-11.131v-22.261h-22.26v22.261h-11.13v-22.261H56.651v66.782H234.74v-66.782h-22.261z" fill="#F0F0F0"/></g></svg>