<svg width="514" height="513" fill="none" xmlns="http://www.w3.org/2000/svg"><mask id="a" style="mask-type:luminance" maskUnits="userSpaceOnUse" x="1" y="0" width="512" height="513"><path d="M513 .5H1v512h512V.5z" fill="#fff"/></mask><g mask="url(#a)"><path d="M513 256.5c0 141.384-114.616 256-256 256-141.384 0-256-114.616-256-256L257 .5c141.384 0 256 114.616 256 256z" fill="#D80027"/><path d="M257 256.5V.5C115.616.5 1 115.116 1 256.5h256z" fill="#0052B4"/><path d="M206.051 167.457l4.145 12.755h13.41l-10.85 7.881 4.145 12.755-10.85-7.883-10.85 7.883 4.145-12.755-10.85-7.881h13.41l4.145-12.755zM138.695 67.281l6.907 21.26h22.351l-18.084 13.134 6.91 21.258-18.084-13.139-18.084 13.139 6.91-21.258-18.083-13.135h22.348l6.909-21.259zm66.786 22.262l6.907 21.26h22.351l-18.083 13.135 6.907 21.258-18.082-13.139-18.083 13.139 6.908-21.258-18.083-13.135h22.35l6.908-21.26zm-52.789 89.043l6.908 21.259h22.35l-18.083 13.135 6.908 21.258-18.083-13.138-18.083 13.138 6.908-21.258-18.083-13.135h22.351l6.907-21.259zm-58.517-55.652l6.908 21.259h22.351l-18.084 13.135 6.908 21.258-18.083-13.138-18.082 13.138L83 157.328l-18.082-13.135h22.35l6.907-21.259z" fill="#F0F0F0"/></g></svg>