<svg width="514" height="513" fill="none" xmlns="http://www.w3.org/2000/svg"><mask id="a" style="mask-type:luminance" maskUnits="userSpaceOnUse" x="1" y="0" width="512" height="513"><path d="M513 .5H1v512h512V.5z" fill="#fff"/></mask><g mask="url(#a)"><path d="M257 512.5c141.385 0 256-114.615 256-256S398.385.5 257 .5 1 115.115 1 256.5s114.615 256 256 256z" fill="#FFDA44"/><path d="M156.825 167.457h340.25C460.905 69.972 367.069.5 256.999.5c-70.694 0-134.687 28.659-181.01 74.989l80.836 91.968zm0 178.086h340.25C460.905 443.028 367.069 512.5 256.999 512.5c-70.694 0-134.687-28.659-181.01-74.989l80.836-91.968z" fill="#6DA544"/><path d="M75.98 75.48c-99.974 99.974-99.974 262.065 0 362.04L257 256.5 75.98 75.48z" fill="#D80027"/><path d="M326.075 211.977l11.051 34.012h35.762l-28.932 21.02 11.051 34.012L326.075 280l-28.932 21.021 11.05-34.012-28.931-21.02h35.762l11.051-34.012zm111.305 0l11.05 34.012h35.762l-28.931 21.02 11.05 34.012L437.38 280l-28.933 21.021 11.051-34.012-28.932-21.02h35.762l11.052-34.012z" fill="#000"/></g></svg>