<svg width="514" height="513" fill="none" xmlns="http://www.w3.org/2000/svg"><mask id="a" style="mask-type:luminance" maskUnits="userSpaceOnUse" x="1" y="0" width="512" height="513"><path d="M513 .5H1v512h512V.5z" fill="#fff"/></mask><g mask="url(#a)"><path d="M257 512.5c141.385 0 256-114.615 256-256S398.385.5 257 .5 1 115.115 1 256.5s114.615 256 256 256z" fill="#F0F0F0"/><path d="M510.833 223.109H290.392V2.667A258.556 258.556 0 00257 .5c-11.317 0-22.461.744-33.391 2.167v220.441H3.167A258.556 258.556 0 001 256.5c0 11.317.744 22.461 2.167 33.391h220.441v220.442a258.35 258.35 0 0066.783 0V289.892h220.442A258.556 258.556 0 00513 256.5c0-11.317-.744-22.461-2.167-33.391z" fill="#D80027"/><path d="M379.435 89.543c-20.746 0-38.177 14.189-43.119 33.391l43.119 11.13 43.119-11.13c-4.942-19.201-22.373-33.391-43.119-33.391zm-44.524 100.175l55.652 11.13v-23.663c15.645-4.028 27.959-16.345 31.986-31.989l-43.116-11.13h-55.652l11.13 33.391v22.261z" fill="#000"/><path d="M422.552 122.934h-98.771v44.522h11.13v-22.261h87.638a44.582 44.582 0 001.406-11.13c0-3.844-.487-7.574-1.403-11.131z" fill="#ACABB1"/><path d="M145.697 89.543c-20.746 0-38.177 14.189-43.119 33.391l43.119 11.13 43.119-11.13c-4.942-19.201-22.373-33.391-43.119-33.391zm-44.523 100.175l55.652 11.13v-23.663c15.645-4.028 27.959-16.345 31.986-31.989l-43.116-11.13H90.043l11.13 33.391v22.261h.001z" fill="#000"/><path d="M188.815 122.934H90.043v44.522h11.13v-22.261h87.638a44.582 44.582 0 001.406-11.13c0-3.844-.486-7.574-1.402-11.131z" fill="#ACABB1"/><path d="M379.435 312.152c-20.746 0-38.177 14.189-43.119 33.391l43.119 11.13 43.119-11.13c-4.942-19.202-22.373-33.391-43.119-33.391zm-44.524 100.176l55.652 11.13v-23.663c15.645-4.028 27.959-16.345 31.986-31.989l-43.116-11.13h-55.652l11.13 33.391v22.261z" fill="#000"/><path d="M422.552 345.543h-98.771v44.522h11.13v-22.261h87.638a44.582 44.582 0 001.406-11.13c0-3.843-.487-7.573-1.403-11.131z" fill="#ACABB1"/><path d="M145.697 312.152c-20.746 0-38.177 14.189-43.119 33.391l43.119 11.13 43.119-11.13c-4.942-19.202-22.373-33.391-43.119-33.391zm-44.523 100.176l55.652 11.13v-23.663c15.645-4.028 27.959-16.345 31.986-31.989l-43.116-11.13H90.043l11.13 33.391v22.261h.001z" fill="#000"/><path d="M188.815 345.543H90.043v44.522h11.13v-22.261h87.638a44.582 44.582 0 001.406-11.13c0-3.843-.486-7.573-1.402-11.131z" fill="#ACABB1"/></g></svg>