<svg width="514" height="513" fill="none" xmlns="http://www.w3.org/2000/svg"><mask id="a" style="mask-type:luminance" maskUnits="userSpaceOnUse" x="1" y="0" width="512" height="513"><path d="M513 .5H1v512h512V.5z" fill="#fff"/></mask><g mask="url(#a)"><path d="M257 512.5c141.385 0 256-114.615 256-256S398.385.5 257 .5 1 115.115 1 256.5s114.615 256 256 256z" fill="#6DA544"/><path d="M145.699 306.586c0 18.441 14.95 33.391 33.391 33.391h100.174c0 15.368 12.458 27.826 27.826 27.826h33.391c15.368 0 27.826-12.458 27.826-27.826v-33.391H145.699zm225.39-161.391v77.913c0 12.275-9.986 22.261-22.261 22.261v33.391c30.687 0 55.652-24.966 55.652-55.652v-77.913h-33.391zm-239.305 77.913c0 12.275-9.986 22.261-22.261 22.261v33.391c30.687 0 55.652-24.966 55.652-55.652v-77.913h-33.391v77.913z" fill="#F0F0F0"/><path d="M321 145.195h33.391v77.913H321v-77.913zm-50.086 44.522a5.571 5.571 0 01-5.565 5.565 5.572 5.572 0 01-5.565-5.565v-44.522h-33.391v44.522a5.571 5.571 0 01-5.565 5.565 5.572 5.572 0 01-5.565-5.565v-44.522h-33.392v44.522c0 21.481 17.476 38.957 38.957 38.957a38.72 38.72 0 0022.261-7.016 38.726 38.726 0 0022.261 7.016c1.666 0 3.304-.117 4.915-.322-2.366 9.749-11.146 17.017-21.611 17.017v33.391c30.687 0 55.652-24.966 55.652-55.652v-77.913h-33.391v44.522h-.001z" fill="#F0F0F0"/><path d="M181.871 245.371h50.087v33.391h-50.087v-33.391z" fill="#F0F0F0"/></g></svg>