<svg width="514" height="513" fill="none" xmlns="http://www.w3.org/2000/svg"><mask id="a" style="mask-type:luminance" maskUnits="userSpaceOnUse" x="1" y="0" width="512" height="513"><path d="M513 .5H1v512h512V.5z" fill="#fff"/></mask><g mask="url(#a)"><path d="M257 512.5c141.385 0 256-114.615 256-256S398.385.5 257 .5 1 115.115 1 256.5s114.615 256 256 256z" fill="#F0F0F0"/><path d="M257 .5C115.616.5 1 115.116 1 256.5c0 31.314 5.633 61.311 15.923 89.043h480.155C507.368 317.811 513 287.814 513 256.5 513 115.116 398.384.5 257 .5z" fill="#0052B4"/><path d="M256.999.5C146.928.5 53.093 69.972 16.922 167.457h480.155C460.905 69.972 367.07.5 256.999.5z" fill="#D80027"/><path d="M67.195 145.195v127.706c0 72.644 94.901 94.903 94.901 94.903s94.9-22.259 94.9-94.903V145.195h-189.8z" fill="#D80027"/><path d="M106.445 167.459H217.75v-44.522l-22.261 11.13-33.391-33.391-33.392 33.391-22.261-11.13v44.522zm128.294 123.225l-72.348-72.348-72.348 72.348 23.611 23.611 48.737-48.737 48.737 48.737 23.611-23.611z" fill="#FFDA44"/><path d="M234.739 223.108h-33.756a22.123 22.123 0 003.002-11.128c0-12.296-9.967-22.261-22.261-22.261-8.495 0-15.872 4.758-19.625 11.753-3.753-6.994-11.13-11.753-19.625-11.753-12.294 0-22.261 9.965-22.261 22.261a22.12 22.12 0 003.002 11.128H90.043c0 12.295 10.709 22.261 23.002 22.261h-.741c0 12.295 9.966 22.261 22.261 22.261 0 10.886 7.818 19.93 18.143 21.866l-17.54 39.602a72.124 72.124 0 0027.224 5.315 72.124 72.124 0 0027.224-5.315l-17.54-39.602c10.325-1.934 18.143-10.979 18.143-21.866 12.295 0 22.261-9.966 22.261-22.261h-.741c12.292 0 23-9.967 23-22.261z" fill="#F0F0F0"/></g></svg>