<svg width="514" height="513" fill="none" xmlns="http://www.w3.org/2000/svg"><mask id="a" style="mask-type:luminance" maskUnits="userSpaceOnUse" x="1" y="0" width="512" height="513"><path d="M513 .5H1v512h512V.5z" fill="#fff"/></mask><g mask="url(#a)"><path d="M257 512.5c141.385 0 256-114.615 256-256S398.385.5 257 .5 1 115.115 1 256.5s114.615 256 256 256z" fill="#F0F0F0"/><path d="M429.81 67.637C384.27 25.945 323.609.5 257.001.5c-10.904 0-21.649.687-32.195 2.01L101.175 145.196 9.102 320.631c5.948 23.061 15.042 44.855 26.775 64.917L257 256.5 429.81 67.637z" fill="#FFDA44"/><path d="M470.133 398.34l-358.168 69.12c41.229 28.401 91.187 45.042 145.037 45.042 88.921 0 167.24-45.343 213.131-114.162z" fill="#6DA544"/><path d="M429.846 67.672L36.023 385.797a256.962 256.962 0 0036.681 48.368l440.297-177.664c0-74.759-32.051-142.027-83.155-188.83z" fill="#D80027"/><path d="M1 256.502c0 22.147 2.814 43.636 8.101 64.131L224.805 2.512C98.618 18.346 1 126.022 1 256.502z" fill="#0052B4"/></g></svg>