<svg width="514" height="513" fill="none" xmlns="http://www.w3.org/2000/svg"><mask id="a" style="mask-type:luminance" maskUnits="userSpaceOnUse" x="1" y="0" width="512" height="513"><path d="M513 .5H1v512h512V.5z" fill="#fff"/></mask><g mask="url(#a)"><path d="M257 512.5c141.385 0 256-114.615 256-256S398.385.5 257 .5 1 115.115 1 256.5s114.615 256 256 256z" fill="#F0F0F0"/><path d="M1 256.501C1 115.116 115.616.5 257 .5c141.384 0 256 114.616 256 256.001" fill="#D80027"/><path d="M156.826 134.064c0-37.298 26.213-68.456 61.217-76.1a78.208 78.208 0 00-16.696-1.812c-43.031 0-77.913 34.882-77.913 77.913s34.882 77.913 77.913 77.913c5.733 0 11.315-.637 16.696-1.812-35.004-7.645-61.217-38.803-61.217-76.102zM257 61.719l5.526 17.005h17.881l-14.467 10.51 5.526 17.006L257 95.73l-14.466 10.51 5.526-17.005-14.466-10.511h17.88L257 61.719z" fill="#F0F0F0"/><path d="M213.623 95.11l5.525 17.005h17.881l-14.466 10.51 5.526 17.005-14.466-10.509-14.468 10.509 5.527-17.005-14.467-10.51h17.881l5.527-17.006zm86.752 0l5.527 17.005h17.88l-14.467 10.51 5.527 17.005-14.467-10.509-14.466 10.509 5.526-17.005-14.466-10.51h17.88l5.526-17.006zm-16.696 50.085l5.526 17.006h17.88l-14.466 10.51 5.526 17.005-14.466-10.509-14.466 10.509 5.526-17.005-14.466-10.51h17.879l5.527-17.006zm-53.358 0l5.525 17.006h17.882l-14.467 10.51 5.527 17.005-14.467-10.509-14.467 10.509 5.526-17.005-14.466-10.51h17.881l5.526-17.006z" fill="#F0F0F0"/></g></svg>