<svg width="514" height="513" fill="none" xmlns="http://www.w3.org/2000/svg"><mask id="a" style="mask-type:luminance" maskUnits="userSpaceOnUse" x="1" y="0" width="512" height="513"><path d="M513 .5H1v512h512V.5z" fill="#fff"/></mask><g mask="url(#a)"><path d="M112.715 467.98c41.086 28.085 90.763 44.522 144.287 44.522s103.202-16.437 144.287-44.522l-144.287-22.261-144.287 22.261zM401.289 45.022C360.204 16.937 310.526.5 257.002.5S153.799 16.937 112.715 45.022l144.287 22.261 144.287-22.261z" fill="#D80027"/><path d="M112.715 467.98c41.086 28.085 90.763 44.522 144.287 44.522s103.202-16.437 144.287-44.522l-144.287-22.261-144.287 22.261zM401.289 45.022C360.204 16.937 310.526.5 257.002.5S153.799 16.937 112.715 45.022l144.287 22.261 144.287-22.261z" fill="#D80027"/><path d="M512.349 239.803c-6.065-79.01-54.072-155.827-111.061-194.784H112.714C49.578 88.18 6.751 158.87 1.539 239.803l255.462 16.696 255.348-16.696zM1.54 273.196c5.211 80.935 48.037 151.622 111.173 194.783h288.574c63.139-43.16 105.963-113.848 111.175-194.783L257.001 256.5 1.539 273.196z" fill="#0052B4"/><path d="M512.348 239.803H273.696V33.891h-33.391v205.912H1.539A260.12 260.12 0 001 256.5c0 5.609.183 11.175.538 16.695h238.767v205.914h33.391V273.195h238.767c.354-5.52.537-11.086.537-16.695 0-5.569-.225-11.138-.652-16.697z" fill="#D80027"/><path d="M101.176 256.501l155.825-97.942 155.827 97.942-155.827 97.943-155.825-97.943z" fill="#F0F0F0"/><path d="M167.957 301.021h200.347l-44.521-66.783-22.261 22.261-22.261-11.13L257 278.76h-44.522l-22.261-22.261-22.26 44.522z" fill="#6DA544"/><path d="M256.999 189.719l5.526 17.005h17.879l-14.465 10.511 5.526 17.006-14.466-10.51-14.466 10.51 5.526-17.006-14.465-10.511h17.879l5.526-17.005z" fill="#FFDA44"/><path d="M256.999 130.574L56.652 256.5 257 382.426 457.348 256.5 256.999 130.574zM119.4 256.5l137.599-86.487L394.6 256.5l-137.601 86.487L119.4 256.5z" fill="#D80027"/></g></svg>