<svg width="514" height="513" fill="none" xmlns="http://www.w3.org/2000/svg"><mask id="a" style="mask-type:luminance" maskUnits="userSpaceOnUse" x="1" y="0" width="512" height="513"><path d="M513 .5H1v512h512V.5z" fill="#fff"/></mask><g mask="url(#a)"><path d="M234.739 278.761S76.131 75.445 75.981 75.481C122.306 29.154 186.306.5 257 .5c141.384 0 256 114.616 256 256l-278.261 22.261z" fill="#D80027"/><path d="M234.739 256.5S76.131 437.555 75.981 437.519C122.306 483.846 186.306 512.5 257 512.5c141.384 0 256-114.616 256-256H234.739z" fill="#0052B4"/><path d="M75.98 75.48c-99.974 99.974-99.974 262.065 0 362.04L257 256.5 75.98 75.48z" fill="#F0F0F0"/><path d="M29.06 256.5a73.138 73.138 0 00-.236 5.564c0 39.956 32.392 72.348 72.348 72.348 39.956 0 72.348-32.392 72.348-72.348 0-1.874-.095-3.727-.235-5.564H29.059zm72.111-33.392c12.295 0 22.261-9.967 22.261-22.261 0-12.294-9.966-22.261-22.261-22.261-12.294 0-22.26 9.967-22.26 22.261 0 12.294 9.966 22.261 22.26 22.261z" fill="#FFDA44"/><path d="M51.086 195.281v72.348c0 38.34 50.087 50.087 50.087 50.087s50.087-11.747 50.087-50.087v-72.348H51.086z" fill="#D80027"/><path d="M101.199 294.42c-9.292-3.344-27.851-11.89-27.851-26.79v-50.087H129v50.087c0 14.949-18.557 23.474-27.802 26.79z" fill="#338AF3"/><path d="M112.303 245.372v-11.131l-11.13-5.565-11.131 5.565v11.131l-5.565 5.565v22.261h33.392v-22.261l-5.566-5.565z" fill="#F3F3F3"/></g></svg>