<svg width="514" height="513" fill="none" xmlns="http://www.w3.org/2000/svg"><mask id="a" style="mask-type:luminance" maskUnits="userSpaceOnUse" x="1" y="0" width="512" height="513"><path d="M513 .5H1v512h512V.5z" fill="#fff"/></mask><g mask="url(#a)"><path d="M257 512.5c141.385 0 256-114.615 256-256S398.385.5 257 .5 1 115.115 1 256.5s114.615 256 256 256z" fill="#F0F0F0"/><path d="M257 512.5c141.384 0 256-114.616 256-256 0-31.314-5.632-61.311-15.923-89.043H16.923C6.633 195.189 1 225.186 1 256.5c0 141.384 114.616 256 256 256z" fill="#0052B4"/><path d="M256.999 512.5c110.071 0 203.906-69.472 240.077-166.957H16.922C53.092 443.028 146.928 512.5 256.999 512.5z" fill="#D80027"/><path d="M67.2 145.195v127.706c0 72.644 94.9 94.903 94.9 94.903s94.9-22.259 94.9-94.903V145.195H67.2z" fill="#F0F0F0"/><path d="M89.46 145.195v127.706c0 8.528 1.895 16.582 5.647 24.133h133.987c3.752-7.55 5.646-15.605 5.646-24.133V145.195H89.46z" fill="#D80027"/><path d="M206.621 234.239h-33.39v-22.261h22.261v-22.261h-22.261v-22.26H150.97v22.26h-22.26v22.261h22.26v22.261h-33.392V256.5h33.392v22.261h22.261V256.5h33.39v-22.261z" fill="#F0F0F0"/><path d="M125.472 328.112c14.345 9.015 29.083 14.249 36.628 16.577 7.545-2.327 22.283-7.562 36.628-16.577 14.466-9.092 24.607-19.49 30.365-31.075a38.775 38.775 0 00-22.471-7.143c-3.048 0-6.009.361-8.856 1.024-6.033-13.708-19.728-23.285-35.665-23.285-15.937 0-29.633 9.577-35.665 23.285a38.993 38.993 0 00-8.856-1.024 38.77 38.77 0 00-22.47 7.143c5.754 11.584 15.895 21.982 30.362 31.075z" fill="#0052B4"/></g></svg>