<svg width="514" height="513" fill="none" xmlns="http://www.w3.org/2000/svg"><mask id="a" style="mask-type:luminance" maskUnits="userSpaceOnUse" x="1" y="0" width="512" height="513"><path d="M513 .5H1v512h512V.5z" fill="#fff"/></mask><g mask="url(#a)"><path d="M257 512.5c141.385 0 256-114.615 256-256S398.385.5 257 .5 1 115.115 1 256.5s114.615 256 256 256z" fill="#F0F0F0"/><path d="M497.077 167.459H223.609v-66.783H90.043v66.783h-73.12C6.633 195.191 1 225.188 1 256.502c0 31.314 5.633 61.31 15.923 89.043L257 367.806l240.077-22.261C507.367 317.812 513 287.816 513 256.502c0-31.314-5.633-61.311-15.923-89.043z" fill="#0052B4"/><path d="M256.999 512.5c110.071 0 203.906-69.472 240.077-166.957H16.922C53.092 443.028 146.928 512.5 256.999 512.5z" fill="#D80027"/><path d="M90.043 167.458v22.26c0 51.121 66.783 66.784 66.783 66.784s66.783-15.663 66.783-66.784v-22.26l-22.261 22.261-44.522-33.391-44.522 33.391-22.261-22.261z" fill="#F0F0F0"/></g></svg>