<svg width="514" height="513" fill="none" xmlns="http://www.w3.org/2000/svg"><mask id="a" style="mask-type:luminance" maskUnits="userSpaceOnUse" x="1" y="0" width="512" height="513"><path d="M513.001.5H1v512.001h512.001V.5z" fill="#fff"/></mask><g mask="url(#a)"><path d="M438.027 437.527c96.011-96.011 99.802-249.296 11.413-349.855L257 256.499 88.172 448.94c100.559 88.389 253.843 84.598 349.855-11.413z" fill="#496E2D"/><path d="M75.974 75.474c96.011-96.011 249.296-99.802 349.855-11.413L257 256.503 64.561 425.329C-23.829 324.77-20.037 171.485 75.974 75.474z" fill="#0052B4"/><path d="M425.826 64.059L64.559 425.327a258.497 258.497 0 0011.413 12.198 260.165 260.165 0 0012.2 11.414L449.439 87.671a259.073 259.073 0 00-11.414-12.201 259.537 259.537 0 00-12.198-11.411z" fill="#FFDA44"/><path d="M108.86 89.535l5.527 17.007h17.881l-14.466 10.509 5.525 17.007-14.467-10.511-14.467 10.511 5.527-17.007-14.467-10.509h17.882l5.525-17.007zm91.34 0l5.527 17.007h17.88l-14.466 10.509 5.526 17.007-14.467-10.511-14.467 10.511 5.527-17.007-14.467-10.509h17.881l5.526-17.007zm-91.34 89.047l5.527 17.007h17.881l-14.466 10.51 5.525 17.007-14.467-10.511-14.467 10.511 5.527-17.007-14.467-10.51h17.882l5.525-17.007zm91.34 0l5.527 17.007h17.88l-14.466 10.51 5.526 17.007-14.467-10.511-14.467 10.511 5.527-17.007-14.467-10.51h17.881l5.526-17.007zm-45.671-44.523l5.527 17.007h17.88l-14.466 10.51 5.526 17.007-14.467-10.511-14.467 10.511 5.526-17.007-14.467-10.51h17.882l5.526-17.007z" fill="#F0F0F0"/></g></svg>