<svg width="514" height="513" fill="none" xmlns="http://www.w3.org/2000/svg"><mask id="a" style="mask-type:luminance" maskUnits="userSpaceOnUse" x="1" y="0" width="512" height="513"><path d="M513 .5H1v512h512V.5z" fill="#fff"/></mask><g mask="url(#a)"><path d="M497.077 345.542C507.367 317.809 513 287.813 513 256.499c0-31.314-5.633-61.31-15.923-89.043L257 145.195 16.923 167.456C6.633 195.189 1 225.185 1 256.499c0 31.314 5.633 61.31 15.923 89.043L257 367.803l240.077-22.261z" fill="#F0F0F0"/><path d="M257 512.5c110.07 0 203.906-69.472 240.076-166.957H16.922C53.094 443.028 146.928 512.5 257 512.5z" fill="#D80027"/><path d="M257 .5C146.928.5 53.094 69.972 16.922 167.457h480.155C460.906 69.972 367.07.5 257 .5z" fill="#496E2D"/><path d="M257 200.848l13.813 42.513h44.703l-36.165 26.277 13.815 42.514L257 285.879l-36.166 26.273 13.815-42.514-36.165-26.277h44.703L257 200.848z" fill="#000"/><path d="M333.055 50.586v51.941c0 8.185-6.657 14.841-14.84 14.841v22.261c20.458 0 37.101-16.643 37.101-37.102V50.586h-22.261zm-159.534 51.941c0 8.185-6.657 14.841-14.841 14.841v22.261c20.459 0 37.102-16.643 37.102-37.102V50.586h-22.261v51.941z" fill="#F0F0F0"/><path d="M299.66 50.586h22.261v51.941H299.66V50.586zm-33.387 29.68a3.715 3.715 0 01-3.71 3.71 3.716 3.716 0 01-3.711-3.71v-29.68h-22.261v29.68a3.715 3.715 0 01-3.71 3.71 3.715 3.715 0 01-3.71-3.71v-29.68H206.91v29.68c0 14.322 11.65 25.972 25.971 25.972a25.815 25.815 0 0014.84-4.676 25.823 25.823 0 0014.841 4.676c1.111 0 2.203-.078 3.277-.215-1.578 6.499-7.431 11.345-14.407 11.345v22.261c20.458 0 37.101-16.643 37.101-37.102V50.586h-22.261l.001 29.68z" fill="#F0F0F0"/><path d="M206.91 117.367h33.391v22.261H206.91v-22.261z" fill="#F0F0F0"/></g></svg>