<svg width="514" height="513" fill="none" xmlns="http://www.w3.org/2000/svg"><mask id="a" style="mask-type:luminance" maskUnits="userSpaceOnUse" x="1" y="0" width="512" height="513"><path d="M513 .5H1v512h512V.5z" fill="#fff"/></mask><g mask="url(#a)"><path d="M257 512.5c141.385 0 256-114.615 256-256S398.385.5 257 .5 1 115.115 1 256.5s114.615 256 256 256z" fill="#F0F0F0"/><path d="M75.98 437.52c-99.974-99.975-99.974-262.065 0-362.04-.007.011 147.629 181.02 147.629 181.02L75.98 437.52z" fill="#000"/><path d="M223.611 256.499L34.955 129.012a255.118 255.118 0 00-15.44 31.763l95.51 95.725-95.506 95.73a254.82 254.82 0 0015.426 31.741L223.61 256.499z" fill="#FFDA44"/><path d="M510.831 223.109H223.6L75.976 75.484a256.99 256.99 0 00-41.025 53.53L162.19 256.5 34.941 383.97a256.966 256.966 0 0041.035 53.545L223.6 289.891h287.231a258.529 258.529 0 002.167-33.391c0-11.317-.744-22.461-2.167-33.391z" fill="#6DA544"/><path d="M101.137 459.575c43.169 33.182 97.206 52.923 155.862 52.923 118.279 0 217.805-80.221 247.181-189.217H237.432L101.137 459.575z" fill="#0052B4"/><path d="M504.18 189.717C474.804 80.721 375.278.5 256.999.5c-58.656 0-112.693 19.741-155.862 52.923l136.294 136.294H504.18z" fill="#D80027"/></g></svg>