<svg width="514" height="513" fill="none" xmlns="http://www.w3.org/2000/svg"><mask id="a" style="mask-type:luminance" maskUnits="userSpaceOnUse" x="1" y="0" width="512" height="513"><path d="M513 .5H1v512h512V.5z" fill="#fff"/></mask><g mask="url(#a)"><path d="M257 512.5c141.385 0 256-114.615 256-256S398.385.5 257 .5 1 115.115 1 256.5s114.615 256 256 256z" fill="#F0F0F0"/><path d="M346.043 256.5c0 22.261-39.866 77.913-89.043 77.913-49.177 0-89.043-55.652-89.043-77.913 0-49.178 39.866-89.043 89.043-89.043 49.177 0 89.043 39.865 89.043 89.043z" fill="#D80027"/><path d="M346.043 256.5c0 49.178-39.866 89.043-89.043 89.043-49.177 0-89.043-39.865-89.043-89.043" fill="#0052B4"/><path d="M351.375 335.209l23.607-23.607 15.739 15.738-23.607 23.608-15.739-15.739zm-39.359 39.344l23.607-23.608 15.739 15.739-23.608 23.607-15.738-15.738zm86.578 7.868l23.607-23.609 15.739 15.74-23.608 23.607-15.738-15.738zm-39.356 39.35l23.608-23.607 15.738 15.739-23.607 23.607-15.739-15.739zm15.746-62.953l23.608-23.607 15.738 15.738-23.607 23.608-15.739-15.739zm-39.347 39.348l23.607-23.607 15.739 15.738-23.608 23.608-15.738-15.739zm63.062-220.329l-62.953-62.953 15.738-15.74 62.954 62.954-15.739 15.739zm-62.971-15.733l-23.607-23.608 15.738-15.738 23.607 23.608-15.738 15.738zm39.352 39.354l-23.607-23.607 15.738-15.738 23.607 23.607-15.738 15.738zm7.863-86.581L359.336 91.27l15.739-15.739 23.607 23.608-15.739 15.738zm39.364 39.364l-23.608-23.607 15.739-15.739 23.607 23.608-15.738 15.738zM91.754 358.773l62.953 62.954-15.738 15.738-62.953-62.953 15.738-15.739zm62.949 15.723l23.608 23.608-15.738 15.737-23.608-23.607 15.738-15.738zm-39.348-39.336l23.608 23.608-15.739 15.738-23.607-23.607 15.738-15.739zm23.611-23.613l62.953 62.953-15.738 15.739-62.954-62.954 15.739-15.738zm15.738-220.324L91.75 154.176l-15.738-15.738 62.954-62.954 15.738 15.739zm23.605 23.605l-62.954 62.954-15.738-15.739L162.57 99.09l15.739 15.738zm23.629 23.621l-62.954 62.954-15.738-15.738 62.954-62.954 15.738 15.738z" fill="#000"/></g></svg>