<svg width="514" height="513" fill="none" xmlns="http://www.w3.org/2000/svg"><mask id="a" style="mask-type:luminance" maskUnits="userSpaceOnUse" x="1" y="0" width="512" height="513"><path d="M513 .5H1v512h512V.5z" fill="#fff"/></mask><g mask="url(#a)"><path d="M368.303 25.902C334.647 9.628 296.889.5 256.999.5s-77.648 9.128-111.304 25.402L123.434 256.5l22.261 230.598c33.656 16.274 71.414 25.402 111.304 25.402s77.648-9.128 111.304-25.402L390.564 256.5 368.303 25.902z" fill="#FFDA44"/><path d="M145.696 25.91C60.066 67.316 1 155.005 1 256.5s59.066 189.183 144.696 230.589V25.91zm222.609 0v461.178c85.63-41.406 144.696-129.096 144.696-230.589S453.935 67.316 368.305 25.91z" fill="#0052B4"/><path d="M334.911 156.327l-14.934-7.466c-.9 1.801-20.399 41.474-23.584 102.075h-22.699v-94.609l-16.696-22.261-16.696 22.261v94.609h-22.699c-3.186-60.601-22.684-100.274-23.585-102.075l-29.866 14.933c.206.41 20.499 41.715 20.499 103.838v16.696h55.652v94.609h33.391v-94.609h55.652v-16.697c0-32.118 5.557-58.602 10.22-75.164 5.083-18.06 10.246-28.607 10.297-28.712l-14.952-7.428z" fill="#000"/></g></svg>