<svg width="514" height="513" fill="none" xmlns="http://www.w3.org/2000/svg"><mask id="a" style="mask-type:luminance" maskUnits="userSpaceOnUse" x="1" y="0" width="512" height="513"><path d="M513 .5H1v512h512V.5z" fill="#fff"/></mask><g mask="url(#a)"><path d="M257 512.5c141.385 0 256-114.615 256-256S398.385.5 257 .5 1 115.115 1 256.5s114.615 256 256 256z" fill="#F0F0F0"/><path d="M493.028 157.253C454.259 65.162 363.187.5 256.999.5c-70.694 0-134.687 28.659-181.01 74.989l64.109 81.764h352.93z" fill="#000"/><path d="M140.825 354.82l-64.837 82.691C122.312 483.841 186.305 512.5 257 512.5c106.546 0 197.878-65.094 236.424-157.68H140.825z" fill="#496E2D"/><path d="M56.652 188.789v134.492h447.53c5.742-21.291 8.818-43.675 8.818-66.782 0-23.442-3.158-46.142-9.061-67.71H56.652z" fill="#A2001D"/><path d="M75.98 75.48c-99.974 99.974-99.974 262.065 0 362.04L257 256.5 75.98 75.48z" fill="#0052B4"/><path d="M84.387 192.852l31.245 43.601 51.128-16.245-31.811 43.193 31.245 43.603-50.908-16.907-31.812 43.192.35-53.643-50.91-16.909 51.124-16.244.35-53.641z" fill="#FFDA44"/></g></svg>