<svg width="514" height="513" fill="none" xmlns="http://www.w3.org/2000/svg"><mask id="a" style="mask-type:luminance" maskUnits="userSpaceOnUse" x="1" y="0" width="512" height="513"><path d="M513 .5H1v512h512V.5z" fill="#fff"/></mask><g mask="url(#a)"><path d="M1 256.499c0 31.314 5.633 61.31 15.923 89.043L257 367.803l240.077-22.261C507.367 317.809 513 287.813 513 256.499c0-31.314-5.633-61.31-15.923-89.043L257 145.195 16.923 167.456C6.633 195.189 1 225.185 1 256.499z" fill="#FFDA44"/><path d="M497.076 167.457C460.905 69.973 367.07.5 256.999.5S53.093 69.973 16.922 167.457h480.154zM16.922 345.543C53.092 443.027 146.928 512.5 256.999 512.5s203.906-69.473 240.077-166.957H16.922z" fill="#D80027"/></g></svg>