<svg width="514" height="513" fill="none" xmlns="http://www.w3.org/2000/svg"><mask id="a" style="mask-type:luminance" maskUnits="userSpaceOnUse" x="1" y="0" width="512" height="513"><path d="M512.999.5H1v511.999h511.999V.5z" fill="#fff"/></mask><g mask="url(#a)"><path d="M256.999 512.498c141.384 0 255.999-114.615 255.999-255.999C512.998 115.115 398.383.5 256.999.5 115.615.5 1 115.115 1 256.499c0 141.384 114.615 255.999 255.999 255.999z" fill="#FFDA44"/><path d="M201.349 45.023h-88.635a257.755 257.755 0 00-11.539 8.373L78.915 256.5l22.26 203.104a256.178 256.178 0 0011.539 8.373h88.635V45.023z" fill="#FF9811"/><path d="M1 256.5c0 82.745 39.268 156.307 100.174 203.104V53.394C40.268 100.194 1 173.755 1 256.5z" fill="#6DA544"/><path d="M412.824 156.562v6.405l.238.038-.238-6.443z" fill="#FFDA44"/><path d="M492.593 323.283H444.36l-20.405 22.261v44.522h-44.522v-22.261h22.261v-44.522H301.52v27.826h-22.261v-53.031c-6.83-6.114-11.13-14.995-11.13-24.882V128.501c0-18.441 14.95-33.39 33.391-33.39v205.912h44.522l15.276-12.731a53.245 53.245 0 01-4.146-20.66v-33.391h-33.391v-66.782h66.782c0-11.13 16.696-22.261 16.696-22.261s16.696 11.13 16.696 22.261v66.783c12.383.147 32.057-.174 53.312 0-5.584-9.76-8.791-21.341-8.791-33.391 0-19.641 8.48-37.299 21.978-49.519-19.456-43.115-50.502-79.877-89.169-106.309H234.738V467.98h166.548c47.019-32.141 82.768-79.552 100.112-135.09l-8.805-9.606z" fill="#A2001D"/></g></svg>