<svg width="514" height="513" fill="none" xmlns="http://www.w3.org/2000/svg"><mask id="a" style="mask-type:luminance" maskUnits="userSpaceOnUse" x="1" y="0" width="512" height="513"><path d="M512.58.5H1v511.58h511.58V.5z" fill="#fff"/></mask><g mask="url(#a)"><path d="M256.79 512.08c141.269 0 255.79-114.521 255.79-255.79S398.059.5 256.79.5 1 115.021 1 256.29s114.521 255.79 255.79 255.79z" fill="#F0F0F0"/><path d="M457.713 206.244h-84.151c0-15.355-12.448-27.803-27.803-27.803l-22.243 44.485s23.726 66.728 22.984 66.728h27.803c15.356 0 27.803-12.447 27.803-27.803 15.356 0 27.803-12.447 27.803-27.803h-.926c15.355-.001 28.73-12.448 28.73-27.804zm-401.85 0h84.151c0-15.355 12.448-27.803 27.803-27.803l22.243 44.485s-23.726 66.728-22.984 66.728h-27.803c-15.356 0-27.803-12.447-27.803-27.803-15.356 0-27.803-12.447-27.803-27.803h.926c-15.356-.001-28.73-12.448-28.73-27.804z" fill="#ACABB1"/><path d="M345.762 356.383v11.121H167.821v-11.121h-44.485v44.485h44.485v11.121h177.941v-11.121h44.485v-44.485h-44.485z" fill="#FFDA44"/><path d="M167.82 178.441v111.212c0 68.103 88.97 88.971 88.97 88.971s88.97-20.868 88.97-88.971V178.441l-88.97-11.121-88.97 11.121z" fill="#0052B4"/><path d="M167.82 222.93h177.94v66.728H167.82V222.93z" fill="#D80027"/><path d="M301.275 122.833v16.682l-11.121 5.561-11.121-11.122V100.59h-44.485v33.364l-11.121 11.122-11.122-5.561v-16.682H167.82v55.606h177.941v-55.606h-44.486z" fill="#FFDA44"/></g></svg>