<svg width="514" height="513" fill="none" xmlns="http://www.w3.org/2000/svg"><mask id="a" style="mask-type:luminance" maskUnits="userSpaceOnUse" x="1" y="0" width="512" height="513"><path d="M513 .5H1v512h512V.5z" fill="#fff"/></mask><g mask="url(#a)"><path d="M379.436 31.627C343.065 11.783 301.351.5 257.001.5c-44.35 0-86.064 11.283-122.435 31.127L112.305 256.5l22.261 224.873c36.371 19.844 78.085 31.127 122.435 31.127 44.35 0 86.064-11.283 122.435-31.127L401.697 256.5 379.436 31.627z" fill="#FFDA44"/><path d="M134.565 481.37V31.625C54.989 75.045 1 159.464 1 256.499S54.989 437.953 134.565 481.37z" fill="#338AF3"/><path d="M512.999 256.499c0-97.035-53.989-181.454-133.565-224.874V481.37c79.576-43.417 133.565-127.836 133.565-224.871zm-311.652 66.782l-44.523-66.783 44.522-66.783 44.524 66.783-44.523 66.783zm111.304 0l-44.522-66.783 44.522-66.783 44.522 66.783-44.522 66.783zm-55.652 89.046l-44.522-66.783 44.522-66.782 44.522 66.782-44.522 66.783z" fill="#6DA544"/></g></svg>