<svg width="514" height="513" fill="none" xmlns="http://www.w3.org/2000/svg"><mask id="a" style="mask-type:luminance" maskUnits="userSpaceOnUse" x="1" y="0" width="512" height="513"><path d="M513 .5H1v512h512V.5z" fill="#fff"/></mask><g mask="url(#a)"><path d="M257 512.5c141.385 0 256-114.615 256-256S398.385.5 257 .5 1 115.115 1 256.5s114.615 256 256 256z" fill="#F0F0F0"/><path d="M497.076 167.457H16.922C6.633 195.191 1 225.186 1 256.5c0 31.314 5.633 61.311 15.922 89.043h480.155C507.368 317.811 513 287.814 513 256.5c0-31.314-5.632-61.309-15.924-89.043z" fill="#A2001D"/><path d="M257.742 512.503c87.682 0 165.058-44.092 211.196-111.304H46.547c46.138 67.212 123.512 111.304 211.195 111.304zm0-511.999c87.682 0 165.058 44.092 211.196 111.304H46.547C92.685 44.596 170.059.504 257.742.504z" fill="#6DA544"/><path d="M257.001 167.457l22.101 68.02h71.525l-57.864 42.044 22.103 68.022-57.865-42.039-57.865 42.039 22.104-68.022-57.865-42.044H234.9l22.101-68.02z" fill="#FFDA44"/></g></svg>