<svg width="514" height="513" fill="none" xmlns="http://www.w3.org/2000/svg"><mask id="a" style="mask-type:luminance" maskUnits="userSpaceOnUse" x="1" y="0" width="512" height="513"><path d="M513 .5H1v512h512V.5z" fill="#fff"/></mask><g mask="url(#a)"><path d="M487.598 367.805C503.872 334.15 513 296.391 513 256.501s-9.128-77.649-25.402-111.304L257 134.066l-230.598 11.13C10.128 178.852 1 216.611 1 256.501s9.128 77.649 25.402 111.304L257 378.936l230.598-11.131z" fill="#FFDA44"/><path d="M257 .5C155.506.5 67.81 59.565 26.402 145.196h461.195C446.19 59.565 358.493.5 257 .5z" fill="#000"/><path d="M257 512.501c-101.494 0-189.19-59.065-230.598-144.696h461.195C446.19 453.436 358.493 512.501 257 512.501z" fill="#0052B4"/><path d="M500.911 178.586H13.089C5.247 203.155 1 229.33 1 256.499c0 27.169 4.247 53.344 12.089 77.913H500.91c7.843-24.569 12.09-50.744 12.09-77.913 0-27.169-4.247-53.344-12.089-77.913z" fill="#A2001D"/><path d="M90.043 245.371h333.913v22.261H90.043v-22.261zm44.523-44.523h244.87v22.261h-244.87v-22.261z" fill="#FFDA44"/><path d="M381.027 256.502s-57.243 66.783-124.025 66.783c-66.782 0-66.783-66.783-66.783-66.783s0-66.783 66.783-66.783 124.025 66.783 124.025 66.783z" fill="#F0F0F0"/><path d="M257.002 323.285c-66.783 0-124.025-66.783-124.025-66.783s57.242-66.783 124.025-66.783" fill="#000"/><path d="M212.477 234.238h22.261v44.522h-22.261v-44.522z" fill="#F0F0F0"/><path d="M279.262 234.238h22.261v44.522h-22.261v-44.522z" fill="#000"/><path d="M90.042 278.76c12.295 0 22.261-9.966 22.261-22.261 0-12.294-9.966-22.261-22.26-22.261-12.295 0-22.262 9.967-22.262 22.261 0 12.295 9.967 22.261 22.261 22.261zm333.914 0c12.295 0 22.261-9.966 22.261-22.261 0-12.294-9.966-22.261-22.261-22.261-12.294 0-22.261 9.967-22.261 22.261 0 12.295 9.967 22.261 22.261 22.261z" fill="#0052B4"/></g></svg>