<svg width="514" height="513" fill="none" xmlns="http://www.w3.org/2000/svg"><mask id="a" style="mask-type:luminance" maskUnits="userSpaceOnUse" x="1" y="0" width="512" height="513"><path d="M513 .5H1v512h512V.5z" fill="#fff"/></mask><g mask="url(#a)"><path d="M257 512.5c141.385 0 256-114.615 256-256S398.385.5 257 .5 1 115.115 1 256.5s114.615 256 256 256z" fill="#FFDA44"/><path d="M201.349 223.109h309.484C494.47 97.502 387.067.5 257 .5a256.902 256.902 0 00-55.652 6.085l.001 216.524zm-66.783.001V31.629C64.272 69.983 13.951 140.334 3.168 223.11l131.398-.001zm-.001 66.781H3.168c10.783 82.777 61.104 153.128 131.398 191.481l-.001-191.481zm66.783.001v216.523A256.902 256.902 0 00257 512.5c130.067 0 237.47-97.002 253.833-222.609H201.348v.001z" fill="#0052B4"/></g></svg>