<svg width="514" height="513" fill="none" xmlns="http://www.w3.org/2000/svg"><mask id="a" style="mask-type:luminance" maskUnits="userSpaceOnUse" x="1" y="0" width="512" height="513"><path d="M513 .5H1v512h512V.5z" fill="#fff"/></mask><g mask="url(#a)"><path d="M257 512.5c141.385 0 256-114.615 256-256S398.385.5 257 .5 1 115.115 1 256.5s114.615 256 256 256z" fill="#F0F0F0"/><path d="M3.168 289.891c5.956 45.713 23.978 87.628 50.755 122.464l136.294-122.464H3.168zm220.441 220.444v-187.05L101.145 459.58c34.837 26.777 76.751 44.8 122.464 50.755zm0-507.667c-45.713 5.956-87.627 23.978-122.464 50.755l122.464 136.296V2.668zM3.168 223.109h187.049L53.922 100.645C27.145 135.481 9.123 177.396 3.168 223.109zM290.391 2.668v187.05L412.857 53.423c-34.837-26.775-76.752-44.8-122.466-50.755zm220.44 220.442c-5.956-45.713-23.978-87.628-50.755-122.465L323.781 223.11h187.05zm-187.05 66.781l136.296 122.465c26.776-34.837 44.799-76.752 50.755-122.465H323.781zm-33.39 220.444c45.713-5.956 87.629-23.978 122.465-50.756L290.391 323.285v187.05z" fill="#D80027"/><path d="M460.098 412.376L304.224 256.501l-.001-.001 155.875-155.876a258.09 258.09 0 00-47.222-47.222L257.001 209.277H257L101.125 53.402A258.485 258.485 0 0075.98 75.48a258.367 258.367 0 00-22.078 25.145l155.875 155.874.001.001L53.903 412.376a258.25 258.25 0 0047.223 47.222L257 303.723l155.876 155.875a258.694 258.694 0 0025.144-22.078 258.56 258.56 0 0022.078-25.144z" fill="#496E2D"/><path d="M290.391 510.333V289.892h220.442a258.2 258.2 0 000-66.782h-220.44l-.001-.001V2.668A258.52 258.52 0 00257 .5a258.707 258.707 0 00-33.391 2.168l.001 220.439v.002H3.168a258.35 258.35 0 000 66.782h220.44l.001 220.442A258.517 258.517 0 00257 512.5c11.319 0 22.462-.744 33.391-2.167z" fill="#F0F0F0"/></g></svg>