<svg width="514" height="513" fill="none" xmlns="http://www.w3.org/2000/svg"><mask id="a" style="mask-type:luminance" maskUnits="userSpaceOnUse" x="1" y="0" width="512" height="513"><path d="M513 .5H1v512h512V.5z" fill="#fff"/></mask><g mask="url(#a)"><path d="M513 256.5c0 141.384-114.616 256-256 256-141.384 0-256-114.616-256-256L257 .5c141.384 0 256 114.616 256 256z" fill="#D80027"/><path d="M257 256.5V.5C115.616.5 1 115.116 1 256.5h256z" fill="#0052B4"/><path d="M223.608 150.321l-31.265 14.708 16.648 30.279-33.949-6.496-4.303 34.297-23.646-25.224-23.648 25.224-4.301-34.297-33.95 6.494 16.648-30.279-31.264-14.706 31.265-14.705-16.649-30.28 33.949 6.495 4.303-34.296 23.647 25.224 23.647-25.224 4.302 34.296 33.95-6.495-16.649 30.281 31.265 14.704z" fill="#F0F0F0"/><path d="M147.098 197.97c26.318 0 47.653-21.335 47.653-47.653 0-26.318-21.335-47.653-47.653-47.653-26.318 0-47.653 21.335-47.653 47.653 0 26.318 21.335 47.653 47.653 47.653z" fill="#0052B4"/><path d="M147.094 175.714c-14.001 0-25.391-11.391-25.391-25.392s11.391-25.392 25.391-25.392c14.001 0 25.392 11.391 25.392 25.392-.001 14.001-11.393 25.392-25.392 25.392z" fill="#F0F0F0"/></g></svg>