<svg width="514" height="513" fill="none" xmlns="http://www.w3.org/2000/svg"><mask id="a" style="mask-type:luminance" maskUnits="userSpaceOnUse" x="1" y="0" width="512" height="513"><path d="M513 .5H1v512h512V.5z" fill="#fff"/></mask><g mask="url(#a)"><path d="M26.402 145.195C10.128 178.851 1 216.609 1 256.499s9.128 77.648 25.402 111.304L257 390.064l230.598-22.261C503.872 334.147 513 296.389 513 256.499s-9.128-77.648-25.402-111.304L257 122.934 26.402 145.195z" fill="#F0F0F0"/><path d="M26.41 367.805C67.817 453.435 155.506 512.501 257 512.501s189.183-59.066 230.589-144.696H26.41z" fill="#6DA544"/><path d="M26.41 145.196h461.178C446.182 59.566 358.492.5 256.999.5S67.817 59.566 26.41 145.196z" fill="#D80027"/><path d="M212.477 323.286h89.044v-37.844l-17.809 8.904-26.713-26.713-26.713 26.713-17.809-8.904v37.844zm-50.945-44.524l4.145 12.754h13.41l-10.85 7.883 4.145 12.754-10.85-7.882-10.85 7.882 4.145-12.754-10.85-7.883h13.41l4.145-12.754zm12.847-44.52l4.145 12.754h13.41l-10.85 7.883 4.144 12.754-10.849-7.882-10.85 7.882 4.145-12.754-10.85-7.883h13.41l4.145-12.754zm36.735-33.394l4.145 12.754h13.409l-10.848 7.883 4.143 12.754-10.849-7.882-10.849 7.882 4.144-12.754-10.85-7.883h13.411l4.144-12.754zm141.355 77.914l-4.145 12.754h-13.41l10.85 7.883-4.145 12.754 10.85-7.882 10.849 7.882-4.144-12.754 10.85-7.883h-13.41l-4.145-12.754zm-12.852-44.52l-4.144 12.754h-13.411l10.851 7.883-4.145 12.754 10.849-7.882 10.85 7.882-4.144-12.754 10.85-7.883h-13.41l-4.146-12.754zm-36.731-33.394l-4.145 12.754h-13.409l10.848 7.883-4.144 12.754 10.85-7.882 10.849 7.882-4.144-12.754 10.849-7.883h-13.41l-4.144-12.754zM257 184.152l4.145 12.754h13.41l-10.85 7.883 4.145 12.754-10.85-7.882-10.85 7.882 4.145-12.754-10.85-7.883h13.41L257 184.152z" fill="#FFDA44"/></g></svg>