<svg width="514" height="513" fill="none" xmlns="http://www.w3.org/2000/svg"><mask id="a" style="mask-type:luminance" maskUnits="userSpaceOnUse" x="1" y="0" width="512" height="513"><path d="M513 .5H1v512h512V.5z" fill="#fff"/></mask><g mask="url(#a)"><path d="M257 512.5c141.385 0 256-114.615 256-256S398.385.5 257 .5 1 115.115 1 256.5s114.615 256 256 256z" fill="#FFDA44"/><path d="M75.98 437.52a257.556 257.556 0 0034.216 28.748l356.57-356.571a257.396 257.396 0 00-28.747-34.216 257.589 257.589 0 00-34.216-28.747L47.234 403.305A257.688 257.688 0 0075.98 437.52z" fill="#000"/><path d="M75.982 75.48c-80.762 80.766-96.267 202.057-46.544 298.4L374.38 28.938C278.037-20.785 156.745-5.28 75.982 75.48z" fill="#6DA544"/><path d="M438.018 437.519c80.762-80.762 96.266-202.055 46.545-298.398L139.621 484.063c96.341 49.723 217.634 34.218 298.397-46.544z" fill="#338AF3"/></g></svg>