<svg width="514" height="513" fill="none" xmlns="http://www.w3.org/2000/svg"><mask id="a" style="mask-type:luminance" maskUnits="userSpaceOnUse" x="1" y="0" width="512" height="513"><path d="M513 .5H1v512h512V.5z" fill="#fff"/></mask><g mask="url(#a)"><path d="M257 512.5c141.385 0 256-114.615 256-256S398.385.5 257 .5 1 115.115 1 256.5s114.615 256 256 256z" fill="#F0F0F0"/><path d="M112.715 45.022C153.8 16.936 203.478.5 257.002.5s103.202 16.436 144.287 44.522l-144.287 11.13-144.287-11.13z" fill="#FFDA44"/><path d="M75.994 437.507l118.042-118.04L257 211.979l62.957 107.481 118.049 118.047C484.336 391.183 513 327.194 513 256.501c0-87.861-44.269-165.375-111.713-211.478H112.713C45.269 91.126 1 168.64 1 256.501c0 70.693 28.664 134.682 74.994 181.006z" fill="#D80027"/><path d="M493.553 354.523l-187.17-77.558 13.566 42.484 118.058 118.058c23.572-23.569 42.57-51.711 55.546-82.984zM513 256.501c0-34.725-6.921-67.83-19.448-98.021L257 256.501h256zM438.006 75.495a257.432 257.432 0 00-36.719-30.472h-56.655L257 256.501 438.006 75.495zM256.998 45.023h-87.631l87.631 211.478V45.023z" fill="#0052B4"/><path d="M75.994 75.496c-23.572 23.57-42.569 51.711-55.545 82.984L257 256.502 75.994 75.496z" fill="#0052B4"/><path d="M1 256.5c0 34.725 6.921 67.83 19.448 98.021L257 256.5H1z" fill="#0052B4"/><path d="M112.715 467.977c41.084 28.086 90.763 44.522 144.287 44.522s103.202-16.436 144.287-44.522H112.715zM257 256.5l62.963 62.963c16.115-16.114 26.081-38.374 26.081-62.963 0-49.178-39.866-89.043-89.043-89.043-49.177 0-89.044 39.865-89.044 89.043 0 24.588 9.966 46.849 26.081 62.963L257 256.5zm38.957 128c0 21.515-17.443 27.826-38.957 27.826s-38.957-6.311-38.957-27.826 17.443-38.957 38.957-38.957 38.957 17.442 38.957 38.957z" fill="#FFDA44"/><path d="M295.957 384.5c0 21.515-17.443 38.957-38.957 38.957s-38.957-17.442-38.957-38.957" fill="#0052B4"/></g></svg>