<svg width="514" height="513" fill="none" xmlns="http://www.w3.org/2000/svg"><mask id="a" style="mask-type:luminance" maskUnits="userSpaceOnUse" x="1" y="0" width="512" height="513"><path d="M513 .5H1v512h512V.5z" fill="#fff"/></mask><g mask="url(#a)"><path d="M257 512.5c141.385 0 256-114.615 256-256S398.385.5 257 .5 1 115.115 1 256.5s114.615 256 256 256z" fill="#FFDA44"/><path d="M256.997.5c-.186.002-11.13 102.4-11.13 102.4h215.942C415.104 40.723 340.749.5 256.997.5zm.002 512.002c83.752 0 158.107-40.223 204.811-102.4H52.187c46.704 62.177 121.06 102.4 204.812 102.4zm250.872-307.201H245.867l11.13 102.4h250.874a257.027 257.027 0 005.126-51.2c0-17.535-1.768-34.657-5.126-51.2z" fill="#496E2D"/><path d="M257 307.7V.5C115.616.5 1 115.116 1 256.5c0 17.535 1.768 34.657 5.126 51.2H257z" fill="#D80027"/><path d="M142.257 122.934l16.576 51.015h53.645l-43.397 31.533 16.574 51.017-43.398-31.53-43.398 31.53 16.577-51.017-43.397-31.533h53.643l16.575-51.015z" fill="#F0F0F0"/></g></svg>