<svg width="514" height="513" fill="none" xmlns="http://www.w3.org/2000/svg"><mask id="a" style="mask-type:luminance" maskUnits="userSpaceOnUse" x="1" y="0" width="512" height="513"><path d="M513 .5H1v512h512V.5z" fill="#fff"/></mask><g mask="url(#a)"><path d="M257 512.5c141.385 0 256-114.615 256-256S398.385.5 257 .5 1 115.115 1 256.5s114.615 256 256 256z" fill="#FFDA44"/><path d="M412.826 122.935c-2.296 11.035-3.339 22.788-3.339 34.504 0 67.534 40.259 125.985 97.954 152.298A257.022 257.022 0 00513 256.5C513 115.116 398.384.5 257 .5 115.616.5 1 115.116 1 256.5c0 141.384 114.616 256 256 256 87.682 0 165.058-44.092 211.196-111.304h-322.5v-33.391h341.902a254.975 254.975 0 009.48-22.261H145.696l267.13-222.609z" fill="#0052B4"/><path d="M189.071 134.066l5.526 17.006h17.88l-14.465 10.511 5.526 17.005-14.467-10.509-14.465 10.509 5.525-17.005-14.467-10.511h17.881l5.526-17.006zM116.437 256.5l6.908 21.259h22.35l-18.083 13.135 6.908 21.258-18.083-13.138-18.082 13.138 6.907-21.258-18.082-13.135h22.35l6.907-21.259zm0-178.086l6.908 21.26h22.35l-18.083 13.134 6.908 21.258-18.083-13.138-18.082 13.138 6.907-21.258L87.18 99.673h22.35l6.907-21.259zM60.784 178.59l6.908 21.259h22.35l-18.083 13.135 6.908 21.258-18.083-13.138-18.082 13.138 6.907-21.258-18.082-13.135h22.35l6.907-21.259z" fill="#F0F0F0"/></g></svg>