<svg width="514" height="513" fill="none" xmlns="http://www.w3.org/2000/svg"><mask id="a" style="mask-type:luminance" maskUnits="userSpaceOnUse" x="1" y="0" width="512" height="513"><path d="M513 .5H1v512h512V.5z" fill="#fff"/></mask><g mask="url(#a)"><path d="M257 512.5c141.385 0 256-114.615 256-256S398.385.5 257 .5 1 115.115 1 256.5s114.615 256 256 256z" fill="#F0F0F0"/><path d="M167.959 134.067v-33.391h-33.392v33.391h-33.391v33.392h33.391v33.391h33.392v-33.391h33.391v-33.392h-33.391z" fill="#D80027"/><path d="M257 .5v256l-256 .001C1 397.884 115.616 512.5 257 512.5c141.384 0 256-114.616 256-256C513 115.116 398.384.5 257 .5z" fill="#D80027"/></g></svg>