<svg width="514" height="513" fill="none" xmlns="http://www.w3.org/2000/svg"><mask id="a" style="mask-type:luminance" maskUnits="userSpaceOnUse" x="1" y="0" width="512" height="513"><path d="M513 .5H1v512h512V.5z" fill="#fff"/></mask><g mask="url(#a)"><path d="M257 512.5c141.385 0 256-114.615 256-256S398.385.5 257 .5 1 115.115 1 256.5s114.615 256 256 256z" fill="#FCFCFC"/><path d="M106.74 237.951l-27.826-50.483 27.826-49.691 27.826 49.691-27.826 50.483z" fill="#A2001D"/><path d="M51.088 237.951l-27.826-50.483 27.826-49.691 27.826 49.691-27.826 50.483zm55.652 137.274l-27.826-50.483 27.826-49.691 27.826 49.691-27.826 50.483zm-55.652 0l-27.826-50.483 27.826-49.691 27.826 49.691-27.826 50.483zm83.478-325.032l-7.878-14.068a256.7 256.7 0 00-39.594 28.909l19.646 35.641 27.826-50.482zm-27.825 362.135l-19.854 35.456a256.714 256.714 0 0039.568 28.955l8.113-14.719-27.827-49.692z" fill="#A2001D"/><path d="M156.824 323.281v168.863c30.769 13.097 64.622 20.354 100.174 20.354 110.071 0 203.906-69.472 240.077-166.957l-340.251-22.26z" fill="#6DA544"/><path d="M497.075 345.543c10.291-27.733 15.923-57.729 15.923-89.043 0-141.384-114.616-256-256-256-35.549 0-69.405 7.253-100.174 20.348v324.696h340.251v-.001z" fill="#A2001D"/></g></svg>