<svg width="514" height="513" fill="none" xmlns="http://www.w3.org/2000/svg"><mask id="a" style="mask-type:luminance" maskUnits="userSpaceOnUse" x="1" y="0" width="512" height="513"><path d="M513 .5H1v512h512V.5z" fill="#fff"/></mask><g mask="url(#a)"><path d="M504.182 189.717C474.806 80.721 375.28.5 257.001.5 138.722.5 39.196 80.721 9.821 189.717L257 200.848l247.181-11.131zM9.82 323.283C39.196 432.278 138.722 512.5 257.001 512.5c118.279 0 217.805-80.221 247.181-189.217l-247.181-11.131-247.18 11.131z" fill="#A2001D"/><path d="M504.181 189.719H9.819C4.08 211.012 1 233.395 1 256.502s3.08 45.49 8.819 66.783h494.363c5.738-21.293 8.818-43.676 8.818-66.783s-3.08-45.49-8.819-66.783z" fill="#6DA544"/></g></svg>