<svg width="514" height="513" fill="none" xmlns="http://www.w3.org/2000/svg"><mask id="a" style="mask-type:luminance" maskUnits="userSpaceOnUse" x="1" y="0" width="512" height="513"><path d="M513 .5H1v512h512V.5z" fill="#fff"/></mask><g mask="url(#a)"><path d="M139.615 28.926C116.697 40.755 95.184 56.26 75.972 75.472c-19.213 19.213-34.718 40.726-46.546 63.644l164.607 180.349 180.349 164.607c22.919-11.829 44.432-27.334 63.644-46.545 19.213-19.213 34.717-40.726 46.546-63.644l-164.607-180.35-180.35-164.607z" fill="#F0F0F0"/><path d="M438.029 437.526a257.55 257.55 0 0028.749-34.217L110.193 46.723A257.444 257.444 0 0075.976 75.47a257.478 257.478 0 00-28.75 34.218l356.586 356.584a257.521 257.521 0 0034.217-28.747z" fill="#000"/><path d="M75.972 437.528c80.767 80.767 202.064 96.271 298.41 46.545L29.427 139.117c-49.725 96.346-34.218 217.644 46.545 298.411zM438.027 75.473c-80.767-80.766-202.064-96.27-298.41-46.547l344.955 344.958c49.726-96.346 34.222-217.645-46.545-298.41z" fill="#D80027"/></g></svg>