<svg width="514" height="513" fill="none" xmlns="http://www.w3.org/2000/svg"><mask id="a" style="mask-type:luminance" maskUnits="userSpaceOnUse" x="1" y="0" width="512" height="513"><path d="M513 .5H1v512h512V.5z" fill="#fff"/></mask><g mask="url(#a)"><path d="M257 512.5c141.385 0 256-114.615 256-256S398.385.5 257 .5 1 115.115 1 256.5s114.615 256 256 256z" fill="#D80027"/><path d="M246.517 209.688l21.005 28.944 34.017-11.03-21.038 28.919 21.002 28.944-34.005-11.071-21.037 28.919.022-35.76-34.006-11.073 34.018-11.029.022-35.763z" fill="#F0F0F0"/><path d="M189.193 328.849c-39.956 0-72.348-32.392-72.348-72.348 0-39.956 32.392-72.348 72.348-72.348 12.458 0 24.18 3.151 34.414 8.696-16.055-15.702-38.012-25.392-62.24-25.392-49.178 0-89.043 39.866-89.043 89.043 0 49.177 39.866 89.043 89.043 89.043 24.23 0 46.186-9.691 62.24-25.392-10.234 5.547-21.956 8.698-34.414 8.698z" fill="#F0F0F0"/></g></svg>