<svg width="514" height="513" fill="none" xmlns="http://www.w3.org/2000/svg"><mask id="a" style="mask-type:luminance" maskUnits="userSpaceOnUse" x="1" y="0" width="512" height="513"><path d="M513 .5H1v512h512V.5z" fill="#fff"/></mask><g mask="url(#a)"><path d="M257 .5a256.886 256.886 0 00-55.651 6.085l-11.13 249.914 11.13 249.915A256.9 256.9 0 00257 512.5c141.385 0 256-114.616 256-256.001C512.999 115.115 398.385.5 257 .5zM67.782 84.07C26.298 129.566 1 190.076 1 256.498s25.299 126.932 66.783 172.43l11.13-172.43L67.782 84.07z" fill="#496E2D"/><path d="M375.423 193.596c12.595-35.106-1.555-73.287-31.922-92.303a78.199 78.199 0 0116.326 3.932c40.503 14.532 61.557 59.144 47.025 99.646-14.532 40.505-59.144 61.557-99.647 47.025a78.117 78.117 0 01-15.103-7.344c35.53 4.627 70.726-15.85 83.321-50.956zM305.565 91.672l-10.945 14.142-16.829-6.04 10.066 14.779-10.943 14.14 17.165-5.006 10.068 14.776.54-17.872 17.166-5.007-16.829-6.037.541-17.875z" fill="#F0F0F0"/><path d="M335.117 137.75l-10.945 14.141-16.83-6.039 10.067 14.778-10.944 14.14 17.165-5.008 10.068 14.779.542-17.873 17.165-5.008-16.83-6.038.542-17.872zm-81.657-29.297l-10.945 14.14-16.829-6.037 10.067 14.777-10.944 14.141 17.164-5.007 10.068 14.777.542-17.872 17.165-5.007-16.829-6.039.541-17.873zm-1.199 52.781l-10.944 14.141-16.83-6.038 10.068 14.778-10.946 14.14 17.167-5.006 10.067 14.776.541-17.872 17.166-5.007-16.831-6.039.542-17.873zm50.227 18.024l-10.945 14.14-16.829-6.038 10.068 14.778-10.946 14.139 17.167-5.006 10.067 14.778.541-17.874 17.166-5.006-16.831-6.038.542-17.873z" fill="#F0F0F0"/><path d="M67.781 84.072v344.857c34.88 38.254 81.21 65.879 133.565 77.485V6.586c-52.356 11.606-98.684 39.23-133.565 77.486z" fill="#D80027"/><path d="M118.752 135.286l-22.361-16.658V95.071l22.361-16.657h31.625l22.361 16.657v23.557l-22.361 16.658h-31.625z" fill="#F0F0F0"/><path d="M134.565 78.414h-15.813L96.391 95.071v11.517h38.174V78.414zm.001 56.87h15.812l22.361-16.658v-12.017h-38.173v28.675z" fill="#FF9811"/><path d="M118.752 434.587l-22.361-16.658v-23.556l22.361-16.658h31.625l22.361 16.658v23.556l-22.361 16.658h-31.625z" fill="#F0F0F0"/><path d="M134.565 377.715h-15.813l-22.361 16.658v11.517h38.174v-28.175zm.001 56.873h15.812l22.361-16.658v-12.016h-38.173v28.674z" fill="#FF9811"/><path d="M118.752 284.938L96.391 268.28v-23.556l22.361-16.658h31.625l22.361 16.658v23.556l-22.361 16.658h-31.625zm54.769 36.649h-9.74v-9.739h-17.115l-12.102-12.102-12.101 12.102h-17.115v9.739h-9.739v19.478h9.739v9.739h17.114l12.103 12.103 12.101-12.103h17.115v-9.739h9.74v-19.478zm0-149.651h-9.74v-9.74h-17.115l-12.102-12.102-12.101 12.102h-17.115v9.74h-9.739v19.478h9.739v9.739h17.114l12.103 12.104 12.101-12.104h17.115v-9.739h9.74v-19.478z" fill="#496E2D"/><path d="M123.434 245.367h22.261v22.261h-22.261v-22.261zm11.13-52.568c6.147 0 11.13-4.983 11.13-11.13 0-6.147-4.983-11.13-11.13-11.13-6.147 0-11.13 4.983-11.13 11.13 0 6.147 4.983 11.13 11.13 11.13zm0 149.66c6.147 0 11.13-4.983 11.13-11.13 0-6.147-4.983-11.13-11.13-11.13-6.147 0-11.13 4.983-11.13 11.13 0 6.147 4.983 11.13 11.13 11.13z" fill="#D80027"/></g></svg>