<svg width="514" height="513" fill="none" xmlns="http://www.w3.org/2000/svg"><mask id="a" style="mask-type:luminance" maskUnits="userSpaceOnUse" x="1" y="0" width="512" height="513"><path d="M513 .5H1v512h512V.5z" fill="#fff"/></mask><g mask="url(#a)"><path d="M513 256.5c0 141.384-114.616 256-256 256-141.384 0-256-114.616-256-256C1 256.561 257 .528 257 .5c141.384 0 256 114.616 256 256z" fill="#0052B4"/><path d="M256.316 256.501h.685v-.685l-.685.685zM257 134.065V.5h-.043C115.591.524 1 115.129 1 256.5h133.565v-75.211l75.211 75.211h46.54l.685-.685v-46.537l-75.213-75.213H257z" fill="#F0F0F0"/><path d="M130.515 33.89a257.211 257.211 0 00-96.124 96.125V256.5h66.783V100.674H257V33.891H130.515z" fill="#D80027"/><path d="M257.001 225.019l-90.955-90.953h-31.48v.002L256.999 256.5h.002v-31.481z" fill="#D80027"/><path d="M290.391 134.066V256.5c0 59.64 77.913 77.914 77.913 77.914s77.913-18.274 77.913-77.914V134.066H290.391z" fill="#FFDA44"/><path d="M357.174 178.585c0 12.295-9.966 44.522-22.261 44.522s-22.261-32.227-22.261-44.522c0-12.295 22.261-22.261 22.261-22.261s22.261 9.966 22.261 22.261z" fill="#FF9811"/><path d="M416.247 202.83c3.592-8.765 6.386-21.577 6.386-27.955 0-10.246-13.357-18.551-13.357-18.551s-13.357 8.306-13.357 18.551c0 6.378 2.794 19.19 6.386 27.955l-7.711 17.41a38.9 38.9 0 0014.681 2.866 38.9 38.9 0 0014.681-2.866l-7.709-17.41z" fill="#A2001D"/><path d="M351.61 256.501s-11.13 22.261-11.13 44.522h55.652c-.001-22.261-11.131-44.522-11.131-44.522l-16.696-11.13-16.695 11.13z" fill="#6DA544"/><path d="M385.001 256.499v-5.565c0-9.22-7.475-16.696-16.696-16.696-9.22 0-16.696 7.475-16.696 16.696v5.565h33.392z" fill="#D80027"/></g></svg>