<svg width="514" height="513" fill="none" xmlns="http://www.w3.org/2000/svg"><mask id="a" style="mask-type:luminance" maskUnits="userSpaceOnUse" x="1" y="0" width="512" height="513"><path d="M513 .5H1v512h512V.5z" fill="#fff"/></mask><g mask="url(#a)"><path d="M513 256.5c0 141.384-114.616 256-255.999 256C115.616 512.5 1 397.884 1 256.5 1 256.561 257.001.528 257.001.5 398.384.5 513 115.116 513 256.5z" fill="#338AF3"/><path d="M123.434 256.5h86.342l-75.212-89.043-11.13 33.391V256.5zm133.567-47.223l-89.044-86.343H257l.001 86.343z" fill="#0052B4"/><path d="M256.316 256.501h.685v-.685l-.685.685z" fill="#F0F0F0"/><path d="M257.001 134.065V.5h-.043C115.592.524 1 115.129 1 256.5h133.566v-75.211l75.211 75.211h46.54l.685-.685v-46.537l-75.214-75.213h75.213z" fill="#F0F0F0"/><path d="M130.515 33.89a257.218 257.218 0 00-96.124 96.125V256.5h66.783V100.674H257V33.891H130.515z" fill="#D80027"/><path d="M257.001 225.019l-90.955-90.953h-31.48v.002L256.999 256.5h.002v-31.481z" fill="#D80027"/><path d="M280.406 423.457l5.526 17.006h17.881l-14.465 10.51 5.526 17.005-14.468-10.509-14.465 10.509 5.526-17.005L257 440.463h17.88l5.526-17.006zm142.403-111.305l5.525 17.006h17.881l-14.465 10.511 5.527 17.005-14.468-10.509-14.465 10.509 5.526-17.005-14.468-10.511h17.881l5.526-17.006zm35.683-166.957l5.526 17.006h17.881l-14.465 10.51 5.525 17.005-14.467-10.509-14.465 10.509 5.526-17.005-14.467-10.51h17.881l5.525-17.006zm8.841 122.434l5.525 17.007h17.881l-14.465 10.51 5.526 17.005-14.467-10.509-14.465 10.509 5.526-17.005-14.468-10.51h17.881l5.526-17.007zM306.047 383.458l15.935 8.119 12.643-12.643-2.796 17.659 15.931 8.118-17.662 2.798-2.797 17.661-8.116-15.933-17.662 2.799 12.643-12.643-8.119-15.935zm0-66.781l15.935 8.118 12.643-12.643-2.796 17.66 15.931 8.117-17.662 2.798-2.797 17.661-8.116-15.932-17.662 2.798 12.643-12.643-8.119-15.934zm55.653 42.808l15.935 8.119 12.643-12.643-2.796 17.659 15.931 8.118-17.662 2.798-2.797 17.661-8.116-15.934-17.662 2.8 12.643-12.643-8.119-15.935zm0-142.983l15.935 8.118 12.643-12.643-2.796 17.66 15.931 8.117-17.662 2.798-2.797 17.661-8.116-15.932-17.662 2.798 12.643-12.643-8.119-15.934zm53.933-1.715l15.935 8.118 12.643-12.643-2.797 17.66 15.932 8.117-17.662 2.798-2.797 17.661-8.116-15.932-17.662 2.798 12.643-12.643-8.119-15.934z" fill="#FFDA44"/></g></svg>