<svg width="514" height="513" fill="none" xmlns="http://www.w3.org/2000/svg"><mask id="a" style="mask-type:luminance" maskUnits="userSpaceOnUse" x="1" y="0" width="512" height="513"><path d="M513 .5H1v512h512V.5z" fill="#fff"/></mask><g mask="url(#a)"><path d="M447.793 427.164C488.336 381.872 513 322.07 513 256.498s-24.665-125.375-65.208-170.667L257 67.281 66.208 85.831C25.665 131.123 1 190.926 1 256.498s24.664 125.374 65.207 170.666L257 445.715l190.793-18.551z" fill="#FFDA44"/><path d="M66.207 85.833h381.585C400.917 33.466 332.812.5 256.999.5S113.081 33.466 66.207 85.833z" fill="#000"/><path d="M1 256.498l256 22.261 256-22.261c0-29.924-5.151-58.642-14.588-85.334H15.588C6.151 197.856 1 226.574 1 256.498z" fill="#D80027"/><path d="M15.588 341.833h482.826C507.849 315.141 513 286.424 513 256.5H1c0 29.924 5.151 58.641 14.588 85.333z" fill="#000"/><path d="M447.793 427.164H66.207c46.874 52.368 114.979 85.334 190.793 85.334 75.814 0 143.919-32.966 190.793-85.334z" fill="#D80027"/><path d="M342.426 256.5c0 47.183-38.243 85.426-85.426 85.426s-85.426-38.243-85.426-85.426 38.243-85.426 85.426-85.426 85.426 38.243 85.426 85.426z" fill="#F0F0F0"/><path d="M288.297 260.855l-31.295-13.561s7.322-24.303 7.712-25.966c.285-1.215.437-2.482.437-3.784 0-4.611-1.869-8.785-4.891-11.805l7.87-7.87a27.74 27.74 0 00-19.676-8.15 27.736 27.736 0 00-19.676 8.15l7.87 7.87a16.64 16.64 0 00-4.89 11.805c0 1.686.255 3.311.72 4.846l-11.849 11.848h21.536s-8.904 13.374-13.765 24.357c-4.861 10.982.067 24.389 11.301 29.383l6.496 2.887 10.805 10.156v11.13l-11.13 11.13h22.261V301.02l10.157-10.157h21.008c.101-.209.207-.413.303-.627 4.991-11.233-.069-24.389-11.304-29.381z" fill="#000"/></g></svg>