<svg width="514" height="513" fill="none" xmlns="http://www.w3.org/2000/svg"><mask id="a" style="mask-type:luminance" maskUnits="userSpaceOnUse" x="1" y="0" width="512" height="513"><path d="M513 .5H1v512h512V.5z" fill="#fff"/></mask><g mask="url(#a)"><path d="M257 512.5c141.385 0 256-114.615 256-256S398.385.5 257 .5 1 115.115 1 256.5s114.615 256 256 256z" fill="#F0F0F0"/><path d="M53.921 100.645c-20.109 26.163-35.272 56.318-44.1 89.077h133.177l-89.077-89.077zm450.263 89.076c-8.829-32.758-23.993-62.913-44.101-89.076l-89.075 89.076h133.176zM9.82 323.285c8.83 32.758 23.993 62.913 44.101 89.075l89.074-89.075H9.82zM412.861 53.422C386.698 33.313 356.544 18.15 323.785 9.32v133.177l89.076-89.075zm-311.716 406.16c26.163 20.109 56.318 35.272 89.076 44.102V370.508l-89.076 89.074zM190.22 9.32c-32.758 8.83-62.913 23.993-89.075 44.101l89.075 89.075V9.32zm133.565 494.364c32.758-8.83 62.913-23.993 89.075-44.101l-89.075-89.075v133.176zm47.223-180.399l89.075 89.076c20.108-26.162 35.272-56.318 44.101-89.076H371.008z" fill="#0052B4"/><path d="M510.833 223.109H290.392V2.667A258.556 258.556 0 00257 .5c-11.319 0-22.461.744-33.391 2.167v220.441H3.167A258.556 258.556 0 001 256.5c0 11.319.744 22.461 2.167 33.391h220.441v220.442a258.35 258.35 0 0066.783 0V289.892h220.442A258.533 258.533 0 00513 256.5c0-11.317-.744-22.461-2.167-33.391z" fill="#D80027"/><path d="M323.781 323.282l114.236 114.236a256.636 256.636 0 0015.048-16.435l-97.802-97.802h-31.482v.001zm-133.564.003h-.002L75.981 437.52a256.636 256.636 0 0016.434 15.048l97.802-97.804v-31.479zm.001-133.566v-.002L75.982 75.48a256.636 256.636 0 00-15.048 16.435l97.803 97.803 31.481.001zm133.563 0L438.018 75.481a256.328 256.328 0 00-16.435-15.047l-97.802 97.803v31.482z" fill="#D80027"/></g></svg>