<svg width="514" height="513" fill="none" xmlns="http://www.w3.org/2000/svg"><mask id="a" style="mask-type:luminance" maskUnits="userSpaceOnUse" x="1" y="0" width="512" height="513"><path d="M513 .5H1v512h512V.5z" fill="#fff"/></mask><g mask="url(#a)"><path d="M257 512.5c141.385 0 256-114.615 256-256S398.385.5 257 .5 1 115.115 1 256.5s114.615 256 256 256z" fill="#F0F0F0"/><path d="M257 189.717h247.181a254.559 254.559 0 00-28.755-66.783H257v66.783zM97.643 456.849h318.713a257.293 257.293 0 0059.069-66.783H38.575a257.346 257.346 0 0059.068 66.783zM257 .5v55.652h159.357C372.627 21.324 317.249.5 257 .5z" fill="#338AF3"/><path d="M257 189.717h247.181a254.559 254.559 0 00-28.755-66.783H257v66.783zM1 256.5c0 23.107 3.08 45.489 8.819 66.783h494.363C509.92 301.989 513 279.607 513 256.5H1z" fill="#338AF3"/><path d="M223.608 150.321l-31.266 14.707 16.649 30.28-33.95-6.494-4.302 34.295-23.646-25.224-23.648 25.224-4.301-34.295-33.95 6.492 16.648-30.279-31.264-14.706 31.265-14.705-16.649-30.28 33.949 6.494 4.303-34.295 23.647 25.224 23.647-25.224 4.301 34.295 33.951-6.494-16.649 30.281 31.265 14.704z" fill="#FFDA44"/></g></svg>