<svg width="514" height="513" fill="none" xmlns="http://www.w3.org/2000/svg"><mask id="a" style="mask-type:luminance" maskUnits="userSpaceOnUse" x="1" y="0" width="512" height="513"><path d="M513 .5H1v512h512V.5z" fill="#fff"/></mask><g mask="url(#a)"><path d="M13.088 178.588C5.246 203.156.999 229.329 1 256.498c-.001 27.17 4.247 53.345 12.089 77.913L257 345.543l243.911-11.13c7.841-24.569 12.09-50.745 12.09-77.913-.001-27.17-4.248-53.344-12.09-77.913L257 167.457 13.088 178.588z" fill="#F0F0F0"/><path d="M500.911 178.587L257 167.457l-243.912 11.13a255.47 255.47 0 00-6.002 22.261H506.91a254.464 254.464 0 00-5.999-22.261zM7.09 312.148a254.732 254.732 0 006 22.26l.024.001L257 345.539l243.911-11.13a255.112 255.112 0 006.001-22.261H7.09z" fill="#D80027"/><path d="M257 512.497c114.216 0 210.946-74.803 243.911-178.087H13.09C46.055 437.693 142.787 512.497 257 512.497z" fill="#6DA544"/><path d="M257.001.5C142.787.501 46.057 75.304 13.09 178.587l487.821.001C467.948 75.303 371.217.499 257.001.5z" fill="#338AF3"/><path d="M117.986 106.242c0-23.977 16.851-44.007 39.354-48.92a50.195 50.195 0 00-10.733-1.166c-27.662 0-50.088 22.424-50.088 50.087 0 27.663 22.424 50.087 50.088 50.087 3.686 0 7.274-.41 10.733-1.165-22.502-4.916-39.354-24.946-39.354-48.923zm68.956 22.766l3.39 10.435h10.972l-8.876 6.45 3.39 10.435-8.876-6.449-8.878 6.449 3.391-10.435-8.877-6.45h10.972l3.392-10.435zm35.022 0l3.391 10.435h10.972l-8.877 6.45 3.391 10.435-8.877-6.449-8.877 6.449 3.391-10.435-8.876-6.45h10.971l3.391-10.435zm35.021 0l3.39 10.435h10.973l-8.877 6.45 3.39 10.435-8.876-6.449-8.878 6.449 3.392-10.435-8.878-6.45h10.973l3.391-10.435zm35.02 0l3.391 10.435h10.971l-8.876 6.45 3.391 10.435-8.877-6.449-8.878 6.449 3.392-10.435-8.878-6.45h10.972l3.392-10.435zm35.021 0l3.391 10.435h10.972l-8.876 6.45 3.391 10.435-8.878-6.449-8.877 6.449 3.391-10.435-8.876-6.45h10.971l3.391-10.435zM221.964 92.582l3.391 10.434h10.972l-8.877 6.451 3.391 10.434-8.877-6.449-8.877 6.449 3.391-10.434-8.876-6.451h10.971l3.391-10.434zm35.021 0l3.39 10.434h10.973l-8.877 6.451 3.39 10.434-8.876-6.449-8.878 6.449 3.392-10.434-8.878-6.451h10.973l3.391-10.434zm35.02 0l3.391 10.434h10.971l-8.876 6.451 3.391 10.434-8.877-6.449-8.878 6.449 3.392-10.434-8.878-6.451h10.972l3.392-10.434zm35.021 0l3.391 10.434h10.972l-8.876 6.451 3.391 10.434-8.878-6.449-8.877 6.449 3.391-10.434-8.876-6.451h10.971l3.391-10.434zm-70.041-36.43l3.39 10.436h10.973l-8.877 6.45 3.39 10.435-8.876-6.449-8.878 6.45 3.392-10.437-8.878-6.449h10.973l3.391-10.436zm35.02 0l3.391 10.436h10.971l-8.876 6.45 3.391 10.435-8.877-6.449-8.878 6.45 3.392-10.437-8.878-6.449h10.972l3.392-10.436zm35.021 0l3.391 10.436h10.972l-8.876 6.45 3.391 10.435-8.878-6.449-8.877 6.45 3.391-10.437-8.876-6.449h10.971l3.391-10.436z" fill="#F0F0F0"/></g></svg>