<svg width="514" height="513" fill="none" xmlns="http://www.w3.org/2000/svg"><mask id="a" style="mask-type:luminance" maskUnits="userSpaceOnUse" x="1" y="0" width="512" height="513"><path d="M513.001.5H1v512.001h512.001V.5z" fill="#fff"/></mask><g mask="url(#a)"><path d="M513 256.5a258.35 258.35 0 00-2.167-33.391H223.607C171.306 170.811 75.977 75.489 75.981 75.48c-99.974 99.974-99.974 262.064 0 362.04l147.628-147.628h287.224A258.556 258.556 0 00513 256.5z" fill="#000"/><path d="M512.927 262.32c-.011.494-.022.99-.036 1.484l.036-1.484zm-.246 6.996c-.023.489-.057.976-.083 1.464.026-.487.058-.975.083-1.464zm-.346 5.582c-.051.719-.101 1.438-.159 2.155.058-.717.107-1.436.159-2.155zm-.855-46.3c.094.856.188 1.711.273 2.569-.085-.859-.18-1.713-.273-2.569zm1.118 13.617c.027.488.06.975.083 1.464-.024-.489-.056-.977-.083-1.464zm.293 6.98c.014.494.024.99.036 1.484-.011-.496-.023-.99-.036-1.484zm-.715-13.25c.058.717.108 1.436.159 2.155-.052-.719-.101-1.438-.159-2.155z" fill="#F0F0F0"/><path d="M510.832 223.108c.115.877.217 1.759.322 2.638C495.96 98.864 387.974.5 256.999.5 186.305.5 122.304 29.155 75.977 75.484L223.6 223.109l287.231-.001z" fill="#D80027"/><path d="M510.832 289.892H223.601L75.977 437.517c46.327 46.328 110.328 74.984 181.022 74.984 130.975 0 238.962-98.364 254.155-225.247-.105.879-.209 1.761-.322 2.638z" fill="#6DA544"/><path d="M511.753 281.832c-.085.858-.179 1.713-.273 2.569.094-.856.189-1.71.273-2.569z" fill="#F0F0F0"/><path d="M511.156 225.746zm.598 5.422zm1.245 25.332zm-.403 14.281zm-.418 6.274zm-.696 7.347zm1.198-40.718zm.21 20.125z" fill="#000"/><path d="M512.758 245.279H214.203L60.846 91.945c-4.957 5.228-10.33 12.528-13.653 17.727l146.659 146.736L47.07 403.193c2.906 5.17 9.237 12.822 13.682 17.801L214.206 267.54h298.588c.159-3.692.209-7.4.209-11.13a248.985 248.985 0 00-.245-11.131z" fill="#FFDA44"/><path d="M63.188 311.076v-21.443c21.398 0 38.806-17.409 38.806-38.805 0-15.139-12.317-27.455-27.456-27.455-10.313 0-18.703 8.39-18.703 18.705 0 6.595 5.364 11.961 11.96 11.961 3.728 0 6.761-3.035 6.761-6.763H96c0 15.553-12.652 28.205-28.203 28.205-18.419.001-33.402-14.985-33.402-33.401 0-22.137 18.01-40.146 40.146-40.146 26.962 0 48.898 21.936 48.898 48.897-.001 33.217-27.029 60.245-60.25 60.245z" fill="#FFDA44"/></g></svg>