<svg width="514" height="513" fill="none" xmlns="http://www.w3.org/2000/svg"><mask id="a" style="mask-type:luminance" maskUnits="userSpaceOnUse" x="1" y="0" width="512" height="513"><path d="M513 .5H1v512h512V.5z" fill="#fff"/></mask><g mask="url(#a)"><path d="M487.598 367.803C503.873 334.147 513 296.39 513 256.499c0-39.891-9.127-77.648-25.402-111.304L257 122.934 26.402 145.195C10.127 178.851 1 216.608 1 256.499c0 39.891 9.127 77.648 25.402 111.304L257 390.064l230.598-22.261z" fill="#0052B4"/><path d="M257 512.501c101.493 0 189.19-59.065 230.598-144.696H26.402C67.81 453.436 155.506 512.501 257 512.501z" fill="#D80027"/><path d="M444.368 306.753l-13.521 10.566 5.868 16.121-14.227-9.593-13.522 10.564 4.728-16.495-14.225-9.596 17.149-.598 4.732-16.495 5.87 16.124 17.148-.598zm-34.629-59.971l-9.091 14.553 11.031 13.142-16.651-4.147-9.094 14.551-1.199-17.119-16.649-4.152 15.912-6.43-1.196-17.118 11.029 13.149 15.908-6.429zm-53.044-44.512l-3.566 16.785 14.86 8.58-17.065 1.799-3.568 16.78-6.98-15.674-17.067 1.791 12.754-11.482-6.979-15.674 14.86 8.578 12.751-11.483zm-65.073-23.684l2.391 16.993 16.897 2.978-15.422 7.526 2.389 16.992-11.92-12.344-15.426 7.522 8.058-15.153-11.921-12.342 16.9 2.979 8.054-15.151zm-69.245 0l8.057 15.151 16.896-2.981-11.917 12.347 8.053 15.152-15.422-7.524-11.922 12.341 2.391-16.989-15.423-7.522 16.899-2.982 2.388-16.993zm-65.074 23.684l12.754 11.483 14.857-8.578-6.977 15.68 12.751 11.48-17.065-1.795-6.982 15.674-3.563-16.783-17.066-1.792 14.86-8.582-3.569-16.787zm-53.048 44.512l15.913 6.428 11.026-13.144-1.193 17.121 15.908 6.429-16.649 4.149-1.199 17.115-9.09-14.549-16.651 4.149 11.03-13.145-9.095-14.553zm-34.622 59.969l17.152.598 5.866-16.122 4.735 16.496 17.147.599-14.226 9.596 4.728 16.494-13.52-10.564-14.227 9.593 5.869-16.124-13.524-10.566z" fill="#F0F0F0"/><path d="M487.598 145.196C446.19 59.565 358.493.5 257 .5 155.506.5 67.81 59.565 26.402 145.196h461.196z" fill="#FFDA44"/></g></svg>