<svg width="514" height="513" fill="none" xmlns="http://www.w3.org/2000/svg"><mask id="a" style="mask-type:luminance" maskUnits="userSpaceOnUse" x="1" y="0" width="512" height="513"><path d="M513 .5H1v512h512V.5z" fill="#fff"/></mask><g mask="url(#a)"><path d="M257 512.5c141.385 0 256-114.615 256-256S398.385.5 257 .5 1 115.115 1 256.5s114.615 256 256 256z" fill="#FCFCFC"/><path d="M300.48 179.345c0-24.012-19.466-43.478-43.479-43.478-24.013 0-43.479 19.466-43.479 43.478h-95.651c0 23.641 20.594 42.808 44.235 42.808h-1.424c0 23.643 19.164 42.811 42.809 42.811 0 20.933 15.034 38.327 34.889 42.045l-.111.25h37.465l-.111-.25c19.856-3.72 34.889-21.113 34.889-42.045 23.644 0 42.809-19.168 42.809-42.811h-1.426c23.641 0 44.236-19.167 44.236-42.808H300.48z" fill="#FFDA44"/><path d="M237.888 302.824l-26.958 60.863a122.063 122.063 0 0046.072 8.996c16.301 0 31.848-3.213 46.071-8.996l-26.957-60.863h-38.228z" fill="#FFDA44"/><path d="M201.348 200.727v74.891c0 42.598 55.652 55.652 55.652 55.652s55.652-13.054 55.652-55.652v-74.891H201.348z" fill="#F0F0F0"/><path d="M63.079 258.301l30.099 84.184 29.786-84.184h22.732L102.27 369.605H84.085L40.348 258.301h22.73zm349.745 111.304V258.301h21.633v111.304h-21.633z" fill="#338AF3"/><path d="M223.609 224.91v90.754c7.651 5.631 15.883 9.504 22.261 11.984V224.91h-22.261zm66.781 0v90.754c-7.651 5.631-15.883 9.504-22.261 11.984V224.91h22.261z" fill="#D80027"/><path d="M201.348 200.727h111.304v35.316H201.348v-35.316z" fill="#0052B4"/></g></svg>