<svg width="514" height="513" fill="none" xmlns="http://www.w3.org/2000/svg"><mask id="a" style="mask-type:luminance" maskUnits="userSpaceOnUse" x="1" y="0" width="512" height="513"><path d="M513 .5H1v512h512V.5z" fill="#fff"/></mask><g mask="url(#a)"><path d="M513 256.5c0-87.861-44.269-165.374-111.713-211.478L257 33.89 112.713 45.02C45.27 91.126 1 168.64 1 256.5c0 87.863 44.27 165.374 111.713 211.478L257 479.109l144.287-11.13C468.731 421.874 513 344.363 513 256.5z" fill="#0052B4"/><path d="M401.289 45.022C360.204 16.936 310.526.5 257.002.5 203.479.5 153.8 16.936 112.715 45.022h288.574zM112.715 467.977c41.084 28.086 90.764 44.522 144.287 44.522 53.524 0 103.202-16.436 144.287-44.522H112.715z" fill="#A2001D"/><path d="M257.001 378.936c67.619 0 122.435-54.816 122.435-122.435S324.62 134.066 257.001 134.066s-122.435 54.816-122.435 122.435 54.816 122.435 122.435 122.435z" fill="#F0F0F0"/><path d="M256.998 356.672c55.325 0 100.174-44.849 100.174-100.174 0-55.324-44.849-100.174-100.174-100.174-55.324 0-100.174 44.85-100.174 100.174 0 55.325 44.85 100.174 100.174 100.174z" fill="#6DA544"/><path d="M257.002 323.285c36.883 0 66.783-29.9 66.783-66.783s-29.9-66.783-66.783-66.783-66.783 29.9-66.783 66.783 29.9 66.783 66.783 66.783z" fill="#F0F0F0"/><path d="M256.998 239.805l-36.174 16.696v27.826l36.174 22.261 36.174-22.261v-27.826l-36.174-16.696z" fill="#0052B4"/><path d="M220.824 223.109h72.348V256.5h-72.348v-33.391z" fill="#FFDA44"/></g></svg>