<svg width="514" height="513" fill="none" xmlns="http://www.w3.org/2000/svg"><mask id="a" style="mask-type:luminance" maskUnits="userSpaceOnUse" x="1" y="0" width="512" height="513"><path d="M513 .5H1v512h512V.5z" fill="#fff"/></mask><g mask="url(#a)"><path d="M257 512.5c141.385 0 256-114.615 256-256S398.385.5 257 .5 1 115.115 1 256.5s114.615 256 256 256z" fill="#F0F0F0"/><path d="M513 256.5c0 141.384-114.616 256-256 256-141.384 0-256-114.616-256-256" fill="#496E2D"/><path d="M444.014 178.643c-9.155-25.963-33.892-44.577-62.987-44.577h-57.244c-36.883 0-66.783 29.9-66.783 66.783 0 12.05 3.208 23.631 8.791 33.391-21.257-.174-40.93.147-53.313 0v-65.431l2.63-2.63c11.806-11.806 7.869-31.482 7.869-31.482s-19.674-3.935-31.48 7.871l-13.759 13.759h-15.347c-33.81 0-61.217 27.408-61.217 61.217h44.522v50.087a53.235 53.235 0 004.146 20.661l-15.277 12.73h-22.261v-22.261H90.043v44.522h100.174v44.522h-22.261v22.261h44.522v-44.522l20.405-24.487h48.233l20.405 24.487v22.261H279.26v22.261h89.043V267.63c0-18.441 14.95-33.391 33.391-33.391.474 0 .944.017 1.414.036a44.575 44.575 0 01-1.414-11.166c.002-23.849 18.755-43.317 42.32-44.466zM323.783 367.804v-46.748h1.855l20.405 24.487v22.261h-22.26z" fill="#D80027"/></g></svg>