<svg width="514" height="513" fill="none" xmlns="http://www.w3.org/2000/svg"><mask id="a" style="mask-type:luminance" maskUnits="userSpaceOnUse" x="1" y="0" width="512" height="513"><path d="M513 .5H1v512h512V.5z" fill="#fff"/></mask><g mask="url(#a)"><path d="M257 512.5c141.385 0 256-114.615 256-256S398.385.5 257 .5 1 115.115 1 256.5s114.615 256 256 256z" fill="#496E2D"/><path d="M357.174 256.5H257v256c29.924 0 58.641-5.151 85.333-14.586L357.174 256.5z" fill="#D80027"/><path d="M427.664 447.293c52.368-46.874 85.334-114.98 85.334-190.793H412.824l14.84 190.793z" fill="#FF9811"/><path d="M342.332 256.5v241.414c31.797-11.241 60.711-28.58 85.334-50.62V256.5h-85.334z" fill="#000"/><path d="M474.041 167.456h-66.783c0-12.294-9.967-22.261-22.261-22.261-12.294 0-22.261 9.967-22.261 22.261h-66.783c0 12.295 10.709 22.261 23.002 22.261h-.741c0 12.295 9.965 22.261 22.261 22.261 0 12.295 9.965 22.261 22.261 22.261h44.522c12.294 0 22.261-9.966 22.261-22.261 12.294 0 22.261-9.966 22.261-22.261h-.741c12.294-.001 23.002-9.967 23.002-22.261z" fill="#FF9811"/></g></svg>