<svg width="514" height="513" fill="none" xmlns="http://www.w3.org/2000/svg"><mask id="a" style="mask-type:luminance" maskUnits="userSpaceOnUse" x="1" y="0" width="512" height="513"><path d="M513 .5H1v512h512V.5z" fill="#fff"/></mask><g mask="url(#a)"><path d="M257 512.5c141.385 0 256-114.615 256-256S398.385.5 257 .5 1 115.115 1 256.5s114.615 256 256 256z" fill="#F0F0F0"/><path d="M488.497 147.103c-13.006-27.474-30.757-52.257-52.197-73.302L257 56.152 77.7 73.802c-.572.561-1.13 1.135-1.696 1.702l71.6 71.6L257 150.445l231.497-3.342zM76 437.501c.942.942 1.882 1.885 2.838 2.813l178.161 16.536 178.159-16.536c21.661-21 39.629-45.785 52.818-73.302l-331.152-10.336C128.331 385.17 95.467 418.032 76 437.501z" fill="#FFDA44"/><path d="M510.453 220.404l-297.976-8.427 44.522 44.522-44.522 44.522 297.82-7.314a257.933 257.933 0 002.702-37.208c0-12.254-.88-24.3-2.546-36.095z" fill="#000"/><path d="M256.999.5c-69.828 0-133.114 27.97-179.3 73.302h358.6C390.113 28.47 326.827.5 256.999.5z" fill="#6DA544"/><path d="M220.904 220.404h289.549a254.194 254.194 0 00-21.957-73.302H147.602l73.302 73.302zm-74.416 146.605h341.488a254.215 254.215 0 0022.321-73.302H219.79l-73.302 73.302z" fill="#D80027"/><path d="M256.999 512.501c69.255 0 132.075-27.512 178.159-72.189H78.84c46.084 44.677 108.904 72.189 178.159 72.189z" fill="#6DA544"/><path d="M92.415 60.434A258.029 258.029 0 0075.981 75.48L257 256.5 75.98 437.52a257.463 257.463 0 0016.435 15.046L288.481 256.5 92.416 60.434z" fill="#000"/><path d="M103.925 189.719l16.575 51.016h53.645l-43.398 31.532 16.576 51.018-43.398-31.531-43.399 31.531 16.578-51.018-43.397-31.532h53.642l16.576-51.016z" fill="#D80027"/><path d="M149.518 260.674L106.32 245.37s-3.192-29.943-3.385-30.958c-1.466-7.723-8.253-13.564-16.403-13.564-9.22 0-16.696 7.475-16.696 16.696 0 1.529.223 3.002.608 4.41l-12.112 12.193h21.536c0 22.353-16.68 22.353-16.68 44.614l9.253 22.261h55.652l9.276-22.261h-.004a22.242 22.242 0 001.726-6.54c7.996-3.234 10.427-11.547 10.427-11.547z" fill="#FFDA44"/></g></svg>