<svg width="514" height="513" fill="none" xmlns="http://www.w3.org/2000/svg"><mask id="a" style="mask-type:luminance" maskUnits="userSpaceOnUse" x="1" y="0" width="512" height="513"><path d="M513 .5H1v512h512V.5z" fill="#fff"/></mask><g mask="url(#a)"><path d="M167.957 234.238l22.261 269.442c21.293 5.739 43.675 8.819 66.782 8.819 141.384 0 256-114.616 256-256l-345.043-22.261z" fill="#D80027"/><path d="M167.957 256.5l22.26-247.181C211.511 3.58 233.893.5 257 .5c141.384 0 256 114.616 256 256H167.957z" fill="#FFDA44"/><path d="M1 256.501C1 374.78 81.221 474.306 190.217 503.682V9.32C81.221 38.696 1 138.222 1 256.501z" fill="#6DA544"/></g></svg>