<svg width="514" height="513" fill="none" xmlns="http://www.w3.org/2000/svg"><mask id="a" style="mask-type:luminance" maskUnits="userSpaceOnUse" x="1" y="0" width="512" height="513"><path d="M513 .5H1v512h512V.5z" fill="#fff"/></mask><g mask="url(#a)"><path d="M513 256.5c0 141.384-114.616 256-256 256-141.384 0-256-114.616-256-256C1 256.561 257 .528 257 .5c141.384 0 256 114.616 256 256z" fill="#D80027"/><path d="M257 122.934v86.343l-89.043-86.343H257zM134.564 256.498h75.211l-75.211-100.174-11.13 77.913 11.13 22.261z" fill="#0052B4"/><path d="M256.316 256.501h.685v-.685l-.685.685zM257 134.065V.5h-.043C115.591.524 1 115.129 1 256.5h133.565v-75.211l75.211 75.211h46.54l.685-.685v-46.537l-75.213-75.213H257z" fill="#F0F0F0"/><path d="M130.515 33.89a257.211 257.211 0 00-96.124 96.125V267.63h66.783V100.674H268.13V33.891H130.515z" fill="#D80027"/><path d="M267.178 235.195L166.046 134.066h-31.48v.002l132.609 132.609h.002l.001-31.482z" fill="#D80027"/><path d="M290.391 134.066V256.5c0 59.64 155.826 59.64 155.826 0V134.066H290.391z" fill="#F3F3F3"/><path d="M290.391 256.501v-.001c0 59.64 77.913 77.914 77.913 77.914s77.913-18.274 77.913-77.914v.001H290.391z" fill="#6DA544"/><path d="M368.303 207.527l-36.174 15.583v33.391l36.174 22.261 36.174-22.261V223.11l-36.174-15.583z" fill="#A2001D"/><path d="M332.129 189.719h72.348v33.391h-72.348v-33.391z" fill="#338AF3"/></g></svg>