<svg width="514" height="513" fill="none" xmlns="http://www.w3.org/2000/svg"><mask id="a" style="mask-type:luminance" maskUnits="userSpaceOnUse" x="1" y="0" width="512" height="513"><path d="M513 .5H1v512h512V.5z" fill="#fff"/></mask><g mask="url(#a)"><path d="M75.98 437.52c-99.974-99.974-99.974-262.064 0-362.04 99.974-99.974 262.065-99.973 362.04 0 0 .036 67.968 230.058-32.007 330.034C306.04 505.489 76.051 437.59 75.981 437.52z" fill="#FFDA44"/><path d="M75.98 437.519c99.974 99.974 262.065 99.974 362.04 0 99.975-99.974 99.974-262.064 0-362.038L75.98 437.519z" fill="#FF9811"/><path d="M401.817 145.194v-44.522h-85.336l-6.52 6.519c-23.189 23.189-19.288 50.241-16.44 69.993 2.641 18.323 2.958 25.342-3.856 32.157-6.814 6.813-13.835 6.497-32.156 3.854-19.752-2.847-46.803-6.748-69.992 16.44-23.188 23.188-19.285 50.238-16.435 69.989 2.643 18.321 2.961 25.34-3.851 32.151-6.813 6.811-13.834 6.494-32.151 3.851-7.142-1.031-14.527-2.095-22.411-2.183l-.489 44.52c4.934.055 10.573.867 16.543 1.729 7.068 1.021 15.068 2.175 23.494 2.175 8.732 0 17.918-1.245 26.99-5.162v35.621h66.783v-33.391h-33.391v-22.261h22.261v-33.391h-17.792c.844-10.802-.64-21.146-1.92-30.014-2.643-18.321-2.961-25.34 3.851-32.15 6.814-6.814 13.832-6.498 32.156-3.856 14.393 2.075 32.661 4.697 50.488-2.999v35.627h66.783V256.5h-33.391v-22.261h22.261v-33.391h-17.791c.845-10.803-.638-21.146-1.918-30.017-1.845-12.801-2.557-20.085-.493-25.636l64.723-.001z" fill="#F0F0F0"/></g></svg>