<svg width="514" height="513" fill="none" xmlns="http://www.w3.org/2000/svg"><mask id="a" style="mask-type:luminance" maskUnits="userSpaceOnUse" x="1" y="0" width="512" height="513"><path d="M513 .5H1v512h512V.5z" fill="#fff"/></mask><g mask="url(#a)"><path d="M257 512.5c141.385 0 256-114.615 256-256S398.385.5 257 .5 1 115.115 1 256.5s114.615 256 256 256z" fill="#F0F0F0"/><path d="M75.98 75.48C21.117 130.345-3.63 203.919 1.723 275.665L276.165 1.222C204.419-4.132 130.846 20.615 75.981 75.48z" fill="#FFDA44"/><path d="M92.41 452.571c100.581 84.622 250.94 79.617 345.61-15.052 94.67-94.669 99.675-245.029 15.052-345.609L92.41 452.571z" fill="#0052B4"/><path d="M256.086 246.188l22.061-11.95-22.061-11.95c-5.151-33.461-31.589-59.9-65.05-65.05l-11.951-22.062-11.95 22.061c-33.46 5.15-59.898 31.589-65.05 65.05l-22.062 11.951 22.061 11.95c5.151 33.461 31.589 59.9 65.05 65.05l11.951 22.062 11.95-22.061c33.462-5.151 59.9-31.59 65.051-65.051zm-77 32.572c-24.589 0-44.522-19.932-44.522-44.522s19.932-44.522 44.522-44.522 44.522 19.932 44.522 44.522-19.933 44.522-44.522 44.522z" fill="#000"/><path d="M179.089 200.848l9.639 16.695h19.279l-9.64 16.696 9.64 16.696h-19.279l-9.639 16.695-9.639-16.695h-19.278l9.639-16.696-9.639-16.696h19.278l9.639-16.695z" fill="#D80027"/></g></svg>