<svg width="514" height="513" fill="none" xmlns="http://www.w3.org/2000/svg"><mask id="a" style="mask-type:luminance" maskUnits="userSpaceOnUse" x="1" y="0" width="512" height="513"><path d="M513 .5H1v512h512V.5z" fill="#fff"/></mask><g mask="url(#a)"><path d="M257 512.5c141.385 0 256-114.615 256-256S398.385.5 257 .5 1 115.115 1 256.5s114.615 256 256 256z" fill="#F0F0F0"/><path d="M256.999.5c-90.77 0-170.5 47.243-215.956 118.479l347.159 357.37c74.743-44.702 124.797-126.426 124.797-219.849 0-141.384-114.616-256-256-256z" fill="#FFDA44"/><path d="M513.002 256.498c0-66.422-25.298-126.93-66.783-172.428v344.857c41.485-45.499 66.783-106.007 66.783-172.429zM320.789 482.371l26.815-.017 8.272-25.509 8.302 25.499 13.45-.008a255.753 255.753 0 0023.9-14.529L45.689 111.969a256.06 256.06 0 00-16.021 26.75l3.162 9.712 26.815-.017-21.684 15.775 8.302 25.499-21.704-15.748-12.945 9.416C4.713 206.532 1 231.081 1 256.498c0 141.384 114.616 256 256 256 29.892 0 58.583-5.132 85.25-14.552l-21.461-15.575zM58.099 245.368l8.27-25.508-21.702-15.75 26.815-.017 8.271-25.509 8.302 25.499 26.815-.017-21.685 15.775 8.302 25.499-21.704-15.748-21.684 15.776zm55.225 55.652l8.27-25.508-21.702-15.75 26.815-.017 8.271-25.509 8.302 25.499 26.815-.017-21.684 15.775 8.302 25.499-21.704-15.748-21.685 15.776zm55.224 55.652l8.27-25.508-21.702-15.75 26.815-.017 8.271-25.509 8.302 25.499 26.815-.017-21.684 15.775 8.302 25.499-21.704-15.75-21.685 15.778zm76.909 39.877l-21.685 15.775 8.27-25.508-21.702-15.75 26.815-.017 8.272-25.509 8.302 25.499 26.815-.017-21.684 15.775 8.302 25.499-21.705-15.747zm33.54 71.427l8.27-25.508-21.702-15.75 26.815-.017 8.271-25.509 8.302 25.499 26.815-.017-21.684 15.775 8.302 25.499-21.704-15.75-21.685 15.778z" fill="#0052B4"/></g></svg>