<svg width="514" height="513" fill="none" xmlns="http://www.w3.org/2000/svg"><mask id="a" style="mask-type:luminance" maskUnits="userSpaceOnUse" x="1" y="0" width="512" height="513"><path d="M513 .5H1v512h512V.5z" fill="#fff"/></mask><g mask="url(#a)"><path d="M13.088 178.587C5.246 203.156.999 229.329 1 256.5c-.001 27.169 4.246 53.343 12.089 77.913L257 345.545l243.91-11.132c7.841-24.57 12.089-50.745 12.089-77.912 0-27.17-4.247-53.345-12.089-77.914l-243.911-11.13-243.911 11.13z" fill="#F0F0F0"/><path d="M513 256.5c0-15.187-1.33-30.063-3.867-44.523H4.868A257.356 257.356 0 001 256.499c0 15.188 1.331 30.062 3.868 44.522h504.265A257.568 257.568 0 00513 256.5z" fill="#000"/><path d="M257.001 512.498c114.216 0 210.946-74.803 243.91-178.088H13.09C46.055 437.694 142.786 512.496 257 512.498zM257.002.5C142.787.5 46.057 75.303 13.09 178.585l487.82.001C467.947 75.303 371.216.498 257.002.5z" fill="#338AF3"/></g></svg>