<svg width="514" height="513" fill="none" xmlns="http://www.w3.org/2000/svg"><mask id="a" style="mask-type:luminance" maskUnits="userSpaceOnUse" x="1" y="0" width="512" height="513"><path d="M513 .5H1v512h512V.5z" fill="#fff"/></mask><g mask="url(#a)"><path d="M513 256.5c0 141.384-114.616 256-256 256-141.384 0-256-114.616-256-256C1 256.561 257 .528 257 .5c141.384 0 256 114.616 256 256z" fill="#0052B4"/><path d="M256.316 256.501h.685v-.685l-.685.685zM257 134.065V.5h-.043C115.591.524 1 115.129 1 256.5h133.565v-75.211l75.211 75.211h46.54l.685-.685v-46.537l-75.213-75.213H257z" fill="#F0F0F0"/><path d="M130.515 33.89a257.211 257.211 0 00-96.124 96.125V256.5h66.783V100.674H257V33.891H130.515z" fill="#D80027"/><path d="M368.302 256.5l-69.193 69.193c12.968 25.011 39.076 42.111 69.193 42.111 30.117 0 56.225-17.1 69.193-42.111L368.302 256.5z" fill="#FFDA44"/><path d="M257.001 225.019l-90.955-90.953h-31.48v.002L256.999 256.5h.002v-31.481z" fill="#D80027"/><path d="M290.391 134.066v122.435c.001 59.639 77.913 77.913 77.913 77.913s77.912-18.274 77.913-77.913V134.066H290.391z" fill="#6DA544"/><path d="M351.609 189.719H385v89.043h-33.391v-89.043z" fill="#F0F0F0"/><path d="M368.305 206.412c9.221 0 16.696-7.476 16.696-16.696 0-9.221-7.475-16.696-16.696-16.696-9.221 0-16.696 7.475-16.696 16.696 0 9.22 7.475 16.696 16.696 16.696z" fill="#A2001D"/><path d="M312.652 156.324h22.261v22.261h-22.261v-22.261zm0 50.086h22.261v22.261h-22.261V206.41zm0 50.09h22.261v22.261h-22.261V256.5zm89.043-100.176h22.261v22.261h-22.261v-22.261zm0 50.086h22.261v22.261h-22.261V206.41zm0 50.09h22.261v22.261h-22.261V256.5z" fill="#FFDA44"/></g></svg>