<svg width="514" height="513" fill="none" xmlns="http://www.w3.org/2000/svg"><mask id="a" style="mask-type:luminance" maskUnits="userSpaceOnUse" x="1" y="0" width="512" height="513"><path d="M512.989.5H1v511.989h511.989V.5z" fill="#fff"/></mask><g mask="url(#a)"><path d="M256.996 512.453c141.361 0 255.957-114.596 255.957-255.957S398.357.539 256.996.539 1.039 115.135 1.039 256.496s114.596 255.957 255.957 255.957z" fill="#F0F0F0"/><path d="M35.328 128.516c-11.553 20.008-20.075 40.926-25.75 62.233L437.636 437.89c15.615-15.569 29.471-33.41 41.021-53.417L35.328 128.516z" fill="#000"/><path d="M384.971 34.829C282.555-24.3 156.275-4.593 76.348 75.099l428.058 247.139c29.053-109.062-17.021-228.279-119.435-287.409zM129.015 478.161c102.414 59.129 228.697 39.422 308.622-40.269L9.578 190.75C-19.472 299.815 26.6 419.032 129.015 478.161z" fill="#FFDA44"/><path d="M329.33 228.676c0 39.949-32.386 72.336-72.336 72.336-39.95 0-72.336-32.386-72.336-72.336 0-12.456 3.149-24.177 8.695-34.41-15.697 16.053-25.388 38.005-25.388 62.231 0 49.169 39.859 89.029 89.029 89.029 49.17 0 89.029-39.859 89.029-89.029 0-24.226-9.69-46.178-25.388-62.231 5.546 10.235 8.695 21.954 8.695 34.41z" fill="#D80027"/><path d="M240.305 145.211h33.386V312.14h-33.386V145.211z" fill="#D80027"/><path d="M312.637 178.598H201.352c0 7.683 6.693 13.911 14.375 13.911h-.464c0 7.683 6.229 13.911 13.911 13.911 0 7.683 6.229 13.911 13.911 13.911h27.821c7.683 0 13.911-6.228 13.911-13.911 7.683 0 13.911-6.228 13.911-13.911h-.463c7.68-.001 14.372-6.227 14.372-13.911zM179.098 323.27h155.8v33.386h-155.8V323.27z" fill="#D80027"/><path d="M290.383 334.398h66.771v33.386h-66.771v-33.386zm-133.543 0h66.771v33.386H156.84v-33.386z" fill="#D80027"/></g></svg>