<svg width="514" height="513" fill="none" xmlns="http://www.w3.org/2000/svg"><mask id="a" style="mask-type:luminance" maskUnits="userSpaceOnUse" x="1" y="0" width="512" height="513"><path d="M513 .5H1v512h512V.5z" fill="#fff"/></mask><g mask="url(#a)"><path d="M513 256.498c0-31.314-5.632-61.311-15.923-89.043L257 156.324l-240.077 11.13C6.633 195.187 1 225.184 1 256.498s5.633 61.311 15.923 89.043L257 356.672l240.077-11.13C507.368 317.809 513 287.812 513 256.498z" fill="#496E2D"/><path d="M256.999 512.5c110.071 0 203.906-69.472 240.077-166.957H16.922C53.092 443.028 146.928 512.5 256.999 512.5z" fill="#D80027"/><path d="M16.922 167.457h480.155C460.905 69.972 367.07.5 256.999.5S53.093 69.972 16.922 167.457z" fill="#F0F0F0"/></g></svg>