<svg width="514" height="513" fill="none" xmlns="http://www.w3.org/2000/svg"><mask id="a" style="mask-type:luminance" maskUnits="userSpaceOnUse" x="1" y="0" width="512" height="513"><path d="M513 .5H1v512h512V.5z" fill="#fff"/></mask><g mask="url(#a)"><path d="M1 256.5C1 115.116 115.616.5 257 .5c141.384 0 256 114.616 256 256-11.13 0-256 33.391-256 33.391L1 256.5z" fill="#D80027"/><path d="M513 256.5c0 141.384-114.616 256-256 256-141.384 0-256-114.616-256-256" fill="#6DA544"/><path d="M256.997 167.457l19.337 59.518h62.587l-50.632 36.786 19.338 59.522-50.63-36.785-50.631 36.785 19.341-59.522-50.633-36.786h62.584l19.339-59.518z" fill="#FFDA44"/></g></svg>