<svg width="514" height="513" fill="none" xmlns="http://www.w3.org/2000/svg"><mask id="a" style="mask-type:luminance" maskUnits="userSpaceOnUse" x="1" y="0" width="512" height="513"><path d="M513 .5H1v512h512V.5z" fill="#fff"/></mask><g mask="url(#a)"><path d="M257 512.5c141.385 0 256-114.615 256-256S398.385.5 257 .5 1 115.115 1 256.5s114.615 256 256 256z" fill="#F0F0F0"/><path d="M412.877 53.402c-91.652-70.526-220.1-70.526-311.752 0l155.876 155.875L412.877 53.402zM256.999 303.725L101.125 459.599c91.652 70.526 220.1 70.526 311.752 0L257.001 303.723l-.002.002z" fill="#D80027"/><path d="M209.777 256.501L53.902 100.625c-70.526 91.652-70.526 220.1 0 311.752l155.875-155.876zm94.446 0l155.874 155.876c70.526-91.652 70.526-220.1 0-311.752L304.223 256.501z" fill="#6DA544"/><path d="M256.999 367.803c61.472 0 111.304-49.832 111.304-111.304 0-61.471-49.832-111.304-111.304-111.304-61.471 0-111.304 49.833-111.304 111.304 0 61.472 49.833 111.304 111.304 111.304z" fill="#F0F0F0"/><path d="M256.999 178.586l9.639 16.696h19.279l-9.64 16.695 9.64 16.696h-19.279l-9.639 16.696-9.639-16.696h-19.278l9.639-16.696-9.639-16.695h19.278l9.639-16.696zM208.004 256.5l9.639 16.696h19.278l-9.639 16.695 9.639 16.696h-19.278l-9.639 16.696-9.64-16.696h-19.278l9.639-16.696-9.639-16.695h19.278l9.64-16.696zm97.992 0l9.639 16.696h19.278l-9.639 16.695 9.639 16.696h-19.278l-9.639 16.696-9.64-16.696h-19.278l9.639-16.696-9.639-16.695h19.278l9.64-16.696z" fill="#D80027"/></g></svg>