<svg width="514" height="513" fill="none" xmlns="http://www.w3.org/2000/svg"><mask id="a" style="mask-type:luminance" maskUnits="userSpaceOnUse" x="1" y="0" width="512" height="513"><path d="M513 .5H1v512h512V.5z" fill="#fff"/></mask><g mask="url(#a)"><path d="M1 256.501c0 44.35 11.283 86.064 31.127 122.435L257 401.197l224.873-22.261C501.717 342.565 513 300.851 513 256.501c0-44.35-11.283-86.064-31.127-122.435L257 111.805 32.127 134.066C12.283 170.437 1 212.151 1 256.501z" fill="#D80027"/><path d="M32.129 134.065h449.745C438.456 54.489 354.037.5 257.002.5 159.967.5 75.548 54.489 32.129 134.065zm224.873 378.434c97.035 0 181.454-53.989 224.873-133.565H32.129c43.419 79.576 127.838 133.565 224.873 133.565z" fill="#0052B4"/><path d="M346.042 306.587v-33.391h-22.26v-44.522l-22.261-22.261-22.261 22.261v-44.522l-22.261-22.261-22.261 22.261v44.522l-22.261-22.261-22.261 22.261v44.522h-22.26v33.391h-22.261v33.391h222.608v-33.391h-22.261z" fill="#F0F0F0"/></g></svg>