<svg width="514" height="513" fill="none" xmlns="http://www.w3.org/2000/svg"><mask id="a" style="mask-type:luminance" maskUnits="userSpaceOnUse" x="1" y="0" width="512" height="513"><path d="M513 .5H1v512h512V.5z" fill="#fff"/></mask><g mask="url(#a)"><path d="M257 512.5c141.385 0 256-114.615 256-256S398.385.5 257 .5 1 115.115 1 256.5s114.615 256 256 256z" fill="#F0F0F0"/><path d="M513.001 256.5c0-101.494-59.065-189.19-144.696-230.598v461.195C453.936 445.69 513.001 357.994 513.001 256.5zM1 256.5c0 101.494 59.065 189.19 144.696 230.598V25.902C60.065 67.31 1 155.006 1 256.5zm300.522 33.39l44.521-22.261-22.26-11.13v-22.261l-44.522 22.261 22.261-44.522h-22.261L257 178.586l-22.261 33.391h-22.261l22.261 44.522-44.522-22.261v22.261l-22.26 11.13 44.521 22.261-11.13 22.261h44.522v33.391h22.26v-33.391h44.522l-11.13-22.261z" fill="#D80027"/></g></svg>