<svg width="514" height="513" fill="none" xmlns="http://www.w3.org/2000/svg"><mask id="a" style="mask-type:luminance" maskUnits="userSpaceOnUse" x="1" y="0" width="512" height="513"><path d="M513 .5H1v512h512V.5z" fill="#fff"/></mask><g mask="url(#a)"><path d="M256.998.5c-31.314 0-61.311 5.633-89.043 15.923L156.824 256.5l11.13 240.077c27.733 10.291 57.73 15.923 89.044 15.923s61.311-5.632 89.043-15.923L357.172 256.5l-11.13-240.077C318.309 6.133 288.312.5 256.998.5z" fill="#338AF3"/><path d="M513 256.499c0-110.071-69.472-203.906-166.957-240.077v480.155C443.528 460.405 513 366.57 513 256.499z" fill="#FFDA44"/><path d="M167.957 496.576V16.422C70.472 52.592 1 146.428 1 256.499s69.472 203.906 166.957 240.077z" fill="#F0F0F0"/></g></svg>