<svg width="514" height="513" fill="none" xmlns="http://www.w3.org/2000/svg"><mask id="a" style="mask-type:luminance" maskUnits="userSpaceOnUse" x="1" y="0" width="512" height="513"><path d="M513 .5H1v512h512V.5z" fill="#fff"/></mask><g mask="url(#a)"><path d="M257 512.5c141.385 0 256-114.615 256-256S398.385.5 257 .5 1 115.115 1 256.5s114.615 256 256 256z" fill="#F0F0F0"/><path d="M256.999 512.5c77.591 0 147.114-34.524 194.061-89.043H62.937C109.885 477.976 179.409 512.5 257 512.5zM513 256.5C513 115.116 398.384.5 257 .5 115.616.5 1 115.116 1 256.5c0 23.107 3.08 45.489 8.819 66.783h494.363C509.92 301.989 513 279.607 513 256.5z" fill="#0052B4"/><path d="M21.348 356.676a254.959 254.959 0 0017.227 33.391h436.852a255.576 255.576 0 0017.227-33.391H21.348z" fill="#D80027"/><path d="M183.988 273.195l4.144 12.754h13.411l-10.849 7.883 4.144 12.754-10.85-7.883-10.85 7.883 4.145-12.754-10.849-7.883h13.411l4.143-12.754zm0 166.957l4.144 12.755h13.411l-10.849 7.882 4.144 12.754-10.85-7.882-10.85 7.882 4.145-12.754-10.849-7.882h13.411l4.143-12.755zm-77.715-56.464l4.144 12.752h13.411l-10.849 7.883 4.144 12.755-10.85-7.883-10.85 7.883 4.146-12.755-10.85-7.883h13.41l4.144-12.752zm29.684-93.797l4.144 12.755h13.41l-10.848 7.882 4.144 12.755-10.85-7.883-10.85 7.883 4.146-12.755-10.851-7.882h13.411l4.144-12.755zm-47.238 52.525l13.408.001 4.145-12.757 4.145 12.756 13.411-.001-10.85 7.883 4.145 12.755-10.851-7.883-10.85 7.88 4.145-12.753-10.848-7.881zm36.39 111.993l4.144-12.752-10.851-7.882h13.411l4.145-12.755 4.145 12.754h13.41l-10.85 7.882 4.144 12.756-10.85-7.884-10.848 7.881zm136.566-70.721l-4.143 12.752h-13.411l10.848 7.883-4.144 12.755 10.85-7.883 10.85 7.883-4.145-12.755 10.85-7.883h-13.411l-4.144-12.752zm-29.683-93.797l-4.144 12.755h-13.41l10.847 7.882-4.144 12.755 10.851-7.883 10.848 7.883-4.143-12.755 10.849-7.882h-13.412l-4.142-12.755zm47.238 52.525l-13.409.001-4.145-12.757-4.144 12.756-13.411-.001 10.849 7.883-4.145 12.755 10.851-7.883 10.849 7.88-4.144-12.753 10.849-7.881zm-36.389 111.993l-4.142-12.752 10.849-7.882h-13.412l-4.144-12.755-4.144 12.754h-13.41l10.849 7.882-4.144 12.756 10.849-7.884 10.849 7.881z" fill="#FFDA44"/></g></svg>