<svg width="514" height="513" fill="none" xmlns="http://www.w3.org/2000/svg"><mask id="a" style="mask-type:luminance" maskUnits="userSpaceOnUse" x="1" y="0" width="512" height="513"><path d="M513 .5H1v512h512V.5z" fill="#fff"/></mask><g mask="url(#a)"><path d="M513 256.5c0 141.384-114.616 256-256 256-141.384 0-256-114.616-256-256C1 256.561 257 .528 257 .5c141.384 0 256 114.616 256 256z" fill="#0052B4"/><path d="M256.316 256.501h.685v-.685l-.685.685zM257 134.065V.5h-.043C115.591.524 1 115.129 1 256.5h133.565v-75.211l75.211 75.211h46.54l.685-.685v-46.537l-75.213-75.213H257z" fill="#F0F0F0"/><path d="M368.303 189.72c24.589 0 44.522-19.933 44.522-44.522s-19.933-44.522-44.522-44.522-44.522 19.933-44.522 44.522 19.933 44.522 44.522 44.522z" fill="#6DA544"/><path d="M130.515 33.89a257.211 257.211 0 00-96.124 96.125V256.5h66.783V100.674H257V33.891H130.515z" fill="#D80027"/><path d="M257.001 225.019l-90.955-90.953h-31.48v.002L256.999 256.5h.002v-31.481zm33.39-90.953h155.826v66.783H290.391v-66.783z" fill="#D80027"/><path d="M290.391 301.023v44.522h23.424c14.045 13.764 33.27 22.261 54.489 22.261 21.219 0 40.444-8.497 54.489-22.261h23.424v-44.522H290.391z" fill="#FFDA44"/><path d="M290.391 189.719v66.783c0 59.639 77.913 77.913 77.913 77.913s77.913-18.274 77.913-77.913v-66.783H290.391z" fill="#338AF3"/><path d="M368.299 225.391c-19.477 0-19.477 17.809-38.954 17.809s-19.477-17.809-38.954-17.809v31.165c19.477 0 19.477 17.809 38.954 17.809s19.477-17.809 38.954-17.809c19.479 0 19.479 17.809 38.959 17.809 19.48 0 19.479-17.809 38.959-17.809v-31.165c-19.479 0-19.479 17.809-38.959 17.809-19.48 0-19.48-17.809-38.959-17.809zm0-62.387c-19.477 0-19.477 17.809-38.954 17.809s-19.477-17.809-38.954-17.809v31.165c19.477 0 19.477 17.809 38.954 17.809s19.477-17.809 38.954-17.809c19.479 0 19.479 17.809 38.959 17.809 19.48 0 19.479-17.809 38.959-17.809v-31.165c-19.479 0-19.479 17.809-38.959 17.809-19.48 0-19.48-17.809-38.959-17.809z" fill="#F3F3F3"/></g></svg>