<svg width="514" height="513" fill="none" xmlns="http://www.w3.org/2000/svg"><mask id="a" style="mask-type:luminance" maskUnits="userSpaceOnUse" x="1" y="0" width="512" height="513"><path d="M513 .5H1v512h512V.5z" fill="#fff"/></mask><g mask="url(#a)"><path d="M257 512.5c141.385 0 256-114.615 256-256S398.385.5 257 .5 1 115.115 1 256.5s114.615 256 256 256z" fill="#F0F0F0"/><path d="M481.876 134.065c-33.08-60.63-89.963-106.398-158.09-124.76l-11.13 124.76h169.22zm-449.747 0h169.22l-11.13-124.76c-68.127 18.362-125.01 64.132-158.09 124.76z" fill="#0052B4"/><path d="M312.652 256.5v122.435h169.22C501.717 342.564 513 300.85 513 256.5H312.652zm-111.304 0H1c0 44.35 11.283 86.064 31.127 122.435h169.22V256.5h.001z" fill="#6DA544"/><path d="M32.129 378.934c33.08 60.629 89.963 106.398 158.09 124.76l11.13-109.109-169.22-15.651zm291.657 124.76c68.127-18.362 125.01-64.131 158.09-124.76l-169.22 15.649 11.13 109.111zm-11.134-109.111l169.221-15.649H312.652v15.649zM201.35 378.934H32.129l169.221 15.649v-15.649z" fill="#FFDA44"/><path d="M257.002.5c-23.107 0-45.489 3.08-66.783 8.819v494.363c21.294 5.738 43.676 8.818 66.783 8.818s45.489-3.08 66.783-8.819V9.319C302.491 3.58 280.109.5 257.002.5z" fill="#D80027"/><path d="M138.697 56.152l6.906 21.257h22.353l-18.082 13.138 6.907 21.257-18.084-13.137-18.083 13.137 6.909-21.257-18.082-13.138h22.351l6.905-21.257z" fill="#FFDA44"/></g></svg>