<svg width="514" height="513" fill="none" xmlns="http://www.w3.org/2000/svg"><mask id="a" style="mask-type:luminance" maskUnits="userSpaceOnUse" x="1" y="0" width="512" height="513"><path d="M513 .5H1v512h512V.5z" fill="#fff"/></mask><g mask="url(#a)"><path d="M257 512.5c141.385 0 256-114.615 256-256S398.385.5 257 .5 1 115.115 1 256.5s114.615 256 256 256z" fill="#F0F0F0"/><path d="M257 .5C186.307.5 122.307 29.154 75.98 75.48L257 256.5V.5zM1 256.5c0 70.693 28.654 134.693 74.98 181.02L257 256.5H1zm256 256c70.693 0 134.693-28.654 181.02-74.98L257 256.5v256zm256-256c0-70.693-28.654-134.693-74.98-181.02L257 256.5h256z" fill="#000"/><path d="M167.957 178.587L257 189.72l89.043-11.133v-53.426l-35.617 17.809L257 89.543l-53.426 53.427-35.617-17.809v53.426z" fill="#FFDA44"/><path d="M257 390.066c-49.099 0-89.043-39.945-89.043-89.043v-89.039l33.391-33.394h111.304l33.391 33.394v89.039c0 49.098-39.944 89.043-89.043 89.043z" fill="#D80027"/><path d="M257 356.674c-30.687 0-55.652-24.966-55.652-55.652V211.98h111.304v89.041c0 30.687-24.965 55.653-55.652 55.653z" fill="#F0F0F0"/><path d="M167.957 178.586h33.391v33.391h-33.391v-33.391zm144.695 0h33.391v33.391h-33.391v-33.391zm0 72.348h33.391v33.391h-33.391v-33.391zm-144.695 0h33.391v33.391h-33.391v-33.391zm89.044 105.737c-5.816 0-11.423-.9-16.696-2.562v34.361a89.03 89.03 0 0016.696 1.593 89.03 89.03 0 0016.696-1.593v-34.361a55.476 55.476 0 01-16.696 2.562zm-54.908-46.616l-26.648 26.648a89.353 89.353 0 0019.314 27.908l23.6-23.6c-8.422-8.137-14.289-18.897-16.266-30.956zm136.465 26.652l-26.648-26.648c-1.978 12.058-7.844 22.817-16.265 30.957l23.6 23.6a89.4 89.4 0 0019.313-27.909z" fill="#FFDA44"/><path d="M245.867 230.531v18.55c0 6.146 4.983 11.13 11.13 11.13 6.147 0 11.13-4.984 11.13-11.13v-18.55h-22.26zm0 74.203v18.55c0 6.146 4.983 11.13 11.13 11.13 6.147 0 11.13-4.984 11.13-11.13v-18.55h-22.26zm33.391-37.101v18.552c0 6.146 4.983 11.13 11.13 11.13 6.147 0 11.13-4.984 11.13-11.13v-18.552h-22.26zm-33.391 0v18.552c0 6.146 4.983 11.13 11.13 11.13 6.147 0 11.13-4.984 11.13-11.13v-18.552h-22.26zm-33.39 0v18.552c0 6.146 4.983 11.13 11.13 11.13 6.147 0 11.13-4.984 11.13-11.13v-18.552h-22.26z" fill="#0052B4"/></g></svg>