<svg width="514" height="513" fill="none" xmlns="http://www.w3.org/2000/svg"><mask id="a" style="mask-type:luminance" maskUnits="userSpaceOnUse" x="1" y="0" width="512" height="513"><path d="M513 .5H1v512h512V.5z" fill="#fff"/></mask><g mask="url(#a)"><path d="M257 512.5c141.385 0 256-114.615 256-256S398.385.5 257 .5 1 115.115 1 256.5s114.615 256 256 256z" fill="#F0F0F0"/><path d="M513 256.501c0 141.384-114.616 256-256 256-141.384 0-256-114.616-256-256 0-141.384 256 0 256 0h256z" fill="#D80027"/><path d="M1 256.5C1 115.116 115.616.5 257 .5v256H1z" fill="#0052B4"/><path d="M153.388 89.543l16.577 51.018h53.643l-43.398 31.53 16.576 51.018-43.398-31.531-43.398 31.531 16.576-51.018-43.398-31.53h53.643l16.577-51.018z" fill="#F0F0F0"/></g></svg>