<svg width="514" height="513" fill="none" xmlns="http://www.w3.org/2000/svg"><mask id="a" style="mask-type:luminance" maskUnits="userSpaceOnUse" x="1" y="0" width="512" height="513"><path d="M513 .5H1v512h512V.5z" fill="#fff"/></mask><g mask="url(#a)"><path d="M257 512.5c141.385 0 256-114.615 256-256S398.385.5 257 .5 1 115.115 1 256.5s114.615 256 256 256z" fill="#6DA544"/><path d="M393.982 367.805l7.025 14.689 15.864-3.666-7.104 14.651 12.757 10.116-15.884 3.58.045 16.283-12.703-10.187-12.702 10.187.044-16.283-15.883-3.58 12.757-10.116-7.104-14.651 15.863 3.666 7.025-14.689zM328.631 211.98l7.026 14.689 15.864-3.667-7.105 14.652 12.757 10.116-15.883 3.58.044 16.282-12.703-10.186-12.702 10.186.043-16.282-15.882-3.58 12.757-10.116-7.105-14.652 15.865 3.667 7.024-14.689zm65.354-89.042l7.025 14.688 15.864-3.669-7.103 14.653 12.756 10.117-15.884 3.58.043 16.282-12.701-10.188-12.702 10.188.044-16.282-15.882-3.58 12.756-10.117-7.104-14.653 15.863 3.669 7.025-14.688zm57.083 66.781l7.025 14.689 15.865-3.667-7.105 14.652 12.757 10.116-15.883 3.58.044 16.283-12.703-10.187-12.702 10.187.043-16.283-15.882-3.58 12.757-10.116-7.105-14.652 15.864 3.667 7.025-14.689zm-40.818 77.914l5.527 17.007h17.881l-14.467 10.51 5.527 17.005-14.468-10.509-14.465 10.509 5.525-17.005-14.466-10.51h17.881l5.525-17.007z" fill="#FFDA44"/><path d="M284.827 328.849c-39.957 0-72.349-32.392-72.349-72.348 0-39.956 32.391-72.348 72.349-72.348 12.458 0 24.181 3.151 34.415 8.696-16.055-15.702-38.01-25.392-62.243-25.392-49.176 0-89.042 39.866-89.042 89.043 0 49.177 39.866 89.043 89.042 89.043 24.232 0 46.188-9.69 62.242-25.392-10.233 5.547-21.956 8.698-34.414 8.698zM161.985 100.675c-7.7-13.304-22.075-22.26-38.551-22.26-16.476 0-30.851 8.956-38.551 22.26h77.102zm.149.259l-38.699 38.699-38.699-38.699a44.301 44.301 0 00-5.822 22.004c0 24.589 19.933 44.522 44.522 44.522s44.522-19.932 44.522-44.522a44.313 44.313 0 00-5.824-22.004z" fill="#FFDA44"/><path d="M112.305 128.5v37.554a44.627 44.627 0 0011.13 1.402c3.843 0 7.573-.488 11.13-1.402V128.5h-22.26z" fill="#A2001D"/></g></svg>