<svg width="514" height="513" fill="none" xmlns="http://www.w3.org/2000/svg"><mask id="a" style="mask-type:luminance" maskUnits="userSpaceOnUse" x="1" y="0" width="512" height="513"><path d="M513 .5H1v512h512V.5z" fill="#fff"/></mask><g mask="url(#a)"><path d="M1 256.5C1 115.116 115.616.5 257 .5c141.384 0 256 114.616 256 256l-256 22.261L1 256.5z" fill="#FFDA44"/><path d="M35.258 384.501c44.265 76.516 126.989 128 221.744 128s177.479-51.484 221.744-128l-221.744-16.696-221.744 16.696z" fill="#D80027"/><path d="M478.744 384.5C500.526 346.846 513 303.131 513 256.5H1c0 46.631 12.474 90.346 34.256 128h443.488z" fill="#0052B4"/></g></svg>