<svg width="514" height="513" fill="none" xmlns="http://www.w3.org/2000/svg"><mask id="a" style="mask-type:luminance" maskUnits="userSpaceOnUse" x="1" y="0" width="512" height="513"><path d="M513 .5H1v512h512V.5z" fill="#fff"/></mask><g mask="url(#a)"><path d="M257 512.5c141.385 0 256-114.615 256-256S398.385.5 257 .5 1 115.115 1 256.5s114.615 256 256 256z" fill="#F0F0F0"/><path d="M512.992 255.758h-277.51c-55.097 55.098-88.415 97.635-122.435 131.655l144.696 13.04 224.534-22.261c19.595-36.195 30.724-77.644 30.724-121.693 0-.248-.009-.493-.009-.741z" fill="#D80027"/><path d="M113.046 133.324h368.412C437.92 54.156 353.73.5 256.999.5 186.494.5 122.658 29.011 76.363 75.124l36.683 58.2z" fill="#FFDA44"/><path d="M124.176 378.191c-23.014 23.014-31.908 42.296-48.559 58.946 46.355 46.547 110.5 75.361 181.382 75.361 97.336 0 181.98-54.325 225.277-134.307h-358.1z" fill="#0052B4"/><path d="M75.98 74.738c-99.974 99.974-99.974 262.065 0 362.04L257 255.758 75.98 74.738z" fill="#6DA544"/><path d="M68.525 255.761c0-37.298 26.213-68.457 61.217-76.101a78.151 78.151 0 00-16.696-1.812c-43.031 0-77.913 34.882-77.913 77.913s34.882 77.913 77.913 77.913c5.733 0 11.315-.637 16.696-1.812-35.004-7.645-61.217-38.803-61.217-76.101z" fill="#F0F0F0"/><path d="M128.883 188.977l4.145 12.754h13.41l-10.85 7.883 4.145 12.754-10.85-7.882-10.85 7.882 4.145-12.754-10.85-7.883h13.41l4.145-12.754z" fill="#F0F0F0"/><path d="M128.883 222.367l4.145 12.755h13.41l-10.85 7.882 4.145 12.755-10.85-7.883-10.85 7.883 4.145-12.755-10.85-7.882h13.41l4.145-12.755zm0 33.395l4.145 12.754h13.41l-10.85 7.883 4.145 12.754-10.85-7.883-10.85 7.883 4.145-12.754-10.85-7.883h13.41l4.145-12.754z" fill="#F0F0F0"/><path d="M128.883 289.152l4.145 12.754h13.41l-10.85 7.883 4.145 12.754-10.85-7.882-10.85 7.882 4.145-12.754-10.85-7.883h13.41l4.145-12.754z" fill="#F0F0F0"/></g></svg>