<svg width="514" height="513" fill="none" xmlns="http://www.w3.org/2000/svg"><mask id="a" style="mask-type:luminance" maskUnits="userSpaceOnUse" x="1" y="0" width="512" height="513"><path d="M513 .5H1v512h512V.5z" fill="#fff"/></mask><g mask="url(#a)"><path d="M513 256.5c0 141.384-114.616 256-256 256-141.384 0-256-114.616-256-256C1 256.561 257 .528 257 .5c141.384 0 256 114.616 256 256z" fill="#0052B4"/><path d="M256.316 256.501h.685v-.685l-.685.685zM257 134.065V.5h-.043C115.591.524 1 115.129 1 256.5h133.565v-75.211l75.211 75.211h46.54l.685-.685v-46.537l-75.213-75.213H257z" fill="#F0F0F0"/><path d="M130.515 33.89a257.211 257.211 0 00-96.124 96.125V256.5h66.783V100.674H257V33.891H130.515z" fill="#D80027"/><path d="M257.001 225.019l-90.955-90.953h-31.48v.002L256.999 256.5h.002v-31.481z" fill="#D80027"/><path d="M346.041 256.5l4.738 14.576h15.325l-12.398 9.008 4.736 14.577-12.401-9.009-12.399 9.009 4.736-14.577-12.398-9.008h15.325l4.736-14.576zm-62.962 26.079l13.655 6.957 10.838-10.837-2.398 15.138 13.656 6.958-15.138 2.396-2.397 15.14-6.959-13.657-15.137 2.398 10.839-10.837-6.959-13.656zM257 345.544l14.576-4.736.002-15.324 9.006 12.397 14.577-4.737-9.009 12.4 9.009 12.401-14.577-4.736-9.006 12.398v-15.325L257 345.544zm26.079 62.961l6.957-13.656-10.837-10.836 15.138 2.397 6.958-13.656 2.397 15.138 15.138 2.396-13.656 6.959 2.398 15.139-10.838-10.84-13.655 6.959zm62.963 26.082l-4.736-14.577H325.98l12.399-9.008-4.736-14.576 12.399 9.008 12.401-9.008-4.736 14.576 12.398 9.008H350.78l-4.738 14.577zm62.963-26.082l-13.656-6.956-10.836 10.837 2.397-15.139-13.656-6.957 15.138-2.398 2.398-15.138 6.957 13.656 15.138-2.397-10.839 10.837 6.959 13.655zm26.082-62.961l-14.577 4.738v15.325l-9.008-12.399-14.576 4.737 9.009-12.401-9.009-12.4 14.576 4.737 9.008-12.397v15.324l14.577 4.736zm-26.082-62.961l-6.956 13.655 10.836 10.837-15.138-2.398-6.957 13.657-2.398-15.14-15.138-2.397 13.656-6.957-2.397-15.137 10.837 10.836 13.655-6.956z" fill="#F0F0F0"/></g></svg>