<svg width="514" height="513" fill="none" xmlns="http://www.w3.org/2000/svg"><mask id="a" style="mask-type:luminance" maskUnits="userSpaceOnUse" x="1" y="0" width="512" height="513"><path d="M513 .5H1v512h512V.5z" fill="#fff"/></mask><g mask="url(#a)"><path d="M257 512.5c141.385 0 256-114.615 256-256S398.385.5 257 .5 1 115.115 1 256.5s114.615 256 256 256z" fill="#FCFCFC"/><path d="M346.135 217.332c0-54.144-43.892-98.035-98.035-98.035-39.954 0-74.301 23.91-89.573 58.194l-12.091 43.835 11.13 11.13-22.261 44.522 22.261 11.13-11.13 11.13v11.13l11.13 11.13v22.261l11.13 11.13 33.391-11.13s0 11.13 11.13 22.261c11.13 11.13 22.262 33.392 22.262 33.392s33.391 11.13 55.652-22.261c22.261-33.391 44.522-44.522 44.522-44.522l-21.456-42.914c19.622-17.923 31.938-43.71 31.938-72.383z" fill="#000"/><path d="M354.127 254.824c45.229-7.629 52.763-96.195 52.763-96.195h-62.33c32.278 77.913-1.507 83.154-1.507 83.154-4.577-3.405-168.375-81.001-173.567-82.974-1.251 1.674-5.856 6.071-11.454 19.761-5.599 13.69-6.973 26.006-6.973 26.006 2.622 1.709 176.575 62.45 181.173 62.956 9.125 5.966 20.353 23.807 14.078 76.705l59.994-16.908c.002 0-20.359-54.163-52.177-72.505z" fill="#ACABB1"/></g></svg>