<svg width="514" height="513" fill="none" xmlns="http://www.w3.org/2000/svg"><mask id="a" style="mask-type:luminance" maskUnits="userSpaceOnUse" x="1" y="0" width="512" height="513"><path d="M513 .5H1v512h512V.5z" fill="#fff"/></mask><g mask="url(#a)"><path d="M257 512.5c141.385 0 256-114.615 256-256S398.385.5 257 .5 1 115.115 1 256.5s114.615 256 256 256z" fill="#F0F0F0"/><path d="M381.196 32.612C344.412 12.164 302.07.5 257 .5 115.626.5 1.018 115.098 1 256.47l178.087-89.013L381.196 32.612zM1 256.531c.018 141.372 114.626 255.97 256 255.97 45.07 0 87.412-11.662 124.196-32.112L179.087 345.544 1 256.531z" fill="#0052B4"/><path d="M402.53 45.883a256.293 256.293 0 00-21.343-13.266L1 256.471v.06l380.188 223.853a256.723 256.723 0 0021.343-13.266L44.822 256.501 402.53 45.883z" fill="#D80027"/><path d="M446.219 246.954h-30.494c7.929-9.52 7.44-23.683-1.493-32.614 9.462-9.461 9.462-24.8 0-34.263l-.57.571c9.461-9.461 10.032-25.374.57-34.836L277.176 282.869c9.462 9.464 24.534 9.35 33.995-.112l2.638-2.411 65.628-5.966v28.226h22.261v-30.25l33.391-3.035 11.13-22.367z" fill="#A2001D"/><path d="M279.269 312.152L257 301.022l22.269-11.131h144.695v22.261H279.269z" fill="#FFDA44"/></g></svg>