<svg width="514" height="513" fill="none" xmlns="http://www.w3.org/2000/svg"><mask id="a" style="mask-type:luminance" maskUnits="userSpaceOnUse" x="1" y="0" width="512" height="513"><path d="M513 .5H1v512h512V.5z" fill="#fff"/></mask><g mask="url(#a)"><path d="M257 512.5c141.385 0 256-114.615 256-256S398.385.5 257 .5 1 115.115 1 256.5s114.615 256 256 256z" fill="#F0F0F0"/><path d="M497.077 167.457H16.923C6.633 195.19 1 225.186 1 256.5c0 31.314 5.633 61.31 15.923 89.043h480.155C507.368 317.81 513 287.814 513 256.5c0-31.314-5.632-61.31-15.923-89.043z" fill="#D80027"/><path d="M256.999.5C179.408.5 109.884 35.024 62.937 89.543H451.06C404.113 35.024 334.59.5 256.999.5zM451.06 423.457H62.937C109.885 477.976 179.409 512.5 257 512.5s147.114-34.524 194.061-89.043z" fill="#0052B4"/></g></svg>