<svg width="514" height="513" fill="none" xmlns="http://www.w3.org/2000/svg"><mask id="a" style="mask-type:luminance" maskUnits="userSpaceOnUse" x="1" y="0" width="512" height="513"><path d="M513 .5H1v512h512V.5z" fill="#fff"/></mask><g mask="url(#a)"><path d="M513 256.498c0-31.314-5.633-61.311-15.923-89.043L257 156.324l-240.077 11.13C6.633 195.187 1 225.184 1 256.498s5.633 61.311 15.923 89.043L257 356.672l240.077-11.13c10.29-27.733 15.923-57.73 15.923-89.044z" fill="#F0F0F0"/><path d="M256.999 512.5c110.071 0 203.906-69.472 240.077-166.957H16.922C53.092 443.028 146.928 512.5 256.999 512.5z" fill="#0052B4"/><path d="M16.922 167.457h480.155C460.905 69.972 367.07.5 256.999.5S53.093 69.972 16.922 167.457z" fill="#D80027"/><path d="M323.784 178.59h-44.522l7.421-55.653 29.68-22.261 29.681 22.261v44.522l-22.26 11.131zm-133.567 0h44.522l-7.421-55.653-29.681-22.261-29.68 22.261v44.522l22.26 11.131z" fill="#338AF3"/><path d="M286.68 178.59h-59.364v-55.653l29.682-22.261 29.682 22.261v55.653z" fill="#0052B4"/><path d="M167.957 167.457v122.434c0 29.153 14.082 55.079 35.802 71.332l15.583-3.899 19.664 19.782a89.098 89.098 0 0017.995 1.829c6.13 0 12.117-.623 17.901-1.809l22.447-18.69 12.892 2.751c21.711-16.252 35.803-42.151 35.803-71.296V167.457H167.957z" fill="#F0F0F0"/><path d="M167.957 167.457h35.617v35.617h-35.617v-35.617zm71.234 0h35.617v35.617h-35.617v-35.617zm71.235 0h35.617v35.617h-35.617v-35.617zm-106.852 35.617h35.617v35.617h-35.617v-35.617zm71.235 0h35.617v35.617h-35.617v-35.617zM167.957 238.68h35.617v35.617h-35.617V238.68zm35.617 35.617h35.617v35.617h-35.617v-35.617zm35.617-35.617h35.617v35.617h-35.617V238.68zm71.235 0h35.617v35.617h-35.617V238.68zm-35.617 35.617h35.617v35.617h-35.617v-35.617zm-35.618 35.617h35.617v35.617h-35.617v-35.617zm-35.618.004h-33.319c3.056 13.24 9.064 25.355 17.302 35.617h16.017v-35.617zm106.853 35.617h16.016a88.75 88.75 0 0017.302-35.617h-33.318v35.617zm-106.852 0v15.541c10.359 7.795 22.465 13.384 35.617 16.066v-31.607h-35.617zm71.235 0v31.607c13.153-2.68 25.258-8.271 35.617-16.066v-15.541h-35.617z" fill="#D80027"/></g></svg>