<svg width="514" height="513" fill="none" xmlns="http://www.w3.org/2000/svg"><mask id="a" style="mask-type:luminance" maskUnits="userSpaceOnUse" x="1" y="0" width="512" height="513"><path d="M513 .5H1v512h512V.5z" fill="#fff"/></mask><g mask="url(#a)"><path d="M256.999 512.498c141.384 0 255.999-114.615 255.999-255.999C512.998 115.115 398.383.5 256.999.5 115.615.5 1 115.115 1 256.499c0 141.384 114.615 255.999 255.999 255.999z" fill="#F0F0F0"/><path d="M256.999.504c-83.752 0-158.107 40.223-204.812 102.4H461.81C415.105 40.726 340.75.504 256.999.504zm0 511.998c83.752 0 158.106-40.223 204.811-102.4H52.187c46.704 62.178 121.06 102.4 204.812 102.4zM1 256.505a257.1 257.1 0 005.127 51.2h501.747a257.1 257.1 0 005.126-51.2c0-17.535-1.768-34.657-5.126-51.2H6.127A257.1 257.1 0 001 256.505z" fill="#0052B4"/><path d="M75.98 75.48c-99.973 99.973-99.973 262.064 0 362.039L256.999 256.5 75.979 75.48z" fill="#D80027"/><path d="M104.61 189.719l16.574 51.015h53.646l-43.397 31.532 16.574 51.016-43.397-31.53-43.4 31.53 16.579-51.016-43.398-31.532h53.642l16.577-51.015z" fill="#F0F0F0"/></g></svg>