<svg width="514" height="513" fill="none" xmlns="http://www.w3.org/2000/svg"><mask id="a" style="mask-type:luminance" maskUnits="userSpaceOnUse" x="1" y="0" width="512" height="513"><path d="M513 .5H1v512h512V.5z" fill="#fff"/></mask><g mask="url(#a)"><path d="M257 512.5c141.385 0 256-114.615 256-256S398.385.5 257 .5 1 115.115 1 256.5s114.615 256 256 256z" fill="#FFDA44"/><path d="M256.999 512.5c84 0 158.549-40.458 205.229-102.949H51.769C98.45 472.042 173 512.5 257 512.5zM513 256.5C513 115.116 398.384.5 257 .5 115.616.5 1 115.116 1 256.5c0 30.273 5.269 59.312 14.916 86.269h482.167C507.731 315.812 513 286.773 513 256.5z" fill="#0052B4"/><path d="M176.222 164.684l13.813 42.512h44.704l-36.165 26.278 13.813 42.514-36.165-26.276-36.165 26.276 13.815-42.514-36.165-26.278h44.702l13.813-42.512zM99.456 120.16l8.288 25.508h26.823l-21.699 15.766 8.288 25.509-21.7-15.766-21.7 15.766 8.29-25.509-21.698-15.766H91.17l8.286-25.508z" fill="#F0F0F0"/></g></svg>