<svg width="514" height="513" fill="none" xmlns="http://www.w3.org/2000/svg"><mask id="a" style="mask-type:luminance" maskUnits="userSpaceOnUse" x="1" y="0" width="512" height="513"><path d="M513 .5H1v512h512V.5z" fill="#fff"/></mask><g mask="url(#a)"><path d="M257 512.5c141.385 0 256-114.615 256-256S398.385.5 257 .5 1 115.115 1 256.5s114.615 256 256 256z" fill="#FCFCFC"/><path d="M401.695 223.109h-33.391c0 61.472-49.834 111.304-111.304 111.304-61.473 0-111.304-49.832-111.304-111.304h-33.391c0 66.215 44.476 122.042 105.186 139.235-6.656 12.644-5.642 28.563 3.866 40.428 12.488-10.009 25.417-20.37 36.385-29.158l36.385 29.158c9.602-11.983 10.547-28.104 3.67-40.809 60.045-17.615 103.898-73.11 103.898-138.854z" fill="#6DA544"/><path d="M167.957 211.979s0 55.652 55.652 55.652l11.13 11.13H257s11.13-33.391 33.391-33.391c0 0 0-22.261 22.261-22.261h33.391s-11.13-44.522 44.522-77.913l-22.261-11.13s-77.913 55.652-133.565 44.522v22.261h-22.261l-11.13-11.13-33.391 22.26z" fill="#FFDA44"/></g></svg>