<svg width="514" height="513" fill="none" xmlns="http://www.w3.org/2000/svg"><mask id="a" style="mask-type:luminance" maskUnits="userSpaceOnUse" x="1" y="0" width="512" height="513"><path d="M513 .5H1v512h512V.5z" fill="#fff"/></mask><g mask="url(#a)"><path d="M484.576 139.115c-11.829-22.919-27.334-44.431-46.546-63.643-19.213-19.213-40.726-34.718-63.644-46.546L194.037 193.532 29.43 373.881c11.829 22.919 27.334 44.432 46.546 63.644 19.212 19.212 40.725 34.717 63.643 46.546l180.349-164.607 164.608-180.349z" fill="#FFDA44"/><path d="M75.975 437.528a257.612 257.612 0 0034.217 28.75l356.584-356.586a257.444 257.444 0 00-28.748-34.217 257.605 257.605 0 00-34.217-28.748L47.227 403.31a257.517 257.517 0 0028.748 34.217z" fill="#D80027"/><path d="M75.974 75.472c-80.767 80.767-96.272 202.065-46.546 298.41L374.384 28.927C278.038-20.798 156.74-5.291 75.974 75.472zm362.052 362.054c80.766-80.766 96.27-202.064 46.547-298.409L139.617 484.072c96.345 49.725 217.644 34.221 298.409-46.546z" fill="#338AF3"/><path d="M137.426 78.406l13.814 42.517h44.704l-36.166 26.276 13.814 42.516-36.166-26.277-36.168 26.277 13.816-42.516-36.168-26.276h44.704l13.816-42.517z" fill="#FFDA44"/></g></svg>