<svg width="514" height="513" fill="none" xmlns="http://www.w3.org/2000/svg"><mask id="a" style="mask-type:luminance" maskUnits="userSpaceOnUse" x="1" y="0" width="512" height="513"><path d="M513 .5H1v512h512V.5z" fill="#fff"/></mask><g mask="url(#a)"><path d="M234.739 278.761S76.131 75.445 75.981 75.481C122.306 29.154 186.306.5 257 .5c141.384 0 256 114.616 256 256l-278.261 22.261z" fill="#338AF3"/><path d="M234.739 256.5S76.131 437.555 75.981 437.519C122.306 483.846 186.306 512.5 257 512.5c141.384 0 256-114.616 256-256H234.739z" fill="#6DA544"/><path d="M75.98 75.48c-99.974 99.974-99.974 262.065 0 362.04L257 256.5 75.98 75.48z" fill="#F0F0F0"/><path d="M104.61 189.719l16.575 51.016h53.646l-43.398 31.532 16.574 51.018-43.397-31.531-43.4 31.531 16.579-51.018-43.398-31.532h53.642l16.577-51.016z" fill="#D80027"/></g></svg>