<svg width="514" height="513" fill="none" xmlns="http://www.w3.org/2000/svg"><mask id="a" style="mask-type:luminance" maskUnits="userSpaceOnUse" x="1" y="0" width="512" height="513"><path d="M513 .5H1v512h512V.5z" fill="#fff"/></mask><g mask="url(#a)"><path d="M257 512.5c141.385 0 256-114.615 256-256S398.385.5 257 .5 1 115.115 1 256.5s114.615 256 256 256z" fill="#F0F0F0"/><path d="M307.09 507.59c101.203-20.076 180.924-99.798 201-201h-201v201zm-301.176-201c20.075 101.202 99.797 180.924 201 201v-201h-201zM508.09 206.414c-20.076-101.202-99.797-180.924-201-201v201h201zm-301.176-201c-101.203 20.076-180.925 99.798-201 201h201v-201z" fill="#496E2D"/><path d="M240.305 306.59h-33.391v201a256.317 256.317 0 0033.391 4.356V306.59zm0-100.175V1.059a256.123 256.123 0 00-33.391 4.356v201h33.391z" fill="#FFDA44"/><path d="M273.697 1.057A258.625 258.625 0 00257.001.5c-5.611 0-11.174.2-16.696.557v205.357h33.391l.001-205.357zm-33.392 510.885c5.522.357 11.085.557 16.696.557 5.611 0 11.174-.2 16.696-.557V306.586h-33.391l-.001 205.356z" fill="#000"/><path d="M206.915 239.805v-33.391h-201a255.996 255.996 0 00-4.356 33.391h205.356zm100.175 0h205.357a256.167 256.167 0 00-4.356-33.391h-201v33.391h-.001z" fill="#FFDA44"/><path d="M307.086 273.197h205.357c.356-5.521.556-11.085.556-16.696 0-5.611-.2-11.175-.557-16.696H307.086v33.392zM1.557 239.805A259.321 259.321 0 001 256.501c0 5.611.201 11.175.557 16.696h205.357v-33.391l-205.357-.001z" fill="#000"/><path d="M257.001 378.936c67.619 0 122.435-54.816 122.435-122.435S324.62 134.066 257.001 134.066s-122.435 54.816-122.435 122.435 54.816 122.435 122.435 122.435z" fill="#D80027"/><path d="M284.895 270.16c-9.107-18.213-20.944-36.673-20.944-36.673s.294-8.405.294-13.413c0-7.544-6.116-13.66-13.66-13.66-7.147 0-13.003 5.491-13.6 12.482-5.62.367-10.067 5.029-10.067 10.741 0 4.153 2.353 7.752 5.797 9.551a15.518 15.518 0 019.21-8.555 13.826 13.826 0 002.177 1.466l1.75.838s-6.489 18.291-6.489 28.117c0 27.624 18.214 36.143 18.214 36.143v.285l-9.107 9.106h18.213v-18.214l9.107 9.107c.08-.171 17.25-11.03 9.105-27.321zm-27.892-113.836l4.144 12.754h13.41l-10.849 7.883 4.145 12.754-10.85-7.882-10.85 7.882 4.145-12.754-10.849-7.883h13.41l4.144-12.754zm-58.883 19.134l10.848 7.883 10.85-7.884-4.144 12.756 10.85 7.881-13.411.001-4.144 12.754-4.145-12.754-13.41-.001 10.849-7.883-4.143-12.753zm-36.39 50.085h13.409l4.145-12.754 4.144 12.754 13.411-.001-10.849 7.884 4.145 12.754-10.851-7.883-10.849 7.882 4.143-12.754-10.848-7.882zm0 61.909l10.848-7.881-4.144-12.755 10.85 7.883 10.85-7.883-4.144 12.754 10.85 7.883-13.412.001-4.144 12.753-4.145-12.755H161.73zm36.391 50.086l4.143-12.752-10.85-7.883h13.411l4.145-12.755 4.144 12.754h13.411l-10.85 7.884 4.144 12.753-10.85-7.883-10.848 7.882zm58.882 19.134l-4.144-12.752h-13.41l10.849-7.884-4.145-12.754 10.85 7.881 10.849-7.882-4.144 12.755 10.849 7.883-13.41.001-4.144 12.752zm58.878-19.134l-10.848-7.882-10.849 7.884 4.143-12.754-10.85-7.883 13.411-.001 4.143-12.754 4.146 12.755h13.41l-10.849 7.883 4.143 12.752zm36.393-50.087h-13.409l-4.145 12.755-4.144-12.753h-13.412l10.85-7.884-4.145-12.753 10.851 7.882 10.848-7.882-4.142 12.754 10.848 7.881zm0-61.909l-10.848 7.882 4.143 12.754-10.849-7.882-10.85 7.884 4.144-12.755-10.85-7.882 13.412-.002 4.143-12.752 4.146 12.753h13.409zm-36.393-50.085l-4.143 12.753 10.849 7.883h-13.41l-4.144 12.755-4.145-12.754-13.411.001 10.85-7.885-4.144-12.752 10.85 7.881 10.848-7.882z" fill="#496E2D"/></g></svg>