<svg width="514" height="513" fill="none" xmlns="http://www.w3.org/2000/svg"><mask id="a" style="mask-type:luminance" maskUnits="userSpaceOnUse" x="1" y="0" width="512" height="513"><path d="M513 .5H1v512h512V.5z" fill="#fff"/></mask><g mask="url(#a)"><path d="M145.695 487.098c33.656 16.274 71.413 25.402 111.304 25.402 39.891 0 77.648-9.128 111.304-25.402L390.564 256.5 368.303 25.902C334.647 9.628 296.89.5 256.999.5c-39.891 0-77.648 9.128-111.304 25.402L123.434 256.5l22.261 230.598z" fill="#FFDA44"/><path d="M368.305 487.088c85.631-41.406 144.696-129.096 144.696-230.589S453.936 67.316 368.305 25.91v461.178z" fill="#D80027"/><path d="M145.696 487.088V25.91C60.065 67.316 1 155.005 1 256.5s59.065 189.183 144.696 230.589z" fill="#0052B4"/><path d="M257 345.543V256.5h66.783v33.391c0 5.801-11.13 27.057-38.603 44.522-10.405 6.616-21.176 8.744-28.18 11.13z" fill="#D80027"/><path d="M190.219 189.719h66.783v66.783h-66.783v-66.783z" fill="#D80027"/><path d="M290.391 167.456c0-12.295-9.967-22.261-22.261-22.261-4.06 0-7.854 1.104-11.13 3.002a22.128 22.128 0 00-11.13-3.002c-12.294 0-22.261 9.966-22.261 22.261h-55.652v111.303c0 41.436 32.906 65.399 58.711 77.821a22.137 22.137 0 00-3.059 11.224c0 12.295 9.967 22.261 22.261 22.261 4.06 0 7.854-1.104 11.13-3.002a22.128 22.128 0 0011.13 3.002c12.294 0 22.261-9.966 22.261-22.261 0-4.099-1.128-7.926-3.06-11.224 25.805-12.422 58.712-36.384 58.712-77.821V167.456h-55.652zm22.261 111.303c0 5.801 0 23.452-27.472 40.918-10.406 6.616-21.176 10.906-28.18 13.291-7.004-2.385-17.774-6.675-28.18-13.291-27.472-17.466-27.472-35.117-27.472-40.918v-77.912h111.304v77.912z" fill="#FF9811"/></g></svg>