<svg width="514" height="513" fill="none" xmlns="http://www.w3.org/2000/svg"><mask id="a" style="mask-type:luminance" maskUnits="userSpaceOnUse" x="1" y="0" width="512" height="513"><path d="M513 .5H1v512h512V.5z" fill="#fff"/></mask><g mask="url(#a)"><path d="M257 512.5c141.385 0 256-114.615 256-256S398.385.5 257 .5 1 115.115 1 256.5s114.615 256 256 256z" fill="#F0F0F0"/><path d="M9.82 323.281c23.638 87.703 92.695 156.761 180.399 180.399V323.281H9.82z" fill="#D80027"/><path d="M190.218 9.32C102.515 32.957 33.458 102.015 9.82 189.718h180.4L190.218 9.32z" fill="#0052B4"/><path d="M504.179 189.718C480.542 102.015 411.484 32.958 323.781 9.32v180.4l180.398-.001z" fill="#D80027"/><path d="M323.781 503.68c87.703-23.638 156.761-92.695 180.399-180.399H323.781V503.68z" fill="#0052B4"/><path d="M323.785 256.502c0 36.884-29.899 66.783-66.783 66.783-36.883 0-66.783-29.899-66.783-66.783s66.783-66.783 66.783-66.783 66.783 29.899 66.783 66.783z" fill="#496E2D"/><path d="M190.219 256.502c0-36.884 29.9-66.783 66.783-66.783 36.884 0 66.783 29.899 66.783 66.783" fill="#0052B4"/><path d="M219.434 223.109v41.739c0 20.747 16.818 37.565 37.565 37.565 20.747 0 37.565-16.818 37.565-37.565v-41.739h-75.13z" fill="#D80027"/></g></svg>