<svg width="514" height="513" fill="none" xmlns="http://www.w3.org/2000/svg"><mask id="a" style="mask-type:luminance" maskUnits="userSpaceOnUse" x="1" y="0" width="512" height="513"><path d="M513 .5H1v512h512V.5z" fill="#fff"/></mask><g mask="url(#a)"><path d="M257 512.5c141.385 0 256-114.615 256-256S398.385.5 257 .5 1 115.115 1 256.5s114.615 256 256 256z" fill="#FFDA44"/><path d="M256.999.5C194.322.5 136.916 23.037 92.414 60.434L368.303 256.5 92.414 452.566C136.916 489.963 194.322 512.5 257 512.5c141.384 0 256-114.616 256-256C513 115.116 398.384.5 257 .5z" fill="#D80027"/><path d="M75.98 75.48c-99.974 99.974-99.974 262.065 0 362.04L257 256.5 75.98 75.48z" fill="#000"/><path d="M71.978 197.855l38.96 36.872 47.108-25.664-23.025 48.45 38.961 36.873-53.194-6.928-23.028 48.449-9.847-52.732-53.194-6.93 47.106-25.661-9.847-52.729z" fill="#F0F0F0"/></g></svg>