<svg width="514" height="513" fill="none" xmlns="http://www.w3.org/2000/svg"><mask id="a" style="mask-type:luminance" maskUnits="userSpaceOnUse" x="1" y="0" width="512" height="513"><path d="M513 .5H1v512h512V.5z" fill="#fff"/></mask><g mask="url(#a)"><path d="M1 256.5C1 115.116 115.616.5 257 .5c141.384 0 256 114.616 256 256l-256 22.261L1 256.5z" fill="#FFDA44"/><path d="M35.258 384.501c44.265 76.516 126.989 128 221.744 128s177.479-51.484 221.744-128l-221.744-16.696-221.744 16.696z" fill="#D80027"/><path d="M478.744 384.5C500.526 346.846 513 303.131 513 256.5H1c0 46.631 12.474 90.346 34.256 128h443.488z" fill="#0052B4"/><path d="M257 345.543c49.177 0 89.043-39.866 89.043-89.043 0-49.177-39.866-89.043-89.043-89.043-49.177 0-89.043 39.866-89.043 89.043 0 49.177 39.866 89.043 89.043 89.043z" fill="#FFDA44"/><path d="M257 312.152c-30.687 0-55.652-24.966-55.652-55.652v-33.391c0-30.687 24.966-55.652 55.652-55.652s55.652 24.966 55.652 55.652V256.5c0 30.687-24.965 55.652-55.652 55.652z" fill="#338AF3"/><path d="M346.041 122.937h-66.783c0-12.294-9.967-22.261-22.261-22.261-12.294 0-22.261 9.967-22.261 22.261h-66.783c0 12.295 10.709 22.261 23.002 22.261h-.741c0 12.295 9.966 22.261 22.261 22.261 0 12.295 9.966 22.261 22.261 22.261h44.522c12.295 0 22.261-9.966 22.261-22.261 12.295 0 22.261-9.966 22.261-22.261h-.741c12.294 0 23.002-9.967 23.002-22.261z" fill="#000"/></g></svg>