<svg width="514" height="513" fill="none" xmlns="http://www.w3.org/2000/svg"><mask id="a" style="mask-type:luminance" maskUnits="userSpaceOnUse" x="1" y="0" width="512" height="513"><path d="M513 .5H1v512h512V.5z" fill="#fff"/></mask><g mask="url(#a)"><path d="M257 512.5c141.385 0 256-114.615 256-256S398.385.5 257 .5 1 115.115 1 256.5s114.615 256 256 256z" fill="#F0F0F0"/><path d="M257 .5C155.506.5 67.81 59.565 26.402 145.196h461.195C446.19 59.565 358.493.5 257 .5zm0 512.001c101.493 0 189.19-59.065 230.598-144.696H26.402C67.81 453.436 155.506 512.501 257 512.501z" fill="#0052B4"/><path d="M205.59 267.629L257 178.586l51.41 89.043H205.59z" fill="#FFDA44"/><path d="M323.785 297.033l-66.783 33.392-66.783-33.392v-44.521h133.566v44.521z" fill="#6DA544"/><path d="M319.962 182.406l-23.611 23.611c10.071 10.071 16.301 23.984 16.301 39.352 0 30.736-24.917 55.652-55.652 55.652s-55.652-24.917-55.652-55.652c0-15.368 6.23-29.281 16.301-39.352l-23.611-23.611c-16.115 16.112-26.081 38.373-26.081 62.963 0 49.178 39.866 89.043 89.043 89.043 49.177 0 89.043-39.866 89.043-89.043-.001-24.59-9.967-46.851-26.081-62.963z" fill="#FFDA44"/></g></svg>