<svg width="514" height="513" fill="none" xmlns="http://www.w3.org/2000/svg"><mask id="a" style="mask-type:luminance" maskUnits="userSpaceOnUse" x="1" y="0" width="512" height="513"><path d="M513 .5H1v512h512V.5z" fill="#fff"/></mask><g mask="url(#a)"><path d="M257 512.5c141.385 0 256-114.615 256-256S398.385.5 257 .5 1 115.115 1 256.5s114.615 256 256 256z" fill="#F0F0F0"/><path d="M156.825 167.457h340.25C460.905 69.972 367.069.5 256.999.5c-70.694 0-134.687 28.659-181.01 74.989l80.836 91.968z" fill="#6DA544"/><path d="M156.825 345.543h340.25C460.905 443.028 367.069 512.5 256.999 512.5c-70.694 0-134.687-28.659-181.01-74.989l80.836-91.968z" fill="#D80027"/><path d="M75.98 75.48c-99.974 99.974-99.974 262.065 0 362.04L257 256.5 75.98 75.48z" fill="#0052B4"/><path d="M301.523 211.977v55.652c0 34.08 44.522 44.523 44.522 44.523s44.522-10.443 44.522-44.523v-55.652h-89.044z" fill="#DEDDE0"/><path d="M334.914 257.613h22.261v32.278h-22.261v-32.278z" fill="#786145"/><path d="M368.304 245.37c0-12.295-9.966-22.261-22.261-22.261s-22.261 9.966-22.261 22.261c-6.147 0-11.13 4.983-11.13 11.13 0 6.147 4.983 11.13 11.13 11.13h44.522c6.147 0 11.13-4.983 11.13-11.13 0-6.147-4.982-11.13-11.13-11.13z" fill="#6DA544"/></g></svg>