<svg width="514" height="513" fill="none" xmlns="http://www.w3.org/2000/svg"><mask id="a" style="mask-type:luminance" maskUnits="userSpaceOnUse" x="1" y="0" width="512" height="513"><path d="M513 .5H1v512h512V.5z" fill="#fff"/></mask><g mask="url(#a)"><path d="M234.739 234.238S76.131 437.555 75.981 437.518c46.325 46.327 110.326 74.981 181.019 74.981 141.384 0 256-114.616 256-256l-278.261-22.261z" fill="#338AF3"/><path d="M234.739 256.5S76.131 75.445 75.981 75.481C122.306 29.154 186.306.5 257 .5c141.384 0 256 114.616 256 256H234.739z" fill="#6DA544"/><path d="M75.98 75.48c-99.974 99.974-99.974 262.065 0 362.04C75.974 437.561 513 256.5 513 256.5L75.98 75.48z" fill="#D80027"/><path d="M134.566 150.762c-49.099 0-89.043 39.945-89.043 89.043v33.391c0 49.099 39.945 89.043 89.043 89.043 49.098 0 89.043-39.945 89.043-89.043v-33.391c.001-49.098-39.944-89.043-89.043-89.043zm55.652 122.435c0 24.872-16.402 45.981-38.957 53.09v-36.394l23.624-23.624-23.611-23.611-.013-8.403v-11.144h-33.39v33.39l-23.608 23.607 23.608 23.607v22.573c-22.555-7.109-38.957-28.218-38.957-53.09v-33.391c0-30.687 24.966-55.652 55.652-55.652s55.652 24.966 55.652 55.652v33.39z" fill="#FFDA44"/></g></svg>