<svg width="514" height="513" fill="none" xmlns="http://www.w3.org/2000/svg"><mask id="a" style="mask-type:luminance" maskUnits="userSpaceOnUse" x="1" y="0" width="512" height="513"><path d="M513 .5H1v512h512V.5z" fill="#fff"/></mask><g mask="url(#a)"><path d="M1 256.499c0 31.316 5.633 61.312 15.924 89.046L257 367.803l240.076-22.259C507.368 317.811 513 287.814 513 256.499c0-30.885-5.471-60.492-15.494-87.905L257 145.195l-240.506 23.4C6.471 196.007 1 225.614 1 256.499z" fill="#FFDA44"/><path d="M256.999 512.5c110.071 0 203.906-69.472 240.077-166.957H16.922C53.092 443.028 146.928 512.5 256.999 512.5z" fill="#D80027"/><path d="M256.999.5C146.928.5 53.093 69.972 16.922 167.457h480.155C460.905 69.972 367.07.5 256.999.5z" fill="#6DA544"/><path d="M257.001 378.936c67.619 0 122.435-54.816 122.435-122.435S324.62 134.066 257.001 134.066s-122.435 54.816-122.435 122.435 54.816 122.435 122.435 122.435z" fill="#0052B4"/><path d="M256.972 161.691l22.102 68.022h71.637l-57.978 42.041 22.276 68.224-58.037-42.241-57.948 42.163 22.186-68.146-57.925-42.041h71.585l22.102-68.022z" fill="#FFDA44"/><path d="M345.123 273.432l-70.116-22.784 43.333-59.64-18.008-13.086-43.335 59.644-43.331-59.643-18.01 13.084 43.332 59.645-70.113 22.779 6.878 21.173 70.116-22.781v73.722h22.26v-73.723l70.113 22.782 6.881-21.172z" fill="#FFDA44"/></g></svg>