<svg width="514" height="513" fill="none" xmlns="http://www.w3.org/2000/svg"><mask id="a" style="mask-type:luminance" maskUnits="userSpaceOnUse" x="1" y="0" width="512" height="513"><path d="M513 .5H1v512h512V.5z" fill="#fff"/></mask><g mask="url(#a)"><path d="M1 256.5C1 115.116 115.616.5 257 .5c141.384 0 256 114.616 256 256-11.13 0-256 33.391-256 33.391L1 256.5z" fill="#D80027"/><path d="M513 256.5c0 141.384-114.616 256-256 256-141.384 0-256-114.616-256-256" fill="#000"/><path d="M221.898 204.111l21.702 15.75-8.27 25.508 21.686-15.776 21.704 15.75-8.302-25.5 21.684-15.774-26.815.016-8.303-25.499-8.271 25.508-26.815.017z" fill="#FFDA44"/><path d="M320.999 145.649c-20.173-11.647-42.23-17.144-64-17.106v33.384a93.977 93.977 0 0147.304 12.641c45.178 26.084 60.713 84.06 34.628 129.238-26.083 45.178-84.058 60.713-129.237 34.629a93.982 93.982 0 01-31.619-29.824l-27.876 18.404c10.597 16.109 24.993 30.056 42.8 40.336 61.124 35.29 139.561 14.273 174.85-46.851 35.29-61.124 14.274-139.561-46.85-174.851z" fill="#FFDA44"/><path d="M183.188 234.238c-8.85 16.179-2.908 36.47 13.27 45.32l108.449 59.26c-7.375 13.481-3.458 29.89 10.023 37.265l29.295 16.025c13.481 7.376 30.392 2.424 37.767-11.058l16.025-29.294-214.829-117.518z" fill="#FFDA44"/></g></svg>