<svg width="514" height="513" fill="none" xmlns="http://www.w3.org/2000/svg"><mask id="a" style="mask-type:luminance" maskUnits="userSpaceOnUse" x="1" y="0" width="512" height="513"><path d="M513 .5H1v512h512V.5z" fill="#fff"/></mask><g mask="url(#a)"><path d="M257 512.5c141.385 0 256-114.615 256-256S398.385.5 257 .5 1 115.115 1 256.5s114.615 256 256 256z" fill="#0052B4"/><path d="M257.001 100.676l8.289 25.509h26.82l-21.699 15.765 8.289 25.509-21.699-15.766-21.7 15.766 8.289-25.509-21.699-15.765h26.821l8.289-25.509zm-110.187 45.639l23.9 12.176 18.965-18.964-4.197 26.49 23.899 12.177-26.491 4.196-4.196 26.492-12.177-23.899-26.49 4.197 18.965-18.965-12.178-23.9zm-45.638 110.186l25.509-8.289v-26.821l15.764 21.7 25.51-8.289-15.767 21.699 15.767 21.699-25.51-8.288-15.764 21.699V264.79l-25.509-8.289zm45.638 110.186l12.177-23.9-18.964-18.965 26.491 4.198 12.175-23.899 4.197 26.491 26.49 4.196-23.896 12.177 4.195 26.49-18.965-18.965-23.9 12.177zm110.187 45.641l-8.29-25.509h-26.82l21.7-15.765-8.29-25.507 21.7 15.764 21.699-15.764-8.289 25.507 21.699 15.765h-26.821l-8.288 25.509zm110.185-45.641l-23.899-12.176-18.966 18.965 4.197-26.492-23.897-12.176 26.49-4.196 4.196-26.491 12.176 23.899 26.49-4.198-18.965 18.967 12.178 23.898zm45.642-110.186l-25.509 8.289v26.821l-15.765-21.7-25.507 8.289 15.765-21.699-15.765-21.699 25.508 8.289 15.764-21.7v26.822l25.509 8.288zm-45.642-110.187l-12.177 23.9 18.965 18.965-26.492-4.198-12.175 23.899-4.196-26.491-26.49-4.197 23.897-12.176-4.197-26.489 18.967 18.964 23.898-12.177z" fill="#FFDA44"/></g></svg>