<svg width="514" height="513" fill="none" xmlns="http://www.w3.org/2000/svg"><mask id="a" style="mask-type:luminance" maskUnits="userSpaceOnUse" x="1" y="0" width="512" height="513"><path d="M513 .5H1v512h512V.5z" fill="#fff"/></mask><g mask="url(#a)"><path d="M513 256.5c0 141.384-114.616 256-256 256-141.384 0-256-114.616-256-256C1 256.561 257 .528 257 .5c141.384 0 256 114.616 256 256z" fill="#0052B4"/><path d="M256.316 256.501h.685v-.685l-.685.685zM257 134.065V.5h-.043C115.592.524 1 115.129 1 256.5h133.565v-75.211l75.212 75.211h46.539l.685-.685v-46.537l-75.213-75.213H257z" fill="#F0F0F0"/><path d="M130.515 33.89a257.218 257.218 0 00-96.124 96.125V256.5h66.783V100.674H257V33.891H130.515z" fill="#D80027"/><path d="M257 225.019l-90.953-90.953h-31.481v.002L256.998 256.5H257v-31.481z" fill="#D80027"/><path d="M412.826 301.023v11.13h-89.043v-11.13h-33.392v44.521h22.261v11.131h111.305v-11.131h22.26v-44.521h-33.391z" fill="#FFDA44"/><path d="M290.391 134.066v122.435c0 59.639 77.913 77.913 77.913 77.913s77.913-18.274 77.913-77.913V134.066H290.391z" fill="#338AF3"/><path d="M368.299 225.391c-19.477 0-19.477 17.809-38.954 17.809s-19.477-17.809-38.954-17.809v31.165c19.477 0 19.477 17.809 38.954 17.809s19.477-17.809 38.954-17.809c19.479 0 19.479 17.809 38.959 17.809 19.48 0 19.479-17.809 38.959-17.809v-31.165c-19.479 0-19.479 17.809-38.959 17.809-19.48 0-19.48-17.809-38.959-17.809zm0-62.387c-19.477 0-19.477 17.809-38.954 17.809s-19.477-17.809-38.954-17.809v31.165c19.477 0 19.477 17.809 38.954 17.809s19.477-17.809 38.954-17.809c19.479 0 19.479 17.809 38.959 17.809 19.48 0 19.479-17.809 38.959-17.809v-31.165c-19.479 0-19.479 17.809-38.959 17.809-19.48 0-19.48-17.809-38.959-17.809z" fill="#F3F3F3"/></g></svg>