<svg width="514" height="513" fill="none" xmlns="http://www.w3.org/2000/svg"><mask id="a" style="mask-type:luminance" maskUnits="userSpaceOnUse" x="1" y="0" width="512" height="513"><path d="M513 .5H1v512h512V.5z" fill="#fff"/></mask><g mask="url(#a)"><path d="M257 512.5c141.385 0 256-114.615 256-256S398.385.5 257 .5 1 115.115 1 256.5s114.615 256 256 256z" fill="#F0F0F0"/><path d="M501.871 256.499l8.959-33.391a255.712 255.712 0 00-6.647-33.391H234.74V1.473a255.355 255.355 0 00-33.391 5.12L156.827 33.89l-22.261-2.247a256.297 256.297 0 00-33.391 21.75v136.323H9.82a255.712 255.712 0 00-6.647 33.391l8.958 33.392-8.96 33.391a255.712 255.712 0 006.648 33.391h91.355v136.322a256.26 256.26 0 0033.391 21.751l33.391-2.247 33.391 27.296a255.745 255.745 0 0033.391 5.121V323.282H504.18a255.712 255.712 0 006.647-33.391l-8.956-33.392z" fill="#0052B4"/><path d="M510.833 223.11H201.349l-.001-216.524a254.256 254.256 0 00-66.783 25.042v191.481H3.167A258.556 258.556 0 001 256.501c0 11.317.744 22.461 2.167 33.391h131.398v191.481a254.258 254.258 0 0066.783 25.042V289.893h309.485A258.556 258.556 0 00513 256.501c0-11.317-.744-22.461-2.167-33.391z" fill="#D80027"/></g></svg>