<svg width="514" height="513" fill="none" xmlns="http://www.w3.org/2000/svg"><mask id="a" style="mask-type:luminance" maskUnits="userSpaceOnUse" x="1" y="0" width="512" height="513"><path d="M513 .5H1v512h512V.5z" fill="#fff"/></mask><g mask="url(#a)"><path d="M513 256.5c0 141.384-114.616 256-256 256-141.384 0-256-114.616-256-256C1 256.561 257 .528 257 .5c141.384 0 256 114.616 256 256z" fill="#338AF3"/><path d="M257 122.934v86.343l-89.043-86.343H257zM134.564 256.498h75.212l-75.212-100.174-11.13 77.913 11.13 22.261z" fill="#0052B4"/><path d="M256.316 256.501h.685v-.685l-.685.685z" fill="#F0F0F0"/><path d="M257 134.065V.5h-.043C115.592.524 1 115.129 1 256.5h133.565v-75.211l75.212 75.211h46.54l.685-.685v-46.537l-75.214-75.213H257z" fill="#F0F0F0"/><path d="M130.515 33.89a257.218 257.218 0 00-96.124 96.125V256.5h66.783V100.674H257V33.891H130.515z" fill="#D80027"/><path d="M257 225.019l-90.953-90.953h-31.481v.002L256.998 256.5H257v-31.481z" fill="#D80027"/><path d="M290.391 167.456v89.042c0 59.64 77.913 77.914 77.913 77.914s77.913-18.274 77.913-77.914v-89.042l-77.913-22.261-77.913 22.261z" fill="#F3F3F3"/><path d="M446.217 167.457v-33.391H290.391v33.391h66.781v66.784h-66.781v22.261l66.781.001V331c6.718 2.376 11.132 3.414 11.132 3.414s4.412-1.036 11.129-3.414v-74.498h66.784V234.24h-66.784v-66.784h66.784v.001z" fill="#D80027"/></g></svg>