<svg width="514" height="513" fill="none" xmlns="http://www.w3.org/2000/svg"><mask id="a" style="mask-type:luminance" maskUnits="userSpaceOnUse" x="1" y="0" width="512" height="513"><path d="M513 .5H1v512h512V.5z" fill="#fff"/></mask><g mask="url(#a)"><path d="M257 512.5c141.385 0 256-114.615 256-256S398.385.5 257 .5 1 115.115 1 256.5s114.615 256 256 256z" fill="#F0F0F0"/><path d="M510.833 223.11H201.349l-.001-216.524a254.256 254.256 0 00-66.783 25.042v191.48l-131.398.001A258.2 258.2 0 001 256.501c0 11.317.742 22.461 2.167 33.391h131.398v191.481a254.258 254.258 0 0066.783 25.042V289.893h309.485A258.556 258.556 0 00513 256.501c0-11.317-.744-22.461-2.167-33.391z" fill="#0052B4"/></g></svg>