<svg width="514" height="513" fill="none" xmlns="http://www.w3.org/2000/svg"><mask id="a" style="mask-type:luminance" maskUnits="userSpaceOnUse" x="1" y="0" width="512" height="513"><path d="M513 .5H1v512h512V.5z" fill="#fff"/></mask><g mask="url(#a)"><path d="M257 512.5c141.385 0 256-114.615 256-256S398.385.5 257 .5 1 115.115 1 256.5s114.615 256 256 256z" fill="#F0F0F0"/><path d="M513 256.499c0-110.071-69.472-203.906-166.957-240.077v480.155C443.528 460.405 513 366.57 513 256.499z" fill="#D80027"/><path d="M1 256.499C1 366.57 70.473 460.405 167.957 496.576V16.422C70.473 52.592 1 146.428 1 256.499z" fill="#0052B4"/></g></svg>