<svg width="514" height="513" fill="none" xmlns="http://www.w3.org/2000/svg"><mask id="a" style="mask-type:luminance" maskUnits="userSpaceOnUse" x="1" y="0" width="512" height="513"><path d="M513 .5H1v512h512V.5z" fill="#fff"/></mask><g mask="url(#a)"><path d="M257 512.5c141.385 0 256-114.615 256-256S398.385.5 257 .5 1 115.115 1 256.5s114.615 256 256 256z" fill="#F0F0F0"/><path d="M32.129 134.065h449.745C438.456 54.489 354.037.5 257.002.5 159.967.5 75.548 54.489 32.129 134.065zm224.873 378.434c97.035 0 181.454-53.989 224.873-133.565H32.129c43.419 79.576 127.838 133.565 224.873 133.565z" fill="#D80027"/><path d="M346.043 256.5c0 49.178-39.866 77.913-89.043 77.913-49.177 0-89.043-28.735-89.043-77.913s39.866-89.043 89.043-89.043c49.177 0 89.043 39.865 89.043 89.043z" fill="#FFDA44"/><path d="M346.043 256.5c0 49.178-39.866 89.043-89.043 89.043-49.177 0-89.043-39.865-89.043-89.043" fill="#0052B4"/><path d="M201.348 234.238h22.261v44.522h-22.261v-44.522zm89.043 0h22.261v44.522h-22.261v-44.522zm-44.52-33.39h22.261v77.913h-22.261v-77.913z" fill="#D80027"/></g></svg>