<svg width="514" height="513" fill="none" xmlns="http://www.w3.org/2000/svg"><mask id="a" style="mask-type:luminance" maskUnits="userSpaceOnUse" x="1" y="0" width="512" height="513"><path d="M513 .5H1v512h512V.5z" fill="#fff"/></mask><g mask="url(#a)"><path d="M497.077 345.542C507.368 317.81 513 287.813 513 256.499c0-31.314-5.632-61.309-15.923-89.043L257 145.195 16.923 167.456C6.633 195.19 1 225.185 1 256.499c0 31.314 5.633 61.311 15.923 89.043L257 367.803l240.077-22.261z" fill="#FFDA44"/><path d="M257 512.5c110.07 0 203.906-69.472 240.076-166.957H16.922C53.094 443.028 146.928 512.5 257 512.5z" fill="#0052B4"/><path d="M257 .5C146.928.5 53.094 69.972 16.922 167.457h480.155C460.906 69.972 367.07.5 257 .5z" fill="#6DA544"/></g></svg>