<svg width="514" height="513" fill="none" xmlns="http://www.w3.org/2000/svg"><mask id="a" style="mask-type:luminance" maskUnits="userSpaceOnUse" x="1" y="0" width="512" height="513"><path d="M513 .5H1v512h512V.5z" fill="#fff"/></mask><g mask="url(#a)"><path d="M257 512.5c141.385 0 256-114.615 256-256S398.385.5 257 .5 1 115.115 1 256.5s114.615 256 256 256z" fill="#F0F0F0"/><path d="M257 .5C151.165.5 60.337 64.726 21.348 156.326h471.305C453.664 64.726 362.835.5 257 .5z" fill="#A2001D"/><path d="M257 512.502c105.835 0 196.664-64.226 235.652-155.826H21.348C60.337 448.276 151.165 512.502 257 512.502z" fill="#496E2D"/><path d="M504.181 189.719H9.819C4.08 211.012 1 233.395 1 256.502s3.08 45.49 8.819 66.783h494.363c5.738-21.293 8.818-43.676 8.818-66.783s-3.08-45.49-8.819-66.783z" fill="#0052B4"/></g></svg>