<svg width="514" height="513" fill="none" xmlns="http://www.w3.org/2000/svg"><mask id="a" style="mask-type:luminance" maskUnits="userSpaceOnUse" x="1" y="0" width="512" height="513"><path d="M513 .5H1v512h512V.5z" fill="#fff"/></mask><g mask="url(#a)"><path d="M513 256.5c0 141.384-114.616 256-256 256-141.384 0-256-114.616-256-256C1 256.561 257 .528 257 .5c141.384 0 256 114.616 256 256z" fill="#0052B4"/><path d="M256.316 256.501h.685v-.685l-.685.685zM257 134.065V.5h-.043C115.591.524 1 115.129 1 256.5h133.565v-75.211l75.211 75.211h46.54l.685-.685v-46.537l-75.213-75.213H257z" fill="#F0F0F0"/><path d="M130.515 33.89a257.211 257.211 0 00-96.124 96.125V256.5h66.783V100.674H257V33.891H130.515z" fill="#D80027"/><path d="M257.001 225.019l-90.955-90.953h-31.48v.002L256.999 256.5h.002v-31.481z" fill="#D80027"/><path d="M433.939 293.973c7.361-10.128 12.278-22.496 12.278-37.474V145.195a55.398 55.398 0 01-33.391 11.13c-18.206 0-34.369-8.743-44.522-22.259-10.154 13.516-26.317 22.259-44.522 22.259a55.412 55.412 0 01-33.391-11.128v111.302c0 14.978 4.917 27.346 12.278 37.474h131.27z" fill="#F3F3F3"/><path d="M410.788 235.852c3.544-8.646 6.3-21.283 6.3-27.572 0-10.105-13.174-18.296-13.174-18.296s-13.174 8.191-13.174 18.296c0 6.29 2.757 18.927 6.299 27.572l-7.605 17.171a38.345 38.345 0 0014.481 2.828c5.125 0 10.01-1.011 14.481-2.828l-7.608-17.171zm-51.492-55.599c-9.256 1.254-21.579 5.189-27.025 8.333-8.751 5.053-9.259 20.556-9.259 20.556s13.682 7.313 22.432 2.261c5.448-3.145 15.012-11.849 20.725-19.241l18.676-2a38.411 38.411 0 00-4.792-13.952 38.391 38.391 0 00-9.689-11.128l-11.068 15.171zm-22.402 72.394c5.713 7.388 15.28 16.091 20.728 19.237 8.751 5.052 22.432-2.259 22.432-2.259s-.51-15.505-9.259-20.558c-5.449-3.145-17.77-7.076-27.028-8.328L332.7 225.566a38.415 38.415 0 00-9.688 11.125 38.44 38.44 0 00-4.793 13.955l18.675 2.001z" fill="#FF9811"/><path d="M299.914 289.895c20.788 33.355 68.389 44.52 68.389 44.52s47.6-11.165 68.389-44.52H299.914z" fill="#338AF3"/></g></svg>