<svg width="514" height="513" fill="none" xmlns="http://www.w3.org/2000/svg"><mask id="a" style="mask-type:luminance" maskUnits="userSpaceOnUse" x="1" y="0" width="512" height="513"><path d="M513 .5H1v512h512V.5z" fill="#fff"/></mask><g mask="url(#a)"><path d="M257 512.5c141.385 0 256-114.615 256-256S398.385.5 257 .5 1 115.115 1 256.5s114.615 256 256 256z" fill="#F0F0F0"/><path d="M510.833 223.109H290.392V2.667A258.556 258.556 0 00257 .5c-11.317 0-22.461.744-33.391 2.167v220.441H3.167A258.556 258.556 0 001 256.5c0 11.319.744 22.461 2.167 33.391h220.441v220.442a258.35 258.35 0 0066.783 0V289.892h220.442A258.533 258.533 0 00513 256.5c0-11.317-.744-22.461-2.167-33.391z" fill="#D80027"/><path d="M156.826 122.935V89.543h-33.391v33.392H90.043v33.391h33.392v33.391h33.391v-33.391h33.391v-33.391h-33.391zm233.737 0V89.543h-33.391v33.392h-33.391v33.391h33.391v33.391h33.391v-33.391h33.392v-33.391h-33.392zM156.826 356.672v-33.391h-33.391v33.391H90.043v33.391h33.392v33.392h33.391v-33.392h33.391v-33.391h-33.391zm233.737 0v-33.391h-33.391v33.391h-33.391v33.391h33.391v33.392h33.391v-33.392h33.392v-33.391h-33.392z" fill="#D80027"/></g></svg>