<svg width="514" height="513" fill="none" xmlns="http://www.w3.org/2000/svg"><mask id="a" style="mask-type:luminance" maskUnits="userSpaceOnUse" x="1" y="0" width="512" height="513"><path d="M513 .5H1v512h512V.5z" fill="#fff"/></mask><g mask="url(#a)"><path d="M16.922 345.541c36.17 97.484 130.006 166.957 240.077 166.957s203.906-69.473 240.077-166.957l-240.077-22.26-240.077 22.26z" fill="#FFDA44"/><path d="M256.999.5C146.928.5 53.093 69.972 16.922 167.457l240.077 22.26 240.077-22.261C460.905 69.972 367.07.5 256.999.5z" fill="#000"/><path d="M16.923 167.457C6.633 195.19 1 225.186 1 256.5c0 31.314 5.633 61.31 15.923 89.043h480.155C507.368 317.81 513 287.814 513 256.5c0-31.314-5.632-61.31-15.923-89.043H16.923z" fill="#D80027"/></g></svg>