<svg width="514" height="513" fill="none" xmlns="http://www.w3.org/2000/svg"><mask id="a" style="mask-type:luminance" maskUnits="userSpaceOnUse" x="1" y="0" width="512" height="513"><path d="M513 .5H1v512h512V.5z" fill="#fff"/></mask><g mask="url(#a)"><path d="M1 256.498c0 31.314 5.633 61.31 15.923 89.043L257 356.672l240.077-11.13C507.368 317.808 513 287.812 513 256.498s-5.632-61.31-15.923-89.043L257 156.324l-240.077 11.13C6.633 195.188 1 225.184 1 256.498z" fill="#FFDA44"/><path d="M256.999.5C146.928.5 53.093 69.972 16.922 167.457h480.155C460.905 69.972 367.07.5 256.999.5z" fill="#D80027"/><path d="M497.076 345.543H16.922C53.092 443.027 146.928 512.5 256.999 512.5s203.906-69.473 240.077-166.957z" fill="#496E2D"/><path d="M256.999 167.457l22.1 68.02h71.528l-57.863 42.043 22.1 68.023-57.865-42.04-57.865 42.04 22.104-68.023-57.863-42.043h71.524l22.1-68.02z" fill="#000"/></g></svg>