<svg width="514" height="513" fill="none" xmlns="http://www.w3.org/2000/svg"><mask id="a" style="mask-type:luminance" maskUnits="userSpaceOnUse" x="1" y="0" width="512" height="513"><path d="M513 .5H1v512h512V.5z" fill="#fff"/></mask><g mask="url(#a)"><path d="M257 512.5c141.385 0 256-114.615 256-256S398.385.5 257 .5 1 115.115 1 256.5s114.615 256 256 256z" fill="#F9F9F9"/><path d="M257 512.5c110.07 0 203.906-69.472 240.076-166.957H16.922C53.094 443.028 146.928 512.5 257 512.5zm100.175-300.52v-33.391h11.13v-22.261h-22.261v11.131h-22.26v-11.131h-22.261v22.261h11.13v33.391h-22.261v-77.911h11.131v-22.26h-22.261v11.128h-11.131v-11.128h-22.26v11.128H234.74v-11.128h-22.261v22.26h11.131v77.911h-22.261v-33.391h11.13v-22.261h-22.261v11.131h-22.26v-11.131h-22.261v22.261h11.13v33.391h-22.261v89.044h244.87V211.98h-22.261z" fill="#D80027"/><path d="M257.001 289.891c-18.441 0-33.391 14.95-33.391 33.391 0 14.536 9.294 26.9 22.261 31.484v46.43H212.48v44.522h55.652v-90.951c12.967-4.584 22.261-16.947 22.261-31.484-.001-18.441-14.951-33.392-33.392-33.392zm0 44.522c-6.147 0-11.13-4.984-11.13-11.13 0-6.147 4.983-11.13 11.13-11.13 6.147 0 11.13 4.983 11.13 11.13 0 6.146-4.983 11.13-11.13 11.13z" fill="#FFDA44"/></g></svg>