<svg width="514" height="513" fill="none" xmlns="http://www.w3.org/2000/svg"><mask id="a" style="mask-type:luminance" maskUnits="userSpaceOnUse" x="1" y="0" width="512" height="513"><path d="M513 .5H1v512h512V.5z" fill="#fff"/></mask><g mask="url(#a)"><path d="M257 512.5c141.385 0 256-114.615 256-256S398.385.5 257 .5 1 115.115 1 256.5s114.615 256 256 256z" fill="#F0F0F0"/><path d="M257 189.717h247.181a254.559 254.559 0 00-28.755-66.783H257v66.783zM97.643 456.849h318.713a257.293 257.293 0 0059.069-66.783H38.575a257.346 257.346 0 0059.068 66.783zm-7.6-394.411a257.251 257.251 0 00-51.469 60.495h51.47V62.437zM257 256.502v-66.783H156.826v66.783H90.043v-66.783H9.819C4.08 211.013 1 233.395 1 256.502s3.08 45.489 8.819 66.783h494.363c5.738-21.294 8.818-43.676 8.818-66.783H257z" fill="#338AF3"/><path d="M256.998.5c-35.549 0-69.404 7.253-100.174 20.348v102.087h100.174V56.152h159.357C372.624 21.324 317.247.5 256.998.5z" fill="#338AF3"/></g></svg>