<svg width="514" height="513" fill="none" xmlns="http://www.w3.org/2000/svg"><mask id="a" style="mask-type:luminance" maskUnits="userSpaceOnUse" x="1" y="0" width="512" height="513"><path d="M513 .5H1v512h512V.5z" fill="#fff"/></mask><g mask="url(#a)"><path d="M1 256.5C1 115.116 115.616.5 257 .5c141.384 0 256 114.616 256 256-11.13 0-256 33.391-256 33.391L1 256.5z" fill="#F0F0F0"/><path d="M513 256.5c0 141.384-114.616 256-256 256-141.384 0-256-114.616-256-256" fill="#D80027"/><path d="M179.087 378.936c67.619 0 122.435-54.816 122.435-122.435s-54.816-122.435-122.435-122.435S56.652 188.882 56.652 256.501s54.816 122.435 122.435 122.435z" fill="#F0F0F0"/><path d="M56.652 256.501c0-67.617 54.816-122.435 122.435-122.435 67.62 0 122.435 54.817 122.435 122.435" fill="#D80027"/></g></svg>