<svg width="514" height="513" fill="none" xmlns="http://www.w3.org/2000/svg"><mask id="a" style="mask-type:luminance" maskUnits="userSpaceOnUse" x="1" y="0" width="512" height="513"><path d="M513 .5H1v512h512V.5z" fill="#fff"/></mask><g mask="url(#a)"><path d="M257 512.5c141.385 0 256-114.615 256-256S398.385.5 257 .5 1 115.115 1 256.5s114.615 256 256 256z" fill="#FFDA44"/><path d="M112.715 45.022C153.8 16.936 203.478.5 257.002.5s103.202 16.436 144.287 44.522l-144.287 11.13-144.287-11.13z" fill="#A2001D"/><path d="M257 256.498l-16.338-16.338-4.338 7.771L257 256.498z" fill="#0052B4"/><path d="M75.98 75.48c-99.974 99.974-99.974 262.065 0 362.04L257 256.5 75.98 75.48zm362.04 0c99.974 99.974 99.974 262.065 0 362.04L257 256.5 438.02 75.48z" fill="#496E2D"/><path d="M257 345.543c49.177 0 89.043-39.866 89.043-89.043 0-49.177-39.866-89.043-89.043-89.043-49.177 0-89.043 39.866-89.043 89.043 0 49.177 39.866 89.043 89.043 89.043z" fill="#A2001D"/><path d="M257 167.457l19.959 61.429h64.598l-52.258 37.973 19.959 61.432L257 290.325l-52.26 37.966 19.963-61.432-52.258-37.973h64.594L257 167.457zM257 .5l-.086.002h.171L257 .5z" fill="#FFDA44"/><path d="M257.084.5h-.171C186.26.523 122.299 29.166 75.993 75.468h362.012C391.697 29.166 327.736.523 257.084.5zM75.992 437.531c46.326 46.319 110.32 74.967 181.005 74.967s134.679-28.648 181.005-74.967H75.992z" fill="#A2001D"/><path d="M257 28.324l4.145 12.754h13.41l-10.849 7.883 4.145 12.754L257 53.833l-10.849 7.882 4.145-12.754-10.851-7.883h13.41L257 28.324zm-62.078 0l4.145 12.754h13.41l-10.849 7.883 4.145 12.754-10.851-7.882-10.848 7.882 4.144-12.754-10.851-7.883h13.41l4.145-12.754zm124.156 0l4.145 12.754h13.41l-10.849 7.883 4.145 12.754-10.851-7.882-10.849 7.882 4.145-12.754-10.851-7.883h13.41l4.145-12.754zM257 451.281l4.145 12.754h13.41l-10.849 7.883 4.145 12.754L257 476.789l-10.849 7.883 4.145-12.754-10.851-7.883h13.41L257 451.281zm-62.078 0l4.145 12.754h13.41l-10.849 7.883 4.145 12.754-10.851-7.883-10.848 7.883 4.144-12.754-10.851-7.883h13.41l4.145-12.754zm124.156 0l4.145 12.754h13.41l-10.849 7.883 4.145 12.754-10.851-7.883-10.849 7.883 4.145-12.754-10.851-7.883h13.41l4.145-12.754zM79.003 252.271c6.575 10.389 3.485 24.14-6.904 30.716-10.388 6.576-24.14 3.486-30.716-6.903-11.905-18.808-5.002-49.525-5.002-49.525s30.716 6.903 42.622 25.712z" fill="#FFDA44"/><path d="M66.146 284.713c6.147 0 11.13-4.983 11.13-11.13 0-6.147-4.983-11.13-11.13-11.13-6.147 0-11.13 4.983-11.13 11.13 0 6.147 4.983 11.13 11.13 11.13z" fill="#A2001D"/></g></svg>