<svg width="514" height="513" fill="none" xmlns="http://www.w3.org/2000/svg"><mask id="a" style="mask-type:luminance" maskUnits="userSpaceOnUse" x="1" y="0" width="512" height="513"><path d="M513 .5H1v512h512V.5z" fill="#fff"/></mask><g mask="url(#a)"><path d="M112.715 467.98c41.084 28.085 90.764 44.522 144.287 44.522 53.523 0 103.202-16.437 144.287-44.522l-144.287-22.261-144.287 22.261zM401.289 45.022C360.204 16.937 310.525.5 257.002.5c-53.523 0-103.203 16.437-144.287 44.522l144.287 22.261 144.287-22.261z" fill="#D80027"/><path d="M513 256.501c0-84.71-50.716-169.78-111.713-211.478H112.713C45.27 91.127 1 168.641 1 256.501c0 87.863 44.27 165.374 111.713 211.478h288.574C468.731 421.875 513 344.364 513 256.501z" fill="#0052B4"/><path d="M242.511 418.096c-3.498-3-85.687-74.448-85.687-161.597 0-87.149 82.188-158.598 85.687-161.597l14.487-12.418 14.487 12.417c3.498 3 85.687 74.448 85.687 161.598 0 87.15-82.188 158.599-85.687 161.597l-14.487 12.418-14.487-12.418z" fill="#D80027"/><path d="M334.912 256.501c0-77.913-77.913-144.696-77.913-144.696s-77.913 66.785-77.913 144.696c0 23.835 7.297 46.624 17.419 66.783h120.988c10.122-20.159 17.419-42.948 17.419-66.783z" fill="#338AF3"/><path d="M334.912 256.5c0 23.835-7.297 46.624-17.419 66.783l-60.494 11.13-60.494-11.13c-10.122-20.158-17.419-42.948-17.419-66.783h155.826z" fill="#0052B4"/><path d="M257.002 401.194s37.528-32.177 60.494-77.913H196.508c22.966 45.736 60.494 77.913 60.494 77.913z" fill="#FFDA44"/><path d="M206.914 211.977h100.174l-50.087 50.087-50.087-50.087z" fill="#6DA544"/><path d="M240.305 245.371h33.391v100.174h-33.391V245.371z" fill="#A2001D"/></g></svg>