<svg width="514" height="513" fill="none" xmlns="http://www.w3.org/2000/svg"><mask id="a" style="mask-type:luminance" maskUnits="userSpaceOnUse" x="1" y="0" width="512" height="513"><path d="M513 .5H1v512h512V.5z" fill="#fff"/></mask><g mask="url(#a)"><path d="M257 512.5c141.385 0 256-114.615 256-256S398.385.5 257 .5 1 115.115 1 256.5s114.615 256 256 256z" fill="#F0F0F0"/><path d="M513.001 256.5c0-101.494-59.065-189.19-144.696-230.598v461.195C453.936 445.69 513.001 357.993 513.001 256.5zM1 256.5c0 101.493 59.065 189.19 144.696 230.598V25.902C60.065 67.31 1 155.006 1 256.5z" fill="#338AF3"/><path d="M323.899 299.789l-43.286-43.286 41.203-41.205-1.867-21.762-11.796-11.798-51.152 51.152-51.152-51.152-11.796 11.798-1.867 21.762 41.203 41.205-43.287 43.286 23.612 23.61 43.287-43.285 43.287 43.285 23.611-23.61z" fill="#ACABB1"/><path d="M319.963 193.535l-23.611 23.611c10.071 10.071 16.301 23.984 16.301 39.352 0 30.736-24.917 55.652-55.652 55.652s-55.653-24.916-55.653-55.652c0-15.368 6.23-29.281 16.301-39.352l-23.611-23.611c-16.115 16.112-26.081 38.373-26.081 62.963 0 49.178 39.866 89.043 89.043 89.043 49.177 0 89.043-39.866 89.043-89.043 0-24.589-9.966-46.85-26.08-62.963z" fill="#6DA544"/></g></svg>