<svg width="514" height="513" fill="none" xmlns="http://www.w3.org/2000/svg"><mask id="a" style="mask-type:luminance" maskUnits="userSpaceOnUse" x="1" y="0" width="512" height="513"><path d="M513 .5H1v512h512V.5z" fill="#fff"/></mask><g mask="url(#a)"><path d="M257 512.5c141.385 0 256-114.615 256-256S398.385.5 257 .5 1 115.115 1 256.5s114.615 256 256 256z" fill="#F0F0F0"/><path d="M510.833 223.109H290.392V2.667A258.556 258.556 0 00257 .5c-11.317 0-22.461.744-33.391 2.167v220.442H3.167A258.529 258.529 0 001 256.5c0 11.317.744 22.461 2.167 33.391h220.441v220.442a258.35 258.35 0 0066.783 0V289.892h220.442A258.556 258.556 0 00513 256.5c0-11.317-.744-22.461-2.167-33.391z" fill="#D80027"/><path d="M329.348 267.63l16.695 11.131v-44.522l-16.695 11.131H268.13v-61.218l11.131-16.695h-44.522l11.131 16.695v61.218h-61.218l-16.695-11.131v44.522l16.695-11.131h61.218v61.218l-11.131 16.695h44.522l-11.131-16.695V267.63h61.218z" fill="#FFDA44"/></g></svg>